<svg xmlns="http://www.w3.org/2000/svg" xmlns:xlink="http://www.w3.org/1999/xlink" viewBox="0 0 400 300" width="406" height="306" class="illustration styles_illustrationTablet__1DWOa"><defs><linearGradient id="linear-gradient" x1="145.31" y1="246.08" x2="181.62" y2="214.6" gradientUnits="userSpaceOnUse"><stop offset="0" stop-color="#fff" stop-opacity="0"></stop><stop offset="1" stop-color="#f15a24"></stop></linearGradient><linearGradient id="linear-gradient-2" x1="286.77" y1="218.31" x2="323.16" y2="186.77" xlink:href="#linear-gradient"></linearGradient><linearGradient id="linear-gradient-3" x1="228.38" y1="188.17" x2="241.52" y2="156.86" xlink:href="#linear-gradient"></linearGradient></defs><title>191-200</title><g style="isolation: isolate;"><g id="Layer_2" data-name="Layer 2"><path d="M201.18,284.52l149.75-84a7.16,7.16,0,0,0,.27-12.32L206,98.21a7.16,7.16,0,0,0-7.36-.11L40.26,190a7.16,7.16,0,0,0,0,12.38l141.25,82A19.84,19.84,0,0,0,201.18,284.52Z" fill="#ffd49c"></path><polyline points="192.61 225.15 140.67 253.97 129.91 239.35 177.79 214.48" opacity="0.32" fill="url(#linear-gradient)" style="mix-blend-mode: multiply;"></polyline><polyline points="334.06 197.39 282.13 226.21 271.37 211.59 322.74 184.15" opacity="0.32" fill="url(#linear-gradient-2)" style="mix-blend-mode: multiply;"></polyline><polyline points="303.84 184.38 251.91 213.2 165.96 160.9 201.01 123.25" opacity="0.32" fill="url(#linear-gradient-3)" style="mix-blend-mode: multiply;"></polyline><polyline points="259.96 175.36 259.76 205.72 262.85 207.29 264.52 201.75 264.52 181.2 264.52 176.47" fill="#edefdf"></polyline><polygon points="266.18 179.64 266.18 205.37 262.85 207.29 262.85 176.47 266.18 179.64" fill="#fefffa"></polygon><polyline points="297.62 154.29 297.43 184.64 300.51 186.22 302.18 180.67 302.18 160.12 302.18 155.39" fill="#edefdf"></polyline><polygon points="303.84 158.56 303.84 184.29 300.51 186.22 300.51 155.39 303.84 158.56" fill="#fefffa"></polygon><polygon points="215.79 106.65 303.84 157.76 266.18 179.64 177.79 128.75 215.79 106.65" fill="#fefffa"></polygon><polyline points="177.79 128.75 177.79 124.87 183.76 127.63 183.25 129.41" fill="#fefffa"></polyline><polyline points="303.84 157.76 303.84 153.87 298.99 155.16 301.42 157.43" fill="#fefffa"></polyline><polygon points="215.79 102.77 303.84 153.87 266.18 175.76 177.79 124.87 215.79 102.77" fill="#fefffa"></polygon><polygon points="215.79 102.77 303.84 153.87 266.18 175.76 177.79 124.87 215.79 102.77" fill="#78a9f8"></polygon><polyline points="177.79 124.87 177.79 120.98 183.76 123.75 183.25 125.52" fill="#78a9f8"></polyline><polyline points="303.84 153.87 303.84 149.99 298.99 151.28 301.42 153.54" fill="#78a9f8"></polyline><polygon points="215.79 98.89 303.84 149.99 266.18 171.87 177.79 120.98 215.79 98.89" fill="#aecfff"></polygon><polyline points="177.77 127.18 177.57 157.54 180.66 159.11 182.32 153.57 182.32 133.02 182.32 128.29" fill="#edefdf"></polyline><polygon points="183.99 131.46 183.99 157.19 180.66 159.11 180.66 128.29 183.99 131.46" fill="#fefffa"></polygon><polygon points="261.35 44.79 261.35 93.07 244.48 82.74 244.48 35.49 261.35 44.79" fill="#fa8ff7"></polygon><polygon points="272.87 66.88 272.87 83.26 232.96 59.86 232.96 43.76 272.87 66.88" fill="#fa8ff7"></polygon><polyline points="158.48 24.7 154.56 23.79 111.18 48.77 111.9 134.2 113.53 135.1" fill="#dd654a"></polyline><polygon points="158.48 24.7 158.98 109 113.53 135.1 113.53 50.12 158.48 24.7" fill="#f8997c"></polygon><polygon points="156.88 29.27 156.88 107.8 115.59 130.67 115.59 52.61 156.88 29.27" fill="#fdf2d6"></polygon><path d="M140.69,63.58l.22-.06v.61l-3.29,1.66v-.61l.28-.2.27-.2a1.46,1.46,0,0,0,.2-.19l.08-.15,0-.16-.06-.18-.44-1.59a.17.17,0,0,0-.19-.14.93.93,0,0,0-.32.1l-1.42.72a.66.66,0,0,0-.38.49l-.3,1.66,0,.18v.2c0,.38.28.44.83.16v.68l-2.27,1.14V67a2.16,2.16,0,0,0,.8-1.41l2.23-9.53.91-.25,2.35,7.53a.33.33,0,0,0,.33.26Zm-3.26-2c.16-.08.24-.14.23-.18a5.44,5.44,0,0,0-.19-.71l-.7-2.19L136,61.77a3.17,3.17,0,0,0-.11.5c0,.08.11.06.31,0l1.19-.6" fill="#494137"></path><path d="M144.34,79.58a1.21,1.21,0,0,0,.23-.05v.61l-3.29,1.66v-.61l.29-.2.27-.2a1.73,1.73,0,0,0,.2-.19l.08-.15,0-.16-.06-.19-.44-1.59a.17.17,0,0,0-.2-.13.93.93,0,0,0-.32.1l-1.42.71a.68.68,0,0,0-.38.48l-.3,1.67,0,.17v.21c0,.38.28.43.83.16v.68l-2.19,1.1-.08,0V83a2.15,2.15,0,0,0,.8-1.42l2.23-9.53.91-.27,2.35,7.53a.34.34,0,0,0,.13.2.37.37,0,0,0,.2.07A.73.73,0,0,0,144.34,79.58Zm-3.25-2c.15-.08.23-.13.23-.17a5.44,5.44,0,0,0-.19-.71l-.69-2.19-.75,3.21a3.06,3.06,0,0,0-.1.5c0,.07.1.07.3,0l1.2-.6" fill="#494137"></path><path d="M137.35,83.1l.15,0v.62l-3.21,1.62V84.7l.29-.2.27-.2a1.64,1.64,0,0,0,.2-.19l.08-.15,0-.16-.06-.19L134.6,82a.17.17,0,0,0-.2-.13.9.9,0,0,0-.32.09l-1.42.72a.66.66,0,0,0-.38.48l-.3,1.67,0,.17v.2c0,.38.28.44.83.16v.68l-2.27,1.14v-.68a2.15,2.15,0,0,0,.8-1.42l2.23-9.53.91-.27,2.35,7.53a.37.37,0,0,0,.13.2.35.35,0,0,0,.2.06A.63.63,0,0,0,137.35,83.1Zm-3.25-2c.15-.08.24-.14.23-.18a7,7,0,0,0-.19-.71l-.7-2.19-.74,3.21a3.39,3.39,0,0,0-.11.5c0,.07.1.07.3,0l1.2-.6" fill="#494137"></path><path d="M134.16,102.56l.23-.05v.61l-3.29,1.66v-.61l.28-.2.27-.2a1.46,1.46,0,0,0,.2-.19l.08-.15,0-.16-.06-.19-.44-1.59a.16.16,0,0,0-.19-.13.93.93,0,0,0-.32.1l-1.42.72a.66.66,0,0,0-.38.48l-.3,1.67,0,.17v.2c0,.39.28.44.83.17v.68l-2.27,1.14V106a2.16,2.16,0,0,0,.8-1.41L130.35,95l.91-.26,2.35,7.53a.34.34,0,0,0,.33.27A.73.73,0,0,0,134.16,102.56Zm-3.26-1.95c.16-.08.24-.14.23-.18a5.45,5.45,0,0,0-.19-.71l-.7-2.19-.74,3.21a3.39,3.39,0,0,0-.11.5c0,.07.11.06.31,0l1.19-.6" fill="#494137"></path><path d="M140.84,96.09a3.5,3.5,0,0,1,.13,1,4.6,4.6,0,0,1-.2,1.47,3.86,3.86,0,0,1-.56,1.13,4,4,0,0,1-.82.82,6.67,6.67,0,0,1-1,.61l-1.69.82-1.87.91v-.62a1.34,1.34,0,0,0,.9-1.18l-.06-6.91c0-.62-.33-.76-1-.45v-.63l3.36-1.69A2.48,2.48,0,0,1,139.9,91c.42.14.63.65.64,1.52a3.35,3.35,0,0,1-.35,1.61,4.5,4.5,0,0,1-1,1.28,2.82,2.82,0,0,1,.76-.11.92.92,0,0,1,.56.2A1.26,1.26,0,0,1,140.84,96.09ZM139,99.63a4.86,4.86,0,0,0,.18-2.71.75.75,0,0,0-.32-.47.74.74,0,0,0-.56,0,4.07,4.07,0,0,0-.81.32c-.15.07-.22.26-.21.57l0,3.14c0,.16.06.24.18.27a1.23,1.23,0,0,0,.6-.18,2,2,0,0,0,.93-.92M137.27,93l0,2.81c0,.22.07.29.22.21a3.8,3.8,0,0,0,.75-.48,1.69,1.69,0,0,0,.45-.54,2,2,0,0,0,.2-.67,6.48,6.48,0,0,0,0-.86,2.73,2.73,0,0,0-.2-1.23c-.13-.24-.39-.25-.77-.06a1.72,1.72,0,0,0-.55.38.61.61,0,0,0-.17.42" fill="#494137"></path><path d="M144.69,87.9a4.16,4.16,0,0,1,.48-.2,3.44,3.44,0,0,1,.51-.11,1.45,1.45,0,0,1,.47,0,.73.73,0,0,1,.38.18,2.69,2.69,0,0,1,.68-1.12,11.62,11.62,0,0,1,.38,3.34l-.68.34a3.75,3.75,0,0,0-.68-1.83.91.91,0,0,0-1.14-.08,2,2,0,0,0-.8.74,4.28,4.28,0,0,0-.48,1.12,7.21,7.21,0,0,0-.23,1.37,14.67,14.67,0,0,0-.06,1.47c0,.66,0,1.26.09,1.81a5.33,5.33,0,0,0,.3,1.36,1.35,1.35,0,0,0,.56.73,1,1,0,0,0,.9-.08,2.81,2.81,0,0,0,1.17-1.18,9,9,0,0,0,.8-2.35l.42,0a9.36,9.36,0,0,1-.37,1.48,7.28,7.28,0,0,1-.58,1.29,5.23,5.23,0,0,1-.75,1,3.34,3.34,0,0,1-.89.66,2.8,2.8,0,0,1-1.5.38,1.44,1.44,0,0,1-1-.54,3.07,3.07,0,0,1-.57-1.29,9.14,9.14,0,0,1-.19-1.88,14.61,14.61,0,0,1,.14-2.19,8.32,8.32,0,0,1,.48-1.91,5.77,5.77,0,0,1,.88-1.54A4,4,0,0,1,144.69,87.9Z" fill="#494137"></path><path d="M338.95,181.9s-.52,16.45-8.26,16.84-8.26-16.84-8.26-16.84" fill="#6de1fc"></path><path d="M338.95,181.9s-.52,16.45-8.26,16.84-8.26-16.84-8.26-16.84" fill="#fa8ff7"></path><ellipse cx="330.69" cy="181.9" rx="8.26" ry="3.11" fill="#311e69"></ellipse><path d="M332.94,184a63.48,63.48,0,0,1,7.73-19c.3-.49,1.29-.07,1,.42A62.78,62.78,0,0,0,334,184.24C333.93,184.77,332.82,184.55,332.94,184Z" fill="#311e69"></path><path d="M328.22,185.06a231.4,231.4,0,0,1,2.95-23.82c.09-.53,1.25-.53,1.15,0A231.41,231.41,0,0,0,329.37,185Z" fill="#311e69"></path><path d="M343.22,163.5a8.28,8.28,0,0,1,4.07.24c.93.3,2.85,1.15,2.47,2.06s-2.71.77-3.64.57a5,5,0,0,1-3.19-2.15.38.38,0,0,1,0-.1C342.74,163.89,342.8,163.58,343.22,163.5Z" fill="#c3ea75"></path><path d="M341.41,163a.57.57,0,0,0,.77.18c1.26-.67,2.84-1.1,3.73-2.09.62-.69.88-1.83-.25-2.33a3.3,3.3,0,0,0-3.24.55c-1,.87-1.13,2.13-1.37,3.21C341,162.75,341.18,162.92,341.41,163Zm2.38-3.48,0,.11a3.76,3.76,0,0,0-1,.83A2.5,2.5,0,0,1,343.8,159.52Z" fill="#c3ea75"></path><path d="M338.06,160.79c1.86-.61,2.18,1.71,2.23,2.49,0,.22-.16.34-.38.39a.74.74,0,0,1-.8,0c-.63-.41-1.42-.8-1.62-1.43A1.08,1.08,0,0,1,338.06,160.79Z" fill="#c3ea75"></path><path d="M331,159.71a.72.72,0,0,0,.89.22.82.82,0,0,0,.3,0c1.44-.16,2.17-1.82,2.43-2.69s.54-2.3-.9-2.76a2.58,2.58,0,0,0-3.1,1.34A4.77,4.77,0,0,0,331,159.71Zm.78-1.18a2,2,0,0,1,0-.67,3,3,0,0,0,0,.46v0Z" fill="#c3ea75"></path><path d="M323.44,159.94c-.05,1.07,1.41,1.51,2.63,1.68.75.11,3.45.59,3.5-.37a.35.35,0,0,0,.1-.47c-.6-1-2-1.47-3.4-1.74C325.11,158.82,323.49,158.77,323.44,159.94Zm1.13,0a1.38,1.38,0,0,0,.15.17.39.39,0,0,0-.08.19A.26.26,0,0,1,324.57,159.89Z" fill="#c3ea75"></path><path d="M333.79,160.77a.64.64,0,0,0,.68.29,5.11,5.11,0,0,0,2.19-.7c.47-.33.72-.93.33-1.36-.89-1-2.94.67-3.47,1.19C333.27,160.44,333.48,160.68,333.79,160.77Zm1.62-.79-.1,0,.58-.28h0A1.42,1.42,0,0,1,335.4,160Z" fill="#c3ea75"></path><path d="M85.62,91.34c-2.07,10.26-9.85,17.53-17.36,16.23S56.33,96.91,58.4,86.65s9.85-17.53,17.36-16.23S87.7,81.09,85.62,91.34Z" fill="#56403d"></path><path d="M87.28,92c-2.07,10.26-9.85,17.53-17.36,16.23S58,97.54,60.06,87.29s9.85-17.53,17.36-16.23S89.35,81.72,87.28,92Z" fill="#ffdac0"></path><path d="M85.6,91.69c-1.82,9-8.63,15.36-15.22,14.22s-10.45-9.34-8.64-18.33S70.37,72.22,77,73.35,87.41,82.7,85.6,91.69Z" fill="#fa8ff7"></path><path d="M77.59,87.55,74.87,89.6l.71-9.72c.12-1.63-2.76-1.84-2.88-.21l-.94,12.77s0,0,0,0v0a1.17,1.17,0,0,0,.79,1.14,1.45,1.45,0,0,0,1.55-.09l0,0h0l5.34-4C80.9,88.43,79,86.49,77.59,87.55Z" fill="#56403d"></path><path d="M268.54,98.5c0,.34-3.41,6.65-1.61,9.3s12.8.94,12.8.94" fill="#fbae17"></path><path d="M282,93.2c.24.52,3.33,8.76,6.77,11.95s6.44,1.46,6.76,6.44-3.73,7.52-1.47,10,.75,9-6.06,10.29-14.24-16.08-14.23-17.22" fill="#fbae17"></path><path d="M253.16,129.52s-3.5,7.61-5.14,9.65-4.94,5.54-4.53,6.15a3.61,3.61,0,0,0,3.09,1.13c1.44-.1,3.91-4.63,3.7-3.91s-.93,4.65-.1,3.92.92-4.33,1.7-5.36S260,129.52,260,129.52" fill="#ffd0b0"></path><path d="M236.08,201.82l-3.21-2.13s.13-3.05,1.4-3.51S236.08,201.82,236.08,201.82Z" fill="#6b2215"></path><path d="M232.8,183.07s-4.1,13.13-4.71,13.82-7.78,6.1-8.5,7.33,6.18,1.31,8.86,1,5.27-1.28,5.49-2.24-.16-6.08.78-5.84,1.35,4.67,1.35,4.67l2.46-1,2.76-18.18" fill="#6b2215"></path><path d="M248.53,206.87l-3.21-2.13s.13-3.05,1.4-3.51S248.53,206.87,248.53,206.87Z" fill="#6b2215"></path><path d="M245.25,188.11s-4.1,13.13-4.71,13.82-7.78,6.1-8.5,7.33,6.18,1.31,8.86,1,5.27-1.28,5.49-2.24-.16-6.08.78-5.84,1.35,4.67,1.35,4.67l2.46-1,2.76-18.18" fill="#6b2215"></path><path d="M274.72,127.25c1.29,1.09-5.35,14.64-6.75,22.57s-20.16,12.37-20.16,12.37l-5.18,32.38a68.83,68.83,0,0,1-13.78-2s5.32-37.71,7.28-41.83,30-20.22,30-20.22" fill="#b7b3ae"></path><path d="M279.56,129.71c1.29,1.09,5.36,10,1.35,21.53-2.64,7.6-19.24,13.89-19.24,13.89l-8,31.16a16.79,16.79,0,0,1-12,.45s2.85-35.39,4.81-39.51,23.08-19.51,23.08-19.51" fill="#b7b3ae"></path><line x1="237.52" y1="131.27" x2="238.58" y2="130.09" fill="#fff7f0"></line><path d="M273.6,135.38s-11.06,7.34-12.25,7.77-8,3.27-6.93,3.41a27.29,27.29,0,0,0,3.5,0s-4.37,4.21-3.61,5.37,3.76,1.55,5.06,1.16,4-4.3,4.54-4.69,15-7.69,15-7.69" fill="#ffd0b0"></path><path d="M279.42,106.86a21.65,21.65,0,0,0-10.71-1.51,8.69,8.69,0,0,0-4.81,2.08c-1.73,1.61-2.43,4-3.37,6.14a92.48,92.48,0,0,1-4.76,8.82,63.16,63.16,0,0,1-5,8l5.54,4.16,8.37-9.77,12.47,6.44-11.1,5.67c-.93,1.71,7.17,6.9,7.17,6.9s12.44-1.28,15-13.8C291.94,112.2,279.44,106.87,279.42,106.86Z" fill="#63cebc"></path><path d="M264.37,120.21s-.4,11.3.26,12.54,12.56,6.42,12.56,6.42l7.47-9.25Z" fill="#63cebc"></path><path d="M268.59,95.68s-.68,10,3.37,11.29,6.49-3.66,6.49-3.66,1.2-6.7-.06-8.19S270.91,93,268.59,95.68Z" fill="#ffd0b0"></path><path d="M271,89.84a9,9,0,0,0-2.66,2,6.17,6.17,0,0,0-1.76,4.42,1.34,1.34,0,0,0,.6,1,1.9,1.9,0,0,0,1.07.17l1.48.08,3.41.18a8.57,8.57,0,0,1,1.76.09s2.55,5.89,1.85,8.11c0,0,3.35-.63,5-5.49,1.19-3.39,1.22-8.31-2.23-10.41A9.5,9.5,0,0,0,271,89.84Z" fill="#fbae17"></path><path d="M265.3,116.64q-.08,7.82.18,15.64c0,.59-.9.58-.92,0q-.25-7.82-.18-15.64A.46.46,0,0,1,265.3,116.64Z" fill="#246d5f"></path><path d="M266.28,136.53a21,21,0,0,0,12-14.53c.13-.58,1-.33.89.25a21.85,21.85,0,0,1-12.38,15.08C266.2,137.57,265.74,136.77,266.28,136.53Z" fill="#246d5f"></path><path d="M241.8,194.58s2.71-34.95,4.63-37.35,11.48-10.67,11.48-10.67-12.08,6.65-13.26,10S239.58,194,239.58,194Z" fill="#6d665e"></path><path d="M165.11,93.07l6.48-4.91s9.47.29,9.19.88,6.88,15.44,6.88,15.44l-1.41,32.15-11.73,7.06" fill="#fff"></path><path d="M182.56,207.13s.62,8.37,2.07,9.6,7.21,5.65,8.2,6.37.05,3.11-3.35,3.11-9.9-4-9.9-4l-4.8-1.78s-.67-8.11.36-13.1S182.56,207.13,182.56,207.13Z" fill="#4a2b0f"></path><path d="M166.33,220.66s3.38,16.32,1.16,17.58-7.24-1.45-8-4.25-.48-19.41,0-19.51" fill="#4a2b0f"></path><path d="M187.09,149.75l-.84,60.56s-7.47,2.54-14.55,0L173.1,153,169,223.42a16.44,16.44,0,0,1-12.67,0l1.32-78.85,28.62-7.93Z" fill="#fa8ff7"></path><path d="M176.65,87.85s7.86-2.23,11.7,6.74c5.21,12.15,5.47,81.65,5.47,81.65a18.22,18.22,0,0,1-8.59,4.69s-.67-71.73-1.24-76.26C183.05,97.18,176.65,87.85,176.65,87.85Z" fill="#dbdbdb"></path><path d="M182.65,88.41s4.43,5.27,4.1,5.27-1.59,1.59-1.59,1.59l2.51,2.42-3.21,34s2.33-24.67-7.82-43.73C176.63,87.92,181,87.4,182.65,88.41Z" fill="#eef3f7"></path><path d="M169.09,89.88s-7.87,2.74-9.92,10c-2.11,7.45-2.44,82.45-2.44,83.24s5,3.92,9.23,4.54,10.44-1.78,10.44-1.78l1.13-43.74S177,117,176.41,112.18,169.09,89.88,169.09,89.88Z" fill="#dbdbdb"></path><path d="M169.09,89.63,166,91.46l1.18,6.6,3.84.51-1.25,3.68s4.11,9.07,4.82,10.61,2.67,16.6,2.67,16.6-.46-16.31-1-18.38S172.86,95.83,169.09,89.63Z" fill="#eef3f7"></path><ellipse cx="183.99" cy="102.08" rx="2.61" ry="2.34" transform="translate(32.62 248.24) rotate(-73.02)" fill="#9e9e9e"></ellipse><polygon points="187.35 116.86 190.58 103.44 207.4 97.84 200.31 127.02 183.88 131.24 187.35 116.86" fill="#63cebc"></polygon><path d="M180.65,120s3.76-5.21,4.68-5.61,3.09-1.26,3.82-1-.24,2.11-.24,2.11,7.65-1.05,8.33-.39-1.12,3.08-2.7,4.48-12,5.07-12,5.07Z" fill="#ffb7a2"></path><path d="M173.11,118.4A58.88,58.88,0,0,1,165.8,120c-.79,0-1.75-.2-2-1a2.13,2.13,0,0,1-.06-.87,79.62,79.62,0,0,1,1.25-9.94c.46-2.94,3.22-3.2,1.76-5.94-2.18-4.07-3.56-9.57-5.17-7.07-2.66,4.14-8.1,15.55-8.29,20.31-.64,16.17,3.3,16.86,8.76,16.7s22.09-4.25,22.23-6.46c.09-1.41-1.15-5.42-2.53-8.05C181.14,116.61,177,117.44,173.11,118.4Z" fill="#dbdbdb"></path><path d="M183.41,100.47c.22-.15-.18-14.07-8.22-13.23s-7.38,6.8-7.08,9.87l-1.29.18s-1.51-10.64,8.76-10.67,8.6,14.71,8.6,14.71" fill="#9e9e9e"></path><path d="M181.75,80.19A4.52,4.52,0,0,0,184,76c0-3.19-4.94-5.59-7-5.88-2.62-.37-11.36.72-11.89,7.24-.38,4.54,2.73,12.6,5,12.66" fill="#4a2b0f"></path><path d="M169.73,85.51a29.36,29.36,0,0,1,.83-3q.17-.51.36-1c.62-1.61,1.57-1.13,3-1.13a13.63,13.63,0,0,0,3.34-.34,18,18,0,0,0,4.76-2c.22,3.5.36,13.77-5.33,14.65-3.46.54-5.35-.83-6.41-2.47C170.09,88.62,169.91,87.07,169.73,85.51Z" fill="#f0b387"></path><path d="M171,85.1s-1.38-3.49-2.43-1.76c-1.16,1.93,1.33,3.28,1.33,3.28" fill="#f0b387"></path><ellipse cx="180.97" cy="83.88" rx="2.72" ry="2.28" transform="translate(47.89 232.46) rotate(-73.02)" fill="none" stroke="#42210b" stroke-miterlimit="10" stroke-width="0.25"></ellipse><ellipse cx="174.82" cy="85.37" rx="2.72" ry="2.28" transform="translate(42.11 227.64) rotate(-73.02)" fill="none" stroke="#42210b" stroke-miterlimit="10" stroke-width="0.25"></ellipse><line x1="172.64" y1="84.71" x2="168.11" y2="81.63" fill="none" stroke="#42210b" stroke-miterlimit="10" stroke-width="0.25"></line><path d="M178.52,84.56s-1.09,0-1.39.38" fill="none" stroke="#42210b" stroke-miterlimit="10" stroke-width="0.25"></path><path d="M168.12,110.17c-1.24,0-3.22,0-4.28-.7s-.89-1.63-.78-2.86c.25-2.86.48-8.16,3.76-9.32,2.86-1,5.27,1.08,6.29,3.58.66,1.63,1.74,4.29,1.33,6.12-.32,1.44-1.88,2.21-3.14,2.76-.24.1-.44-.24-.2-.35,1.47-.64,3-1.5,2.94-3.3a15.91,15.91,0,0,0-1.1-4.56c-1-2.68-3.59-5.17-6.5-3.6-2.38,1.28-2.65,5.82-2.92,8.16-.18,1.53-.37,2.52,1.33,3.27a9.54,9.54,0,0,0,3.28.39c.26,0,.26.41,0,.4Z" fill="#4d4d4d"></path><path d="M172,109.18c0,.22.3.58,0,.73s-1.28.58-1.37.26-.24-.81,0-1S172,108.45,172,109.18Z" fill="#4a2b0f"></path><path d="M168.65,109.87c0,.21.17.63-.16.71s-1.37.29-1.39,0-.06-.84.21-1S168.81,109.16,168.65,109.87Z" fill="#4a2b0f"></path><path d="M173,116.78c-1,.3-1.93.57-2.92.79s-2.51.74-3.4.51-.6-1.75-.54-2.55a29.66,29.66,0,0,1,.52-3.63c.13-.63-.84-.9-1-.27a31,31,0,0,0-.6,4.43c0,.86-.36,2.22.49,2.79s1.8.15,2.58,0a30.37,30.37,0,0,0,5.08-1.16C173.91,117.55,173.65,116.58,173,116.78Z" fill="#9e9e9e"></path></g></g></svg>