<svg width="73" height="72" fill="none" xmlns="http://www.w3.org/2000/svg"><path d="M48.296 62.158v-10.12a.562.562 0 1 0-1.125 0V63.17a59.154 59.154 0 0 1-11.25 7.658 53.35 53.35 0 0 1-10.462-7.22V52.363a.574.574 0 0 0-.563-.562.562.562 0 0 0-.562.562v10.234a66.035 66.035 0 0 1-6.109-6.354l.754-2.575c1.609-5.747 4.77-7.153 10.035-7.715h.101c.124.81.664 2.126 2.79 3.149a10.89 10.89 0 0 0 4.41.9 9.204 9.204 0 0 0 3.375-.596 6.357 6.357 0 0 0 3.6-3.498h.81c6.075.45 7.729 2.587 9.349 8.367L54 56.243a60.992 60.992 0 0 1-5.704 5.915zM27.911 32.233c.061.107.156.19.27.236a30.553 30.553 0 0 0 .068 3.666c-1.024-.483-1.755-1.686-2.07-3.53-.416-2.407.101-3.24.326-3.487.551 1.395 1.294 2.868 1.406 3.115zm.642-3.374a11.131 11.131 0 0 0-.237 1.564A16.595 16.595 0 0 1 27 27.003v-.258a8.071 8.071 0 0 1 3.195-8.018 10.713 10.713 0 0 1 6.75-1.968c2.272.014 4.482.738 6.323 2.069a6.477 6.477 0 0 1 2.328 4.24 16.86 16.86 0 0 1-.686 7.276 9.392 9.392 0 0 0-.292-1.36c-1.035-3.217-2.69-4.05-3.893-4.184a3.736 3.736 0 0 0-1.699.236 5.74 5.74 0 0 1-4.005.416 3.994 3.994 0 0 0-3.645-.799c-1.9.641-2.542 3.15-2.823 4.229v-.023zM45 32.402a.562.562 0 0 0 .371-.326 19.87 19.87 0 0 0 .833-2.553 3.49 3.49 0 0 1 .382 1.765 7.679 7.679 0 0 1-.46 2.767 5.454 5.454 0 0 1-1.238 2.002A31.8 31.8 0 0 0 45 32.402zm-15.356-3.239c.236-.91.776-3.025 2.059-3.509a2.97 2.97 0 0 1 2.655.698.225.225 0 0 0 .135.067 6.527 6.527 0 0 0 4.882-.382c.358-.14.743-.194 1.125-.158 1.586.169 2.475 1.946 2.936 3.374.338 1.125.765 3.767 0 8.828a5.7 5.7 0 0 1-4.038 4.285 12.03 12.03 0 0 1-3.375.45 6.752 6.752 0 0 1-6.21-4.139c-.765-2.024-.563-7.805-.17-9.514zm3.071 16.127v-2.103a8.113 8.113 0 0 0 3.375.753h.113c1.212 0 2.42-.162 3.588-.483.203-.057.405-.147.597-.214v2.047a.562.562 0 0 0 .562.562h1.125a5.299 5.299 0 0 1-2.835 2.519 9.555 9.555 0 0 1-6.84-.27c-1.642-.787-2.059-1.698-2.16-2.25h1.913a.562.562 0 0 0 .562-.561zm1.654-10.234c.421.324.931.512 1.462.54.23 0 .458-.054.664-.158a.573.573 0 0 0 .236-.765.585.585 0 0 0-.765-.236c-.236.124-.72-.135-.877-.247l-.135-.101-.18-.113a.777.777 0 0 1 .202-.202l.057-.056a4.61 4.61 0 0 0 1.057-2.632.566.566 0 0 0-1.063-.313.562.562 0 0 0-.062.212 3.687 3.687 0 0 1-.709 1.912 1.306 1.306 0 0 0-.64 1.124 1.282 1.282 0 0 0 .753 1.035zm1.957 6.376h.147a4.703 4.703 0 0 0 4.432-4.498.563.563 0 0 0-.146-.416.584.584 0 0 0-.416-.18h-8.19a.54.54 0 0 0-.405.18.528.528 0 0 0-.158.416 4.608 4.608 0 0 0 2.959 4.194c.567.217 1.17.32 1.777.304zm3.375-3.947a3.497 3.497 0 0 1-3.285 2.823 3.578 3.578 0 0 1-3.61-2.823H39.7zm31.67-30.094C51.423 9.741 40.308 3.23 36.494.317c-.303-.202-.37-.303-.494-.303a.608.608 0 0 0-.484.1C19.676 12.059.89 7.459.698 7.403A.574.574 0 0 0 0 7.965c.956 47.828 35.359 63.82 35.708 64.022.074.017.15.017.225 0 .09 0 .18-.022.258-.067a59.628 59.628 0 0 0 11.847-8.052.44.44 0 0 0 .112-.09C68.963 45.593 71.674 17.67 72 8.493v-.427a.752.752 0 0 0 0-.18.563.563 0 0 0-.63-.495zM54.82 55.118l-.326-1.124c-1.654-5.938-3.544-8.682-10.35-9.188a38.83 38.83 0 0 0-2.677-.124v-1.934a6.603 6.603 0 0 0 3.127-4.498c0-.248.068-.473.09-.709a5.623 5.623 0 0 0 2.475-3.092 8.848 8.848 0 0 0 .574-3.172c0-1.923-.72-2.733-1.226-3.07a17.82 17.82 0 0 0 .135-5.342 7.568 7.568 0 0 0-2.768-4.97 11.917 11.917 0 0 0-6.986-2.306c-2.65-.14-5.268.626-7.425 2.17a9.11 9.11 0 0 0-3.589 9.065v.236c.046.329.12.652.225.967-.315.158-1.676 1.069-1.012 4.858.416 2.44 1.586 4.038 3.273 4.499a8.62 8.62 0 0 0 .405 1.698 7.513 7.513 0 0 0 2.824 3.475.337.337 0 0 0 0 .112v2.058a24.789 24.789 0 0 0-2.7.124c-5.479.596-9.236 2.25-11.002 8.536l-.53 1.833C9.372 45.413 1.734 30.378 1.126 8.65c3.634.72 20.25 3.262 34.718-7.377 3.993 2.98 15.176 9.47 35.032 7.31-.304 7.917-2.374 29.397-16.054 46.535z" fill="#00B0CA"/></svg>