<svg width="72" height="72" fill="none" xmlns="http://www.w3.org/2000/svg"><path d="M22.936 44.19a12.376 12.376 0 0 0 14.787 12.137 12.372 12.372 0 0 0 9.017-16.873 12.374 12.374 0 0 0-11.43-7.639A12.371 12.371 0 0 0 22.935 44.19zm23.621 0a11.252 11.252 0 0 1-6.944 10.394 11.245 11.245 0 0 1-15.336-8.2A11.252 11.252 0 0 1 35.31 32.94a11.245 11.245 0 0 1 10.392 6.945c.565 1.365.856 2.828.856 4.305zM72 8.179v63.258a.562.562 0 0 1-.562.563H5.817a.562.562 0 0 1 0-1.125h65.058V8.179a.563.563 0 0 1 1.125 0zm-9.73 59.625H.575a.574.574 0 0 1-.494-.304.551.551 0 0 1 0-.574A41.023 41.023 0 0 0 5.255 46.89V8.179a.563.563 0 0 1 .562-.563h5.624a.562.562 0 1 1 0 1.125H6.379V46.89a42.453 42.453 0 0 1-4.825 19.789h60.39a41.394 41.394 0 0 0 4.994-19.789V8.741H54.701a.562.562 0 1 1 0-1.125h12.8a.562.562 0 0 1 .562.563V46.89a41.224 41.224 0 0 1-5.32 20.61.552.552 0 0 1-.473.304zM17.898 7.616h29.785a.562.562 0 1 1 0 1.125H17.897a.562.562 0 1 1 0-1.125zm45.79 17.64H9.012a.562.562 0 0 1 0-1.125h54.677a.562.562 0 1 1 0 1.125zM13.838 7.37C13.837 3.308 16.4 0 19.54 0c2.317 0 4.386 1.789 5.275 4.5a.59.59 0 0 1-1.125.349c-.675-2.25-2.306-3.724-4.15-3.724-2.52 0-4.578 2.801-4.578 6.244 0 3.442 2.058 6.244 4.578 6.244a.563.563 0 0 1 0 1.125c-3.139 0-5.703-3.297-5.703-7.37zm36.252 0C50.089 3.308 52.654 0 55.792 0c2.317 0 4.386 1.789 5.275 4.5a.59.59 0 0 1-1.125.349c-.675-2.25-2.328-3.724-4.15-3.724-2.52 0-4.578 2.801-4.578 6.244 0 3.442 2.058 6.244 4.578 6.244a.563.563 0 0 1 0 1.125c-3.139 0-5.703-3.297-5.703-7.37zM33.656 47.475l6.569-8.1a.564.564 0 1 1 .877.709l-6.963 8.628a.53.53 0 0 1-.405.203.574.574 0 0 1-.393-.169L29.584 45a.563.563 0 0 1 0-.799.574.574 0 0 1 .799 0l3.273 3.274z" fill="#00B0CA"/></svg>