<svg width="88" height="88" fill="none" xmlns="http://www.w3.org/2000/svg"><path d="M45.208 46.157a8.102 8.102 0 0 1-7.955-4.759 8.118 8.118 0 0 1-.715-3.189.687.687 0 0 1 .687-.7l16.364-.22a.618.618 0 0 1 .522.233.674.674 0 0 1 .179.55 9.022 9.022 0 0 1-2.795 5.647 9.01 9.01 0 0 1-5.806 2.438h-.481zm-7.214-7.26a7.084 7.084 0 0 0 1.993 4.001 7.364 7.364 0 0 0 5.592 1.856 7.485 7.485 0 0 0 7.117-6.063l-14.702.206zm7.173-4.386a8.79 8.79 0 0 1-3.037-1.21 2.42 2.42 0 0 1-1.14-1.485 2.561 2.561 0 0 1 .508-1.898 27.672 27.672 0 0 0 1.882-5.706.715.715 0 0 1 .852-.523.7.7 0 0 1 .509.853 29.797 29.797 0 0 1-2.075 6.146c-.194.242-.3.543-.302.853 0 .192.206.37.55.59a8.885 8.885 0 0 0 2.266.99.714.714 0 0 1 .66.716.674.674 0 0 1-.673.674zm0 44.275c-.948 0-1.869-.62-2.9-1.953-2.569-3.327-5.935-10.23-7.749-13.929l-.069-.123a.702.702 0 0 1 .85-.975.688.688 0 0 1 .4.356l.07.124c1.786 3.657 5.125 10.477 7.611 13.75.701.92 1.374 1.375 1.787 1.375.618 0 1.277-.894 1.978-1.843l.454-.591 7.007-12.128a.7.7 0 0 1 1.21.702l-7.063 12.196-.481.66c-.92 1.224-1.786 2.392-3.092 2.406l-.013-.027zm42.223 7.768c-6.444-1.47-8.492-11.22-8.519-11.343-3.064-13.42-13.067-14.438-17.862-14.92l-1.044-.11c-2.968-.357-4.383-3.85-4.727-5.65a.701.701 0 0 0-1.374.26c.412 2.146 2.157 6.312 5.936 6.78l1.058.11a35.4 35.4 0 0 1 3.916.55c2.418 3.025 2.308 7.535 1.374 10.298a4.656 4.656 0 0 0-3.023-1.1 4.573 4.573 0 0 0-4.188 2.865 4.582 4.582 0 0 0 3.37 6.209 4.573 4.573 0 0 0 5.448-4.495 4.526 4.526 0 0 0-.563-2.145 13.76 13.76 0 0 0-.398-11c4.273 1.375 8.834 4.538 10.717 12.76.082.44 2.24 10.739 9.618 12.375h.151a.714.714 0 0 0 .687-.55.689.689 0 0 0-.577-.894zM63.125 79.13a3.172 3.172 0 0 1-2.883-2.007 3.178 3.178 0 0 1 2.357-4.288 3.172 3.172 0 0 1 3.769 3.12 3.219 3.219 0 0 1-3.243 3.175zM36.77 54.56a.7.7 0 0 0-.948.302l-.206.467c-.536 1.375-1.648 4.125-8.876 5.376-9.316 1.692-13.547 6.284-18.123 19.635 0 .193-1.594 4.744-8.065 6.215a.687.687 0 0 0-.287 1.219c.124.1.278.155.438.156h.15c7.283-1.65 9.028-6.875 9.097-7.136 4.589-13.392 8.683-16.871 15.691-18.425a11.407 11.407 0 0 0 .412 4.125c-2.308.715-4.355 4.263-5.688 7.219a14.393 14.393 0 0 0 .44 11.756.714.714 0 0 0 .618.371h2.102a.699.699 0 0 0 .839-.687.701.701 0 0 0-.839-.688h-1.663a12.807 12.807 0 0 1-.22-10.147c1.76-3.891 3.655-6.325 5.07-6.518a1.375 1.375 0 0 1 1.306.674 18.499 18.499 0 0 1 3.751 15.991h-2.377a.7.7 0 0 0 0 1.375h2.94a.713.713 0 0 0 .687-.536 20.007 20.007 0 0 0-3.916-17.751c-.4-.52-.952-.905-1.58-1.1v-.083a8.489 8.489 0 0 1-.343-4.345c7.804-1.47 9.165-4.77 9.728-6.187.069-.138.11-.261.165-.358a.688.688 0 0 0-.303-.92zm27.618-26.03a2.938 2.938 0 0 0-3.27 1.375.702.702 0 0 0 .426 1.085.687.687 0 0 0 .714-.287c.509-.729 1.14-1.045 1.718-.853.577.193 1.374 1.032 1.374 2.75a3.013 3.013 0 0 1-2.006 2.75.851.851 0 0 1-.92-.165v-.055a.689.689 0 0 0-1.183-.495.702.702 0 0 0-.206.495c0 1.238-.22 7.645-4.589 11.963-2.748 2.75-6.732 4.125-11.665 4.029a13.73 13.73 0 0 1-10.126-3.933c-5.016-5.197-5.414-14.616-5.277-21.257a.7.7 0 0 0-.687-.715.672.672 0 0 0-.714.687v2.86a2.459 2.459 0 0 0-2.006-.234c-1.374.454-2.309 2.022-2.309 4.125a4.58 4.58 0 0 0 3.27 4.194c.285.09.582.137.88.138a2.26 2.26 0 0 0 .824-.165 21.334 21.334 0 0 0 5.03 11.357 15.111 15.111 0 0 0 11.101 4.359h.399c5.152 0 9.288-1.499 12.27-4.441a18.308 18.308 0 0 0 4.919-11.262c.2.057.409.084.618.083.26.003.52-.034.77-.11a4.396 4.396 0 0 0 3.008-4.125c-.055-2.131-.934-3.699-2.363-4.153zM27.29 35.502a3.23 3.23 0 0 1-2.254-2.86c0-1.747.715-2.585 1.374-2.75a1.524 1.524 0 0 1 1.65.77c0 1.526.178 3.093.384 4.675a1.085 1.085 0 0 1-1.182.165h.028zm1.03-11.495a.687.687 0 0 0 .536-.702c-.137-1.375.192-4.4 2.487-5.665 2.02-1.113 4.548-.7 6.98-.302 1.175.217 2.365.345 3.559.385 3.078 0 10.69-1.513 14.262-3.671a9.777 9.777 0 0 0 2.748 4.455 7.191 7.191 0 0 1 3.023 4.427.701.701 0 0 0 .522.674.673.673 0 0 0 .783-.358 9.354 9.354 0 0 0 1.03-3.492.701.701 0 1 0-1.373 0 3.81 3.81 0 0 1-.165 1.045 10.077 10.077 0 0 0-2.982-3.438 9.392 9.392 0 0 1-2.57-4.592.687.687 0 0 0-1.14-.468c-2.748 2.145-11.074 3.933-14.207 3.933a21.958 21.958 0 0 1-3.339-.33c-2.542-.413-5.427-.88-7.873.467a5.912 5.912 0 0 0-2.68 3.232 14.957 14.957 0 0 1 1.292-7.302c2.089-4.73 6.98-10.436 18.302-11C54.962 1.003 58.04 4.44 58.631 6.31a.742.742 0 0 0 .453.495c4.48 1.98 5.098 6.875 4.796 9.254a.702.702 0 0 0 .59.784.7.7 0 0 0 .784-.605c.343-2.64-.344-8.25-5.331-10.588-.921-2.255-4.48-5.995-12.367-5.623-9.494.357-16.433 4.537-19.62 11.687a15.284 15.284 0 0 0-.454 11.921.716.716 0 0 0 .632.4.495.495 0 0 0 .179-.028h.027z" fill="#00B0CA"/></svg>