<svg xmlns="http://www.w3.org/2000/svg" width="810" viewBox="0 0 810 810" height="810" version="1.0"><defs><clipPath id="a"><path d="M 68.035156 123 L 714.761719 123 L 714.761719 705.789062 L 68.035156 705.789062 Z M 68.035156 123"/></clipPath><clipPath id="b"><path d="M 116 344 L 728.730469 344 L 728.730469 680 L 116 680 Z M 116 344"/></clipPath></defs><path fill="#8685B1" d="M 594.578125 631.9375 L 605.054688 678.824219 L 560.863281 678.824219 L 556.867188 660.917969 C 509.09375 689.867188 443.660156 704.609375 354.152344 695.753906 C 207.882812 681.277344 106.726562 587.347656 106.726562 440.328125 C 106.726562 293.308594 237.910156 104.207031 384.890625 104.207031 C 531.878906 104.207031 683.707031 196.964844 683.707031 343.984375 C 683.707031 434.125 672.355469 557.101562 594.578125 631.9375"/><g clip-path="url(#a)"><path fill="#F08990" d="M 177.179688 403.546875 C 177.207031 404.230469 177.253906 404.914062 177.34375 405.589844 C 177.667969 408.523438 178.582031 411.375 179.902344 414.019531 C 180.824219 415.847656 181.972656 417.5625 183.296875 419.140625 C 183.828125 417.40625 184.363281 415.695312 184.875 414.023438 C 181.449219 411.285156 178.800781 407.617188 177.179688 403.546875 Z M 258.992188 430.359375 C 258.824219 431.359375 258.605469 432.359375 258.355469 433.351562 C 259.257812 431.882812 260.003906 430.3125 260.550781 428.675781 C 262.503906 422.753906 262.367188 416.359375 262.210938 410.042969 C 262.117188 403.699219 262.152344 397.335938 262.464844 390.988281 C 262.675781 386.535156 263.007812 382.089844 263.449219 377.652344 C 263.046875 377.582031 262.640625 377.507812 262.238281 377.417969 C 258.472656 385.503906 258.328125 394.769531 258.851562 403.671875 C 259.371094 412.578125 260.484375 421.566406 258.992188 430.359375 Z M 264.226562 377.785156 C 264.035156 380.980469 263.882812 384.179688 263.753906 387.375 C 264.023438 384.167969 264.398438 380.980469 264.882812 377.855469 C 264.664062 377.828125 264.445312 377.816406 264.226562 377.785156 Z M 316.476562 317.992188 C 314.871094 320.46875 313.378906 323.0625 312.214844 325.757812 C 324.148438 325.46875 338.765625 328.828125 356.5625 337.03125 C 356.304688 333.917969 356.300781 330.773438 356.304688 327.652344 C 356.3125 325.445312 356.238281 323.085938 355.832031 320.875 C 355.222656 320.527344 354.597656 320.210938 353.953125 319.960938 C 353.03125 319.609375 352.082031 319.328125 351.109375 319.171875 C 350.140625 318.996094 349.152344 318.941406 348.164062 318.964844 C 347.167969 318.996094 346.175781 319.152344 345.175781 319.375 C 345.03125 319.410156 344.890625 319.320312 344.855469 319.183594 C 344.832031 319.066406 344.886719 318.953125 344.976562 318.894531 C 345.90625 318.335938 346.964844 317.996094 348.046875 317.820312 C 349.132812 317.632812 350.246094 317.660156 351.332031 317.828125 C 352.417969 318.011719 353.488281 318.34375 354.453125 318.863281 C 354.835938 319.066406 355.195312 319.304688 355.546875 319.554688 C 355.246094 318.417969 354.84375 317.34375 354.289062 316.363281 C 354.089844 316.316406 353.878906 316.265625 353.679688 316.230469 C 353.035156 316.117188 352.398438 316.015625 351.753906 315.980469 C 351.109375 315.925781 350.464844 315.9375 349.8125 315.957031 C 349.15625 315.984375 348.503906 316.070312 347.816406 316.15625 C 347.671875 316.171875 347.535156 316.070312 347.519531 315.925781 C 347.503906 315.820312 347.558594 315.726562 347.632812 315.667969 C 348.238281 315.257812 348.929688 314.992188 349.648438 314.820312 C 350.359375 314.640625 351.105469 314.589844 351.839844 314.625 C 352.3125 314.65625 352.78125 314.742188 353.238281 314.851562 C 352.921875 314.484375 352.570312 314.140625 352.1875 313.820312 C 351.238281 313.703125 350.289062 313.675781 349.363281 313.800781 C 348.386719 313.933594 347.429688 314.167969 346.523438 314.542969 C 345.609375 314.90625 344.757812 315.40625 343.960938 315.992188 C 343.167969 316.585938 342.46875 317.304688 341.839844 318.117188 C 341.75 318.234375 341.585938 318.257812 341.46875 318.171875 C 341.375 318.101562 341.34375 317.976562 341.382812 317.867188 C 342.144531 315.789062 343.949219 314.144531 346.003906 313.289062 C 347.046875 312.863281 348.15625 312.601562 349.28125 312.597656 C 349.566406 312.589844 349.847656 312.601562 350.132812 312.625 C 345.796875 311.058594 339.605469 313.675781 338.371094 318.113281 C 338.011719 314.175781 334.882812 310.78125 331.132812 309.699219 C 331.441406 309.941406 331.753906 310.183594 332.042969 310.457031 C 332.878906 311.289062 333.601562 312.230469 334.132812 313.273438 C 334.671875 314.316406 335.046875 315.4375 335.164062 316.585938 C 335.175781 316.730469 335.074219 316.859375 334.925781 316.875 C 334.808594 316.882812 334.703125 316.816406 334.660156 316.714844 C 334.234375 315.699219 333.738281 314.742188 333.144531 313.859375 C 332.539062 312.984375 331.867188 312.160156 331.097656 311.433594 C 330.339844 310.699219 329.496094 310.058594 328.597656 309.488281 C 328.511719 309.4375 328.421875 309.394531 328.335938 309.347656 C 328.203125 309.351562 328.070312 309.347656 327.9375 309.355469 C 326.773438 309.453125 325.671875 309.757812 324.628906 310.214844 C 325.367188 310.277344 326.101562 310.421875 326.808594 310.640625 C 329.074219 311.363281 331.148438 312.925781 332.191406 315.042969 C 332.253906 315.171875 332.203125 315.332031 332.074219 315.394531 C 331.96875 315.449219 331.839844 315.417969 331.761719 315.335938 C 331.011719 314.523438 330.191406 313.820312 329.289062 313.257812 C 328.378906 312.699219 327.414062 312.242188 326.398438 311.9375 C 325.394531 311.617188 324.339844 311.449219 323.285156 311.394531 C 323.015625 311.382812 322.757812 311.410156 322.492188 311.421875 C 321.808594 311.890625 321.15625 312.414062 320.539062 312.996094 C 320.910156 312.964844 321.285156 312.953125 321.652344 312.957031 C 322.363281 312.992188 323.074219 313.070312 323.757812 313.261719 C 324.441406 313.4375 325.113281 313.683594 325.730469 314.050781 C 325.851562 314.125 325.894531 314.289062 325.820312 314.417969 C 325.765625 314.507812 325.671875 314.550781 325.570312 314.542969 L 323.574219 314.394531 C 322.917969 314.363281 322.273438 314.320312 321.625 314.320312 C 320.976562 314.304688 320.328125 314.324219 319.671875 314.335938 L 319.214844 314.359375 C 318.199219 315.496094 317.285156 316.734375 316.476562 317.992188 Z M 175.457031 396.386719 C 174.871094 389.5625 177.195312 382.535156 181.738281 377.40625 C 186.496094 372.035156 193.613281 368.539062 196.511719 361.96875 C 199.761719 354.597656 196.554688 346.179688 195.601562 338.179688 C 195.359375 336.136719 195.289062 334.078125 195.367188 332.03125 C 195.101562 333.363281 194.921875 334.714844 194.847656 336.082031 C 194.464844 341.152344 195.09375 346.363281 194.316406 351.601562 C 193.917969 354.203125 193.15625 356.773438 191.878906 359.101562 C 190.59375 361.410156 188.71875 363.460938 186.355469 364.667969 C 186.226562 364.734375 186.066406 364.683594 186.003906 364.554688 C 185.9375 364.433594 185.988281 364.277344 186.105469 364.210938 C 188.300781 362.9375 189.960938 360.921875 191.066406 358.671875 C 192.203125 356.425781 192.867188 353.949219 193.175781 351.441406 C 193.792969 346.402344 193.175781 341.234375 193.492188 335.992188 C 193.726562 332.273438 194.660156 328.582031 196.242188 325.199219 C 198.683594 313.585938 205.996094 302.941406 216.328125 297.042969 C 227.414062 290.710938 241.589844 288.652344 250.003906 279.050781 C 261.792969 265.601562 280.242188 258.304688 298.035156 260.042969 C 308.578125 261.074219 318.714844 265.28125 327.101562 271.742188 C 343.535156 261.691406 365.742188 273.902344 375.835938 285.8125 C 386.710938 298.636719 388.824219 318.203125 380.929688 333.050781 C 378.636719 337.375 375.527344 341.46875 374.835938 346.3125 C 374.136719 351.160156 377.5625 356.164062 382.457031 356.070312 C 378.5625 360.027344 371.855469 360.246094 367.042969 357.484375 C 365.039062 356.335938 363.351562 354.75 361.941406 352.925781 C 361.5 372.996094 362.347656 411.085938 373.867188 429.742188 C 389.941406 455.773438 372.320312 493.664062 372.320312 493.664062 C 372.320312 493.664062 286.941406 492.273438 272.964844 461.316406 C 269.082031 452.714844 264.960938 434.84375 263.621094 414.828125 C 263.609375 419.609375 263.300781 424.445312 261.691406 429.066406 C 260.738281 431.722656 259.308594 434.203125 257.460938 436.335938 C 255.195312 442.925781 251.039062 448.867188 244.867188 451.894531 C 238.410156 455.058594 230.785156 454.613281 223.722656 453.273438 C 216.664062 451.933594 209.652344 450.363281 202.496094 449.6875 C 194.847656 448.964844 188.964844 448.910156 181.074219 452.804688 C 179.109375 449.007812 178.691406 444.410156 179.289062 436.855469 C 179.730469 431.328125 181.339844 425.546875 183.03125 420.003906 C 181.402344 418.40625 180.007812 416.5625 178.890625 414.554688 C 177.375 411.851562 176.410156 408.84375 175.992188 405.757812 C 175.769531 403.792969 175.800781 401.808594 176.035156 399.855469 C 175.769531 398.714844 175.558594 397.558594 175.457031 396.386719 Z M 626.3125 210 L 626.3125 214.085938 L 643.324219 214.085938 L 643.324219 210 Z M 626.3125 244.867188 L 649.003906 244.867188 L 649.003906 240.78125 L 626.3125 240.78125 Z M 643.683594 239.992188 L 660.054688 239.992188 L 660.054688 235.90625 L 643.683594 235.90625 Z M 626.3125 239.992188 L 643.324219 239.992188 L 643.324219 235.90625 L 626.3125 235.90625 Z M 626.3125 235.125 L 656.953125 235.125 L 656.953125 231.039062 L 626.3125 231.039062 Z M 626.3125 228.699219 L 649.003906 228.699219 L 649.003906 224.613281 L 626.3125 224.613281 Z M 663.773438 219.746094 L 643.683594 219.746094 L 643.683594 223.832031 L 663.773438 223.832031 Z M 626.3125 223.832031 L 643.324219 223.832031 L 643.324219 219.746094 L 626.3125 219.746094 Z M 626.3125 218.957031 L 656.953125 218.957031 L 656.953125 214.871094 L 626.3125 214.871094 Z M 582.644531 206.988281 L 616.382812 206.988281 L 616.382812 202.902344 L 582.644531 202.902344 Z M 613.285156 166.945312 L 582.644531 166.945312 L 582.644531 171.03125 L 613.285156 171.03125 Z M 582.644531 202.285156 L 605.332031 202.285156 L 605.332031 198.199219 L 582.644531 198.199219 Z M 616.382812 193.328125 L 600.007812 193.328125 L 600.007812 197.414062 L 616.382812 197.414062 Z M 582.644531 197.414062 L 599.648438 197.414062 L 599.648438 193.328125 L 582.644531 193.328125 Z M 582.644531 192.539062 L 613.285156 192.539062 L 613.285156 188.453125 L 582.644531 188.453125 Z M 582.644531 186.121094 L 605.332031 186.121094 L 605.332031 182.035156 L 582.644531 182.035156 Z M 620.101562 177.160156 L 600.007812 177.160156 L 600.007812 181.246094 L 620.101562 181.246094 Z M 582.644531 181.246094 L 599.648438 181.246094 L 599.648438 177.160156 L 582.644531 177.160156 Z M 582.644531 176.378906 L 613.285156 176.378906 L 613.285156 172.292969 L 582.644531 172.292969 Z M 657.878906 161.09375 L 627.238281 161.09375 L 627.238281 165.179688 L 657.878906 165.179688 Z M 649.929688 156.265625 L 627.238281 156.265625 L 627.238281 160.351562 L 649.929688 160.351562 Z M 644.605469 155.476562 L 660.980469 155.476562 L 660.980469 151.390625 L 644.605469 151.390625 Z M 644.246094 151.390625 L 627.238281 151.390625 L 627.238281 155.476562 L 644.246094 155.476562 Z M 657.878906 146.523438 L 627.238281 146.523438 L 627.238281 150.609375 L 657.878906 150.609375 Z M 649.929688 140.097656 L 627.238281 140.097656 L 627.238281 144.183594 L 649.929688 144.183594 Z M 644.605469 139.3125 L 664.699219 139.3125 L 664.699219 135.226562 L 644.605469 135.226562 Z M 644.246094 135.226562 L 627.238281 135.226562 L 627.238281 139.3125 L 644.246094 139.3125 Z M 657.878906 130.359375 L 627.238281 130.359375 L 627.238281 134.445312 L 657.878906 134.445312 Z M 662.21875 171.03125 L 629.71875 171.03125 L 629.71875 203.542969 L 662.21875 203.542969 Z M 666.304688 207.628906 L 625.632812 207.628906 L 625.632812 166.945312 L 666.304688 166.945312 Z M 618.542969 214.085938 L 586.046875 214.085938 L 586.046875 240.136719 L 618.542969 240.136719 Z M 622.628906 244.222656 L 581.964844 244.222656 L 581.964844 210 L 622.628906 210 Z M 618.542969 134.445312 L 586.046875 134.445312 L 586.046875 161.09375 L 618.542969 161.09375 Z M 622.628906 165.179688 L 581.964844 165.179688 L 581.964844 130.359375 L 622.628906 130.359375 Z M 653.335938 364.6875 L 630.648438 364.6875 L 630.648438 368.773438 L 653.335938 368.773438 Z M 668.105469 359.816406 L 648.011719 359.816406 L 648.011719 363.902344 L 668.105469 363.902344 Z M 630.648438 363.902344 L 647.652344 363.902344 L 647.652344 359.816406 L 630.648438 359.816406 Z M 661.289062 354.949219 L 630.648438 354.949219 L 630.648438 359.03125 L 661.289062 359.03125 Z M 630.648438 339.886719 L 653.335938 339.886719 L 653.335938 335.800781 L 630.648438 335.800781 Z M 668.105469 330.929688 L 648.011719 330.929688 L 648.011719 335.015625 L 668.105469 335.015625 Z M 630.648438 335.015625 L 647.652344 335.015625 L 647.652344 330.929688 L 630.648438 330.929688 Z M 661.289062 326.054688 L 630.648438 326.054688 L 630.648438 330.140625 L 661.289062 330.140625 Z M 630.648438 310.996094 L 653.335938 310.996094 L 653.335938 306.910156 L 630.648438 306.910156 Z M 668.105469 302.042969 L 648.011719 302.042969 L 648.011719 306.128906 L 668.105469 306.128906 Z M 630.648438 306.128906 L 647.652344 306.128906 L 647.652344 302.042969 L 630.648438 302.042969 Z M 661.289062 297.167969 L 630.648438 297.167969 L 630.648438 301.253906 L 661.289062 301.253906 Z M 604.996094 369.5625 L 620.390625 369.5625 L 620.390625 354.160156 L 604.996094 354.160156 Z M 600.914062 350.074219 L 624.472656 350.074219 L 624.472656 373.644531 L 600.914062 373.644531 Z M 620.390625 325.273438 L 604.996094 325.273438 L 604.996094 340.667969 L 620.390625 340.667969 Z M 624.472656 344.753906 L 600.914062 344.753906 L 600.914062 321.1875 L 624.472656 321.1875 Z M 620.390625 296.386719 L 604.996094 296.386719 L 604.996094 311.78125 L 620.390625 311.78125 Z M 624.472656 315.867188 L 600.914062 315.867188 L 600.914062 292.300781 L 624.472656 292.300781 Z M 579.277344 364.6875 L 556.59375 364.6875 L 556.59375 368.773438 L 579.277344 368.773438 Z M 573.957031 363.902344 L 594.050781 363.902344 L 594.050781 359.816406 L 573.957031 359.816406 Z M 573.597656 359.816406 L 556.59375 359.816406 L 556.59375 363.902344 L 573.597656 363.902344 Z M 587.234375 354.949219 L 556.59375 354.949219 L 556.59375 359.03125 L 587.234375 359.03125 Z M 579.277344 306.910156 L 556.59375 306.910156 L 556.59375 310.996094 L 579.277344 310.996094 Z M 573.957031 306.128906 L 594.050781 306.128906 L 594.050781 302.042969 L 573.957031 302.042969 Z M 573.597656 302.042969 L 556.59375 302.042969 L 556.59375 306.128906 L 573.597656 306.128906 Z M 587.234375 297.167969 L 556.59375 297.167969 L 556.59375 301.253906 L 587.234375 301.253906 Z M 530.941406 369.5625 L 546.335938 369.5625 L 546.335938 354.160156 L 530.941406 354.160156 Z M 526.859375 350.074219 L 550.417969 350.074219 L 550.417969 373.644531 L 526.859375 373.644531 Z M 546.335938 296.386719 L 530.941406 296.386719 L 530.941406 311.78125 L 546.335938 311.78125 Z M 550.417969 315.867188 L 526.859375 315.867188 L 526.859375 292.300781 L 550.417969 292.300781 Z M 543.117188 123.011719 L 442.183594 123.011719 L 442.183594 251.570312 L 543.117188 251.570312 Z M 714.761719 686.574219 C 714.761719 697.1875 569.984375 705.789062 391.398438 705.789062 C 212.808594 705.789062 68.035156 697.1875 68.035156 686.574219 C 68.035156 677.277344 179.121094 669.519531 326.707031 667.738281 L 293.21875 584.496094 C 292.515625 582.722656 293.382812 580.71875 295.152344 580.015625 C 296.925781 579.3125 298.929688 580.179688 299.632812 581.953125 L 334.113281 667.652344 C 352.707031 667.457031 371.847656 667.355469 391.398438 667.355469 C 452.722656 667.355469 510.0625 668.371094 558.921875 670.132812 L 560.863281 678.824219 L 605.054688 678.824219 L 603.546875 672.070312 C 671.679688 675.589844 714.761719 680.78125 714.761719 686.574219"/></g><path fill="#FFF" d="M 455.621094 238.855469 L 507.808594 238.855469 L 507.808594 237.492188 L 455.621094 237.492188 Z M 529.675781 229.1875 L 455.621094 229.1875 L 455.621094 230.550781 L 529.675781 230.550781 Z M 529.675781 220.878906 L 455.621094 220.878906 L 455.621094 222.242188 L 529.675781 222.242188 Z M 529.675781 212.574219 L 455.621094 212.574219 L 455.621094 213.9375 L 529.675781 213.9375 Z M 529.675781 204.265625 L 455.621094 204.265625 L 455.621094 205.628906 L 529.675781 205.628906 Z M 529.675781 195.957031 L 455.621094 195.957031 L 455.621094 197.316406 L 529.675781 197.316406 Z M 528.996094 139.667969 L 456.304688 139.667969 L 456.304688 186.609375 L 528.996094 186.609375 Z M 530.359375 187.972656 L 454.941406 187.972656 L 454.941406 138.304688 L 530.359375 138.304688 Z M 547.695312 295.027344 L 529.582031 295.027344 L 529.582031 313.144531 L 547.695312 313.144531 Z M 471.832031 328.582031 L 470.871094 327.621094 L 461.613281 336.882812 L 458.296875 333.5625 L 457.335938 334.523438 L 461.613281 338.808594 Z M 473.640625 342.03125 L 455.527344 342.03125 L 455.527344 323.910156 L 473.640625 323.910156 Z M 666.746094 303.40625 L 649.375 303.40625 L 649.375 304.765625 L 666.746094 304.765625 Z M 666.746094 332.289062 L 649.375 332.289062 L 649.375 333.652344 L 666.746094 333.652344 Z M 666.746094 361.175781 L 649.375 361.175781 L 649.375 362.539062 L 666.746094 362.539062 Z M 651.976562 366.050781 L 632.011719 366.050781 L 632.011719 367.410156 L 651.976562 367.410156 Z M 623.113281 293.664062 L 602.273438 293.664062 L 602.273438 314.507812 L 623.113281 314.507812 Z M 623.113281 322.550781 L 602.273438 322.550781 L 602.273438 343.394531 L 623.113281 343.394531 Z M 623.113281 351.4375 L 602.273438 351.4375 L 602.273438 372.285156 L 623.113281 372.285156 Z M 592.691406 303.40625 L 575.320312 303.40625 L 575.320312 304.765625 L 592.691406 304.765625 Z M 592.691406 332.289062 L 575.320312 332.289062 L 575.320312 333.652344 L 592.691406 333.652344 Z M 592.691406 361.175781 L 575.320312 361.175781 L 575.320312 362.539062 L 592.691406 362.539062 Z M 577.914062 366.050781 L 557.957031 366.050781 L 557.957031 367.410156 L 577.914062 367.410156 Z M 549.058594 293.664062 L 528.21875 293.664062 L 528.21875 314.507812 L 549.058594 314.507812 Z M 549.058594 322.550781 L 528.21875 322.550781 L 528.21875 343.394531 L 549.058594 343.394531 Z M 549.058594 351.4375 L 528.21875 351.4375 L 528.21875 372.285156 L 549.058594 372.285156 Z M 518.628906 303.40625 L 501.265625 303.40625 L 501.265625 304.765625 L 518.628906 304.765625 Z M 518.628906 332.289062 L 501.265625 332.289062 L 501.265625 333.652344 L 518.628906 333.652344 Z M 518.628906 361.175781 L 501.265625 361.175781 L 501.265625 362.539062 L 518.628906 362.539062 Z M 503.863281 366.050781 L 483.894531 366.050781 L 483.894531 367.410156 L 503.863281 367.410156 Z M 475.003906 293.664062 L 454.164062 293.664062 L 454.164062 314.507812 L 475.003906 314.507812 Z M 475.003906 322.550781 L 454.164062 322.550781 L 454.164062 343.394531 L 475.003906 343.394531 Z M 475.003906 351.4375 L 454.164062 351.4375 L 454.164062 372.285156 L 475.003906 372.285156 Z M 483.894531 362.539062 L 498.179688 362.539062 L 498.179688 361.175781 L 483.894531 361.175781 Z M 483.894531 357.671875 L 511.816406 357.671875 L 511.816406 356.308594 L 483.894531 356.308594 Z M 483.894531 338.523438 L 503.863281 338.523438 L 503.863281 337.164062 L 483.894531 337.164062 Z M 483.894531 333.652344 L 498.179688 333.652344 L 498.179688 332.289062 L 483.894531 332.289062 Z M 483.894531 328.78125 L 511.816406 328.78125 L 511.816406 327.417969 L 483.894531 327.417969 Z M 483.894531 309.632812 L 503.863281 309.632812 L 503.863281 308.273438 L 483.894531 308.273438 Z M 483.894531 304.765625 L 498.179688 304.765625 L 498.179688 303.40625 L 483.894531 303.40625 Z M 483.894531 299.894531 L 511.816406 299.894531 L 511.816406 298.53125 L 483.894531 298.53125 Z M 557.957031 362.539062 L 572.234375 362.539062 L 572.234375 361.175781 L 557.957031 361.175781 Z M 557.957031 357.671875 L 585.871094 357.671875 L 585.871094 356.308594 L 557.957031 356.308594 Z M 557.957031 338.523438 L 577.914062 338.523438 L 577.914062 337.164062 L 557.957031 337.164062 Z M 557.957031 333.652344 L 572.234375 333.652344 L 572.234375 332.289062 L 557.957031 332.289062 Z M 557.957031 328.78125 L 585.871094 328.78125 L 585.871094 327.417969 L 557.957031 327.417969 Z M 557.957031 309.632812 L 577.914062 309.632812 L 577.914062 308.273438 L 557.957031 308.273438 Z M 557.957031 304.765625 L 572.234375 304.765625 L 572.234375 303.40625 L 557.957031 303.40625 Z M 557.957031 299.894531 L 585.871094 299.894531 L 585.871094 298.53125 L 557.957031 298.53125 Z M 632.011719 362.539062 L 646.289062 362.539062 L 646.289062 361.175781 L 632.011719 361.175781 Z M 632.011719 357.671875 L 659.925781 357.671875 L 659.925781 356.308594 L 632.011719 356.308594 Z M 632.011719 338.523438 L 651.976562 338.523438 L 651.976562 337.164062 L 632.011719 337.164062 Z M 632.011719 333.652344 L 646.289062 333.652344 L 646.289062 332.289062 L 632.011719 332.289062 Z M 632.011719 328.78125 L 659.925781 328.78125 L 659.925781 327.417969 L 632.011719 327.417969 Z M 632.011719 309.632812 L 651.976562 309.632812 L 651.976562 308.273438 L 632.011719 308.273438 Z M 632.011719 304.765625 L 646.289062 304.765625 L 646.289062 303.40625 L 632.011719 303.40625 Z M 632.011719 299.894531 L 659.925781 299.894531 L 659.925781 298.53125 L 632.011719 298.53125 Z M 679.402344 385.417969 L 442.183594 385.417969 L 442.183594 276.6875 L 679.402344 276.6875 Z M 471.832031 357.46875 L 470.871094 356.507812 L 461.613281 365.769531 L 458.296875 362.453125 L 457.335938 363.417969 L 461.613281 367.695312 Z M 473.640625 370.921875 L 455.527344 370.921875 L 455.527344 352.796875 L 473.640625 352.796875 Z M 547.695312 352.796875 L 529.582031 352.796875 L 529.582031 370.921875 L 547.695312 370.921875 Z M 545.886719 328.582031 L 544.925781 327.621094 L 535.664062 336.882812 L 532.351562 333.5625 L 531.390625 334.523438 L 535.664062 338.808594 Z M 547.695312 342.03125 L 529.582031 342.03125 L 529.582031 323.910156 L 547.695312 323.910156 Z M 621.75 352.796875 L 603.636719 352.796875 L 603.636719 370.921875 L 621.75 370.921875 Z M 621.75 323.910156 L 603.636719 323.910156 L 603.636719 342.03125 L 621.75 342.03125 Z M 621.75 295.027344 L 603.636719 295.027344 L 603.636719 313.144531 L 621.75 313.144531 Z M 471.832031 299.695312 L 470.871094 298.734375 L 461.613281 307.988281 L 458.296875 304.675781 L 457.335938 305.636719 L 461.613281 309.914062 Z M 473.640625 313.144531 L 455.527344 313.144531 L 455.527344 295.027344 L 473.640625 295.027344 Z M 720.28125 407.265625 C 720.179688 407.191406 720.078125 407.125 719.972656 407.054688 L 719.972656 407.050781 C 719.015625 406.390625 717.851562 405.992188 716.578125 405.992188 L 431.589844 405.992188 C 428.683594 405.992188 426.199219 408.066406 425.683594 410.921875 L 386.945312 626.515625 C 386.507812 628.953125 387.605469 631.25 389.480469 632.53125 L 395.214844 636.582031 L 399.640625 633.574219 L 550.753906 633.574219 L 541.328125 591.382812 L 585.515625 591.382812 L 594.941406 633.574219 L 677.839844 633.574219 C 680.738281 633.574219 683.226562 631.496094 683.738281 628.636719 L 722.28125 414.152344 L 726.214844 411.46875 Z M 331.238281 586.132812 C 331.734375 586.132812 332.203125 585.914062 332.515625 585.542969 C 333.191406 584.75 333.808594 583.847656 334.453125 582.703125 C 334.957031 581.8125 335.425781 580.804688 335.878906 579.601562 C 336.320312 578.378906 336.613281 577.339844 336.804688 576.34375 C 337.058594 575.078125 337.1875 573.960938 337.191406 572.925781 C 337.195312 572.21875 336.75 571.589844 336.070312 571.367188 L 335.78125 571.292969 L 335.570312 571.292969 C 334.863281 571.292969 334.238281 571.742188 334.019531 572.414062 L 333.074219 575.328125 L 332.867188 575.917969 C 332.605469 576.675781 332.347656 577.425781 332.046875 578.1875 C 331.761719 578.953125 331.453125 579.707031 331.140625 580.460938 L 330.9375 580.957031 L 329.703125 583.808594 C 329.414062 584.488281 329.601562 585.265625 330.164062 585.738281 C 330.46875 585.996094 330.847656 586.132812 331.238281 586.132812 Z M 307.949219 602.625 L 308.460938 601.886719 C 310.664062 598.6875 312.65625 595.449219 314.378906 592.257812 C 317.050781 587.332031 319.421875 581.957031 321.441406 576.28125 C 323.417969 570.546875 324.917969 564.863281 325.890625 559.402344 C 326.925781 553.6875 327.484375 547.84375 327.554688 542.039062 C 327.558594 541.171875 326.894531 540.457031 325.933594 540.398438 C 325.074219 540.398438 324.367188 541.0625 324.316406 541.914062 C 323.964844 547.457031 323.214844 553.097656 322.085938 558.671875 C 320.910156 564.417969 319.402344 569.886719 317.585938 574.941406 C 315.816406 580.054688 313.570312 585.261719 310.90625 590.421875 C 309.53125 593.074219 307.988281 595.804688 306.300781 598.535156 L 306.933594 600.101562 C 307.058594 600.378906 307.339844 601.113281 307.339844 601.113281 C 307.738281 602.011719 307.949219 602.625 307.949219 602.625 Z M 208.628906 551.550781 C 208.371094 551.394531 208.085938 551.316406 207.789062 551.316406 C 207.222656 551.316406 206.691406 551.613281 206.398438 552.097656 C 205.527344 553.542969 204.734375 555.007812 203.808594 556.746094 C 203.273438 557.757812 202.765625 558.777344 202.257812 559.804688 C 201.984375 560.355469 201.714844 560.902344 201.414062 561.488281 L 200.722656 562.964844 C 200.207031 564.0625 199.691406 565.15625 199.203125 566.269531 C 198.527344 567.816406 197.808594 569.464844 197.167969 571.191406 C 196.890625 571.945312 197.1875 572.796875 197.875 573.207031 C 198.132812 573.359375 198.433594 573.445312 198.734375 573.445312 C 199.320312 573.445312 199.867188 573.132812 200.164062 572.636719 C 201.117188 571.046875 201.996094 569.398438 202.746094 567.964844 C 203.296875 566.898438 203.835938 565.8125 204.367188 564.730469 L 205.113281 563.214844 C 205.367188 562.65625 205.628906 562.09375 205.886719 561.535156 C 206.367188 560.503906 206.847656 559.472656 207.296875 558.429688 C 208.085938 556.621094 208.730469 555.085938 209.3125 553.503906 C 209.578125 552.773438 209.292969 551.949219 208.628906 551.550781 Z M 213.683594 466.6875 C 210.839844 463.796875 207.605469 461.535156 204.070312 459.96875 L 203.703125 459.835938 L 203.414062 459.835938 C 202.796875 459.835938 202.222656 460.195312 201.957031 460.746094 C 201.765625 461.136719 201.742188 461.578125 201.882812 461.984375 C 202.027344 462.394531 202.320312 462.726562 202.707031 462.917969 C 208.621094 465.785156 213.675781 471.125 216.929688 477.945312 C 219.949219 484.296875 221.449219 491.453125 221.257812 498.660156 C 221.132812 505.050781 219.84375 512.007812 217.324219 519.933594 C 215.117188 526.859375 212.238281 533.746094 209.460938 540.40625 L 209.386719 540.582031 C 209.042969 541.410156 209.414062 542.355469 210.234375 542.734375 L 210.632812 542.890625 L 210.929688 542.890625 C 211.578125 542.890625 212.167969 542.511719 212.445312 541.921875 C 215.484375 535.371094 218.648438 528.371094 221.058594 521.152344 C 223.753906 513.109375 225.152344 505.777344 225.339844 498.742188 C 225.472656 490.75 223.769531 482.96875 220.402344 476.242188 C 218.566406 472.59375 216.308594 469.378906 213.683594 466.6875 Z M 303.3125 525.277344 L 303.523438 525.269531 L 303.632812 525.253906 C 304.34375 525.136719 304.949219 524.652344 305.210938 523.976562 C 305.371094 523.574219 320.925781 483.238281 316.257812 444.378906 L 314.875 444.289062 L 312.152344 444.164062 L 312.136719 444.304688 L 312.164062 444.488281 C 316.066406 476.035156 306.171875 508.71875 302.601562 519.164062 L 246.410156 451.050781 C 245.910156 451.347656 245.394531 451.632812 244.867188 451.894531 C 244.125 452.257812 243.363281 452.570312 242.589844 452.839844 L 301.738281 524.535156 C 302.125 525.003906 302.699219 525.277344 303.3125 525.277344 Z M 368.914062 669.152344 L 447.023438 698.3125 L 310.816406 698.3125 L 275.550781 673.003906 C 277.347656 673.09375 279.246094 673.074219 281.257812 672.867188 C 293.28125 671.621094 296.253906 669.664062 296.851562 669.152344 L 297.488281 669.152344 L 308.28125 671.929688 C 310.800781 672.578125 313.429688 671.417969 314.671875 669.152344 L 327.277344 669.152344 L 328.570312 672.355469 C 328.75 672.808594 329.042969 673.207031 329.421875 673.511719 L 333.4375 676.75 C 333.8125 677.054688 334.378906 676.828125 334.445312 676.351562 L 335.152344 671.234375 C 335.21875 670.753906 335.160156 670.265625 334.984375 669.8125 L 334.710938 669.152344 L 368.914062 669.152344"/><path fill="#FFF" d="M 385.71875 487.222656 C 379.519531 479.609375 375.445312 469.765625 370.453125 460.71875 C 373.996094 455.5 375.015625 448.789062 378.796875 443.703125 C 383.101562 437.925781 390.476562 434.988281 394.5625 429.050781 C 397.800781 424.34375 398.535156 418.269531 397.761719 412.601562 C 397.496094 410.683594 397.066406 408.792969 396.546875 406.933594 C 397.011719 405.21875 396.726562 403.027344 395.84375 401.585938 C 395.507812 401.632812 395.171875 401.6875 394.839844 401.738281 C 394.246094 400.121094 393.613281 398.515625 392.972656 396.921875 C 393.230469 396.6875 393.433594 396.4375 393.554688 396.164062 C 394.398438 394.230469 393.503906 391.148438 391.554688 390.328125 C 389.90625 389.636719 388.25 388.984375 386.574219 388.359375 C 391.125 388.882812 393.480469 383.792969 390.253906 380.007812 C 386.535156 375.648438 379.800781 372.128906 375.269531 368.550781 C 374.230469 367.71875 373.15625 366.878906 371.878906 366.507812 C 370.601562 366.140625 369.058594 366.347656 368.214844 367.375 C 366.75 369.128906 368.113281 371.738281 369.46875 373.570312 C 373.398438 378.898438 377.636719 384.417969 383.53125 387.296875 C 379.246094 385.824219 374.894531 384.550781 370.472656 383.535156 C 369.082031 384.589844 368.75 386.652344 369.316406 388.308594 C 369.875 389.96875 371.140625 391.285156 372.472656 392.417969 C 373.894531 393.632812 375.441406 394.695312 377.078125 395.601562 C 377.011719 395.632812 376.9375 395.664062 376.867188 395.707031 C 375.765625 396.339844 374.746094 397.089844 373.796875 397.929688 C 373.957031 396.921875 373.847656 395.929688 373.324219 395.0625 C 367.703125 395.980469 362.066406 395.4375 356.429688 394.664062 C 348.03125 412.160156 342.59375 431.074219 340.414062 450.355469 C 339.027344 454.25 338.585938 458.132812 340.328125 461.199219 C 340.324219 461.199219 340.3125 461.199219 340.308594 461.199219 C 351.515625 486.210938 362.714844 511.226562 373.921875 536.238281 C 380.546875 551.050781 387.222656 565.890625 395.316406 579.929688 L 407.585938 511.667969 C 399.921875 503.863281 392.621094 495.703125 385.71875 487.222656 Z M 619.90625 212.722656 L 584.6875 212.722656 L 584.6875 241.5 L 619.90625 241.5 Z M 664.941406 168.308594 L 626.996094 168.308594 L 626.996094 206.265625 L 664.941406 206.265625 Z M 662.410156 221.109375 L 645.046875 221.109375 L 645.046875 222.46875 L 662.410156 222.46875 Z M 658.691406 237.269531 L 645.046875 237.269531 L 645.046875 238.632812 L 658.691406 238.632812 Z M 627.675781 237.269531 L 627.675781 238.632812 L 641.960938 238.632812 L 641.960938 237.269531 Z M 627.675781 232.402344 L 627.675781 233.761719 L 655.59375 233.761719 L 655.59375 232.402344 Z M 627.675781 225.976562 L 627.675781 227.335938 L 647.640625 227.335938 L 647.640625 225.976562 Z M 627.675781 221.109375 L 627.675781 222.46875 L 641.960938 222.46875 L 641.960938 221.109375 Z M 641.960938 212.722656 L 641.960938 211.363281 L 627.675781 211.363281 L 627.675781 212.722656 Z M 627.675781 216.234375 L 627.675781 217.597656 L 655.59375 217.597656 L 655.59375 216.234375 Z M 647.640625 242.140625 L 627.675781 242.140625 L 627.675781 243.503906 L 647.640625 243.503906 Z M 621.265625 131.71875 L 583.324219 131.71875 L 583.324219 163.820312 L 621.265625 163.820312 Z M 584.003906 204.265625 L 584.003906 205.628906 L 615.023438 205.628906 L 615.023438 204.265625 Z M 584.003906 199.5625 L 584.003906 200.925781 L 603.972656 200.925781 L 603.972656 199.5625 Z M 584.003906 194.691406 L 584.003906 196.050781 L 598.285156 196.050781 L 598.285156 194.691406 Z M 601.371094 194.691406 L 601.371094 196.050781 L 615.023438 196.050781 L 615.023438 194.691406 Z M 584.003906 189.816406 L 584.003906 191.179688 L 611.921875 191.179688 L 611.921875 189.816406 Z M 584.003906 183.394531 L 584.003906 184.757812 L 603.972656 184.757812 L 603.972656 183.394531 Z M 584.003906 178.523438 L 584.003906 179.886719 L 598.285156 179.886719 L 598.285156 178.523438 Z M 584.003906 173.65625 L 584.003906 175.015625 L 611.921875 175.015625 L 611.921875 173.65625 Z M 601.371094 178.523438 L 601.371094 179.886719 L 618.742188 179.886719 L 618.742188 178.523438 Z M 611.921875 168.308594 L 584.003906 168.308594 L 584.003906 169.671875 L 611.921875 169.671875 Z M 621.265625 211.363281 L 583.324219 211.363281 L 583.324219 242.859375 L 621.265625 242.859375 Z M 628.601562 163.820312 L 656.515625 163.820312 L 656.515625 162.457031 L 628.601562 162.457031 Z M 628.601562 158.988281 L 648.566406 158.988281 L 648.566406 157.628906 L 628.601562 157.628906 Z M 628.601562 154.117188 L 642.886719 154.117188 L 642.886719 152.753906 L 628.601562 152.753906 Z M 645.964844 152.753906 L 645.964844 154.117188 L 659.617188 154.117188 L 659.617188 152.753906 Z M 628.601562 149.25 L 656.515625 149.25 L 656.515625 147.886719 L 628.601562 147.886719 Z M 628.601562 142.820312 L 648.566406 142.820312 L 648.566406 141.460938 L 628.601562 141.460938 Z M 628.601562 137.949219 L 642.886719 137.949219 L 642.886719 136.585938 L 628.601562 136.585938 Z M 645.964844 136.585938 L 645.964844 137.949219 L 663.335938 137.949219 L 663.335938 136.585938 Z M 628.601562 133.082031 L 656.515625 133.082031 L 656.515625 131.71875 L 628.601562 131.71875 Z M 673.09375 123.011719 L 673.09375 251.570312 L 572.160156 251.570312 L 572.160156 123.011719 Z M 663.582031 169.671875 L 628.355469 169.671875 L 628.355469 204.902344 L 663.582031 204.902344 Z M 619.90625 133.082031 L 584.6875 133.082031 L 584.6875 162.457031 L 619.90625 162.457031 Z M 321.726562 636.863281 L 325.074219 645.1875 C 324.839844 644.703125 324.566406 644.234375 324.199219 643.832031 L 313.140625 631.554688 C 311.890625 630.164062 310.296875 629.121094 308.519531 628.542969 L 289.878906 622.433594 C 285.910156 621.136719 281.550781 622.261719 278.710938 625.320312 L 264.0625 641.074219 L 165.605469 638.199219 L 178.949219 611.246094 L 176.710938 605.996094 C 167.824219 585.179688 148.949219 570.324219 126.632812 566.574219 C 126.632812 566.574219 93.910156 642.632812 96.125 650.769531 C 98.34375 658.902344 103.519531 682.03125 130.128906 682.03125 C 149.292969 682.03125 223.316406 674.472656 263.207031 670.242188 C 267.238281 671.9375 273.496094 673.664062 281.257812 672.867188 C 295.1875 671.425781 296.984375 669.019531 296.984375 669.019531 L 308.28125 671.929688 C 310.863281 672.59375 313.5625 671.371094 314.769531 668.992188 L 315.785156 667.003906 C 316.40625 665.78125 317.625 664.972656 318.996094 664.882812 L 319.683594 664.832031 C 324.308594 664.53125 327.292969 659.808594 325.585938 655.496094 L 325.625 647.570312 C 325.628906 646.976562 325.515625 646.394531 325.335938 645.84375 L 325.339844 645.859375 C 330.496094 646.183594 334.511719 643.332031 331.324219 640.394531 C 329.371094 638.601562 325.265625 637.507812 321.726562 636.863281 Z M 316.273438 534.398438 C 316.273438 527.25 310.460938 521.433594 303.3125 521.433594 C 296.164062 521.433594 290.347656 527.25 290.347656 534.398438 C 290.347656 541.546875 296.164062 547.363281 303.3125 547.363281 C 310.460938 547.363281 316.273438 541.546875 316.273438 534.398438 Z M 263.449219 377.652344 C 263.046875 377.582031 262.640625 377.507812 262.238281 377.417969 C 258.472656 385.503906 258.328125 394.769531 258.851562 403.671875 C 259.371094 412.578125 260.484375 421.566406 258.992188 430.359375 C 258.824219 431.359375 258.605469 432.359375 258.355469 433.351562 C 259.257812 431.882812 260.003906 430.3125 260.550781 428.675781 C 262.503906 422.753906 262.367188 416.359375 262.210938 410.042969 C 262.117188 403.699219 262.152344 397.335938 262.464844 390.988281 C 262.675781 386.535156 263.007812 382.089844 263.449219 377.652344 Z M 294.191406 373.386719 C 296.953125 371.609375 299.035156 368.871094 300.875 366.058594 C 297.03125 369.449219 292.070312 371.394531 286.9375 370.695312 C 285.058594 372.304688 283.027344 373.679688 280.894531 374.796875 C 282.109375 375.007812 283.320312 375.199219 284.539062 375.300781 C 287.925781 375.625 291.414062 375.238281 294.191406 373.386719 Z M 360.59375 350.945312 C 359.320312 348.855469 358.359375 346.554688 357.730469 344.195312 C 356.296875 338.832031 356.296875 333.207031 356.304688 327.652344 C 356.3125 325.445312 356.238281 323.085938 355.832031 320.875 C 355.222656 320.527344 354.597656 320.210938 353.953125 319.960938 C 353.03125 319.609375 352.082031 319.328125 351.109375 319.171875 C 350.140625 318.996094 349.152344 318.941406 348.164062 318.964844 C 347.167969 318.996094 346.175781 319.152344 345.175781 319.375 C 345.03125 319.410156 344.890625 319.320312 344.855469 319.183594 C 344.832031 319.066406 344.886719 318.953125 344.976562 318.894531 C 345.90625 318.335938 346.964844 317.996094 348.046875 317.820312 C 349.132812 317.632812 350.246094 317.660156 351.332031 317.828125 C 352.417969 318.011719 353.488281 318.34375 354.453125 318.863281 C 354.835938 319.066406 355.195312 319.304688 355.546875 319.554688 C 355.246094 318.417969 354.84375 317.34375 354.289062 316.363281 C 354.089844 316.316406 353.878906 316.265625 353.679688 316.230469 C 353.035156 316.117188 352.398438 316.015625 351.753906 315.980469 C 351.109375 315.925781 350.464844 315.9375 349.8125 315.957031 C 349.15625 315.984375 348.503906 316.070312 347.816406 316.15625 C 347.671875 316.171875 347.535156 316.070312 347.519531 315.925781 C 347.503906 315.820312 347.558594 315.726562 347.632812 315.667969 C 348.238281 315.257812 348.929688 314.992188 349.648438 314.820312 C 350.359375 314.640625 351.105469 314.589844 351.839844 314.625 C 352.3125 314.65625 352.78125 314.742188 353.238281 314.851562 C 352.921875 314.484375 352.570312 314.140625 352.1875 313.820312 C 351.238281 313.703125 350.289062 313.675781 349.363281 313.800781 C 348.386719 313.933594 347.429688 314.167969 346.523438 314.542969 C 345.609375 314.90625 344.757812 315.40625 343.960938 315.992188 C 343.167969 316.585938 342.46875 317.304688 341.839844 318.117188 C 341.75 318.234375 341.585938 318.257812 341.46875 318.171875 C 341.375 318.101562 341.34375 317.976562 341.382812 317.867188 C 342.144531 315.789062 343.949219 314.144531 346.003906 313.289062 C 347.046875 312.863281 348.15625 312.601562 349.28125 312.597656 C 349.566406 312.589844 349.847656 312.601562 350.132812 312.625 C 345.796875 311.058594 339.605469 313.675781 338.371094 318.113281 C 338.011719 314.175781 334.882812 310.78125 331.132812 309.699219 C 331.441406 309.941406 331.753906 310.183594 332.042969 310.457031 C 332.878906 311.289062 333.601562 312.230469 334.132812 313.273438 C 334.671875 314.316406 335.046875 315.4375 335.164062 316.585938 C 335.175781 316.730469 335.074219 316.859375 334.925781 316.875 C 334.808594 316.882812 334.703125 316.816406 334.660156 316.714844 C 334.234375 315.699219 333.738281 314.742188 333.144531 313.859375 C 332.539062 312.984375 331.867188 312.160156 331.097656 311.433594 C 330.339844 310.699219 329.496094 310.058594 328.597656 309.488281 C 328.511719 309.4375 328.421875 309.394531 328.335938 309.347656 C 328.203125 309.351562 328.070312 309.347656 327.9375 309.355469 C 326.773438 309.453125 325.671875 309.757812 324.628906 310.214844 C 325.367188 310.277344 326.101562 310.421875 326.808594 310.640625 C 329.074219 311.363281 331.148438 312.925781 332.191406 315.042969 C 332.253906 315.171875 332.203125 315.332031 332.074219 315.394531 C 331.96875 315.449219 331.839844 315.417969 331.761719 315.335938 C 331.011719 314.523438 330.191406 313.820312 329.289062 313.257812 C 328.378906 312.699219 327.414062 312.242188 326.398438 311.9375 C 325.394531 311.617188 324.339844 311.449219 323.285156 311.394531 C 323.015625 311.382812 322.757812 311.410156 322.492188 311.421875 C 321.808594 311.890625 321.15625 312.414062 320.539062 312.996094 C 320.910156 312.964844 321.285156 312.953125 321.652344 312.957031 C 322.363281 312.992188 323.074219 313.070312 323.757812 313.261719 C 324.441406 313.4375 325.113281 313.683594 325.730469 314.050781 C 325.851562 314.125 325.894531 314.289062 325.820312 314.417969 C 325.765625 314.507812 325.671875 314.550781 325.570312 314.542969 L 323.574219 314.394531 C 322.917969 314.363281 322.273438 314.320312 321.625 314.320312 C 320.976562 314.304688 320.328125 314.324219 319.671875 314.335938 L 319.214844 314.359375 C 318.199219 315.496094 317.285156 316.734375 316.476562 317.992188 C 312.90625 323.503906 309.804688 329.5625 309.917969 336.132812 C 310.054688 344.109375 309.636719 352.394531 305.992188 359.496094 C 305.371094 360.71875 304.621094 361.875 303.785156 362.960938 C 303.222656 364.152344 302.625 365.328125 301.957031 366.46875 C 300.167969 369.511719 297.972656 372.4375 294.925781 374.511719 C 291.8125 376.605469 287.914062 376.9375 284.414062 376.519531 C 282.691406 376.3125 281.011719 375.960938 279.359375 375.546875 C 277.585938 376.347656 275.753906 376.980469 273.875 377.40625 C 274.492188 379.386719 275.195312 381.332031 275.992188 383.242188 C 277.703125 387.339844 279.800781 391.269531 282.300781 394.9375 C 284.746094 398.632812 287.613281 402.054688 290.753906 405.1875 C 293.910156 408.308594 297.367188 411.140625 301.09375 413.59375 C 301.21875 413.671875 301.25 413.832031 301.167969 413.953125 C 301.09375 414.066406 300.945312 414.101562 300.824219 414.035156 C 296.910156 411.816406 293.25 409.113281 289.957031 406.011719 C 286.65625 402.921875 283.734375 399.429688 281.171875 395.695312 C 278.660156 391.929688 276.511719 387.914062 274.875 383.695312 C 274.097656 381.707031 273.4375 379.667969 272.890625 377.605469 C 270.0625 378.136719 267.152344 378.214844 264.226562 377.785156 C 263.960938 382.199219 263.742188 386.617188 263.617188 391.03125 C 263.445312 397.363281 263.398438 403.6875 263.566406 410.015625 C 263.667969 416.320312 263.84375 422.890625 261.691406 429.066406 C 260.738281 431.722656 259.308594 434.203125 257.460938 436.335938 C 255.738281 441.34375 252.914062 445.972656 248.953125 449.238281 C 255.285156 459.84375 262.617188 469.90625 271.9375 477.960938 C 282.800781 487.339844 296.664062 493.832031 311.011719 493.664062 C 314.316406 493.621094 317.695312 493.214844 320.625 491.695312 C 323.554688 490.175781 325.972656 487.382812 326.347656 484.101562 C 326.898438 479.164062 322.921875 474.945312 318.9375 471.980469 C 314.953125 469.019531 308.238281 466.105469 308.535156 461.152344 C 309.355469 447.714844 309.992188 434.015625 310.8125 420.578125 C 317.761719 423.207031 325.464844 425.84375 332.425781 423.257812 C 338.722656 420.917969 342.78125 414.863281 345.925781 408.925781 C 355.347656 391.144531 360.351562 371.066406 360.59375 350.945312 Z M 195.59375 329.066406 L 165.738281 329.066406 L 165.738281 252.941406 C 165.28125 253.671875 164.824219 254.386719 164.378906 255.121094 L 164.378906 330.429688 L 195.484375 330.429688 C 195.523438 329.972656 195.539062 329.519531 195.59375 329.066406 Z M 268.707031 265.164062 C 269.152344 264.957031 269.609375 264.777344 270.066406 264.585938 L 270.066406 172.707031 L 231.316406 172.707031 C 230.828125 173.160156 230.347656 173.617188 229.863281 174.070312 L 268.707031 174.070312 Z M 376.304688 286.414062 C 376.671875 286.859375 377.027344 287.3125 377.367188 287.773438 L 408.332031 287.773438 L 408.332031 130.054688 L 302.640625 130.054688 L 302.640625 260.722656 C 303.101562 260.804688 303.550781 260.910156 304.003906 261.011719 L 304.003906 131.417969 L 406.96875 131.417969 L 406.96875 286.414062 Z M 298.558594 260.117188 L 298.558594 125.96875 L 412.414062 125.96875 L 412.414062 291.859375 L 380.027344 291.859375 C 380.28125 292.3125 380.535156 292.765625 380.777344 293.222656 L 413.777344 293.222656 L 413.777344 124.605469 L 300.488281 124.605469 C 299.386719 125.140625 298.285156 125.671875 297.195312 126.21875 L 297.195312 259.988281 C 297.476562 260.011719 297.753906 260.015625 298.035156 260.042969 C 298.210938 260.0625 298.382812 260.097656 298.558594 260.117188 Z M 274.195312 262.972656 C 274.644531 262.816406 275.101562 262.664062 275.554688 262.515625 L 275.554688 167.261719 L 237.332031 167.261719 C 236.820312 167.714844 236.320312 168.171875 235.816406 168.621094 L 274.195312 168.621094 Z M 195.421875 335.875 L 158.972656 335.875 L 158.972656 264.164062 C 159.433594 263.390625 159.878906 262.605469 160.335938 261.832031 L 160.335938 334.515625 L 195.363281 334.515625 C 195.375 334.964844 195.394531 335.417969 195.421875 335.875"/><g clip-path="url(#b)"><path fill="#4856A2" d="M 302.8125 668.796875 C 302.25 668.238281 301.695312 667.667969 301.199219 667.058594 C 300.691406 666.457031 300.238281 665.8125 299.792969 665.152344 C 299.351562 664.484375 298.960938 663.785156 298.558594 663.058594 C 298.511719 662.964844 298.410156 662.90625 298.296875 662.925781 C 298.152344 662.941406 298.046875 663.066406 298.0625 663.214844 C 298.160156 664.074219 298.425781 664.910156 298.78125 665.699219 C 298.929688 666.042969 299.109375 666.367188 299.300781 666.683594 C 299.222656 666.75 299.136719 666.808594 299.066406 666.875 C 298.796875 667.160156 298.617188 667.507812 298.488281 667.871094 C 298.382812 668.234375 298.3125 668.609375 298.355469 668.992188 C 298.386719 669.367188 298.476562 669.742188 298.695312 670.0625 C 298.734375 670.109375 298.78125 670.148438 298.839844 670.167969 C 298.988281 670.222656 299.148438 670.148438 299.207031 670 L 299.210938 669.976562 C 299.328125 669.660156 299.402344 669.371094 299.5 669.101562 C 299.601562 668.828125 299.675781 668.570312 299.777344 668.3125 C 299.84375 668.109375 299.925781 667.917969 300.003906 667.71875 C 300.050781 667.78125 300.09375 667.855469 300.148438 667.917969 C 300.707031 668.59375 301.328125 669.210938 302.042969 669.722656 C 302.742188 670.226562 303.503906 670.664062 304.332031 670.929688 C 304.449219 670.96875 304.589844 670.929688 304.675781 670.828125 C 304.78125 670.695312 304.765625 670.5 304.625 670.386719 C 304 669.859375 303.382812 669.351562 302.8125 668.796875 Z M 318.523438 647.09375 C 319.820312 648.492188 321.019531 649.988281 322.199219 651.492188 C 323.375 653.003906 324.492188 654.5625 325.597656 656.140625 C 325.671875 656.242188 325.804688 656.28125 325.921875 656.226562 C 326.054688 656.164062 326.105469 656.007812 326.050781 655.878906 C 325.21875 654.113281 324.21875 652.433594 323.128906 650.816406 C 322.039062 649.195312 320.808594 647.671875 319.539062 646.1875 C 318.21875 644.746094 316.847656 643.347656 315.371094 642.070312 C 313.890625 640.792969 312.335938 639.601562 310.683594 638.570312 C 310.5625 638.492188 310.390625 638.511719 310.289062 638.628906 C 310.179688 638.757812 310.1875 638.953125 310.316406 639.066406 C 311.757812 640.339844 313.1875 641.617188 314.554688 642.960938 C 315.929688 644.289062 317.269531 645.652344 318.523438 647.09375 Z M 297.234375 667.765625 C 297.167969 667.585938 297.105469 667.402344 296.992188 667.234375 C 296.894531 667.058594 296.78125 666.875 296.589844 666.699219 L 296.574219 666.691406 C 296.550781 666.667969 296.527344 666.648438 296.496094 666.632812 C 296.308594 666.535156 296.074219 666.609375 295.984375 666.796875 C 295.855469 667.042969 295.828125 667.285156 295.828125 667.519531 C 295.820312 667.757812 295.878906 667.988281 295.953125 668.210938 C 296.042969 668.425781 296.136719 668.636719 296.300781 668.8125 C 296.457031 669 296.632812 669.164062 296.886719 669.277344 C 296.910156 669.285156 296.9375 669.296875 296.960938 669.296875 C 297.136719 669.328125 297.308594 669.210938 297.339844 669.035156 L 297.339844 669.027344 C 297.386719 668.765625 297.371094 668.550781 297.351562 668.34375 C 297.34375 668.136719 297.285156 667.953125 297.234375 667.765625 Z M 168.355469 638.300781 C 164.542969 637.605469 160.664062 637.273438 156.777344 637.21875 C 152.890625 637.171875 149.003906 637.453125 145.152344 637.972656 C 141.304688 638.554688 137.492188 639.359375 133.777344 640.492188 C 130.058594 641.617188 126.429688 643.023438 122.957031 644.746094 C 122.839844 644.804688 122.78125 644.949219 122.828125 645.078125 C 122.882812 645.210938 123.039062 645.273438 123.171875 645.21875 C 126.75 643.808594 130.386719 642.582031 134.09375 641.597656 C 137.796875 640.613281 141.546875 639.816406 145.34375 639.320312 C 149.128906 638.761719 152.953125 638.492188 156.785156 638.425781 C 160.613281 638.359375 164.445312 638.539062 168.269531 638.910156 C 168.429688 638.925781 168.578125 638.816406 168.605469 638.65625 C 168.636719 638.492188 168.527344 638.332031 168.355469 638.300781 Z M 262.507812 669.765625 C 260.183594 668.429688 258.765625 665.566406 259.101562 662.738281 C 259.117188 662.59375 259.03125 662.449219 258.886719 662.402344 C 258.722656 662.347656 258.550781 662.441406 258.5 662.605469 C 257.738281 664.957031 258.449219 667.667969 260.148438 669.546875 C 259.226562 669.402344 258.316406 669.152344 257.46875 668.78125 C 256.003906 668.144531 254.667969 667.117188 254.019531 665.621094 C 253.972656 665.507812 253.851562 665.441406 253.726562 665.46875 C 253.589844 665.492188 253.496094 665.632812 253.519531 665.777344 C 253.691406 666.667969 254.179688 667.492188 254.78125 668.183594 C 255.402344 668.859375 256.148438 669.410156 256.945312 669.84375 C 258.550781 670.691406 260.367188 671.117188 262.207031 671.03125 C 262.429688 671.015625 262.648438 670.894531 262.765625 670.691406 C 262.949219 670.359375 262.832031 669.953125 262.507812 669.765625 Z M 369.996094 462.027344 C 369.335938 462.421875 368.707031 462.820312 368.066406 463.171875 C 367.410156 463.519531 366.765625 463.863281 366.101562 464.15625 C 365.441406 464.464844 364.761719 464.726562 364.074219 464.988281 C 363.382812 465.242188 362.675781 465.453125 361.953125 465.695312 C 361.835938 465.730469 361.746094 465.835938 361.734375 465.964844 C 361.71875 466.136719 361.847656 466.289062 362.019531 466.304688 C 362.816406 466.386719 363.613281 466.304688 364.402344 466.144531 C 365.183594 465.996094 365.941406 465.726562 366.671875 465.390625 C 367.394531 465.046875 368.085938 464.636719 368.707031 464.128906 C 369.324219 463.628906 369.898438 463.066406 370.351562 462.40625 C 370.410156 462.328125 370.414062 462.210938 370.363281 462.121094 C 370.28125 461.996094 370.117188 461.953125 369.996094 462.027344 Z M 328.039062 407.070312 C 327.546875 407.050781 327.070312 407.066406 326.585938 407.066406 C 326.105469 407.074219 325.628906 407.070312 325.140625 407.097656 C 324.648438 407.117188 324.15625 407.128906 323.644531 407.199219 C 323.558594 407.207031 323.480469 407.261719 323.4375 407.339844 C 323.363281 407.46875 323.410156 407.640625 323.542969 407.707031 C 324.011719 407.976562 324.515625 408.128906 325.027344 408.246094 C 325.539062 408.367188 326.066406 408.410156 326.585938 408.421875 C 327.113281 408.421875 327.640625 408.390625 328.148438 408.273438 C 328.664062 408.160156 329.171875 408.015625 329.644531 407.757812 C 329.730469 407.707031 329.796875 407.617188 329.808594 407.511719 C 329.832031 407.335938 329.703125 407.171875 329.527344 407.148438 C 329.011719 407.085938 328.523438 407.085938 328.039062 407.070312 Z M 329.371094 395.953125 L 321.535156 395.484375 L 315.140625 395.015625 C 316.550781 396.648438 318.367188 397.984375 320.304688 399.042969 C 321.492188 399.6875 322.734375 400.230469 324.023438 400.65625 C 325.277344 401.074219 326.699219 401.367188 327.910156 401.464844 L 328 401.46875 C 330.238281 400.457031 332.398438 398.925781 334.132812 397.128906 C 334.347656 396.914062 334.601562 396.644531 334.753906 396.453125 C 334.8125 396.378906 334.839844 396.3125 334.855469 396.277344 C 334.796875 396.25 334.5625 396.207031 334.269531 396.207031 L 333.289062 396.160156 C 331.984375 396.101562 330.675781 396.03125 329.371094 395.953125 Z M 321.625 394.132812 L 329.453125 394.707031 C 330.761719 394.796875 332.0625 394.902344 333.367188 395.019531 L 334.347656 395.105469 C 334.644531 395.160156 335.085938 395.085938 335.601562 395.5 C 335.863281 395.722656 335.972656 396.132812 335.898438 396.441406 C 335.828125 396.746094 335.691406 396.929688 335.5625 397.089844 C 335.292969 397.394531 335.085938 397.589844 334.828125 397.835938 C 332.871094 399.703125 330.601562 401.074219 328.011719 402.023438 L 327.910156 402.058594 C 326.410156 402.03125 325.140625 401.789062 323.789062 401.425781 C 322.4375 401.046875 321.117188 400.542969 319.851562 399.925781 C 318.59375 399.296875 317.378906 398.5625 316.253906 397.695312 C 315.125 396.828125 314.070312 395.839844 313.226562 394.636719 C 313.023438 394.355469 313.09375 393.960938 313.375 393.765625 C 313.496094 393.679688 313.636719 393.644531 313.773438 393.652344 L 313.789062 393.652344 Z M 335.554688 387.835938 C 336.429688 388.019531 337.367188 387.785156 338.144531 387.359375 C 338.917969 386.910156 339.5625 386.253906 340.03125 385.476562 C 340.957031 383.914062 341.058594 382.09375 340.957031 380.445312 C 340.828125 378.789062 340.535156 377.152344 340.019531 375.582031 C 339.519531 374.011719 338.84375 372.496094 337.957031 371.125 C 337.886719 371.023438 337.761719 370.976562 337.644531 371.023438 C 337.503906 371.078125 337.441406 371.226562 337.496094 371.359375 C 338.070312 372.855469 338.5625 374.355469 338.914062 375.890625 C 339.261719 377.421875 339.511719 378.976562 339.601562 380.53125 C 339.707031 382.074219 339.601562 383.609375 338.972656 384.898438 C 338.351562 386.148438 337.085938 387.210938 335.617188 387.222656 C 335.472656 387.222656 335.339844 387.324219 335.3125 387.46875 C 335.277344 387.632812 335.382812 387.796875 335.554688 387.835938 Z M 304.375 348.636719 C 306.324219 347.984375 308.304688 347.488281 310.316406 347.207031 C 312.328125 346.929688 314.359375 346.808594 316.378906 346.945312 C 318.402344 347.027344 320.410156 347.355469 322.378906 347.84375 C 324.347656 348.328125 326.261719 349.03125 328.132812 349.878906 C 328.265625 349.941406 328.4375 349.898438 328.515625 349.765625 C 328.613281 349.628906 328.574219 349.4375 328.429688 349.339844 C 326.671875 348.179688 324.722656 347.308594 322.703125 346.6875 C 320.675781 346.058594 318.566406 345.722656 316.449219 345.589844 C 314.328125 345.519531 312.195312 345.644531 310.125 346.078125 C 308.050781 346.503906 306.03125 347.179688 304.167969 348.160156 C 304.058594 348.21875 304.003906 348.351562 304.042969 348.472656 C 304.089844 348.613281 304.238281 348.6875 304.375 348.636719 Z M 346.605469 352.640625 C 347.617188 351.804688 348.667969 351.074219 349.800781 350.484375 C 350.929688 349.90625 352.109375 349.429688 353.332031 349.113281 C 354.550781 348.777344 355.804688 348.589844 357.070312 348.527344 C 358.34375 348.460938 359.617188 348.5625 360.902344 348.769531 C 361.039062 348.792969 361.183594 348.722656 361.242188 348.585938 C 361.308594 348.429688 361.234375 348.246094 361.078125 348.179688 C 359.820312 347.644531 358.449219 347.378906 357.070312 347.320312 C 355.695312 347.253906 354.304688 347.4375 352.972656 347.796875 C 351.648438 348.175781 350.359375 348.730469 349.214844 349.496094 C 348.066406 350.25 347.023438 351.179688 346.226562 352.28125 C 346.15625 352.378906 346.15625 352.511719 346.238281 352.605469 C 346.328125 352.71875 346.5 352.730469 346.605469 352.640625 Z M 722.734375 410.347656 L 437.742188 410.347656 C 434.839844 410.347656 432.355469 412.421875 431.839844 415.285156 L 393.105469 630.871094 C 392.4375 634.554688 395.261719 637.933594 399.003906 637.933594 L 551.042969 637.933594 L 555.390625 657.09375 C 555.960938 659.558594 556.566406 662.007812 557.140625 664.46875 L 485.703125 664.46875 L 459.804688 678.824219 L 560.550781 678.824219 C 560.554688 678.847656 560.5625 678.871094 560.566406 678.894531 C 560.605469 679.054688 560.765625 679.15625 560.929688 679.121094 C 561.09375 679.089844 561.199219 678.925781 561.167969 678.761719 C 559.679688 671.441406 558.152344 664.132812 556.566406 656.832031 L 551.757812 634.957031 L 546.777344 613.113281 C 545.09375 605.859375 543.363281 598.617188 541.597656 591.382812 L 585.269531 591.382812 C 585.269531 591.398438 585.261719 591.414062 585.261719 591.4375 C 586.746094 598.757812 588.265625 606.070312 589.839844 613.371094 L 594.621094 635.25 L 599.582031 657.09375 C 601.257812 664.371094 602.988281 671.636719 604.753906 678.894531 C 604.789062 679.054688 604.949219 679.15625 605.113281 679.121094 C 605.257812 679.097656 605.335938 678.964844 605.34375 678.824219 L 641.785156 678.824219 L 616.566406 664.46875 L 602.359375 664.46875 C 601.824219 661.925781 601.304688 659.375 600.757812 656.832031 L 596.605469 637.933594 L 683.992188 637.933594 C 686.890625 637.933594 689.378906 635.851562 689.890625 632.996094 L 728.628906 417.402344 C 729.296875 413.726562 726.464844 410.347656 722.734375 410.347656 Z M 373.414062 466.304688 C 377.195312 473.671875 380.78125 481.160156 385.71875 487.222656 C 392.621094 495.703125 399.921875 503.863281 407.585938 511.667969 L 409.273438 502.289062 C 400.042969 493.527344 391.191406 484.503906 385.679688 477.398438 C 382.519531 473.324219 378.238281 469.621094 373.414062 466.304688 Z M 335.828125 572.917969 C 335.828125 572.808594 335.761719 572.699219 335.648438 572.664062 C 335.511719 572.621094 335.363281 572.695312 335.320312 572.835938 L 334.363281 575.777344 C 334.019531 576.742188 333.695312 577.710938 333.324219 578.660156 C 332.96875 579.617188 332.574219 580.554688 332.1875 581.5 L 330.953125 584.335938 C 330.90625 584.457031 330.929688 584.605469 331.042969 584.695312 C 331.171875 584.808594 331.367188 584.792969 331.480469 584.660156 C 332.171875 583.851562 332.746094 582.957031 333.265625 582.03125 C 333.792969 581.105469 334.222656 580.132812 334.59375 579.136719 C 334.957031 578.136719 335.269531 577.121094 335.46875 576.074219 C 335.679688 575.035156 335.824219 573.984375 335.828125 572.917969 Z M 223.976562 498.71875 C 224.105469 491.191406 222.5625 483.601562 219.191406 476.855469 C 217.492188 473.492188 215.34375 470.34375 212.710938 467.640625 C 210.074219 464.960938 206.953125 462.738281 203.523438 461.21875 C 203.394531 461.160156 203.238281 461.214844 203.179688 461.34375 C 203.117188 461.46875 203.171875 461.625 203.304688 461.6875 C 209.96875 464.921875 215.015625 470.78125 218.160156 477.359375 C 221.308594 483.976562 222.8125 491.367188 222.621094 498.6875 C 222.472656 506.042969 220.859375 513.3125 218.621094 520.34375 C 216.375 527.394531 213.511719 534.246094 210.644531 541.101562 C 210.578125 541.25 210.648438 541.429688 210.804688 541.5 C 210.957031 541.570312 211.136719 541.5 211.207031 541.347656 C 214.335938 534.605469 217.398438 527.808594 219.765625 520.722656 C 222.136719 513.644531 223.78125 506.246094 223.976562 498.71875 Z M 207.925781 552.714844 C 207.796875 552.640625 207.636719 552.675781 207.5625 552.800781 C 206.660156 554.304688 205.832031 555.84375 205.011719 557.386719 C 204.191406 558.929688 203.441406 560.507812 202.648438 562.0625 C 201.914062 563.648438 201.15625 565.222656 200.449219 566.816406 C 199.746094 568.417969 199.054688 570.023438 198.441406 571.667969 C 198.394531 571.800781 198.449219 571.960938 198.574219 572.042969 C 198.726562 572.125 198.917969 572.078125 199 571.933594 C 199.90625 570.429688 200.722656 568.886719 201.53125 567.339844 C 202.339844 565.789062 203.097656 564.214844 203.871094 562.652344 C 204.597656 561.0625 205.355469 559.492188 206.046875 557.886719 C 206.746094 556.285156 207.429688 554.671875 208.03125 553.027344 C 208.074219 552.910156 208.03125 552.777344 207.925781 552.714844 Z M 394.0625 577.707031 L 388.375 582.511719 C 381.941406 602.292969 365.867188 633.765625 365.867188 633.765625 L 365.867188 667.625 L 334.101562 667.625 L 325.339844 645.859375 C 330.496094 646.183594 334.511719 643.332031 331.324219 640.394531 C 329.371094 638.601562 325.265625 637.507812 321.71875 636.855469 L 307.339844 601.113281 C 309.449219 598.050781 311.414062 594.882812 313.183594 591.609375 C 315.921875 586.546875 318.226562 581.261719 320.15625 575.835938 C 322.027344 570.398438 323.539062 564.824219 324.550781 559.164062 C 325.574219 553.503906 326.128906 547.761719 326.191406 542.023438 C 326.191406 541.882812 326.085938 541.765625 325.949219 541.761719 C 325.804688 541.75 325.683594 541.855469 325.671875 542.007812 C 325.308594 547.703125 324.550781 553.363281 323.421875 558.945312 C 322.285156 564.523438 320.792969 570.03125 318.875 575.386719 C 317.011719 580.761719 314.726562 585.988281 312.113281 591.042969 C 310.519531 594.132812 308.78125 597.152344 306.933594 600.101562 L 299.632812 581.953125 C 298.929688 580.179688 296.925781 579.3125 295.152344 580.015625 C 293.382812 580.71875 292.515625 582.722656 293.21875 584.496094 L 311.59375 630.171875 C 310.664062 629.46875 309.636719 628.910156 308.519531 628.542969 L 289.878906 622.433594 C 285.910156 621.136719 281.550781 622.261719 278.710938 625.320312 L 278.175781 625.894531 C 278.175781 625.894531 278.183594 625.894531 278.183594 625.894531 C 278.277344 625.988281 278.285156 626.136719 278.203125 626.238281 C 276.609375 628.324219 274.878906 630.304688 273.113281 632.246094 C 271.355469 634.1875 269.511719 636.054688 267.6875 637.933594 C 265.824219 639.765625 263.960938 641.613281 262.050781 643.402344 C 260.136719 645.1875 258.210938 646.960938 256.222656 648.667969 C 256.089844 648.777344 255.898438 648.761719 255.785156 648.636719 C 255.683594 648.511719 255.683594 648.335938 255.792969 648.226562 C 257.550781 646.285156 259.382812 644.410156 261.210938 642.539062 L 262.699219 641.035156 L 215.492188 639.65625 L 198.683594 572.769531 L 178.949219 611.246094 L 176.710938 605.996094 C 167.824219 585.179688 148.949219 570.324219 126.632812 566.574219 C 126.632812 566.574219 125.320312 569.632812 123.234375 574.585938 C 120.148438 568.84375 117.804688 562.535156 116.640625 555.609375 C 116.640625 555.609375 143.875 476.136719 181.09375 452.800781 C 188.96875 448.914062 194.851562 448.964844 202.496094 449.6875 C 209.652344 450.363281 216.664062 451.933594 223.722656 453.273438 C 230.449219 454.550781 237.675781 455.007812 243.925781 452.316406 L 302.117188 522.855469 C 296.269531 523.457031 291.707031 528.394531 291.707031 534.398438 C 291.707031 540.808594 296.902344 546.007812 303.3125 546.007812 C 309.722656 546.007812 314.910156 540.808594 314.910156 534.398438 C 314.910156 528.285156 310.183594 523.292969 304.183594 522.839844 C 306.132812 517.578125 319.285156 480.257812 314.875 444.289062 C 318.671875 444.5 322.335938 444.964844 325.640625 445.792969 L 325.632812 445.78125 C 325.632812 445.78125 331.824219 447.339844 340.410156 450.367188 C 339.738281 452.25 339.296875 454.132812 339.210938 455.921875 C 339.207031 456.023438 339.203125 456.117188 339.203125 456.21875 C 339.191406 456.613281 339.195312 457 339.222656 457.382812 C 339.226562 457.453125 339.238281 457.523438 339.242188 457.59375 C 339.277344 457.9375 339.328125 458.277344 339.394531 458.617188 C 339.410156 458.683594 339.417969 458.757812 339.433594 458.828125 C 339.515625 459.195312 339.621094 459.554688 339.75 459.90625 C 339.777344 459.984375 339.808594 460.066406 339.839844 460.140625 C 339.984375 460.503906 340.136719 460.859375 340.335938 461.203125 C 340.328125 461.199219 340.320312 461.199219 340.308594 461.199219 C 351.515625 486.210938 362.714844 511.226562 373.921875 536.238281 C 375.105469 538.898438 376.304688 541.558594 377.503906 544.214844 C 377.710938 544.671875 377.921875 545.132812 378.132812 545.589844 C 379.335938 548.246094 380.550781 550.890625 381.785156 553.535156 C 382 553.984375 382.210938 554.4375 382.425781 554.890625 C 383.683594 557.566406 384.96875 560.230469 386.273438 562.878906 C 386.417969 563.171875 386.566406 563.460938 386.710938 563.753906 C 387.933594 566.210938 389.183594 568.652344 390.464844 571.078125 C 391.636719 573.300781 392.828125 575.515625 394.0625 577.707031 Z M 307.339844 601.113281 L 307.265625 600.921875 Z M 262.226562 418.214844 C 260.601562 417.59375 259.679688 417.210938 259.679688 417.210938 C 259.679688 417.242188 259.679688 417.273438 259.679688 417.300781 C 259.71875 418.371094 259.738281 419.433594 259.738281 420.496094 C 259.738281 420.695312 259.726562 420.890625 259.722656 421.089844 C 259.71875 421.992188 259.707031 422.890625 259.664062 423.789062 C 259.648438 424.238281 259.601562 424.683594 259.574219 425.132812 C 259.53125 425.78125 259.492188 426.429688 259.429688 427.078125 C 259.316406 428.175781 259.175781 429.269531 258.992188 430.359375 C 258.824219 431.359375 258.605469 432.359375 258.355469 433.351562 C 259.257812 431.882812 260.003906 430.3125 260.550781 428.675781 C 261.664062 425.304688 262.082031 421.785156 262.226562 418.214844 Z M 313.511719 444.320312 C 313.507812 444.28125 313.519531 444.25 313.519531 444.214844 C 312.28125 444.164062 311.03125 444.132812 309.769531 444.132812 C 309.625 442.605469 309.628906 441.664062 309.628906 441.664062 C 309.628906 441.664062 315.375 437.195312 315.375 433.589844 C 315.375 429.988281 310.28125 429.742188 310.28125 429.742188 C 292.378906 428.914062 271.863281 421.855469 263.515625 418.710938 C 263.339844 422.207031 262.867188 425.695312 261.691406 429.066406 C 260.738281 431.722656 259.308594 434.203125 257.460938 436.335938 C 257.460938 436.339844 257.460938 436.34375 257.457031 436.351562 C 257.179688 437.152344 256.875 437.945312 256.542969 438.722656 C 256.519531 438.769531 256.503906 438.8125 256.484375 438.855469 C 256.164062 439.59375 255.824219 440.320312 255.453125 441.019531 C 255.429688 441.070312 255.410156 441.117188 255.382812 441.160156 C 255.019531 441.84375 254.632812 442.503906 254.222656 443.160156 C 254.132812 443.308594 254.03125 443.453125 253.9375 443.601562 C 253.570312 444.164062 253.179688 444.714844 252.777344 445.246094 C 252.691406 445.351562 252.613281 445.464844 252.53125 445.570312 C 252.117188 446.085938 251.6875 446.585938 251.234375 447.070312 C 251.058594 447.261719 250.878906 447.449219 250.691406 447.632812 C 250.246094 448.089844 249.78125 448.53125 249.296875 448.949219 C 249.097656 449.117188 248.886719 449.273438 248.6875 449.429688 C 248.308594 449.738281 247.914062 450.027344 247.515625 450.308594 C 247.277344 450.472656 247.039062 450.640625 246.789062 450.796875 C 246.273438 451.125 245.746094 451.433594 245.191406 451.714844 L 303.082031 521.890625 C 305.515625 515.199219 317.8125 479.074219 313.511719 444.320312 Z M 317.347656 364.5 C 318.003906 362.289062 317.4375 360.171875 316.097656 359.777344 C 314.757812 359.378906 313.140625 360.859375 312.488281 363.070312 C 311.839844 365.285156 312.394531 367.394531 313.742188 367.792969 C 315.082031 368.1875 316.699219 366.714844 317.347656 364.5 Z M 350.878906 359.777344 C 349.539062 359.378906 347.921875 360.859375 347.273438 363.070312 C 346.621094 365.285156 347.183594 367.394531 348.523438 367.792969 C 349.863281 368.1875 351.480469 366.714844 352.136719 364.5 C 352.785156 362.289062 352.226562 360.171875 350.878906 359.777344 Z M 375.203125 344.53125 C 375.042969 345.117188 374.921875 345.707031 374.835938 346.3125 C 374.4375 349.097656 375.398438 351.925781 377.210938 353.8125 Z M 350.136719 400.132812 L 351.433594 406.128906 C 352.964844 402.25 354.625 398.425781 356.429688 394.664062 C 362.066406 395.4375 367.703125 395.980469 373.324219 395.0625 C 374.953125 397.765625 372.640625 401.679688 370.175781 403.644531 C 367.707031 405.601562 364.480469 406.261719 361.386719 406.863281 C 361.847656 408.171875 362.25 409.492188 362.644531 410.816406 C 362.367188 410.308594 362.085938 409.808594 361.777344 409.332031 C 361.710938 409.21875 361.566406 409.175781 361.449219 409.230469 C 361.316406 409.292969 361.257812 409.449219 361.320312 409.574219 C 362.417969 411.921875 363.316406 414.34375 363.957031 416.820312 C 364.597656 419.304688 365.039062 421.839844 365.171875 424.390625 C 365.367188 426.945312 365.265625 429.507812 364.949219 432.050781 C 364.640625 434.59375 364.058594 437.105469 363.285156 439.570312 C 363.234375 439.71875 363.304688 439.878906 363.449219 439.941406 C 363.601562 440.015625 363.789062 439.945312 363.859375 439.792969 C 364.957031 437.398438 365.699219 434.835938 366.140625 432.226562 C 366.484375 430.191406 366.617188 428.121094 366.585938 426.050781 L 384.269531 419.539062 C 383.574219 420.429688 382.917969 421.34375 382.359375 422.316406 C 381.652344 423.546875 381.035156 424.824219 380.59375 426.164062 C 380.550781 426.300781 380.605469 426.449219 380.726562 426.53125 C 380.878906 426.613281 381.070312 426.574219 381.160156 426.421875 C 381.875 425.242188 382.59375 424.082031 383.375 422.964844 C 384.164062 421.855469 384.972656 420.757812 385.84375 419.722656 C 386.160156 419.335938 386.488281 418.972656 386.816406 418.605469 L 390.917969 417.09375 L 390.449219 414.917969 C 390.828125 414.570312 391.207031 414.226562 391.59375 413.878906 C 391.679688 413.804688 391.707031 413.671875 391.648438 413.558594 C 391.578125 413.433594 391.421875 413.386719 391.296875 413.453125 C 390.941406 413.644531 390.609375 413.875 390.269531 414.085938 L 390.015625 412.917969 C 389.382812 413.292969 388.824219 413.585938 388.429688 413.746094 C 384.292969 415.429688 379.382812 415.0625 375.539062 412.789062 C 373.546875 411.609375 371.6875 409.335938 372.527344 407.183594 C 373.28125 405.261719 375.664062 404.683594 377.707031 404.367188 C 380.851562 403.890625 383.988281 403.40625 387.132812 402.921875 C 387.359375 402.90625 387.59375 402.898438 387.824219 402.875 C 388.941406 402.761719 390.058594 402.613281 391.15625 402.351562 C 391.285156 402.320312 391.386719 402.207031 391.390625 402.066406 C 391.402344 401.894531 391.269531 401.746094 391.097656 401.738281 C 389.980469 401.675781 388.875 401.679688 387.769531 401.671875 L 387.578125 401.671875 L 386.949219 398.765625 C 386.542969 398.765625 386.167969 398.746094 385.859375 398.691406 C 380.945312 397.839844 376.269531 395.652344 372.472656 392.417969 C 371.140625 391.285156 369.875 389.96875 369.316406 388.308594 C 368.75 386.652344 369.082031 384.589844 370.472656 383.535156 C 374.894531 384.550781 379.246094 385.824219 383.53125 387.296875 C 383.085938 387.078125 382.660156 386.816406 382.226562 386.566406 L 386.273438 388.726562 C 386.382812 388.785156 386.523438 388.761719 386.601562 388.660156 C 386.691406 388.546875 386.667969 388.382812 386.558594 388.296875 C 385.234375 387.234375 383.835938 386.269531 382.410156 385.351562 C 380.984375 384.425781 379.511719 383.582031 378.019531 382.773438 C 377.460938 382.484375 376.898438 382.199219 376.339844 381.917969 C 373.820312 379.375 371.589844 376.449219 369.46875 373.570312 C 368.113281 371.738281 366.75 369.128906 368.214844 367.375 C 369.058594 366.347656 370.601562 366.140625 371.878906 366.507812 C 373.15625 366.878906 374.230469 367.71875 375.269531 368.550781 C 377.054688 369.960938 379.179688 371.359375 381.324219 372.804688 L 378.261719 358.660156 C 374.664062 359.882812 370.394531 359.410156 367.042969 357.484375 C 364.34375 355.9375 362.210938 353.617188 360.59375 350.945312 C 360.390625 367.816406 356.835938 384.652344 350.136719 400.132812 Z M 319.683594 664.832031 L 318.996094 664.882812 C 318.226562 664.933594 317.511719 665.234375 316.910156 665.683594 C 316.386719 664.796875 315.832031 663.925781 315.246094 663.078125 C 314.464844 661.929688 313.609375 660.839844 312.738281 659.765625 C 311.847656 658.699219 310.933594 657.65625 309.960938 656.671875 C 308.992188 655.683594 307.992188 654.722656 306.917969 653.84375 C 306.808594 653.753906 306.648438 653.746094 306.53125 653.839844 C 306.398438 653.9375 306.371094 654.136719 306.476562 654.269531 C 307.3125 655.371094 308.195312 656.417969 309.066406 657.476562 L 311.6875 660.632812 L 314.332031 663.773438 C 315.007812 664.566406 315.6875 665.359375 316.375 666.148438 C 316.144531 666.402344 315.945312 666.683594 315.785156 667.003906 L 315.464844 667.625 L 326.664062 667.625 L 324.53125 662.328125 C 323.394531 663.734375 321.691406 664.699219 319.683594 664.832031 Z M 178.949219 611.253906 L 178.949219 611.246094 Z M 178.949219 611.253906"/></g></svg>