<svg xmlns="http://www.w3.org/2000/svg" width="810" viewBox="0 0 810 810" height="810" version="1.0"><defs><clipPath id="a"><path d="M 126 52 L 664 52 L 664 765 L 126 765 Z M 126 52"/></clipPath><clipPath id="b"><path d="M 321.246094 12.054688 L 714.960938 149.449219 L 488.605469 798.085938 L 94.890625 660.691406 Z M 321.246094 12.054688"/></clipPath><clipPath id="c"><path d="M 321.246094 12.054688 L 714.960938 149.449219 L 488.605469 798.085938 L 94.890625 660.691406 Z M 321.246094 12.054688"/></clipPath><clipPath id="d"><path d="M 142 58 L 680 58 L 680 771 L 142 771 Z M 142 58"/></clipPath><clipPath id="e"><path d="M 321.246094 12.054688 L 714.960938 149.449219 L 488.605469 798.085938 L 94.890625 660.691406 Z M 321.246094 12.054688"/></clipPath><clipPath id="f"><path d="M 321.246094 12.054688 L 714.960938 149.449219 L 488.605469 798.085938 L 94.890625 660.691406 Z M 321.246094 12.054688"/></clipPath><clipPath id="g"><path d="M 187 98 L 646 98 L 646 710 L 187 710 Z M 187 98"/></clipPath><clipPath id="h"><path d="M 321.246094 12.054688 L 714.960938 149.449219 L 488.605469 798.085938 L 94.890625 660.691406 Z M 321.246094 12.054688"/></clipPath><clipPath id="i"><path d="M 321.246094 12.054688 L 714.960938 149.449219 L 488.605469 798.085938 L 94.890625 660.691406 Z M 321.246094 12.054688"/></clipPath><clipPath id="j"><path d="M 233 199 L 599 199 L 599 625 L 233 625 Z M 233 199"/></clipPath><clipPath id="k"><path d="M 321.246094 12.054688 L 714.960938 149.449219 L 488.605469 798.085938 L 94.890625 660.691406 Z M 321.246094 12.054688"/></clipPath><clipPath id="l"><path d="M 321.246094 12.054688 L 714.960938 149.449219 L 488.605469 798.085938 L 94.890625 660.691406 Z M 321.246094 12.054688"/></clipPath><clipPath id="m"><path d="M 258 598 L 411 598 L 411 678 L 258 678 Z M 258 598"/></clipPath><clipPath id="n"><path d="M 321.246094 12.054688 L 714.960938 149.449219 L 488.605469 798.085938 L 94.890625 660.691406 Z M 321.246094 12.054688"/></clipPath><clipPath id="o"><path d="M 321.246094 12.054688 L 714.960938 149.449219 L 488.605469 798.085938 L 94.890625 660.691406 Z M 321.246094 12.054688"/></clipPath><clipPath id="p"><path d="M 267 603 L 401 603 L 401 674 L 267 674 Z M 267 603"/></clipPath><clipPath id="q"><path d="M 321.246094 12.054688 L 714.960938 149.449219 L 488.605469 798.085938 L 94.890625 660.691406 Z M 321.246094 12.054688"/></clipPath><clipPath id="r"><path d="M 321.246094 12.054688 L 714.960938 149.449219 L 488.605469 798.085938 L 94.890625 660.691406 Z M 321.246094 12.054688"/></clipPath><clipPath id="s"><path d="M 473 163 L 514 163 L 514 204 L 473 204 Z M 473 163"/></clipPath><clipPath id="t"><path d="M 321.246094 12.054688 L 714.960938 149.449219 L 488.605469 798.085938 L 94.890625 660.691406 Z M 321.246094 12.054688"/></clipPath><clipPath id="u"><path d="M 321.246094 12.054688 L 714.960938 149.449219 L 488.605469 798.085938 L 94.890625 660.691406 Z M 321.246094 12.054688"/></clipPath></defs><g clip-path="url(#a)"><g clip-path="url(#b)"><g clip-path="url(#c)"><path fill="#8685B1" d="M 499.75 707.527344 C 483.617188 753.757812 428.203125 776.484375 376 758.265625 C 376 758.265625 191.664062 693.9375 191.367188 693.835938 C 134.875 674.121094 114.683594 609.378906 132.320312 555.765625 C 143.675781 521.257812 157.183594 486.988281 169.164062 452.609375 C 185.910156 404.59375 202.910156 356.679688 219.609375 308.648438 C 234.867188 264.722656 250.394531 220.890625 265.660156 176.953125 C 273.238281 155.140625 280.949219 133.386719 288.523438 111.578125 C 288.765625 110.878906 289.015625 110.167969 289.257812 109.472656 C 300.230469 78.03125 330.90625 56.554688 363.117188 53.570312 C 422.136719 48.078125 483.566406 83.269531 538.058594 101.957031 C 570.878906 113.199219 608.167969 123.261719 634.808594 146.6875 C 674.878906 181.90625 666.417969 237.203125 649.070312 280.761719 C 613.730469 369.535156 583.492188 460.386719 552.992188 550.90625 C 544 577.605469 535.078125 604.3125 526.179688 631.027344 C 517.65625 656.625 508.640625 682.050781 499.75 707.527344 Z M 499.75 707.527344"/></g></g></g><g clip-path="url(#d)"><g clip-path="url(#e)"><g clip-path="url(#f)"><path fill="#8685B1" d="M 515.832031 713.140625 C 499.699219 759.367188 444.300781 782.101562 392.097656 763.882812 C 392.097656 763.882812 207.757812 699.554688 207.453125 699.449219 C 150.96875 679.738281 130.769531 614.992188 148.421875 561.382812 C 159.761719 526.871094 173.273438 492.605469 185.265625 458.226562 C 202.007812 410.210938 219.003906 362.296875 235.707031 314.265625 C 250.960938 270.339844 266.488281 226.507812 281.75 182.566406 C 289.324219 160.753906 297.039062 139 304.617188 117.195312 C 304.859375 116.496094 305.109375 115.785156 305.351562 115.085938 C 316.324219 83.648438 346.992188 62.167969 379.207031 59.183594 C 438.222656 53.695312 499.664062 88.886719 554.148438 107.570312 C 586.976562 118.816406 624.257812 128.878906 650.90625 152.304688 C 690.96875 187.523438 682.507812 242.816406 665.171875 286.382812 C 629.828125 375.152344 599.585938 466 569.09375 556.523438 C 560.101562 583.222656 551.179688 609.929688 542.277344 636.644531 C 533.746094 662.242188 524.722656 687.664062 515.832031 713.140625 Z M 515.832031 713.140625"/></g></g></g><g clip-path="url(#g)"><g clip-path="url(#h)"><g clip-path="url(#i)"><path fill="#FFF" d="M 498.953125 663.125 C 496.121094 669.4375 492.914062 675.535156 489.058594 681.132812 C 450.035156 737.765625 358.949219 694.730469 310.195312 677.546875 C 269.367188 663.144531 204.324219 646.359375 190.417969 598.847656 C 180.960938 566.425781 195.125 536.308594 206.007812 506.46875 C 217.5 474.953125 228.042969 443.078125 239.257812 411.464844 C 268.652344 328.648438 294.523438 244.667969 326.175781 162.640625 C 339.371094 128.425781 368.636719 95.886719 408.292969 98.117188 C 444.390625 100.15625 477.390625 117.230469 510.691406 129.605469 C 547.90625 143.441406 588.492188 151.207031 620.164062 176.828125 C 647.78125 199.171875 649.324219 231.539062 641.191406 263.277344 C 629.972656 307.03125 613.363281 349.652344 597.105469 391.703125 C 576.566406 444.824219 557.148438 498.425781 538.761719 552.316406 C 530.027344 577.925781 521.273438 603.53125 511.882812 628.914062 C 507.761719 640.070312 503.953125 651.960938 498.953125 663.125 Z M 498.953125 663.125"/></g></g></g><g clip-path="url(#j)"><g clip-path="url(#k)"><g clip-path="url(#l)"><path fill="#8685B1" d="M 349.300781 200.273438 C 342.597656 202.527344 337.132812 208.101562 333.265625 218.523438 C 326.25 237.421875 324.222656 257.601562 317.792969 276.542969 C 308.871094 302.824219 299.351562 328.890625 290.277344 355.125 C 273.648438 403.210938 256.878906 451.242188 240.027344 499.25 C 234.265625 515.652344 227.871094 531.621094 244.53125 543.632812 C 266.054688 559.171875 296.734375 560.578125 321.167969 569.09375 C 352.679688 580.089844 384.175781 591.070312 415.679688 602.105469 C 423.285156 604.769531 430.941406 609.15625 438.59375 612.097656 C 448.753906 616.015625 459.203125 625.433594 470.652344 624.859375 C 485.644531 624.097656 489.121094 607.03125 493.316406 595.429688 C 500.925781 574.347656 507.039062 552.746094 514.46875 531.59375 C 533.1875 478.195312 551.667969 424.722656 570.300781 371.285156 C 578.773438 347.011719 590.25 323.761719 596.933594 298.871094 C 602.335938 278.730469 589.277344 275.355469 571.488281 268.789062 C 548.144531 260.171875 524.125 253.800781 500.558594 245.894531 C 468.96875 235.28125 437.441406 224.453125 405.875 213.734375 C 397.015625 210.726562 388.039062 207.878906 379.34375 204.402344 C 367.902344 199.824219 357.644531 197.46875 349.300781 200.273438 Z M 349.300781 200.273438"/></g></g></g><g clip-path="url(#m)"><g clip-path="url(#n)"><g clip-path="url(#o)"><path fill="#8685B1" d="M 409.570312 664.421875 C 404.097656 685.785156 376.4375 676.671875 362.328125 671.550781 C 337.757812 662.644531 313.667969 652.605469 288.984375 643.84375 C 283.300781 641.839844 277.625 639.808594 271.941406 637.828125 C 261.417969 634.152344 255.847656 622.632812 259.527344 612.097656 C 269.429688 583.71875 307.3125 607.332031 324.3125 613.296875 C 343.296875 619.964844 362.355469 626.457031 381.324219 633.175781 C 393.398438 637.4375 411.183594 642.761719 410.390625 658.6875 C 410.28125 660.828125 410.003906 662.726562 409.570312 664.421875 Z M 409.570312 664.421875"/></g></g></g><g clip-path="url(#p)"><g clip-path="url(#q)"><g clip-path="url(#r)"><path fill="#FFF" d="M 400.085938 661.234375 C 396.332031 676.71875 378.957031 673.90625 367.367188 670.570312 C 347.523438 664.851562 328.25 656.039062 308.957031 648.734375 C 297.40625 644.355469 275.09375 640.867188 269.203125 628.558594 C 265.628906 621.113281 267.886719 611.136719 274.726562 606.421875 C 281.703125 601.613281 291.414062 603.375 298.980469 605.597656 C 313.019531 609.730469 326.214844 616.132812 339.921875 621.148438 C 352.90625 625.894531 366.152344 629.902344 379.136719 634.632812 C 390.332031 638.710938 403.308594 646.84375 400.179688 660.847656 C 400.152344 660.976562 400.121094 661.101562 400.085938 661.234375 Z M 400.085938 661.234375"/></g></g></g><g clip-path="url(#s)"><g clip-path="url(#t)"><g clip-path="url(#u)"><path fill="#8685B1" d="M 512.257812 190.09375 C 508.65625 200.417969 497.375 205.859375 487.0625 202.261719 C 476.746094 198.660156 471.304688 187.382812 474.910156 177.058594 C 478.507812 166.742188 489.789062 161.292969 500.105469 164.890625 C 510.414062 168.488281 515.859375 179.777344 512.257812 190.09375 Z M 512.257812 190.09375"/></g></g></g><path fill="#F7D9B0" d="M 547.894531 348.675781 L 547.164062 348.234375 L 547.359375 347.398438 C 547.382812 347.292969 547.414062 347.171875 547.4375 347.0625 C 547.800781 347.261719 548.167969 347.460938 548.507812 347.667969 C 549.386719 343.882812 551.253906 336.019531 552.105469 333.574219 C 563.480469 300.929688 553.765625 289.625 548.699219 289.355469 C 546.308594 289.226562 544.835938 291.351562 544.835938 291.351562 C 538.367188 287.839844 534.082031 292.230469 534.082031 292.230469 C 534.082031 292.230469 523.84375 289.871094 521.484375 296.84375 C 521.480469 296.839844 515.359375 296.8125 512.9375 302.265625 C 510.25 308.316406 511.125 312.683594 515.5625 333.574219 C 515.933594 335.308594 515.804688 337.644531 515.4375 340.09375 C 515.820312 340.0625 516.226562 340.050781 516.632812 340.035156 C 516.621094 340.117188 516.613281 340.1875 516.601562 340.269531 L 516.460938 341.199219 L 515.523438 341.269531 C 511.082031 341.597656 508.273438 342.746094 507.820312 344.410156 L 507.191406 346.691406 L 505.84375 345.835938 C 497.902344 340.789062 487.871094 337.558594 476.019531 336.238281 L 474.375 336.054688 L 475.082031 334.558594 C 483.804688 316.132812 482.820312 296.359375 482.347656 286.855469 C 482.269531 285.304688 482.210938 284.082031 482.210938 283.179688 C 482.210938 282.96875 481.828125 261.023438 473.332031 239.265625 C 462.996094 212.804688 445.917969 199.386719 422.570312 199.386719 C 417.78125 199.386719 412.667969 199.96875 407.371094 201.117188 C 395.164062 203.761719 389.890625 210.09375 387.613281 214.941406 L 387.363281 215.476562 L 386.78125 215.597656 C 380.285156 216.910156 373.265625 222.085938 368.898438 226.453125 C 360.898438 235.1875 355.75 256.625 362.28125 284.832031 C 364.40625 294 362.457031 302.21875 356.320312 309.960938 L 355.074219 311.53125 L 354.308594 309.679688 C 337.382812 268.910156 307.765625 193.898438 299.59375 149.515625 C 299.28125 147.828125 296.144531 146.410156 291.195312 145.71875 L 290.199219 145.582031 L 290.179688 144.574219 C 289.9375 132.882812 290.4375 128.453125 290.90625 126.625 C 291.785156 125.960938 292.632812 125.234375 293.4375 124.445312 C 295.386719 121.539062 299.277344 115.605469 300.347656 110.324219 C 301.660156 103.832031 298.421875 95.035156 296.820312 91.277344 C 295.136719 87.25 292.6875 87.652344 292.6875 87.652344 C 292.6875 87.652344 290.613281 81.050781 285.570312 81.625 C 283.191406 81.898438 282.089844 84.230469 282.089844 84.230469 C 275.128906 81.839844 271.632812 86.878906 271.632812 86.878906 C 271.632812 86.878906 261.140625 86.25 259.96875 93.515625 C 259.96875 93.515625 256.371094 92.238281 252.347656 93.929688 C 249.664062 95.054688 248.375 97.890625 247.84375 100.714844 C 246.527344 107.207031 253.359375 126.792969 256.921875 131.847656 C 259.441406 135.425781 259.941406 143.242188 260.015625 147.503906 C 260.394531 147.382812 260.796875 147.269531 261.1875 147.152344 C 261.191406 147.261719 261.195312 147.375 261.195312 147.484375 L 261.210938 148.355469 L 260.382812 148.625 C 256.269531 149.972656 249.449219 152.871094 250.015625 157.148438 C 258.09375 217.84375 280.992188 298.539062 318.070312 396.992188 C 319.296875 400.246094 320.226562 402.71875 320.785156 404.253906 C 326.664062 418.542969 335.859375 468.804688 334.277344 483.019531 C 332.75 494.492188 322.476562 517.308594 312.542969 539.375 C 302.207031 562.328125 290.492188 588.347656 293.210938 593.070312 C 293.773438 594.054688 295.828125 595.707031 303.199219 595.707031 L 305.191406 595.699219 L 304.535156 597.328125 C 296.835938 616.449219 292.285156 628.871094 290.648438 635.242188 C 294.359375 638.40625 317.507812 657.105469 354.5625 665.097656 C 370.816406 668.605469 389.910156 670.382812 411.304688 670.382812 C 471.773438 670.382812 523.609375 656.898438 525.042969 651.605469 C 525.457031 650.085938 524.714844 641.714844 508.957031 596.925781 L 508.34375 595.175781 L 510.1875 595.359375 C 512.519531 595.589844 514.679688 595.707031 516.601562 595.707031 C 523.972656 595.707031 526.023438 594.054688 526.589844 593.070312 C 529.308594 588.347656 517.59375 562.328125 507.257812 539.375 C 497.320312 517.308594 487.046875 494.492188 485.515625 482.996094 C 485.21875 480.296875 485.269531 476.34375 485.675781 471.242188 L 485.914062 468.238281 L 487.777344 470.605469 C 491.777344 475.679688 498.804688 478.476562 507.558594 478.476562 C 521.796875 478.476562 538.664062 470.824219 541.070312 459.429688 C 545.617188 437.90625 553.851562 369.792969 553.949219 356.242188 C 553.976562 353.042969 550.671875 350.363281 547.894531 348.675781 Z M 291.652344 87.875 C 291.613281 87.890625 291.570312 87.902344 291.535156 87.917969 C 291.5 87.820312 291.433594 87.644531 291.339844 87.417969 C 291.421875 87.414062 291.503906 87.402344 291.589844 87.40625 C 291.871094 87.40625 291.898438 87.78125 291.652344 87.875 Z M 544.617188 292.574219 L 544.277344 292.386719 C 544.082031 292.285156 543.890625 292.203125 543.703125 292.113281 C 544.078125 291.867188 544.636719 292.070312 544.617188 292.574219 Z M 534.199219 293.46875 L 533.820312 293.382812 C 533.8125 293.378906 533.605469 293.332031 533.257812 293.277344 C 533.277344 293.226562 533.292969 293.179688 533.3125 293.132812 C 533.542969 292.601562 534.242188 292.988281 534.199219 293.46875 Z M 521.808594 298.023438 C 521.78125 298.238281 521.730469 298.441406 521.679688 298.644531 L 521.039062 298.042969 C 521.015625 298.046875 520.988281 298.046875 520.964844 298.050781 C 521.003906 297.976562 521.035156 297.898438 521.078125 297.824219 C 521.265625 297.523438 521.863281 297.613281 521.808594 298.023438 Z M 521.808594 298.023438"/><path fill="#FFF" d="M 454.878906 544.609375 C 431.308594 550.695312 399.492188 555.125 372.09375 545.796875 C 380 522.855469 387.058594 491.648438 378.597656 462.664062 C 359.765625 398.152344 371.707031 361.617188 368.347656 340.417969 L 383.125 339.210938 C 383.125 339.210938 383.652344 339.59375 384.609375 340.199219 C 388.457031 342.628906 399.332031 348.726562 411.589844 348.726562 C 425.089844 348.726562 437.242188 336.9375 439.917969 334.160156 C 440.277344 333.789062 440.472656 333.570312 440.472656 333.570312 C 440.472656 333.570312 446.792969 334.039062 454.683594 335.148438 C 452.167969 336.605469 452.710938 445.292969 450.636719 475.1875 C 449.417969 492.765625 451.9375 521.648438 454.878906 544.609375 Z M 398.464844 295.351562 C 395.46875 295.257812 392.625 294.675781 389.851562 293.78125 C 393.285156 299.261719 398.46875 302 404.9375 298.75 C 408.519531 296.949219 411.75 294.3125 414.054688 291.011719 C 409.226562 293.5 403.941406 295.519531 398.464844 295.351562 Z M 378.175781 267.105469 C 376.589844 267.597656 375.242188 268.457031 375.128906 269.914062 C 375.125 269.953125 375.09375 269.980469 375.078125 270.011719 C 375.675781 270.199219 377.214844 270.59375 379.65625 270.6875 C 379.40625 270.570312 377.992188 269.75 378.175781 267.105469 Z M 414.480469 267.105469 C 412.890625 267.597656 411.546875 268.457031 411.433594 269.914062 C 411.429688 269.953125 411.398438 269.980469 411.382812 270.011719 C 411.980469 270.199219 413.519531 270.59375 415.957031 270.6875 C 415.707031 270.570312 414.292969 269.75 414.480469 267.105469 Z M 414.480469 267.105469"/><path fill="#FE9C9C" d="M 555.132812 356.25 C 555.035156 369.6875 546.84375 437.820312 542.226562 459.671875 C 538.425781 477.675781 499.832031 487.800781 486.855469 471.332031 C 486.472656 476.113281 486.386719 480.121094 486.691406 482.863281 C 489.921875 507.105469 533.269531 583.832031 527.613281 593.65625 C 525.839844 596.742188 518.882812 597.402344 510.074219 596.53125 C 519.671875 623.824219 527.292969 647.820312 526.183594 651.914062 C 523.632812 661.324219 422.714844 681.003906 354.3125 666.25 C 313.152344 657.375 289.332031 635.660156 289.332031 635.660156 C 291.023438 628.609375 296.613281 613.847656 303.445312 596.886719 C 297.726562 596.914062 293.515625 595.960938 292.1875 593.660156 C 286.535156 583.832031 329.882812 507.109375 333.109375 482.867188 C 334.726562 468.320312 325.347656 418.441406 319.695312 404.703125 C 313.234375 386.929688 262.230469 257.863281 248.847656 157.304688 C 248.285156 153.085938 253.109375 149.765625 260.015625 147.503906 C 265.972656 145.554688 273.476562 144.390625 280.421875 144.125 C 284.382812 143.96875 288.15625 144.105469 291.359375 144.550781 C 296.59375 145.28125 300.300781 146.835938 300.753906 149.300781 C 308.886719 193.445312 338.226562 267.871094 355.398438 309.222656 C 362.949219 327.410156 368.148438 339.210938 368.148438 339.210938 C 368.222656 339.605469 368.28125 340.015625 368.347656 340.417969 C 371.707031 361.617188 359.765625 398.152344 378.597656 462.664062 C 387.058594 491.648438 380 522.855469 372.09375 545.796875 C 399.492188 555.125 431.308594 550.695312 454.882812 544.609375 C 451.941406 521.648438 449.421875 492.765625 450.640625 475.1875 C 452.710938 445.292969 452.171875 336.605469 454.6875 335.148438 C 455.214844 334.84375 464.445312 333.757812 476.148438 335.0625 C 485.738281 336.132812 496.992188 338.808594 506.476562 344.839844 C 506.550781 344.566406 506.621094 344.316406 506.679688 344.101562 C 507.332031 341.710938 510.726562 340.441406 515.4375 340.09375 C 524.980469 339.386719 539.9375 342.464844 548.507812 347.667969 C 552.535156 350.113281 555.15625 353.03125 555.132812 356.25 Z M 555.132812 356.25"/><path fill="#FE9C9C" d="M 426.992188 273.980469 C 433.113281 273.980469 438.078125 276.453125 438.078125 279.503906 C 438.078125 282.554688 433.113281 285.023438 426.992188 285.023438 C 420.871094 285.023438 415.90625 282.554688 415.90625 279.503906 C 415.90625 276.453125 420.871094 273.980469 426.992188 273.980469 Z M 369.699219 284.855469 C 370.554688 284.96875 371.449219 285.027344 372.371094 285.027344 C 378.492188 285.027344 383.460938 282.554688 383.460938 279.5 C 383.460938 276.453125 378.492188 273.980469 372.371094 273.980469 C 371.691406 273.980469 371.03125 274.011719 370.382812 274.070312 C 370.21875 275.433594 370.019531 276.84375 369.867188 278.378906 C 369.855469 278.492188 369.839844 278.609375 369.832031 278.726562 C 369.804688 279.007812 369.78125 279.300781 369.761719 279.59375 C 369.746094 279.785156 369.730469 279.976562 369.71875 280.179688 C 369.703125 280.394531 369.695312 280.621094 369.683594 280.84375 C 369.671875 281.125 369.65625 281.402344 369.648438 281.691406 C 369.648438 281.796875 369.648438 281.910156 369.648438 282.015625 C 369.632812 282.914062 369.640625 283.851562 369.699219 284.855469 Z M 369.699219 284.855469"/><path fill="#4856A2" d="M 542.882812 295.191406 C 542.644531 294.761719 542.820312 294.140625 542.957031 293.695312 C 543.09375 293.253906 543.277344 292.835938 543.453125 292.410156 C 543.738281 291.714844 544.804688 291.957031 544.609375 292.726562 C 544.480469 293.222656 544.382812 293.738281 544.164062 294.203125 C 543.984375 294.597656 543.84375 295.140625 543.417969 295.332031 C 543.226562 295.417969 542.996094 295.390625 542.882812 295.191406 Z M 402.359375 283.933594 C 402.835938 283.859375 403.289062 283.707031 403.710938 283.464844 C 403.988281 283.304688 404.460938 282.960938 404.355469 282.582031 C 404.238281 282.160156 403.695312 282.269531 403.378906 282.320312 C 402.871094 282.402344 402.425781 282.8125 401.996094 283.066406 C 401.503906 283.359375 401.855469 284.007812 402.359375 283.933594 Z M 532.921875 297.011719 C 533.347656 296.585938 533.511719 295.917969 533.710938 295.367188 C 533.933594 294.761719 534.09375 294.136719 534.199219 293.503906 C 534.285156 293.007812 533.546875 292.585938 533.3125 293.132812 C 533.058594 293.722656 532.859375 294.320312 532.695312 294.945312 C 532.542969 295.546875 532.316406 296.269531 532.449219 296.886719 C 532.496094 297.097656 532.78125 297.15625 532.921875 297.011719 Z M 389.003906 280.308594 C 387.71875 284.039062 393.707031 287.359375 396.695312 286.230469 C 397.203125 286.039062 397.109375 285.351562 396.566406 285.300781 C 394.054688 285.0625 387.664062 283.101562 391.144531 279.074219 C 392.402344 277.617188 394.191406 276.964844 395.367188 275.371094 C 396.640625 273.644531 396.84375 271.03125 396.523438 268.976562 C 396.460938 268.570312 395.804688 268.671875 395.820312 269.070312 C 395.894531 271.0625 395.375 273.078125 394.351562 274.777344 C 392.925781 277.148438 389.964844 277.515625 389.003906 280.308594 Z M 372.117188 261.699219 C 385.34375 258.492188 390.824219 262.894531 392.230469 262.054688 C 393.703125 261.179688 393.0625 257.683594 389.925781 256.808594 C 382.105469 254.621094 377.730469 255.664062 373.554688 258.089844 C 371.449219 259.3125 370.96875 261.976562 372.117188 261.699219 Z M 389.050781 292.425781 C 392.421875 293.585938 395.929688 294.367188 399.503906 294.144531 C 405.328125 293.78125 410.542969 291.546875 415.578125 288.710938 C 416.164062 288.378906 416.777344 289.03125 416.472656 289.605469 C 410.714844 300.585938 394.105469 307.585938 387.921875 293.152344 C 387.914062 293.136719 387.914062 293.121094 387.910156 293.105469 C 386.523438 292.582031 385.148438 291.996094 383.785156 291.351562 C 383.234375 291.09375 383.714844 290.3125 384.253906 290.546875 C 385.589844 291.121094 386.953125 291.675781 388.339844 292.175781 C 388.585938 292.082031 388.863281 292.136719 389.050781 292.425781 Z M 389.851562 293.78125 C 393.285156 299.261719 398.46875 302 404.9375 298.75 C 408.519531 296.949219 411.75 294.3125 414.054688 291.011719 C 409.226562 293.503906 403.941406 295.519531 398.464844 295.351562 C 395.46875 295.257812 392.625 294.675781 389.851562 293.78125 Z M 520.484375 301.121094 C 520.992188 300.960938 521.175781 300.230469 521.339844 299.785156 C 521.550781 299.199219 521.726562 298.640625 521.808594 298.023438 C 521.863281 297.613281 521.265625 297.523438 521.082031 297.824219 C 520.773438 298.324219 520.566406 298.855469 520.375 299.40625 C 520.222656 299.839844 519.882812 300.550781 520.167969 300.992188 C 520.234375 301.09375 520.359375 301.15625 520.484375 301.121094 Z M 543.738281 362.136719 C 547.632812 364.382812 551.320312 360.4375 549.816406 356.285156 C 549.121094 354.375 547.488281 353.054688 545.8125 352.667969 C 542.589844 351.917969 540.632812 355.546875 541.339844 358.550781 C 541.691406 360.03125 542.5 361.417969 543.738281 362.136719 Z M 408.652344 262.054688 C 410.058594 262.894531 415.535156 258.492188 428.761719 261.699219 C 429.914062 261.976562 429.429688 259.3125 427.328125 258.089844 C 423.148438 255.664062 418.773438 254.621094 410.953125 256.808594 C 407.816406 257.683594 407.179688 261.179688 408.652344 262.054688 Z M 389.75 270.867188 C 389.871094 271.007812 390.140625 270.902344 390.125 270.714844 C 389.816406 266.652344 384.847656 265.09375 381.457031 265.328125 C 379.039062 265.496094 373.957031 266.703125 374.445312 270.007812 C 374.5 270.371094 374.953125 270.289062 375.078125 270.011719 C 375.09375 269.980469 375.125 269.953125 375.128906 269.914062 C 375.242188 268.457031 376.589844 267.597656 378.175781 267.105469 C 377.992188 269.75 379.40625 270.570312 379.65625 270.6875 C 379.679688 270.699219 379.710938 270.714844 379.710938 270.714844 L 389.613281 270.714844 C 389.65625 270.765625 389.703125 270.816406 389.75 270.867188 Z M 417.757812 265.328125 C 415.34375 265.496094 410.261719 266.703125 410.75 270.007812 C 410.804688 270.371094 411.257812 270.289062 411.382812 270.011719 C 411.398438 269.980469 411.429688 269.953125 411.433594 269.914062 C 411.546875 268.457031 412.890625 267.597656 414.480469 267.105469 C 414.292969 269.75 415.707031 270.570312 415.957031 270.6875 C 415.980469 270.699219 416.011719 270.714844 416.011719 270.714844 L 425.914062 270.714844 C 425.960938 270.765625 426.003906 270.816406 426.050781 270.867188 C 426.175781 271.007812 426.441406 270.902344 426.429688 270.714844 C 426.121094 266.652344 421.148438 265.09375 417.757812 265.328125 Z M 405.976562 451.765625 C 408.992188 449.863281 411.238281 447.277344 413.425781 444.503906 C 415.996094 441.246094 418.671875 438.691406 422.050781 436.28125 C 422.339844 436.074219 422.175781 435.574219 421.800781 435.683594 C 414.429688 437.785156 411.476562 446.757812 405.492188 450.9375 C 404.996094 451.285156 405.449219 452.101562 405.976562 451.765625 Z M 406.890625 642.339844 C 398.328125 635.667969 389.835938 628.871094 381.851562 621.507812 C 381.394531 621.082031 380.710938 621.761719 381.164062 622.195312 C 389.007812 629.722656 397.410156 636.570312 405.949219 643.285156 C 414.128906 649.714844 422.113281 656.554688 430.539062 662.644531 C 430.964844 662.953125 431.449219 662.285156 431.089844 661.933594 C 423.753906 654.6875 415.011719 648.667969 406.890625 642.339844 Z M 275.253906 168.492188 C 268.03125 170.460938 261.132812 173.578125 255.304688 178.316406 C 255.015625 178.550781 255.386719 179.007812 255.691406 178.820312 C 261.691406 175.140625 267.871094 172.242188 274.621094 170.246094 C 278.960938 168.964844 283.40625 168.128906 287.925781 167.863281 C 293.121094 167.554688 297.367188 168.933594 302.210938 170.449219 C 302.902344 170.667969 303.167969 169.742188 302.667969 169.367188 C 295.402344 163.894531 283.261719 166.304688 275.253906 168.492188 Z M 448.519531 350.582031 C 446.09375 354.511719 443.613281 357.347656 439.148438 358.855469 C 435.113281 360.214844 430.566406 360.933594 426.335938 360.835938 C 420.761719 360.707031 414.488281 358.195312 410.558594 354.140625 C 410.207031 353.777344 409.683594 353.917969 409.417969 354.289062 C 401.4375 365.25 378.363281 362.019531 372.125 351.242188 C 371.890625 350.839844 371.332031 351.195312 371.511719 351.601562 C 375.382812 360.316406 388.472656 363.117188 397.082031 361.957031 C 401.761719 361.328125 406.9375 359.433594 410.097656 355.6875 C 414.683594 360.082031 421.324219 362.207031 427.527344 362.363281 C 436.230469 362.589844 446.242188 359.757812 449.601562 351.042969 C 449.851562 350.390625 448.859375 350.03125 448.519531 350.582031 Z M 355.398438 309.222656 C 360.347656 302.976562 363.476562 295.21875 361.132812 285.09375 C 354.617188 256.960938 359.597656 234.859375 368.03125 225.65625 C 372.425781 221.257812 379.652344 215.835938 386.546875 214.4375 C 389.003906 209.203125 394.558594 202.6875 407.121094 199.960938 C 479.148438 184.351562 483.386719 277.8125 483.386719 283.179688 C 483.386719 289.351562 486.449219 313.296875 476.148438 335.0625 C 464.441406 333.757812 455.210938 334.84375 454.683594 335.148438 C 446.792969 334.039062 440.472656 333.570312 440.472656 333.570312 C 440.472656 333.570312 440.277344 333.785156 439.917969 334.160156 C 436.511719 333.097656 433.96875 331.867188 433.183594 330.460938 C 431.816406 328.015625 430.6875 320.398438 429.832031 312.308594 C 427.441406 315.015625 424.894531 317.597656 422.21875 320.046875 C 417.117188 324.703125 411.246094 329.421875 405.007812 332.46875 C 402.386719 333.75 399.453125 334.324219 396.726562 333.035156 C 395.074219 332.253906 393.753906 330.878906 392.644531 329.324219 C 392.4375 330.75 392.148438 332.089844 391.742188 333.304688 C 390.65625 336.570312 387.949219 338.75 384.609375 340.199219 C 383.652344 339.59375 383.125 339.210938 383.125 339.210938 L 368.347656 340.417969 C 368.28125 340.015625 368.222656 339.605469 368.148438 339.210938 C 368.148438 339.210938 362.949219 327.410156 355.398438 309.222656 Z M 451.46875 287.035156 C 457.542969 285.703125 462.765625 282.089844 463.96875 274.867188 C 464.777344 270.421875 462.355469 266.785156 457.910156 265.574219 C 457.414062 265.457031 456.925781 265.394531 456.445312 265.359375 C 456.375 267.195312 456.207031 269.003906 455.960938 270.78125 C 456.8125 271.140625 457.554688 271.75 457.933594 272.511719 C 458.082031 272.808594 457.667969 273.058594 457.488281 272.773438 C 457.09375 272.152344 456.5 271.785156 455.84375 271.601562 C 455.597656 273.210938 455.289062 274.796875 454.925781 276.351562 C 455.179688 276.742188 455.332031 277.226562 455.34375 277.816406 C 455.359375 278.953125 454.695312 279.976562 453.742188 280.707031 C 453.070312 282.898438 452.300781 285.015625 451.46875 287.035156 Z M 369.648438 282.015625 C 369.601562 284.492188 369.777344 287.328125 370.4375 290.777344 C 373.101562 304.765625 392.199219 322.386719 400.316406 322.386719 C 407.445312 322.386719 429.601562 316.832031 438.984375 300.6875 C 442.636719 280.847656 437.351562 260.265625 418.632812 250.144531 C 406.179688 243.414062 398.242188 233.0625 396.671875 224.875 C 385.265625 226.679688 375.144531 232.175781 371.507812 242.875 C 369.238281 249.554688 369.570312 260.570312 370.5 267.4375 C 370.816406 269.773438 370.652344 271.867188 370.382812 274.070312 C 370.21875 275.433594 370.019531 276.84375 369.867188 278.378906 C 369.855469 278.492188 369.839844 278.609375 369.832031 278.726562 C 369.804688 279.007812 369.78125 279.300781 369.761719 279.59375 C 369.746094 279.785156 369.730469 279.980469 369.71875 280.179688 C 369.703125 280.394531 369.695312 280.621094 369.683594 280.84375 C 369.671875 281.125 369.65625 281.402344 369.648438 281.691406 C 369.648438 281.796875 369.648438 281.910156 369.648438 282.015625 Z M 506.828125 595.453125 C 500.890625 594.0625 494.226562 594.585938 488.152344 593.90625 C 480.824219 593.082031 472.375 591.875 466.398438 587.1875 C 460.292969 582.398438 460.550781 571.707031 459.511719 564.734375 C 458.601562 558.609375 456.285156 552.542969 454.535156 546.605469 C 454.402344 546.160156 453.746094 546.347656 453.84375 546.796875 C 455.1875 553.273438 457.527344 559.542969 458.492188 566.074219 C 459.574219 573.417969 459.480469 582.800781 465.5 588.082031 C 470.625 592.582031 478.410156 593.917969 484.898438 594.914062 C 491.796875 595.972656 499.691406 597.132812 506.679688 596.554688 C 507.28125 596.503906 507.480469 595.605469 506.828125 595.453125 Z M 552.523438 371.945312 C 545.886719 365.292969 535.101562 362.730469 526.101562 361.578125 C 518.828125 360.648438 511.238281 360.328125 504.371094 363.183594 C 505.082031 359.914062 505.761719 356.644531 506.390625 353.367188 C 506.519531 352.679688 505.503906 352.378906 505.328125 353.074219 C 501.9375 366.71875 498.960938 380.453125 495.300781 394.03125 C 495.175781 394.496094 495.035156 394.957031 494.910156 395.417969 C 494.503906 393.332031 493.601562 390.800781 493.429688 389.984375 C 492.320312 384.621094 490.851562 379 490.667969 373.503906 C 490.648438 372.886719 489.703125 372.882812 489.710938 373.503906 C 489.761719 378.546875 491.042969 383.671875 492.015625 388.59375 C 492.296875 390.027344 492.71875 396.679688 494.148438 398.113281 C 491.601562 407.113281 488.757812 416.03125 486.285156 425.054688 C 482.769531 437.855469 479.351562 451.722656 480.378906 465.089844 C 480.421875 465.6875 481.246094 465.679688 481.296875 465.089844 C 482.578125 451.050781 484.550781 437.671875 488.296875 424.054688 C 491.109375 413.816406 494.304688 403.691406 496.976562 393.417969 C 499.503906 383.695312 502.003906 373.902344 504.175781 364.066406 C 510.730469 362.085938 517.394531 362.171875 524.144531 362.867188 C 528.433594 363.3125 532.640625 364.109375 536.773438 365.332031 C 542.378906 366.988281 546.800781 370.074219 551.808594 372.878906 C 552.394531 373.207031 553.007812 372.429688 552.523438 371.945312 Z M 368.882812 550.742188 C 367.496094 563.558594 361.96875 577.863281 352.914062 587.230469 C 346.90625 593.441406 336.347656 593.941406 328.316406 594.503906 C 320.175781 595.078125 311.757812 594.84375 303.910156 597.34375 C 303.570312 597.449219 303.707031 597.960938 304.058594 597.878906 C 313.011719 595.746094 322.492188 596.207031 331.613281 595.492188 C 339.355469 594.886719 347.976562 593.71875 353.867188 588.183594 C 363.710938 578.933594 368.484375 563.863281 369.90625 550.742188 C 369.976562 550.089844 368.957031 550.09375 368.882812 550.742188 Z M 260.136719 156.375 C 258.542969 156.285156 256.9375 156.992188 256.074219 158.632812 C 255.457031 159.808594 255.371094 161.414062 255.78125 162.835938 C 256.175781 164.214844 257.03125 165.421875 258.304688 165.910156 C 262.300781 167.429688 265.914062 162.976562 264.28125 159.207031 C 263.527344 157.46875 261.835938 156.46875 260.136719 156.375 Z M 308.019531 265.339844 C 315.082031 264.785156 319.578125 268.75 325.554688 271.554688 C 326.011719 271.769531 326.5 271.21875 326.113281 270.832031 C 321.566406 266.234375 314.460938 263.394531 308.019531 264.039062 C 307.199219 264.125 307.179688 265.40625 308.019531 265.339844 Z M 441.269531 344.34375 C 441.34375 344.34375 441.34375 344.226562 441.269531 344.226562 C 441.191406 344.226562 441.191406 344.34375 441.269531 344.34375 Z M 321.257812 394.972656 C 323.875 391.15625 322.75 384.730469 322.160156 380.492188 C 321.214844 373.710938 319.109375 366.976562 316.078125 360.84375 C 315.824219 360.324219 315.058594 360.78125 315.304688 361.296875 C 320.261719 371.699219 322.652344 383.347656 320.589844 394.691406 C 320.515625 395.101562 321.019531 395.324219 321.257812 394.972656 Z M 257.90625 110.683594 C 260.246094 111.785156 263.144531 111.367188 264.84375 109.394531 C 265.160156 109.019531 265.363281 108.597656 265.496094 108.152344 C 267.753906 109.117188 270.976562 109.90625 272.582031 107.621094 C 272.980469 107.050781 273.304688 106.4375 273.5625 105.796875 C 273.605469 105.890625 273.640625 105.980469 273.691406 106.074219 C 273.972656 106.558594 274.375 106.957031 274.855469 107.214844 C 271.550781 110.039062 268.855469 113.660156 267.253906 117.125 C 267.066406 117.53125 267.644531 117.886719 267.867188 117.480469 C 271.847656 110.058594 280.277344 103.484375 288.835938 103.660156 C 289.589844 103.675781 289.785156 102.449219 289.015625 102.324219 C 287.515625 102.074219 286.019531 102.117188 284.550781 102.363281 C 284.609375 102.171875 284.660156 101.980469 284.703125 101.808594 C 284.820312 101.367188 284.917969 100.855469 284.875 100.378906 C 287.484375 100.535156 290.03125 99.835938 291.777344 98.015625 C 291.984375 97.796875 291.722656 97.480469 291.460938 97.609375 C 285.742188 100.410156 279.375 98.949219 276.082031 93.441406 C 273.644531 89.363281 278.9375 89.863281 280.226562 89.933594 C 281.257812 89.988281 282.257812 89.875 283.289062 89.824219 C 286.0625 89.6875 289.070312 88.867188 291.652344 87.875 C 291.898438 87.78125 291.871094 87.40625 291.589844 87.402344 C 289.140625 87.375 286.804688 88.617188 284.359375 88.933594 C 282.234375 89.203125 280.050781 88.773438 277.921875 88.769531 C 275.289062 88.765625 273.988281 90.714844 274.636719 93.171875 C 275.632812 96.929688 279.589844 99.589844 283.671875 100.242188 C 283.753906 100.730469 283.675781 101.203125 283.554688 101.679688 C 283.476562 101.996094 283.339844 102.3125 283.261719 102.632812 C 280.761719 103.273438 278.363281 104.515625 276.1875 106.148438 C 276.152344 106.128906 276.128906 106.109375 276.089844 106.097656 C 275.578125 105.933594 275.050781 105.769531 274.714844 105.316406 C 274.453125 104.957031 274.21875 104.519531 274.085938 104.085938 C 274.992188 100.015625 273.898438 95.164062 272.941406 91.464844 C 272.855469 91.121094 272.332031 91.117188 272.25 91.464844 C 271.359375 95.109375 273.027344 99.011719 272.90625 102.730469 C 272.824219 105.148438 271.671875 107.894531 268.953125 107.886719 C 267.828125 107.886719 266.753906 107.503906 265.644531 107.367188 C 265.761719 106.050781 265.332031 104.613281 264.824219 103.5 C 263.558594 100.734375 261.945312 97.871094 260.292969 95.3125 C 260.058594 94.949219 259.53125 95.105469 259.503906 95.527344 C 259.40625 97.027344 260.449219 98.394531 261.183594 99.617188 C 262.351562 101.566406 263.601562 103.480469 264.246094 105.679688 C 265.585938 110.226562 260.066406 110.625 257.175781 109.128906 C 254.578125 107.78125 254.148438 103.914062 252.136719 101.960938 C 251.878906 101.710938 251.464844 102.03125 251.640625 102.34375 C 253.367188 105.402344 254.535156 109.097656 257.90625 110.683594 Z M 292.660156 125.617188 C 292.703125 125.546875 292.75 125.476562 292.800781 125.398438 C 292.835938 125.34375 292.875 125.285156 292.914062 125.226562 C 293.039062 125.042969 293.175781 124.835938 293.328125 124.609375 C 293.367188 124.554688 293.398438 124.503906 293.4375 124.445312 C 287.136719 130.621094 278.441406 132.886719 269.761719 132.894531 C 273.914062 135.988281 277.320312 139.910156 280.421875 144.125 C 284.382812 143.96875 288.15625 144.105469 291.359375 144.550781 C 291.210938 137.507812 291.246094 127.738281 292.449219 125.9375 C 292.507812 125.851562 292.578125 125.738281 292.660156 125.617188 Z M 292.660156 125.617188"/></svg>