<svg xmlns="http://www.w3.org/2000/svg" width="810" viewBox="0 0 810 810" height="810" version="1.0"><defs><clipPath id="a"><path d="M 77 60.066406 L 733 60.066406 L 733 735 L 77 735 Z M 77 60.066406"/></clipPath><clipPath id="b"><path d="M 33.9375 81 L 767.285156 81 L 767.285156 742.96875 L 33.9375 742.96875 Z M 33.9375 81"/></clipPath><clipPath id="c"><path d="M 89 333 L 783.128906 333 L 783.128906 713 L 89 713 Z M 89 333"/></clipPath></defs><g clip-path="url(#a)"><path fill="#41C1BA" d="M 631.007812 659.183594 L 642.886719 712.375 L 592.777344 712.375 L 588.242188 692.0625 C 534.074219 724.90625 459.875 741.628906 358.378906 731.582031 C 192.519531 715.160156 77.8125 608.59375 77.8125 441.804688 C 77.8125 275.011719 226.566406 60.476562 393.234375 60.476562 C 559.910156 60.476562 732.070312 165.710938 732.070312 332.5 C 732.070312 434.769531 719.203125 574.285156 631.007812 659.183594"/></g><g clip-path="url(#b)"><path fill="#289DD2" d="M 157.703125 400.078125 C 157.730469 400.851562 157.785156 401.628906 157.890625 402.394531 C 158.257812 405.722656 159.292969 408.957031 160.789062 411.957031 C 161.832031 414.03125 163.136719 415.976562 164.636719 417.765625 C 165.242188 415.800781 165.851562 413.855469 166.429688 411.960938 C 162.542969 408.851562 159.542969 404.695312 157.703125 400.078125 Z M 250.472656 430.496094 C 250.28125 431.628906 250.035156 432.765625 249.75 433.886719 C 250.777344 432.222656 251.621094 430.441406 252.242188 428.582031 C 254.453125 421.867188 254.296875 414.609375 254.121094 407.445312 C 254.015625 400.246094 254.054688 393.027344 254.414062 385.828125 C 254.648438 380.777344 255.027344 375.730469 255.527344 370.699219 C 255.070312 370.621094 254.613281 370.535156 254.152344 370.433594 C 249.882812 379.605469 249.71875 390.121094 250.3125 400.21875 C 250.902344 410.320312 252.164062 420.519531 250.472656 430.496094 Z M 256.410156 370.851562 C 256.191406 374.476562 256.015625 378.105469 255.871094 381.730469 C 256.179688 378.09375 256.601562 374.476562 257.148438 370.929688 C 256.902344 370.898438 256.65625 370.886719 256.410156 370.851562 Z M 315.65625 303.015625 C 313.835938 305.824219 312.144531 308.765625 310.824219 311.824219 C 324.359375 311.5 340.929688 315.308594 361.109375 324.613281 C 360.820312 321.082031 360.8125 317.515625 360.820312 313.972656 C 360.828125 311.46875 360.742188 308.796875 360.285156 306.285156 C 359.589844 305.890625 358.882812 305.53125 358.15625 305.246094 C 357.105469 304.847656 356.03125 304.527344 354.929688 304.355469 C 353.832031 304.15625 352.707031 304.09375 351.585938 304.117188 C 350.460938 304.15625 349.332031 304.328125 348.199219 304.582031 C 348.035156 304.625 347.878906 304.523438 347.835938 304.367188 C 347.8125 304.234375 347.871094 304.105469 347.972656 304.039062 C 349.03125 303.40625 350.230469 303.019531 351.453125 302.820312 C 352.683594 302.609375 353.949219 302.640625 355.179688 302.828125 C 356.410156 303.039062 357.625 303.410156 358.722656 304.003906 C 359.15625 304.234375 359.558594 304.503906 359.957031 304.789062 C 359.621094 303.496094 359.160156 302.277344 358.535156 301.167969 C 358.304688 301.113281 358.070312 301.058594 357.839844 301.015625 C 357.109375 300.890625 356.386719 300.773438 355.65625 300.730469 C 354.929688 300.671875 354.199219 300.683594 353.457031 300.707031 C 352.714844 300.738281 351.972656 300.835938 351.195312 300.929688 C 351.03125 300.949219 350.875 300.835938 350.855469 300.671875 C 350.839844 300.550781 350.898438 300.441406 350.984375 300.375 C 351.671875 299.910156 352.457031 299.609375 353.269531 299.417969 C 354.078125 299.210938 354.921875 299.15625 355.753906 299.195312 C 356.292969 299.230469 356.820312 299.328125 357.339844 299.453125 C 356.984375 299.035156 356.585938 298.644531 356.152344 298.28125 C 355.074219 298.148438 354 298.121094 352.949219 298.257812 C 351.839844 298.410156 350.753906 298.675781 349.730469 299.101562 C 348.691406 299.511719 347.726562 300.082031 346.824219 300.746094 C 345.925781 301.421875 345.128906 302.234375 344.417969 303.160156 C 344.3125 303.292969 344.125 303.316406 343.996094 303.21875 C 343.890625 303.140625 343.855469 302.996094 343.898438 302.875 C 344.761719 300.515625 346.8125 298.648438 349.136719 297.679688 C 350.320312 297.195312 351.582031 296.898438 352.851562 296.894531 C 353.179688 296.886719 353.5 296.898438 353.820312 296.925781 C 348.902344 295.148438 341.882812 298.121094 340.484375 303.152344 C 340.074219 298.6875 336.527344 294.835938 332.277344 293.605469 C 332.625 293.882812 332.980469 294.152344 333.308594 294.46875 C 334.253906 295.410156 335.074219 296.476562 335.675781 297.660156 C 336.285156 298.84375 336.714844 300.117188 336.847656 301.421875 C 336.859375 301.582031 336.746094 301.726562 336.578125 301.746094 C 336.445312 301.757812 336.324219 301.679688 336.273438 301.566406 C 335.792969 300.414062 335.230469 299.328125 334.554688 298.324219 C 333.867188 297.335938 333.109375 296.398438 332.234375 295.574219 C 331.378906 294.738281 330.417969 294.015625 329.398438 293.371094 C 329.304688 293.308594 329.199219 293.261719 329.105469 293.207031 C 328.953125 293.210938 328.800781 293.207031 328.652344 293.21875 C 327.332031 293.328125 326.082031 293.671875 324.902344 294.191406 C 325.738281 294.261719 326.570312 294.425781 327.375 294.671875 C 329.941406 295.492188 332.292969 297.269531 333.476562 299.671875 C 333.546875 299.816406 333.488281 299.996094 333.34375 300.070312 C 333.222656 300.128906 333.078125 300.09375 332.988281 300.003906 C 332.136719 299.078125 331.207031 298.28125 330.183594 297.640625 C 329.152344 297.007812 328.0625 296.488281 326.910156 296.144531 C 325.769531 295.785156 324.574219 295.589844 323.375 295.53125 C 323.074219 295.519531 322.777344 295.546875 322.476562 295.558594 C 321.703125 296.089844 320.960938 296.6875 320.261719 297.347656 C 320.683594 297.308594 321.105469 297.296875 321.523438 297.304688 C 322.332031 297.339844 323.140625 297.429688 323.910156 297.648438 C 324.691406 297.847656 325.449219 298.125 326.148438 298.542969 C 326.289062 298.625 326.335938 298.8125 326.25 298.957031 C 326.191406 299.0625 326.082031 299.109375 325.96875 299.101562 L 323.707031 298.933594 C 322.957031 298.898438 322.230469 298.847656 321.492188 298.847656 C 320.757812 298.832031 320.023438 298.855469 319.28125 298.867188 L 318.761719 298.890625 C 317.609375 300.183594 316.570312 301.589844 315.65625 303.015625 Z M 155.75 391.953125 C 155.085938 384.210938 157.71875 376.238281 162.871094 370.421875 C 168.269531 364.324219 176.335938 360.359375 179.625 352.90625 C 183.308594 344.542969 179.671875 334.996094 178.59375 325.917969 C 178.316406 323.601562 178.238281 321.265625 178.328125 318.941406 C 178.027344 320.457031 177.820312 321.988281 177.738281 323.539062 C 177.300781 329.292969 178.015625 335.199219 177.132812 341.144531 C 176.679688 344.09375 175.820312 347.011719 174.371094 349.652344 C 172.910156 352.273438 170.789062 354.597656 168.105469 355.964844 C 167.960938 356.046875 167.78125 355.984375 167.707031 355.839844 C 167.636719 355.703125 167.6875 355.527344 167.820312 355.449219 C 170.3125 354.003906 172.195312 351.71875 173.449219 349.164062 C 174.738281 346.617188 175.492188 343.804688 175.84375 340.964844 C 176.542969 335.246094 175.84375 329.382812 176.199219 323.4375 C 176.464844 319.21875 177.527344 315.03125 179.316406 311.191406 C 182.085938 298.015625 190.378906 285.941406 202.09375 279.246094 C 214.664062 272.066406 230.742188 269.730469 240.28125 258.835938 C 253.644531 243.578125 274.566406 235.296875 294.746094 237.273438 C 306.699219 238.441406 318.195312 243.214844 327.703125 250.542969 C 346.339844 239.144531 371.519531 252.992188 382.964844 266.507812 C 395.296875 281.058594 397.691406 303.253906 388.742188 320.097656 C 386.144531 325.007812 382.617188 329.648438 381.832031 335.144531 C 381.042969 340.644531 384.925781 346.324219 390.472656 346.214844 C 386.058594 350.703125 378.453125 350.953125 372.996094 347.820312 C 370.722656 346.515625 368.8125 344.71875 367.210938 342.648438 C 366.710938 365.417969 367.671875 408.628906 380.734375 429.796875 C 398.960938 459.324219 378.980469 502.316406 378.980469 502.316406 C 378.980469 502.316406 282.167969 500.734375 266.316406 465.613281 C 261.914062 455.855469 257.242188 435.582031 255.722656 412.871094 C 255.710938 418.296875 255.359375 423.785156 253.53125 429.027344 C 252.453125 432.039062 250.828125 434.851562 248.738281 437.273438 C 246.167969 444.75 241.453125 451.492188 234.457031 454.925781 C 227.136719 458.515625 218.488281 458.011719 210.476562 456.488281 C 202.476562 454.96875 194.527344 453.1875 186.410156 452.421875 C 177.738281 451.601562 171.066406 451.539062 162.117188 455.957031 C 159.890625 451.648438 159.414062 446.433594 160.097656 437.863281 C 160.597656 431.59375 162.417969 425.035156 164.335938 418.746094 C 162.492188 416.933594 160.910156 414.839844 159.644531 412.566406 C 157.925781 409.5 156.828125 406.082031 156.355469 402.582031 C 156.105469 400.355469 156.140625 398.105469 156.40625 395.890625 C 156.105469 394.59375 155.863281 393.28125 155.75 391.953125 Z M 666.992188 180.5 L 666.992188 185.132812 L 686.28125 185.132812 L 686.28125 180.5 Z M 666.992188 220.054688 L 692.71875 220.054688 L 692.71875 215.417969 L 666.992188 215.417969 Z M 686.691406 214.523438 L 705.253906 214.523438 L 705.253906 209.890625 L 686.691406 209.890625 Z M 666.992188 214.523438 L 686.28125 214.523438 L 686.28125 209.890625 L 666.992188 209.890625 Z M 666.992188 209.003906 L 701.738281 209.003906 L 701.738281 204.367188 L 666.992188 204.367188 Z M 666.992188 201.710938 L 692.71875 201.710938 L 692.71875 197.078125 L 666.992188 197.078125 Z M 709.46875 191.554688 L 686.691406 191.554688 L 686.691406 196.191406 L 709.46875 196.191406 Z M 666.992188 196.191406 L 686.28125 196.191406 L 686.28125 191.554688 L 666.992188 191.554688 Z M 666.992188 190.660156 L 701.738281 190.660156 L 701.738281 186.027344 L 666.992188 186.027344 Z M 617.472656 177.082031 L 655.734375 177.082031 L 655.734375 172.449219 L 617.472656 172.449219 Z M 652.21875 131.65625 L 617.472656 131.65625 L 617.472656 136.289062 L 652.21875 136.289062 Z M 617.472656 171.746094 L 643.203125 171.746094 L 643.203125 167.113281 L 617.472656 167.113281 Z M 655.734375 161.585938 L 637.164062 161.585938 L 637.164062 166.21875 L 655.734375 166.21875 Z M 617.472656 166.21875 L 636.753906 166.21875 L 636.753906 161.585938 L 617.472656 161.585938 Z M 617.472656 160.691406 L 652.21875 160.691406 L 652.21875 156.054688 L 617.472656 156.054688 Z M 617.472656 153.40625 L 643.203125 153.40625 L 643.203125 148.773438 L 617.472656 148.773438 Z M 659.949219 143.242188 L 637.164062 143.242188 L 637.164062 147.878906 L 659.949219 147.878906 Z M 617.472656 147.878906 L 636.753906 147.878906 L 636.753906 143.242188 L 617.472656 143.242188 Z M 617.472656 142.355469 L 652.21875 142.355469 L 652.21875 137.722656 L 617.472656 137.722656 Z M 702.785156 125.015625 L 668.042969 125.015625 L 668.042969 129.652344 L 702.785156 129.652344 Z M 693.769531 119.535156 L 668.042969 119.535156 L 668.042969 124.171875 L 693.769531 124.171875 Z M 687.734375 118.644531 L 706.300781 118.644531 L 706.300781 114.007812 L 687.734375 114.007812 Z M 687.328125 114.007812 L 668.042969 114.007812 L 668.042969 118.644531 L 687.328125 118.644531 Z M 702.785156 108.488281 L 668.042969 108.488281 L 668.042969 113.121094 L 702.785156 113.121094 Z M 693.769531 101.195312 L 668.042969 101.195312 L 668.042969 105.832031 L 693.769531 105.832031 Z M 687.734375 100.300781 L 710.515625 100.300781 L 710.515625 95.667969 L 687.734375 95.667969 Z M 687.328125 95.667969 L 668.042969 95.667969 L 668.042969 100.300781 L 687.328125 100.300781 Z M 702.785156 90.144531 L 668.042969 90.144531 L 668.042969 94.78125 L 702.785156 94.78125 Z M 707.707031 136.289062 L 670.851562 136.289062 L 670.851562 173.171875 L 707.707031 173.171875 Z M 712.339844 177.808594 L 666.222656 177.808594 L 666.222656 131.65625 L 712.339844 131.65625 Z M 658.183594 185.132812 L 621.332031 185.132812 L 621.332031 214.6875 L 658.183594 214.6875 Z M 662.8125 219.324219 L 616.703125 219.324219 L 616.703125 180.5 L 662.8125 180.5 Z M 658.183594 94.78125 L 621.332031 94.78125 L 621.332031 125.015625 L 658.183594 125.015625 Z M 662.8125 129.652344 L 616.703125 129.652344 L 616.703125 90.144531 L 662.8125 90.144531 Z M 697.636719 355.992188 L 671.90625 355.992188 L 671.90625 360.625 L 697.636719 360.625 Z M 714.382812 350.460938 L 691.597656 350.460938 L 691.597656 355.097656 L 714.382812 355.097656 Z M 671.90625 355.097656 L 691.1875 355.097656 L 691.1875 350.460938 L 671.90625 350.460938 Z M 706.652344 344.941406 L 671.90625 344.941406 L 671.90625 349.574219 L 706.652344 349.574219 Z M 671.90625 327.855469 L 697.636719 327.855469 L 697.636719 323.21875 L 671.90625 323.21875 Z M 714.382812 317.691406 L 691.597656 317.691406 L 691.597656 322.328125 L 714.382812 322.328125 Z M 671.90625 322.328125 L 691.1875 322.328125 L 691.1875 317.691406 L 671.90625 317.691406 Z M 706.652344 312.164062 L 671.90625 312.164062 L 671.90625 316.796875 L 706.652344 316.796875 Z M 671.90625 295.078125 L 697.636719 295.078125 L 697.636719 290.441406 L 671.90625 290.441406 Z M 714.382812 284.921875 L 691.597656 284.921875 L 691.597656 289.554688 L 714.382812 289.554688 Z M 671.90625 289.554688 L 691.1875 289.554688 L 691.1875 284.921875 L 671.90625 284.921875 Z M 706.652344 279.390625 L 671.90625 279.390625 L 671.90625 284.027344 L 706.652344 284.027344 Z M 642.820312 361.519531 L 660.273438 361.519531 L 660.273438 344.046875 L 642.820312 344.046875 Z M 638.191406 339.414062 L 664.90625 339.414062 L 664.90625 366.152344 L 638.191406 366.152344 Z M 660.273438 311.277344 L 642.820312 311.277344 L 642.820312 328.742188 L 660.273438 328.742188 Z M 664.90625 333.375 L 638.191406 333.375 L 638.191406 306.640625 L 664.90625 306.640625 Z M 660.273438 278.503906 L 642.820312 278.503906 L 642.820312 295.96875 L 660.273438 295.96875 Z M 664.90625 300.605469 L 638.191406 300.605469 L 638.191406 273.871094 L 664.90625 273.871094 Z M 613.65625 355.992188 L 587.933594 355.992188 L 587.933594 360.625 L 613.65625 360.625 Z M 607.625 355.097656 L 630.410156 355.097656 L 630.410156 350.460938 L 607.625 350.460938 Z M 607.214844 350.460938 L 587.933594 350.460938 L 587.933594 355.097656 L 607.214844 355.097656 Z M 622.679688 344.941406 L 587.933594 344.941406 L 587.933594 349.574219 L 622.679688 349.574219 Z M 613.65625 290.441406 L 587.933594 290.441406 L 587.933594 295.078125 L 613.65625 295.078125 Z M 607.625 289.554688 L 630.410156 289.554688 L 630.410156 284.921875 L 607.625 284.921875 Z M 607.214844 284.921875 L 587.933594 284.921875 L 587.933594 289.554688 L 607.214844 289.554688 Z M 622.679688 279.390625 L 587.933594 279.390625 L 587.933594 284.027344 L 622.679688 284.027344 Z M 558.847656 361.519531 L 576.300781 361.519531 L 576.300781 344.046875 L 558.847656 344.046875 Z M 554.214844 339.414062 L 580.933594 339.414062 L 580.933594 366.152344 L 554.214844 366.152344 Z M 576.300781 278.503906 L 558.847656 278.503906 L 558.847656 295.96875 L 576.300781 295.96875 Z M 580.933594 300.605469 L 554.214844 300.605469 L 554.214844 273.871094 L 580.933594 273.871094 Z M 572.652344 81.8125 L 458.199219 81.8125 L 458.199219 227.65625 L 572.652344 227.65625 Z M 767.285156 721.171875 C 767.285156 733.210938 603.121094 742.96875 400.613281 742.96875 C 198.101562 742.96875 33.9375 733.210938 33.9375 721.171875 C 33.9375 710.621094 159.902344 701.820312 327.257812 699.800781 L 289.28125 605.359375 C 288.488281 603.351562 289.46875 601.074219 291.476562 600.277344 C 293.484375 599.480469 295.757812 600.464844 296.554688 602.476562 L 335.652344 699.703125 C 356.738281 699.480469 378.441406 699.363281 400.613281 699.363281 C 470.152344 699.363281 535.171875 700.519531 590.578125 702.515625 L 592.777344 712.375 L 642.886719 712.375 L 641.175781 704.710938 C 718.4375 708.707031 767.285156 714.597656 767.285156 721.171875"/></g><path fill="#F7F7F7" d="M 473.441406 213.234375 L 532.613281 213.234375 L 532.613281 211.6875 L 473.441406 211.6875 Z M 557.414062 202.269531 L 473.441406 202.269531 L 473.441406 203.8125 L 557.414062 203.8125 Z M 557.414062 192.839844 L 473.441406 192.839844 L 473.441406 194.386719 L 557.414062 194.386719 Z M 557.414062 183.417969 L 473.441406 183.417969 L 473.441406 184.964844 L 557.414062 184.964844 Z M 557.414062 173.992188 L 473.441406 173.992188 L 473.441406 175.539062 L 557.414062 175.539062 Z M 557.414062 164.566406 L 473.441406 164.566406 L 473.441406 166.109375 L 557.414062 166.109375 Z M 556.640625 100.707031 L 474.210938 100.707031 L 474.210938 153.960938 L 556.640625 153.960938 Z M 558.183594 155.507812 L 472.667969 155.507812 L 472.667969 99.160156 L 558.183594 99.160156 Z M 577.84375 276.960938 L 557.304688 276.960938 L 557.304688 297.515625 L 577.84375 297.515625 Z M 491.820312 315.03125 L 490.730469 313.9375 L 480.230469 324.445312 L 476.472656 320.679688 L 475.382812 321.769531 L 480.230469 326.628906 Z M 493.871094 330.285156 L 473.332031 330.285156 L 473.332031 309.730469 L 493.871094 309.730469 Z M 712.839844 286.464844 L 693.140625 286.464844 L 693.140625 288.011719 L 712.839844 288.011719 Z M 712.839844 319.238281 L 693.140625 319.238281 L 693.140625 320.78125 L 712.839844 320.78125 Z M 712.839844 352.007812 L 693.140625 352.007812 L 693.140625 353.550781 L 712.839844 353.550781 Z M 696.089844 357.535156 L 673.453125 357.535156 L 673.453125 359.082031 L 696.089844 359.082031 Z M 663.363281 275.414062 L 639.734375 275.414062 L 639.734375 299.0625 L 663.363281 299.0625 Z M 663.363281 308.1875 L 639.734375 308.1875 L 639.734375 331.832031 L 663.363281 331.832031 Z M 663.363281 340.957031 L 639.734375 340.957031 L 639.734375 364.609375 L 663.363281 364.609375 Z M 628.867188 286.464844 L 609.167969 286.464844 L 609.167969 288.011719 L 628.867188 288.011719 Z M 628.867188 319.238281 L 609.167969 319.238281 L 609.167969 320.78125 L 628.867188 320.78125 Z M 628.867188 352.007812 L 609.167969 352.007812 L 609.167969 353.550781 L 628.867188 353.550781 Z M 612.113281 357.535156 L 589.480469 357.535156 L 589.480469 359.082031 L 612.113281 359.082031 Z M 579.390625 275.414062 L 555.761719 275.414062 L 555.761719 299.0625 L 579.390625 299.0625 Z M 579.390625 308.1875 L 555.761719 308.1875 L 555.761719 331.832031 L 579.390625 331.832031 Z M 579.390625 340.957031 L 555.761719 340.957031 L 555.761719 364.609375 L 579.390625 364.609375 Z M 544.886719 286.464844 L 525.195312 286.464844 L 525.195312 288.011719 L 544.886719 288.011719 Z M 544.886719 319.238281 L 525.195312 319.238281 L 525.195312 320.78125 L 544.886719 320.78125 Z M 544.886719 352.007812 L 525.195312 352.007812 L 525.195312 353.550781 L 544.886719 353.550781 Z M 528.140625 357.535156 L 505.5 357.535156 L 505.5 359.082031 L 528.140625 359.082031 Z M 495.417969 275.414062 L 471.789062 275.414062 L 471.789062 299.0625 L 495.417969 299.0625 Z M 495.417969 308.1875 L 471.789062 308.1875 L 471.789062 331.832031 L 495.417969 331.832031 Z M 495.417969 340.957031 L 471.789062 340.957031 L 471.789062 364.609375 L 495.417969 364.609375 Z M 505.5 353.550781 L 521.699219 353.550781 L 521.699219 352.007812 L 505.5 352.007812 Z M 505.5 348.03125 L 537.160156 348.03125 L 537.160156 346.484375 L 505.5 346.484375 Z M 505.5 326.308594 L 528.140625 326.308594 L 528.140625 324.765625 L 505.5 324.765625 Z M 505.5 320.78125 L 521.699219 320.78125 L 521.699219 319.238281 L 505.5 319.238281 Z M 505.5 315.253906 L 537.160156 315.253906 L 537.160156 313.707031 L 505.5 313.707031 Z M 505.5 293.53125 L 528.140625 293.53125 L 528.140625 291.988281 L 505.5 291.988281 Z M 505.5 288.011719 L 521.699219 288.011719 L 521.699219 286.464844 L 505.5 286.464844 Z M 505.5 282.480469 L 537.160156 282.480469 L 537.160156 280.9375 L 505.5 280.9375 Z M 589.480469 353.550781 L 605.671875 353.550781 L 605.671875 352.007812 L 589.480469 352.007812 Z M 589.480469 348.03125 L 621.132812 348.03125 L 621.132812 346.484375 L 589.480469 346.484375 Z M 589.480469 326.308594 L 612.113281 326.308594 L 612.113281 324.765625 L 589.480469 324.765625 Z M 589.480469 320.78125 L 605.671875 320.78125 L 605.671875 319.238281 L 589.480469 319.238281 Z M 589.480469 315.253906 L 621.132812 315.253906 L 621.132812 313.707031 L 589.480469 313.707031 Z M 589.480469 293.53125 L 612.113281 293.53125 L 612.113281 291.988281 L 589.480469 291.988281 Z M 589.480469 288.011719 L 605.671875 288.011719 L 605.671875 286.464844 L 589.480469 286.464844 Z M 589.480469 282.480469 L 621.132812 282.480469 L 621.132812 280.9375 L 589.480469 280.9375 Z M 673.453125 353.550781 L 689.644531 353.550781 L 689.644531 352.007812 L 673.453125 352.007812 Z M 673.453125 348.03125 L 705.109375 348.03125 L 705.109375 346.484375 L 673.453125 346.484375 Z M 673.453125 326.308594 L 696.089844 326.308594 L 696.089844 324.765625 L 673.453125 324.765625 Z M 673.453125 320.78125 L 689.644531 320.78125 L 689.644531 319.238281 L 673.453125 319.238281 Z M 673.453125 315.253906 L 705.109375 315.253906 L 705.109375 313.707031 L 673.453125 313.707031 Z M 673.453125 293.53125 L 696.089844 293.53125 L 696.089844 291.988281 L 673.453125 291.988281 Z M 673.453125 288.011719 L 689.644531 288.011719 L 689.644531 286.464844 L 673.453125 286.464844 Z M 673.453125 282.480469 L 705.109375 282.480469 L 705.109375 280.9375 L 673.453125 280.9375 Z M 727.191406 379.511719 L 458.199219 379.511719 L 458.199219 256.15625 L 727.191406 256.15625 Z M 491.820312 347.800781 L 490.730469 346.707031 L 480.230469 357.214844 L 476.472656 353.457031 L 475.382812 354.546875 L 480.230469 359.402344 Z M 493.871094 363.0625 L 473.332031 363.0625 L 473.332031 342.503906 L 493.871094 342.503906 Z M 577.84375 342.503906 L 557.304688 342.503906 L 557.304688 363.0625 L 577.84375 363.0625 Z M 575.792969 315.03125 L 574.703125 313.9375 L 564.203125 324.445312 L 560.445312 320.679688 L 559.355469 321.769531 L 564.203125 326.628906 Z M 577.84375 330.285156 L 557.304688 330.285156 L 557.304688 309.730469 L 577.84375 309.730469 Z M 661.820312 342.503906 L 641.277344 342.503906 L 641.277344 363.0625 L 661.820312 363.0625 Z M 661.820312 309.730469 L 641.277344 309.730469 L 641.277344 330.285156 L 661.820312 330.285156 Z M 661.820312 276.960938 L 641.277344 276.960938 L 641.277344 297.515625 L 661.820312 297.515625 Z M 491.820312 282.257812 L 490.730469 281.167969 L 480.230469 291.667969 L 476.472656 287.90625 L 475.382812 289 L 480.230469 293.851562 Z M 493.871094 297.515625 L 473.332031 297.515625 L 473.332031 276.960938 L 493.871094 276.960938 Z M 773.546875 404.296875 C 773.429688 404.210938 773.316406 404.132812 773.195312 404.054688 L 773.195312 404.050781 C 772.109375 403.300781 770.789062 402.847656 769.347656 402.847656 L 446.1875 402.847656 C 442.894531 402.847656 440.078125 405.203125 439.492188 408.441406 L 395.5625 653.03125 C 395.070312 655.796875 396.3125 658.402344 398.441406 659.859375 L 404.941406 664.449219 L 409.960938 661.042969 L 581.3125 661.042969 L 570.625 613.175781 L 620.730469 613.175781 L 631.417969 661.042969 L 725.417969 661.042969 C 728.707031 661.042969 731.527344 658.679688 732.109375 655.441406 L 775.8125 412.105469 L 780.277344 409.066406 Z M 332.398438 607.21875 C 332.957031 607.21875 333.488281 606.972656 333.84375 606.550781 C 334.609375 605.648438 335.308594 604.625 336.039062 603.328125 C 336.613281 602.320312 337.144531 601.171875 337.65625 599.808594 C 338.15625 598.417969 338.488281 597.242188 338.707031 596.113281 C 338.996094 594.679688 339.140625 593.410156 339.144531 592.234375 C 339.152344 591.429688 338.644531 590.71875 337.871094 590.464844 L 337.546875 590.382812 L 337.304688 590.382812 C 336.503906 590.382812 335.796875 590.894531 335.550781 591.65625 L 334.476562 594.960938 L 334.242188 595.632812 C 333.945312 596.488281 333.652344 597.339844 333.3125 598.203125 C 332.988281 599.070312 332.636719 599.929688 332.28125 600.785156 L 332.054688 601.347656 L 330.652344 604.582031 C 330.328125 605.355469 330.539062 606.234375 331.179688 606.773438 C 331.523438 607.0625 331.949219 607.21875 332.398438 607.21875 Z M 305.988281 625.929688 L 306.566406 625.089844 C 309.0625 621.460938 311.324219 617.785156 313.277344 614.164062 C 316.308594 608.578125 318.996094 602.480469 321.289062 596.042969 C 323.527344 589.535156 325.226562 583.089844 326.328125 576.890625 C 327.507812 570.410156 328.140625 563.777344 328.21875 557.191406 C 328.222656 556.210938 327.46875 555.402344 326.378906 555.335938 C 325.40625 555.335938 324.605469 556.089844 324.542969 557.054688 C 324.148438 563.34375 323.296875 569.742188 322.019531 576.066406 C 320.683594 582.582031 318.972656 588.789062 316.914062 594.519531 C 314.90625 600.320312 312.363281 606.230469 309.339844 612.082031 C 307.777344 615.09375 306.03125 618.191406 304.117188 621.289062 L 304.835938 623.066406 C 304.976562 623.382812 305.292969 624.214844 305.292969 624.214844 C 305.746094 625.234375 305.988281 625.929688 305.988281 625.929688 Z M 193.363281 567.984375 C 193.074219 567.808594 192.746094 567.71875 192.410156 567.71875 C 191.769531 567.71875 191.167969 568.054688 190.835938 568.605469 C 189.847656 570.246094 188.949219 571.90625 187.898438 573.878906 C 187.289062 575.027344 186.714844 576.1875 186.136719 577.351562 C 185.828125 577.972656 185.523438 578.59375 185.183594 579.257812 L 184.402344 580.9375 C 183.816406 582.179688 183.230469 583.421875 182.675781 584.683594 C 181.910156 586.441406 181.09375 588.3125 180.367188 590.265625 C 180.050781 591.125 180.390625 592.089844 181.167969 592.554688 C 181.464844 592.730469 181.800781 592.824219 182.144531 592.824219 C 182.808594 592.824219 183.429688 592.46875 183.765625 591.90625 C 184.847656 590.101562 185.84375 588.230469 186.691406 586.609375 C 187.320312 585.394531 187.929688 584.164062 188.53125 582.941406 L 189.375 581.21875 C 189.664062 580.585938 189.960938 579.945312 190.257812 579.3125 C 190.800781 578.140625 191.34375 576.96875 191.855469 575.789062 C 192.746094 573.734375 193.476562 571.996094 194.140625 570.199219 C 194.441406 569.371094 194.117188 568.4375 193.363281 567.984375 Z M 199.097656 471.710938 C 195.871094 468.425781 192.203125 465.863281 188.195312 464.085938 L 187.777344 463.9375 L 187.453125 463.9375 C 186.753906 463.9375 186.101562 464.339844 185.800781 464.96875 C 185.582031 465.410156 185.550781 465.910156 185.714844 466.375 C 185.878906 466.839844 186.210938 467.214844 186.648438 467.429688 C 193.355469 470.683594 199.085938 476.742188 202.777344 484.480469 C 206.203125 491.6875 207.902344 499.804688 207.6875 507.980469 C 207.539062 515.230469 206.082031 523.125 203.222656 532.117188 C 200.71875 539.976562 197.457031 547.785156 194.308594 555.339844 L 194.226562 555.539062 C 193.832031 556.480469 194.253906 557.554688 195.183594 557.984375 L 195.636719 558.160156 L 195.972656 558.160156 C 196.710938 558.160156 197.378906 557.730469 197.691406 557.058594 C 201.136719 549.632812 204.722656 541.6875 207.457031 533.5 C 210.515625 524.375 212.101562 516.058594 212.3125 508.074219 C 212.460938 499.007812 210.53125 490.179688 206.714844 482.550781 C 204.632812 478.410156 202.070312 474.765625 199.097656 471.710938 Z M 300.730469 538.175781 L 300.96875 538.171875 L 301.089844 538.152344 C 301.898438 538.019531 302.585938 537.46875 302.882812 536.703125 C 303.0625 536.246094 320.703125 490.484375 315.40625 446.398438 L 313.839844 446.296875 L 310.753906 446.15625 L 310.734375 446.3125 L 310.765625 446.523438 C 315.191406 482.3125 303.972656 519.394531 299.921875 531.242188 L 236.207031 453.964844 C 235.636719 454.304688 235.054688 454.628906 234.457031 454.925781 C 233.613281 455.335938 232.75 455.691406 231.875 456 L 298.945312 537.335938 C 299.382812 537.867188 300.035156 538.175781 300.730469 538.175781 Z M 375.121094 701.40625 L 463.6875 734.484375 L 309.238281 734.484375 L 269.25 705.773438 C 271.285156 705.875 273.441406 705.851562 275.71875 705.617188 C 289.355469 704.207031 292.726562 701.984375 293.402344 701.40625 L 294.125 701.40625 L 306.363281 704.554688 C 309.21875 705.292969 312.199219 703.976562 313.609375 701.40625 L 327.902344 701.40625 L 329.371094 705.039062 C 329.574219 705.550781 329.90625 706.003906 330.335938 706.347656 L 334.886719 710.023438 C 335.316406 710.367188 335.957031 710.113281 336.035156 709.570312 L 336.835938 703.765625 C 336.90625 703.222656 336.839844 702.667969 336.644531 702.152344 L 336.335938 701.40625 L 375.121094 701.40625"/><path fill="#F7F7F7" d="M 394.171875 495.007812 C 387.144531 486.371094 382.523438 475.199219 376.863281 464.9375 C 380.878906 459.019531 382.035156 451.402344 386.324219 445.632812 C 391.203125 439.078125 399.566406 435.746094 404.199219 429.011719 C 407.871094 423.667969 408.703125 416.777344 407.832031 410.351562 C 407.527344 408.171875 407.039062 406.027344 406.449219 403.917969 C 406.980469 401.972656 406.65625 399.488281 405.652344 397.851562 C 405.273438 397.90625 404.894531 397.964844 404.511719 398.027344 C 403.84375 396.191406 403.125 394.367188 402.398438 392.558594 C 402.691406 392.292969 402.921875 392.007812 403.058594 391.703125 C 404.011719 389.503906 403 386.011719 400.792969 385.082031 C 398.921875 384.296875 397.042969 383.554688 395.140625 382.847656 C 400.304688 383.4375 402.976562 377.664062 399.316406 373.371094 C 395.097656 368.421875 387.464844 364.433594 382.324219 360.371094 C 381.144531 359.429688 379.925781 358.476562 378.476562 358.054688 C 377.03125 357.636719 375.28125 357.875 374.324219 359.039062 C 372.664062 361.03125 374.207031 363.988281 375.746094 366.070312 C 380.203125 372.109375 385.011719 378.375 391.691406 381.640625 C 386.832031 379.96875 381.898438 378.527344 376.886719 377.375 C 375.304688 378.570312 374.933594 380.910156 375.570312 382.789062 C 376.203125 384.671875 377.640625 386.167969 379.152344 387.453125 C 380.765625 388.828125 382.519531 390.035156 384.375 391.0625 C 384.296875 391.097656 384.214844 391.132812 384.136719 391.183594 C 382.886719 391.902344 381.730469 392.75 380.65625 393.703125 C 380.835938 392.558594 380.710938 391.4375 380.117188 390.453125 C 373.746094 391.488281 367.351562 390.875 360.957031 390 C 351.4375 409.847656 345.273438 431.304688 342.800781 453.183594 C 341.226562 457.601562 340.726562 462.003906 342.703125 465.480469 C 342.699219 465.480469 342.683594 465.480469 342.679688 465.480469 C 355.386719 493.859375 368.085938 522.238281 380.792969 550.613281 C 388.308594 567.417969 395.878906 584.253906 405.054688 600.183594 L 418.96875 522.738281 C 410.277344 513.882812 402 504.625 394.171875 495.007812 Z M 659.726562 183.589844 L 619.789062 183.589844 L 619.789062 216.234375 L 659.726562 216.234375 Z M 710.792969 133.199219 L 667.765625 133.199219 L 667.765625 176.261719 L 710.792969 176.261719 Z M 707.925781 193.101562 L 688.234375 193.101562 L 688.234375 194.644531 L 707.925781 194.644531 Z M 703.707031 211.433594 L 688.234375 211.433594 L 688.234375 212.980469 L 703.707031 212.980469 Z M 668.535156 211.433594 L 668.535156 212.980469 L 684.734375 212.980469 L 684.734375 211.433594 Z M 668.535156 205.914062 L 668.535156 207.457031 L 700.191406 207.457031 L 700.191406 205.914062 Z M 668.535156 198.621094 L 668.535156 200.167969 L 691.175781 200.167969 L 691.175781 198.621094 Z M 668.535156 193.101562 L 668.535156 194.644531 L 684.734375 194.644531 L 684.734375 193.101562 Z M 684.734375 183.589844 L 684.734375 182.042969 L 668.535156 182.042969 L 668.535156 183.589844 Z M 668.535156 187.570312 L 668.535156 189.117188 L 700.191406 189.117188 L 700.191406 187.570312 Z M 691.175781 216.964844 L 668.535156 216.964844 L 668.535156 218.507812 L 691.175781 218.507812 Z M 661.269531 91.691406 L 618.246094 91.691406 L 618.246094 128.105469 L 661.269531 128.105469 Z M 619.019531 173.992188 L 619.019531 175.539062 L 654.191406 175.539062 L 654.191406 173.992188 Z M 619.019531 168.65625 L 619.019531 170.203125 L 641.65625 170.203125 L 641.65625 168.65625 Z M 619.019531 163.128906 L 619.019531 164.675781 L 635.210938 164.675781 L 635.210938 163.128906 Z M 638.707031 163.128906 L 638.707031 164.675781 L 654.191406 164.675781 L 654.191406 163.128906 Z M 619.019531 157.601562 L 619.019531 159.144531 L 650.671875 159.144531 L 650.671875 157.601562 Z M 619.019531 150.316406 L 619.019531 151.863281 L 641.65625 151.863281 L 641.65625 150.316406 Z M 619.019531 144.789062 L 619.019531 146.332031 L 635.210938 146.332031 L 635.210938 144.789062 Z M 619.019531 139.265625 L 619.019531 140.8125 L 650.671875 140.8125 L 650.671875 139.265625 Z M 638.707031 144.789062 L 638.707031 146.332031 L 658.40625 146.332031 L 658.40625 144.789062 Z M 650.671875 133.199219 L 619.019531 133.199219 L 619.019531 134.746094 L 650.671875 134.746094 Z M 661.269531 182.042969 L 618.246094 182.042969 L 618.246094 217.777344 L 661.269531 217.777344 Z M 669.585938 128.105469 L 701.242188 128.105469 L 701.242188 126.5625 L 669.585938 126.5625 Z M 669.585938 122.628906 L 692.226562 122.628906 L 692.226562 121.082031 L 669.585938 121.082031 Z M 669.585938 117.097656 L 685.785156 117.097656 L 685.785156 115.554688 L 669.585938 115.554688 Z M 689.277344 115.554688 L 689.277344 117.097656 L 704.757812 117.097656 L 704.757812 115.554688 Z M 669.585938 111.578125 L 701.242188 111.578125 L 701.242188 110.03125 L 669.585938 110.03125 Z M 669.585938 104.285156 L 692.226562 104.285156 L 692.226562 102.742188 L 669.585938 102.742188 Z M 669.585938 98.757812 L 685.785156 98.757812 L 685.785156 97.210938 L 669.585938 97.210938 Z M 689.277344 97.210938 L 689.277344 98.757812 L 708.972656 98.757812 L 708.972656 97.210938 Z M 669.585938 93.234375 L 701.242188 93.234375 L 701.242188 91.691406 L 669.585938 91.691406 Z M 720.039062 81.8125 L 720.039062 227.65625 L 605.585938 227.65625 L 605.585938 81.8125 Z M 709.25 134.746094 L 669.308594 134.746094 L 669.308594 174.71875 L 709.25 174.71875 Z M 659.726562 93.234375 L 619.789062 93.234375 L 619.789062 126.5625 L 659.726562 126.5625 Z M 321.609375 664.769531 L 325.40625 674.214844 C 325.140625 673.667969 324.828125 673.136719 324.414062 672.675781 L 311.875 658.746094 C 310.457031 657.171875 308.648438 655.988281 306.632812 655.332031 L 285.496094 648.402344 C 280.996094 646.929688 276.050781 648.203125 272.832031 651.675781 L 256.222656 669.550781 L 144.578125 666.285156 L 159.710938 635.710938 L 157.171875 629.753906 C 147.09375 606.140625 125.691406 589.28125 100.386719 585.027344 C 100.386719 585.027344 63.277344 671.320312 65.792969 680.546875 C 68.308594 689.773438 74.175781 716.015625 104.347656 716.015625 C 126.082031 716.015625 210.019531 707.441406 255.25 702.640625 C 259.820312 704.5625 266.921875 706.523438 275.71875 705.617188 C 291.515625 703.980469 293.550781 701.253906 293.550781 701.253906 L 306.363281 704.554688 C 309.292969 705.308594 312.351562 703.921875 313.71875 701.222656 L 314.871094 698.964844 C 315.578125 697.578125 316.957031 696.660156 318.515625 696.558594 L 319.292969 696.503906 C 324.539062 696.160156 327.921875 690.800781 325.984375 685.914062 L 326.027344 676.921875 C 326.035156 676.242188 325.90625 675.585938 325.703125 674.957031 L 325.707031 674.976562 C 331.550781 675.34375 336.105469 672.109375 332.492188 668.777344 C 330.28125 666.746094 325.625 665.5 321.609375 664.769531 Z M 315.425781 548.527344 C 315.425781 540.414062 308.835938 533.820312 300.730469 533.820312 C 292.625 533.820312 286.027344 540.414062 286.027344 548.527344 C 286.027344 556.636719 292.625 563.234375 300.730469 563.234375 C 308.835938 563.234375 315.425781 556.636719 315.425781 548.527344 Z M 255.527344 370.699219 C 255.070312 370.621094 254.613281 370.535156 254.152344 370.433594 C 249.882812 379.605469 249.71875 390.121094 250.3125 400.21875 C 250.902344 410.320312 252.164062 420.519531 250.472656 430.496094 C 250.28125 431.628906 250.035156 432.765625 249.75 433.886719 C 250.777344 432.222656 251.621094 430.441406 252.242188 428.582031 C 254.453125 421.867188 254.296875 414.609375 254.121094 407.445312 C 254.015625 400.246094 254.054688 393.027344 254.414062 385.828125 C 254.648438 380.777344 255.027344 375.730469 255.527344 370.699219 Z M 290.386719 365.859375 C 293.515625 363.84375 295.878906 360.734375 297.96875 357.546875 C 293.605469 361.390625 287.980469 363.601562 282.160156 362.804688 C 280.03125 364.632812 277.726562 366.191406 275.308594 367.457031 C 276.683594 367.699219 278.058594 367.917969 279.441406 368.03125 C 283.28125 368.398438 287.238281 367.957031 290.386719 365.859375 Z M 365.679688 340.402344 C 364.238281 338.03125 363.148438 335.417969 362.4375 332.742188 C 360.808594 326.660156 360.808594 320.273438 360.820312 313.972656 C 360.828125 311.46875 360.742188 308.796875 360.285156 306.285156 C 359.589844 305.890625 358.882812 305.53125 358.15625 305.246094 C 357.105469 304.847656 356.03125 304.527344 354.929688 304.355469 C 353.832031 304.15625 352.707031 304.09375 351.585938 304.117188 C 350.460938 304.15625 349.332031 304.328125 348.199219 304.582031 C 348.035156 304.625 347.878906 304.523438 347.835938 304.367188 C 347.8125 304.234375 347.871094 304.105469 347.972656 304.039062 C 349.03125 303.40625 350.230469 303.019531 351.453125 302.820312 C 352.683594 302.609375 353.949219 302.640625 355.179688 302.828125 C 356.410156 303.039062 357.625 303.410156 358.722656 304.003906 C 359.15625 304.234375 359.558594 304.503906 359.957031 304.789062 C 359.621094 303.496094 359.160156 302.277344 358.535156 301.167969 C 358.304688 301.113281 358.070312 301.058594 357.839844 301.015625 C 357.109375 300.890625 356.386719 300.773438 355.65625 300.730469 C 354.929688 300.671875 354.199219 300.683594 353.457031 300.707031 C 352.714844 300.738281 351.972656 300.835938 351.195312 300.929688 C 351.03125 300.949219 350.875 300.835938 350.855469 300.671875 C 350.839844 300.550781 350.898438 300.441406 350.984375 300.375 C 351.671875 299.910156 352.457031 299.609375 353.269531 299.417969 C 354.078125 299.210938 354.921875 299.15625 355.753906 299.195312 C 356.292969 299.230469 356.820312 299.328125 357.339844 299.453125 C 356.984375 299.035156 356.585938 298.644531 356.152344 298.28125 C 355.074219 298.148438 354 298.121094 352.949219 298.257812 C 351.839844 298.410156 350.753906 298.675781 349.730469 299.101562 C 348.691406 299.511719 347.726562 300.082031 346.824219 300.746094 C 345.925781 301.421875 345.128906 302.234375 344.417969 303.160156 C 344.3125 303.292969 344.125 303.316406 343.996094 303.21875 C 343.890625 303.140625 343.855469 302.996094 343.898438 302.875 C 344.761719 300.515625 346.8125 298.648438 349.136719 297.679688 C 350.320312 297.195312 351.582031 296.898438 352.851562 296.894531 C 353.179688 296.886719 353.5 296.898438 353.820312 296.925781 C 348.902344 295.148438 341.882812 298.121094 340.484375 303.152344 C 340.074219 298.6875 336.527344 294.835938 332.277344 293.605469 C 332.625 293.882812 332.980469 294.152344 333.308594 294.46875 C 334.253906 295.410156 335.074219 296.476562 335.675781 297.660156 C 336.285156 298.84375 336.714844 300.117188 336.847656 301.421875 C 336.859375 301.582031 336.746094 301.726562 336.578125 301.746094 C 336.445312 301.757812 336.324219 301.679688 336.273438 301.566406 C 335.792969 300.414062 335.230469 299.328125 334.554688 298.324219 C 333.867188 297.335938 333.109375 296.398438 332.234375 295.574219 C 331.378906 294.738281 330.417969 294.015625 329.398438 293.371094 C 329.304688 293.308594 329.199219 293.261719 329.105469 293.207031 C 328.953125 293.210938 328.800781 293.207031 328.652344 293.21875 C 327.332031 293.328125 326.082031 293.671875 324.902344 294.191406 C 325.738281 294.261719 326.570312 294.425781 327.375 294.671875 C 329.941406 295.492188 332.292969 297.269531 333.476562 299.671875 C 333.546875 299.816406 333.488281 299.996094 333.34375 300.070312 C 333.222656 300.128906 333.078125 300.09375 332.988281 300.003906 C 332.136719 299.078125 331.207031 298.28125 330.183594 297.640625 C 329.152344 297.007812 328.0625 296.488281 326.910156 296.144531 C 325.769531 295.785156 324.574219 295.589844 323.375 295.53125 C 323.074219 295.519531 322.777344 295.546875 322.476562 295.558594 C 321.703125 296.089844 320.960938 296.6875 320.261719 297.347656 C 320.683594 297.308594 321.105469 297.296875 321.523438 297.304688 C 322.332031 297.339844 323.140625 297.429688 323.910156 297.648438 C 324.691406 297.847656 325.449219 298.125 326.148438 298.542969 C 326.289062 298.625 326.335938 298.8125 326.25 298.957031 C 326.191406 299.0625 326.082031 299.109375 325.96875 299.101562 L 323.707031 298.933594 C 322.957031 298.898438 322.230469 298.847656 321.492188 298.847656 C 320.757812 298.832031 320.023438 298.855469 319.28125 298.867188 L 318.761719 298.890625 C 317.609375 300.183594 316.570312 301.589844 315.65625 303.015625 C 311.609375 309.265625 308.09375 316.140625 308.21875 323.59375 C 308.375 332.648438 307.898438 342.042969 303.769531 350.101562 C 303.0625 351.488281 302.210938 352.796875 301.265625 354.03125 C 300.625 355.382812 299.949219 356.714844 299.191406 358.011719 C 297.164062 361.464844 294.675781 364.785156 291.21875 367.136719 C 287.691406 369.511719 283.269531 369.890625 279.300781 369.414062 C 277.347656 369.179688 275.441406 368.78125 273.566406 368.308594 C 271.558594 369.21875 269.476562 369.9375 267.347656 370.421875 C 268.046875 372.667969 268.84375 374.875 269.75 377.042969 C 271.691406 381.6875 274.066406 386.148438 276.902344 390.308594 C 279.675781 394.5 282.925781 398.382812 286.492188 401.9375 C 290.066406 405.480469 293.988281 408.691406 298.214844 411.472656 C 298.351562 411.5625 298.390625 411.746094 298.296875 411.882812 C 298.214844 412.011719 298.046875 412.050781 297.90625 411.972656 C 293.46875 409.457031 289.320312 406.390625 285.585938 402.871094 C 281.839844 399.367188 278.53125 395.40625 275.621094 391.171875 C 272.777344 386.898438 270.339844 382.339844 268.480469 377.554688 C 267.601562 375.296875 266.855469 372.984375 266.234375 370.644531 C 263.023438 371.246094 259.726562 371.339844 256.410156 370.851562 C 256.105469 375.859375 255.859375 380.867188 255.714844 385.878906 C 255.523438 393.058594 255.46875 400.234375 255.660156 407.417969 C 255.773438 414.570312 255.972656 422.023438 253.53125 429.027344 C 252.453125 432.039062 250.828125 434.851562 248.738281 437.273438 C 246.785156 442.957031 243.582031 448.210938 239.089844 451.914062 C 246.269531 463.941406 254.582031 475.363281 265.152344 484.5 C 277.46875 495.140625 293.191406 502.503906 309.460938 502.316406 C 313.207031 502.265625 317.035156 501.800781 320.359375 500.082031 C 323.683594 498.355469 326.425781 495.1875 326.847656 491.464844 C 327.476562 485.863281 322.964844 481.078125 318.449219 477.714844 C 313.929688 474.355469 306.3125 471.046875 306.652344 465.425781 C 307.582031 450.183594 308.304688 434.640625 309.234375 419.398438 C 317.113281 422.378906 325.847656 425.371094 333.742188 422.4375 C 340.882812 419.785156 345.484375 412.914062 349.046875 406.179688 C 359.734375 386.003906 365.410156 363.226562 365.679688 340.402344 Z M 178.582031 315.578125 L 144.730469 315.578125 L 144.730469 229.214844 C 144.210938 230.042969 143.691406 230.855469 143.1875 231.691406 L 143.1875 317.125 L 178.460938 317.125 C 178.503906 316.605469 178.519531 316.09375 178.582031 315.578125 Z M 261.488281 243.082031 C 261.992188 242.847656 262.511719 242.644531 263.03125 242.425781 L 263.03125 138.191406 L 219.089844 138.191406 C 218.535156 138.703125 217.992188 139.222656 217.445312 139.738281 L 261.488281 139.738281 Z M 383.496094 267.1875 C 383.914062 267.695312 384.316406 268.207031 384.703125 268.734375 L 419.8125 268.734375 L 419.8125 89.800781 L 299.96875 89.800781 L 299.96875 238.042969 C 300.488281 238.136719 301 238.253906 301.511719 238.371094 L 301.511719 91.347656 L 418.269531 91.347656 L 418.269531 267.1875 Z M 295.335938 237.355469 L 295.335938 85.167969 L 424.445312 85.167969 L 424.445312 273.367188 L 387.71875 273.367188 C 388.007812 273.882812 388.296875 274.394531 388.566406 274.914062 L 425.988281 274.914062 L 425.988281 83.621094 L 297.527344 83.621094 C 296.277344 84.226562 295.03125 84.828125 293.792969 85.449219 L 293.792969 237.210938 C 294.113281 237.234375 294.425781 237.242188 294.746094 237.273438 C 294.945312 237.296875 295.136719 237.332031 295.335938 237.355469 Z M 267.710938 240.597656 C 268.222656 240.417969 268.742188 240.246094 269.253906 240.078125 L 269.253906 132.011719 L 225.910156 132.011719 C 225.332031 132.523438 224.765625 133.042969 224.191406 133.558594 L 267.710938 133.558594 Z M 178.386719 323.304688 L 137.058594 323.304688 L 137.058594 241.949219 C 137.578125 241.066406 138.082031 240.179688 138.601562 239.300781 L 138.601562 321.757812 L 178.320312 321.757812 C 178.332031 322.273438 178.359375 322.785156 178.386719 323.304688"/><g clip-path="url(#c)"><path fill="#365B6D" d="M 300.164062 701 C 299.523438 700.367188 298.894531 699.722656 298.335938 699.027344 C 297.757812 698.34375 297.242188 697.613281 296.738281 696.867188 C 296.234375 696.105469 295.796875 695.316406 295.335938 694.488281 C 295.285156 694.386719 295.167969 694.320312 295.042969 694.335938 C 294.878906 694.355469 294.757812 694.5 294.777344 694.667969 C 294.886719 695.640625 295.1875 696.589844 295.589844 697.488281 C 295.757812 697.875 295.964844 698.242188 296.183594 698.605469 C 296.089844 698.675781 295.996094 698.742188 295.917969 698.820312 C 295.609375 699.140625 295.402344 699.539062 295.257812 699.949219 C 295.136719 700.359375 295.058594 700.789062 295.109375 701.222656 C 295.144531 701.644531 295.246094 702.074219 295.496094 702.4375 C 295.535156 702.492188 295.589844 702.535156 295.65625 702.558594 C 295.824219 702.617188 296.007812 702.535156 296.074219 702.363281 L 296.078125 702.339844 C 296.210938 701.976562 296.296875 701.652344 296.40625 701.34375 C 296.519531 701.035156 296.605469 700.742188 296.71875 700.453125 C 296.796875 700.222656 296.886719 700.003906 296.976562 699.773438 C 297.03125 699.847656 297.082031 699.933594 297.140625 700.003906 C 297.773438 700.769531 298.480469 701.472656 299.289062 702.050781 C 300.082031 702.625 300.945312 703.117188 301.886719 703.421875 C 302.019531 703.460938 302.175781 703.421875 302.273438 703.304688 C 302.394531 703.15625 302.375 702.933594 302.21875 702.804688 C 301.507812 702.207031 300.808594 701.628906 300.164062 701 Z M 317.976562 676.375 C 319.449219 677.964844 320.804688 679.660156 322.144531 681.367188 C 323.476562 683.082031 324.742188 684.851562 326 686.644531 C 326.082031 686.757812 326.234375 686.800781 326.367188 686.738281 C 326.515625 686.667969 326.578125 686.492188 326.511719 686.347656 C 325.570312 684.34375 324.4375 682.4375 323.199219 680.601562 C 321.964844 678.761719 320.570312 677.035156 319.128906 675.351562 C 317.632812 673.714844 316.078125 672.128906 314.402344 670.679688 C 312.722656 669.230469 310.964844 667.878906 309.085938 666.707031 C 308.949219 666.617188 308.757812 666.640625 308.640625 666.773438 C 308.515625 666.917969 308.527344 667.144531 308.671875 667.269531 C 310.304688 668.71875 311.929688 670.167969 313.476562 671.6875 C 315.035156 673.195312 316.554688 674.742188 317.976562 676.375 Z M 293.835938 699.828125 C 293.761719 699.625 293.691406 699.417969 293.566406 699.226562 C 293.449219 699.027344 293.324219 698.820312 293.105469 698.621094 L 293.089844 698.609375 C 293.0625 698.585938 293.035156 698.5625 292.996094 698.542969 C 292.785156 698.433594 292.519531 698.519531 292.417969 698.730469 C 292.273438 699.007812 292.242188 699.285156 292.242188 699.550781 C 292.230469 699.824219 292.296875 700.082031 292.382812 700.335938 C 292.484375 700.578125 292.59375 700.820312 292.78125 701.019531 C 292.957031 701.230469 293.15625 701.417969 293.445312 701.542969 C 293.46875 701.554688 293.5 701.566406 293.527344 701.566406 C 293.726562 701.605469 293.921875 701.472656 293.957031 701.273438 L 293.957031 701.261719 C 294.011719 700.964844 293.992188 700.722656 293.96875 700.488281 C 293.960938 700.253906 293.894531 700.039062 293.835938 699.828125 Z M 147.695312 666.402344 C 143.371094 665.617188 138.976562 665.234375 134.566406 665.175781 C 130.160156 665.121094 125.75 665.441406 121.382812 666.03125 C 117.023438 666.691406 112.699219 667.601562 108.484375 668.886719 C 104.269531 670.167969 100.15625 671.761719 96.21875 673.714844 C 96.085938 673.78125 96.019531 673.945312 96.074219 674.089844 C 96.132812 674.242188 96.308594 674.3125 96.460938 674.253906 C 100.519531 672.652344 104.644531 671.257812 108.847656 670.140625 C 113.042969 669.027344 117.296875 668.121094 121.601562 667.558594 C 125.894531 666.925781 130.230469 666.617188 134.574219 666.546875 C 138.917969 666.46875 143.265625 666.671875 147.601562 667.09375 C 147.78125 667.113281 147.949219 666.984375 147.980469 666.804688 C 148.015625 666.617188 147.890625 666.4375 147.695312 666.402344 Z M 254.460938 702.097656 C 251.824219 700.585938 250.214844 697.335938 250.59375 694.125 C 250.613281 693.964844 250.515625 693.800781 250.355469 693.746094 C 250.167969 693.6875 249.972656 693.789062 249.914062 693.976562 C 249.050781 696.644531 249.859375 699.722656 251.78125 701.851562 C 250.738281 701.6875 249.707031 701.40625 248.742188 700.980469 C 247.085938 700.257812 245.570312 699.09375 244.835938 697.398438 C 244.78125 697.269531 244.640625 697.191406 244.503906 697.222656 C 244.347656 697.253906 244.238281 697.410156 244.269531 697.574219 C 244.460938 698.585938 245.015625 699.523438 245.699219 700.304688 C 246.402344 701.074219 247.246094 701.695312 248.152344 702.1875 C 249.972656 703.148438 252.03125 703.632812 254.117188 703.535156 C 254.371094 703.515625 254.617188 703.378906 254.75 703.148438 C 254.960938 702.773438 254.828125 702.308594 254.460938 702.097656 Z M 376.34375 466.421875 C 375.597656 466.871094 374.882812 467.324219 374.15625 467.722656 C 373.414062 468.113281 372.683594 468.503906 371.929688 468.835938 C 371.179688 469.1875 370.410156 469.484375 369.632812 469.777344 C 368.847656 470.070312 368.046875 470.308594 367.226562 470.582031 C 367.09375 470.625 366.988281 470.746094 366.976562 470.890625 C 366.960938 471.082031 367.105469 471.257812 367.296875 471.277344 C 368.203125 471.367188 369.105469 471.277344 370 471.09375 C 370.886719 470.925781 371.746094 470.617188 372.574219 470.238281 C 373.394531 469.84375 374.179688 469.378906 374.882812 468.808594 C 375.582031 468.238281 376.234375 467.601562 376.746094 466.851562 C 376.8125 466.761719 376.820312 466.628906 376.757812 466.527344 C 376.667969 466.386719 376.480469 466.339844 376.34375 466.421875 Z M 328.765625 404.074219 C 328.210938 404.050781 327.667969 404.066406 327.121094 404.066406 C 326.578125 404.078125 326.035156 404.074219 325.480469 404.105469 C 324.925781 404.128906 324.363281 404.140625 323.785156 404.21875 C 323.6875 404.230469 323.597656 404.289062 323.550781 404.382812 C 323.464844 404.527344 323.519531 404.71875 323.671875 404.796875 C 324.199219 405.097656 324.773438 405.273438 325.351562 405.40625 C 325.933594 405.546875 326.527344 405.59375 327.121094 405.605469 C 327.71875 405.605469 328.3125 405.570312 328.894531 405.4375 C 329.476562 405.3125 330.050781 405.148438 330.585938 404.851562 C 330.683594 404.796875 330.761719 404.695312 330.773438 404.574219 C 330.796875 404.375 330.652344 404.1875 330.453125 404.164062 C 329.871094 404.089844 329.316406 404.089844 328.765625 404.074219 Z M 330.28125 391.460938 L 321.390625 390.929688 L 314.140625 390.398438 C 315.738281 392.25 317.800781 393.765625 319.996094 394.964844 C 321.34375 395.695312 322.753906 396.3125 324.214844 396.796875 C 325.636719 397.273438 327.246094 397.605469 328.621094 397.710938 L 328.722656 397.71875 C 331.261719 396.570312 333.710938 394.832031 335.675781 392.792969 C 335.917969 392.550781 336.207031 392.246094 336.382812 392.027344 C 336.449219 391.941406 336.480469 391.871094 336.496094 391.828125 C 336.429688 391.796875 336.167969 391.75 335.835938 391.75 L 334.71875 391.695312 C 333.242188 391.628906 331.757812 391.550781 330.28125 391.460938 Z M 321.492188 389.394531 L 330.371094 390.046875 C 331.855469 390.148438 333.332031 390.269531 334.808594 390.402344 L 335.917969 390.5 C 336.257812 390.5625 336.757812 390.476562 337.34375 390.945312 C 337.636719 391.199219 337.765625 391.664062 337.679688 392.015625 C 337.601562 392.359375 337.445312 392.570312 337.300781 392.75 C 336.992188 393.09375 336.757812 393.320312 336.46875 393.597656 C 334.25 395.714844 331.671875 397.273438 328.734375 398.347656 L 328.621094 398.386719 C 326.921875 398.359375 325.480469 398.082031 323.949219 397.671875 C 322.414062 397.242188 320.921875 396.667969 319.484375 395.96875 C 318.054688 395.257812 316.679688 394.421875 315.402344 393.441406 C 314.125 392.457031 312.929688 391.332031 311.96875 389.96875 C 311.742188 389.648438 311.820312 389.203125 312.140625 388.980469 C 312.277344 388.882812 312.433594 388.839844 312.589844 388.851562 L 312.609375 388.851562 Z M 337.289062 382.25 C 338.28125 382.460938 339.34375 382.195312 340.226562 381.714844 C 341.105469 381.199219 341.835938 380.457031 342.367188 379.578125 C 343.414062 377.800781 343.53125 375.738281 343.414062 373.867188 C 343.269531 371.992188 342.9375 370.132812 342.355469 368.351562 C 341.785156 366.570312 341.019531 364.851562 340.015625 363.292969 C 339.933594 363.179688 339.789062 363.125 339.65625 363.179688 C 339.5 363.238281 339.429688 363.410156 339.488281 363.558594 C 340.140625 365.253906 340.703125 366.957031 341.097656 368.699219 C 341.492188 370.4375 341.773438 372.203125 341.878906 373.964844 C 341.996094 375.714844 341.878906 377.457031 341.164062 378.917969 C 340.460938 380.335938 339.023438 381.542969 337.359375 381.554688 C 337.199219 381.554688 337.046875 381.671875 337.015625 381.832031 C 336.972656 382.019531 337.09375 382.207031 337.289062 382.25 Z M 301.933594 337.78125 C 304.140625 337.039062 306.390625 336.480469 308.671875 336.160156 C 310.953125 335.84375 313.253906 335.707031 315.546875 335.863281 C 317.839844 335.953125 320.117188 336.328125 322.347656 336.882812 C 324.582031 337.433594 326.753906 338.230469 328.875 339.1875 C 329.027344 339.261719 329.21875 339.214844 329.308594 339.0625 C 329.417969 338.90625 329.375 338.6875 329.210938 338.578125 C 327.214844 337.261719 325.007812 336.273438 322.71875 335.566406 C 320.417969 334.855469 318.027344 334.476562 315.625 334.324219 C 313.21875 334.246094 310.800781 334.386719 308.453125 334.878906 C 306.101562 335.363281 303.8125 336.128906 301.699219 337.238281 C 301.574219 337.304688 301.511719 337.457031 301.554688 337.59375 C 301.609375 337.753906 301.777344 337.835938 301.933594 337.78125 Z M 349.820312 342.320312 C 350.964844 341.375 352.160156 340.546875 353.445312 339.875 C 354.722656 339.21875 356.0625 338.683594 357.449219 338.320312 C 358.828125 337.941406 360.253906 337.726562 361.6875 337.65625 C 363.128906 337.582031 364.578125 337.699219 366.03125 337.933594 C 366.1875 337.957031 366.351562 337.878906 366.417969 337.722656 C 366.496094 337.546875 366.410156 337.335938 366.230469 337.261719 C 364.804688 336.652344 363.25 336.351562 361.6875 336.285156 C 360.125 336.214844 358.550781 336.417969 357.039062 336.828125 C 355.539062 337.257812 354.078125 337.886719 352.78125 338.753906 C 351.476562 339.613281 350.296875 340.667969 349.390625 341.917969 C 349.3125 342.027344 349.3125 342.175781 349.402344 342.285156 C 349.507812 342.410156 349.699219 342.421875 349.820312 342.320312 Z M 776.324219 407.792969 L 453.164062 407.792969 C 449.871094 407.792969 447.054688 410.144531 446.46875 413.390625 L 402.546875 657.976562 C 401.792969 662.152344 404.996094 665.984375 409.234375 665.984375 L 581.640625 665.984375 L 586.570312 687.722656 C 587.21875 690.515625 587.90625 693.300781 588.554688 696.085938 L 507.550781 696.085938 L 478.179688 712.375 L 592.421875 712.375 C 592.429688 712.402344 592.433594 712.429688 592.441406 712.457031 C 592.480469 712.636719 592.664062 712.75 592.851562 712.714844 C 593.035156 712.679688 593.15625 712.492188 593.121094 712.304688 C 591.433594 704 589.703125 695.707031 587.90625 687.425781 L 582.453125 662.609375 L 576.800781 637.828125 C 574.894531 629.597656 572.929688 621.382812 570.929688 613.175781 L 620.453125 613.175781 C 620.453125 613.195312 620.441406 613.210938 620.441406 613.234375 C 622.125 621.539062 623.847656 629.839844 625.632812 638.121094 L 631.054688 662.941406 L 636.683594 687.722656 C 638.582031 695.980469 640.542969 704.222656 642.542969 712.457031 C 642.585938 712.636719 642.765625 712.75 642.953125 712.714844 C 643.117188 712.683594 643.207031 712.535156 643.214844 712.375 L 684.535156 712.375 L 655.9375 696.085938 L 639.832031 696.085938 C 639.222656 693.203125 638.636719 690.3125 638.015625 687.425781 L 633.304688 665.984375 L 732.398438 665.984375 C 735.683594 665.984375 738.507812 663.625 739.085938 660.382812 L 783.015625 415.792969 C 783.769531 411.625 780.558594 407.792969 776.324219 407.792969 Z M 380.222656 471.277344 C 384.507812 479.632812 388.574219 488.125 394.171875 495.007812 C 402 504.625 410.277344 513.882812 418.96875 522.738281 L 420.882812 512.097656 C 410.417969 502.15625 400.375 491.921875 394.128906 483.859375 C 390.546875 479.234375 385.691406 475.035156 380.222656 471.277344 Z M 337.601562 592.226562 C 337.601562 592.101562 337.523438 591.980469 337.394531 591.9375 C 337.238281 591.890625 337.070312 591.972656 337.023438 592.132812 L 335.9375 595.46875 C 335.550781 596.566406 335.183594 597.664062 334.761719 598.738281 C 334.355469 599.824219 333.910156 600.886719 333.46875 601.960938 L 332.070312 605.179688 C 332.015625 605.316406 332.046875 605.488281 332.171875 605.589844 C 332.320312 605.714844 332.542969 605.699219 332.667969 605.546875 C 333.453125 604.628906 334.105469 603.617188 334.695312 602.566406 C 335.292969 601.515625 335.78125 600.410156 336.203125 599.28125 C 336.613281 598.148438 336.96875 596.996094 337.191406 595.804688 C 337.433594 594.628906 337.59375 593.433594 337.601562 592.226562 Z M 210.765625 508.046875 C 210.910156 499.507812 209.164062 490.894531 205.339844 483.242188 C 203.414062 479.429688 200.980469 475.855469 197.992188 472.789062 C 195.003906 469.75 191.460938 467.226562 187.574219 465.507812 C 187.429688 465.441406 187.253906 465.5 187.1875 465.644531 C 187.113281 465.789062 187.175781 465.964844 187.324219 466.039062 C 194.882812 469.707031 200.605469 476.351562 204.167969 483.816406 C 207.738281 491.324219 209.445312 499.707031 209.230469 508.011719 C 209.0625 516.359375 207.234375 524.601562 204.695312 532.582031 C 202.148438 540.578125 198.898438 548.351562 195.648438 556.132812 C 195.574219 556.300781 195.652344 556.503906 195.828125 556.582031 C 196.003906 556.660156 196.207031 556.582031 196.289062 556.410156 C 199.832031 548.761719 203.308594 541.050781 205.992188 533.011719 C 208.679688 524.984375 210.542969 516.589844 210.765625 508.046875 Z M 192.566406 569.304688 C 192.421875 569.222656 192.242188 569.261719 192.15625 569.402344 C 191.132812 571.109375 190.191406 572.855469 189.261719 574.605469 C 188.332031 576.355469 187.480469 578.148438 186.582031 579.910156 C 185.75 581.707031 184.890625 583.496094 184.085938 585.304688 C 183.289062 587.121094 182.507812 588.945312 181.8125 590.808594 C 181.757812 590.960938 181.820312 591.140625 181.964844 591.230469 C 182.132812 591.328125 182.351562 591.273438 182.445312 591.109375 C 183.472656 589.402344 184.402344 587.652344 185.316406 585.898438 C 186.234375 584.140625 187.089844 582.355469 187.972656 580.578125 C 188.789062 578.773438 189.652344 576.996094 190.4375 575.171875 C 191.226562 573.355469 192.003906 571.527344 192.6875 569.660156 C 192.734375 569.527344 192.6875 569.378906 192.566406 569.304688 Z M 403.632812 597.660156 L 397.1875 603.109375 C 389.890625 625.554688 371.664062 661.257812 371.664062 661.257812 L 371.664062 699.671875 L 335.640625 699.671875 L 325.707031 674.976562 C 331.550781 675.34375 336.105469 672.109375 332.492188 668.777344 C 330.28125 666.746094 325.625 665.5 321.601562 664.765625 L 305.292969 624.214844 C 307.6875 620.738281 309.914062 617.148438 311.921875 613.429688 C 315.027344 607.691406 317.640625 601.691406 319.828125 595.535156 C 321.953125 589.367188 323.664062 583.042969 324.808594 576.621094 C 325.972656 570.199219 326.601562 563.6875 326.671875 557.175781 C 326.671875 557.019531 326.554688 556.886719 326.394531 556.878906 C 326.234375 556.867188 326.09375 556.988281 326.082031 557.15625 C 325.671875 563.621094 324.808594 570.042969 323.53125 576.375 C 322.242188 582.703125 320.550781 588.949219 318.375 595.027344 C 316.265625 601.125 313.671875 607.054688 310.710938 612.789062 C 308.902344 616.296875 306.929688 619.71875 304.835938 623.066406 L 296.554688 602.476562 C 295.757812 600.464844 293.484375 599.480469 291.476562 600.277344 C 289.46875 601.074219 288.488281 603.351562 289.28125 605.359375 L 310.117188 657.179688 C 309.0625 656.382812 307.898438 655.75 306.632812 655.332031 L 285.496094 648.402344 C 280.996094 646.929688 276.050781 648.203125 272.832031 651.675781 L 272.226562 652.328125 C 272.226562 652.328125 272.234375 652.328125 272.234375 652.328125 C 272.34375 652.433594 272.347656 652.605469 272.257812 652.71875 C 270.449219 655.085938 268.488281 657.328125 266.484375 659.53125 C 264.488281 661.734375 262.402344 663.855469 260.335938 665.984375 C 258.21875 668.066406 256.105469 670.160156 253.941406 672.1875 C 251.769531 674.214844 249.585938 676.226562 247.332031 678.164062 C 247.179688 678.289062 246.964844 678.273438 246.835938 678.128906 C 246.722656 677.988281 246.722656 677.789062 246.84375 677.664062 C 248.839844 675.460938 250.914062 673.335938 252.988281 671.210938 L 254.675781 669.503906 L 201.148438 667.941406 L 182.085938 592.058594 L 159.710938 635.710938 L 157.171875 629.753906 C 147.09375 606.140625 125.691406 589.28125 100.386719 585.027344 C 100.386719 585.027344 98.894531 588.496094 96.53125 594.117188 C 93.035156 587.605469 90.375 580.445312 89.054688 572.589844 C 89.054688 572.589844 119.9375 482.429688 162.140625 455.953125 C 171.074219 451.546875 177.742188 451.601562 186.410156 452.421875 C 194.527344 453.1875 202.476562 454.96875 210.476562 456.488281 C 218.105469 457.9375 226.300781 458.457031 233.390625 455.402344 L 299.371094 535.429688 C 292.746094 536.113281 287.570312 541.710938 287.570312 548.527344 C 287.570312 555.800781 293.460938 561.695312 300.730469 561.695312 C 307.996094 561.695312 313.882812 555.800781 313.882812 548.527344 C 313.882812 541.59375 308.519531 535.925781 301.71875 535.410156 C 303.925781 529.441406 318.839844 487.105469 313.839844 446.296875 C 318.144531 446.539062 322.300781 447.0625 326.046875 448.003906 L 326.039062 447.992188 C 326.039062 447.992188 333.058594 449.761719 342.792969 453.195312 C 342.035156 455.332031 341.535156 457.46875 341.4375 459.496094 C 341.429688 459.609375 341.425781 459.71875 341.425781 459.832031 C 341.414062 460.28125 341.417969 460.71875 341.449219 461.15625 C 341.457031 461.234375 341.46875 461.3125 341.472656 461.390625 C 341.507812 461.78125 341.570312 462.167969 341.640625 462.554688 C 341.660156 462.628906 341.671875 462.710938 341.691406 462.789062 C 341.78125 463.207031 341.902344 463.617188 342.046875 464.015625 C 342.078125 464.105469 342.113281 464.195312 342.148438 464.28125 C 342.3125 464.691406 342.488281 465.09375 342.710938 465.488281 C 342.703125 465.480469 342.691406 465.480469 342.679688 465.480469 C 355.386719 493.859375 368.085938 522.238281 380.792969 550.613281 C 382.140625 553.632812 383.496094 556.648438 384.859375 559.660156 C 385.09375 560.179688 385.328125 560.707031 385.570312 561.226562 C 386.933594 564.234375 388.316406 567.234375 389.714844 570.234375 C 389.957031 570.75 390.195312 571.261719 390.4375 571.773438 C 391.867188 574.808594 393.320312 577.832031 394.804688 580.839844 C 394.964844 581.171875 395.136719 581.496094 395.296875 581.828125 C 396.683594 584.617188 398.101562 587.386719 399.554688 590.140625 C 400.882812 592.664062 402.234375 595.171875 403.632812 597.660156 Z M 305.292969 624.214844 L 305.210938 623.996094 Z M 254.140625 416.71875 C 252.296875 416.011719 251.253906 415.578125 251.253906 415.578125 C 251.253906 415.613281 251.253906 415.648438 251.253906 415.679688 C 251.292969 416.890625 251.320312 418.097656 251.320312 419.304688 C 251.320312 419.53125 251.304688 419.753906 251.300781 419.976562 C 251.292969 421.003906 251.28125 422.023438 251.234375 423.042969 C 251.214844 423.550781 251.160156 424.054688 251.132812 424.5625 C 251.082031 425.300781 251.042969 426.035156 250.96875 426.773438 C 250.84375 428.015625 250.679688 429.257812 250.472656 430.496094 C 250.28125 431.628906 250.035156 432.765625 249.75 433.886719 C 250.777344 432.222656 251.621094 430.441406 252.242188 428.582031 C 253.5 424.761719 253.976562 420.765625 254.140625 416.71875 Z M 312.296875 446.332031 C 312.289062 446.289062 312.300781 446.253906 312.300781 446.210938 C 310.898438 446.15625 309.480469 446.121094 308.050781 446.121094 C 307.886719 444.390625 307.894531 443.320312 307.894531 443.320312 C 307.894531 443.320312 314.40625 438.25 314.40625 434.160156 C 314.40625 430.074219 308.628906 429.796875 308.628906 429.796875 C 288.328125 428.855469 265.070312 420.84375 255.601562 417.277344 C 255.402344 421.242188 254.863281 425.203125 253.53125 429.027344 C 252.453125 432.039062 250.828125 434.851562 248.738281 437.273438 C 248.738281 437.28125 248.738281 437.285156 248.730469 437.292969 C 248.417969 438.203125 248.074219 439.101562 247.695312 439.984375 C 247.667969 440.039062 247.652344 440.085938 247.628906 440.132812 C 247.265625 440.972656 246.878906 441.792969 246.457031 442.589844 C 246.433594 442.644531 246.410156 442.699219 246.378906 442.746094 C 245.96875 443.527344 245.527344 444.273438 245.066406 445.015625 C 244.960938 445.183594 244.847656 445.347656 244.738281 445.515625 C 244.324219 446.15625 243.882812 446.777344 243.425781 447.382812 C 243.328125 447.503906 243.238281 447.628906 243.148438 447.75 C 242.675781 448.335938 242.1875 448.902344 241.675781 449.453125 C 241.476562 449.667969 241.269531 449.882812 241.058594 450.09375 C 240.554688 450.609375 240.027344 451.113281 239.480469 451.582031 C 239.25 451.777344 239.015625 451.949219 238.785156 452.132812 C 238.359375 452.480469 237.910156 452.808594 237.460938 453.128906 C 237.1875 453.316406 236.917969 453.503906 236.632812 453.683594 C 236.046875 454.050781 235.453125 454.402344 234.824219 454.722656 L 300.46875 534.335938 C 303.226562 526.746094 317.167969 485.761719 312.296875 446.332031 Z M 316.644531 355.78125 C 317.386719 353.269531 316.746094 350.867188 315.226562 350.421875 C 313.707031 349.96875 311.875 351.644531 311.132812 354.15625 C 310.398438 356.667969 311.03125 359.0625 312.554688 359.515625 C 314.074219 359.960938 315.910156 358.289062 316.644531 355.78125 Z M 354.667969 350.421875 C 353.148438 349.96875 351.316406 351.644531 350.578125 354.15625 C 349.839844 356.667969 350.476562 359.0625 351.996094 359.515625 C 353.515625 359.960938 355.351562 358.289062 356.09375 355.78125 C 356.828125 353.269531 356.195312 350.867188 354.667969 350.421875 Z M 382.246094 333.125 C 382.066406 333.789062 381.929688 334.457031 381.832031 335.144531 C 381.378906 338.300781 382.472656 341.511719 384.527344 343.65625 Z M 353.824219 396.203125 L 355.296875 403.003906 C 357.03125 398.605469 358.914062 394.265625 360.957031 390 C 367.351562 390.875 373.746094 391.488281 380.117188 390.453125 C 381.964844 393.519531 379.339844 397.960938 376.546875 400.1875 C 373.75 402.40625 370.089844 403.15625 366.578125 403.839844 C 367.105469 405.324219 367.5625 406.820312 368.007812 408.324219 C 367.695312 407.75 367.375 407.183594 367.027344 406.636719 C 366.949219 406.511719 366.785156 406.464844 366.652344 406.523438 C 366.5 406.597656 366.433594 406.769531 366.507812 406.917969 C 367.75 409.578125 368.769531 412.324219 369.5 415.136719 C 370.222656 417.953125 370.722656 420.828125 370.875 423.722656 C 371.097656 426.621094 370.980469 429.53125 370.621094 432.414062 C 370.269531 435.300781 369.613281 438.148438 368.734375 440.941406 C 368.679688 441.113281 368.757812 441.292969 368.917969 441.363281 C 369.09375 441.449219 369.304688 441.371094 369.382812 441.195312 C 370.632812 438.480469 371.46875 435.570312 371.972656 432.613281 C 372.363281 430.300781 372.515625 427.953125 372.476562 425.605469 L 392.53125 418.21875 C 391.738281 419.226562 391 420.265625 390.363281 421.371094 C 389.5625 422.765625 388.863281 424.214844 388.363281 425.734375 C 388.316406 425.890625 388.375 426.058594 388.515625 426.152344 C 388.683594 426.246094 388.898438 426.199219 389.003906 426.03125 C 389.816406 424.691406 390.628906 423.375 391.515625 422.105469 C 392.410156 420.84375 393.328125 419.601562 394.316406 418.425781 C 394.671875 417.992188 395.046875 417.574219 395.417969 417.15625 L 400.070312 415.445312 L 399.539062 412.976562 C 399.964844 412.582031 400.394531 412.191406 400.835938 411.796875 C 400.929688 411.714844 400.960938 411.5625 400.894531 411.4375 C 400.816406 411.292969 400.640625 411.238281 400.496094 411.316406 C 400.09375 411.53125 399.71875 411.792969 399.332031 412.035156 L 399.042969 410.707031 C 398.324219 411.132812 397.691406 411.464844 397.246094 411.648438 C 392.554688 413.554688 386.988281 413.136719 382.628906 410.5625 C 380.371094 409.222656 378.261719 406.644531 379.214844 404.199219 C 380.070312 402.023438 382.773438 401.363281 385.089844 401.007812 C 388.652344 400.464844 392.210938 399.914062 395.773438 399.367188 C 396.035156 399.347656 396.300781 399.34375 396.558594 399.3125 C 397.824219 399.183594 399.089844 399.015625 400.339844 398.71875 C 400.484375 398.683594 400.597656 398.558594 400.605469 398.394531 C 400.617188 398.203125 400.46875 398.03125 400.273438 398.027344 C 399.007812 397.953125 397.753906 397.960938 396.5 397.949219 L 396.28125 397.949219 L 395.570312 394.652344 C 395.105469 394.652344 394.683594 394.628906 394.332031 394.566406 C 388.761719 393.601562 383.460938 391.121094 379.152344 387.453125 C 377.640625 386.167969 376.203125 384.671875 375.570312 382.789062 C 374.933594 380.910156 375.304688 378.570312 376.886719 377.375 C 381.898438 378.527344 386.832031 379.96875 391.691406 381.640625 C 391.183594 381.394531 390.703125 381.097656 390.214844 380.8125 L 394.804688 383.265625 C 394.925781 383.332031 395.085938 383.300781 395.171875 383.1875 C 395.273438 383.058594 395.25 382.871094 395.125 382.773438 C 393.621094 381.566406 392.035156 380.476562 390.417969 379.433594 C 388.804688 378.382812 387.132812 377.429688 385.445312 376.511719 C 384.8125 376.179688 384.171875 375.859375 383.539062 375.539062 C 380.679688 372.652344 378.152344 369.335938 375.746094 366.070312 C 374.207031 363.988281 372.664062 361.03125 374.324219 359.039062 C 375.28125 357.875 377.03125 357.636719 378.476562 358.054688 C 379.925781 358.476562 381.144531 359.429688 382.324219 360.371094 C 384.347656 361.972656 386.757812 363.558594 389.1875 365.199219 L 385.714844 349.152344 C 381.636719 350.542969 376.796875 350.003906 372.996094 347.820312 C 369.933594 346.0625 367.515625 343.429688 365.679688 340.402344 C 365.453125 359.539062 361.421875 378.640625 353.824219 396.203125 Z M 319.292969 696.503906 L 318.515625 696.558594 C 317.640625 696.617188 316.832031 696.957031 316.148438 697.46875 C 315.554688 696.460938 314.925781 695.472656 314.261719 694.511719 C 313.375 693.210938 312.40625 691.972656 311.414062 690.753906 C 310.410156 689.546875 309.371094 688.363281 308.269531 687.246094 C 307.171875 686.125 306.035156 685.03125 304.816406 684.035156 C 304.691406 683.933594 304.511719 683.925781 304.378906 684.03125 C 304.226562 684.144531 304.195312 684.367188 304.316406 684.519531 C 305.265625 685.765625 306.265625 686.957031 307.253906 688.15625 L 310.226562 691.738281 L 313.226562 695.304688 C 313.992188 696.203125 314.761719 697.101562 315.539062 697.996094 C 315.28125 698.285156 315.050781 698.605469 314.871094 698.964844 L 314.507812 699.671875 L 327.210938 699.671875 L 324.792969 693.660156 C 323.5 695.253906 321.570312 696.351562 319.292969 696.503906 Z M 159.710938 635.71875 L 159.710938 635.710938 Z M 159.710938 635.71875"/></g></svg>