<svg xmlns="http://www.w3.org/2000/svg" width="810" viewBox="0 0 810 810" height="810" version="1.0"><defs><clipPath id="a"><path d="M 116.835938 58.769531 L 645.472656 58.769531 L 645.472656 667 L 116.835938 667 Z M 116.835938 58.769531"/></clipPath><clipPath id="b"><path d="M 142 128 L 611 128 L 611 751.019531 L 142 751.019531 Z M 142 128"/></clipPath></defs><g clip-path="url(#a)"><path fill="#8685B1" d="M 451.617188 666.898438 C 199.367188 666.898438 138.148438 564.027344 119.230469 477.007812 C 100.3125 389.984375 196.210938 87.382812 307.867188 63.121094 C 419.519531 38.863281 590.363281 120.25 630.191406 199.90625 C 666.304688 272.136719 650.152344 666.898438 451.617188 666.898438"/></g><path fill="#F2AB8F" d="M 268.253906 165.035156 L 267.972656 171.804688 C 269.175781 170.445312 270.601562 169.285156 272.167969 168.347656 C 273.019531 167.828125 273.917969 167.402344 274.839844 167.03125 C 275.984375 166.566406 277.171875 166.191406 278.378906 165.910156 C 280.5625 165.476562 282.824219 165.335938 285.035156 165.601562 C 285.832031 165.699219 286.625 165.863281 287.40625 166.058594 C 288.6875 166.378906 289.925781 166.832031 291.085938 167.4375 L 290 160.859375 C 290 160.859375 296.410156 155.828125 297.492188 151.890625 C 298.578125 147.949219 301.628906 142.433594 301.730469 138.488281 C 301.828125 134.550781 295.617188 139.574219 294.238281 142.132812 C 292.859375 144.695312 290 149.035156 290 149.035156 C 290 149.035156 288.421875 132.285156 288.027344 132.085938 L 284.097656 111.582031 C 283.769531 109.867188 281.394531 109.277344 280.523438 110.789062 C 280.453125 110.914062 280.386719 111.054688 280.34375 111.199219 C 279.945312 112.507812 280.804688 127.304688 281.285156 134.992188 C 281.007812 135.121094 280.726562 135.242188 280.441406 135.371094 L 273.859375 112.632812 C 273.359375 110.925781 270.929688 110.445312 270.207031 112 C 270.148438 112.128906 270.101562 112.269531 270.074219 112.421875 C 269.773438 113.894531 272.679688 131.929688 273.75 138.460938 C 273.726562 138.472656 273.699219 138.476562 273.683594 138.488281 L 265.464844 118.753906 C 264.789062 117.144531 262.347656 117.058594 261.808594 118.71875 C 261.761719 118.851562 261.734375 119 261.714844 119.152344 C 261.605469 120.46875 265.230469 133.835938 267.339844 141.433594 C 267.128906 141.535156 266.921875 141.628906 266.722656 141.726562 L 260.570312 127.222656 C 259.890625 125.609375 257.449219 125.53125 256.914062 127.191406 C 256.867188 127.332031 256.835938 127.480469 256.824219 127.632812 C 256.726562 128.753906 259.367188 138.578125 261.46875 146.171875 C 261.667969 150.628906 262.738281 161.425781 268.253906 165.035156 Z M 416.058594 334.476562 C 411.390625 331.941406 406.765625 329.320312 402.199219 326.589844 C 402.125 326.550781 402.082031 326.480469 402.070312 326.402344 L 401.582031 326.15625 C 401.582031 326.15625 395.351562 333.082031 392.589844 336.632812 C 391.894531 337.523438 386.78125 338.800781 379.53125 340.214844 C 373.800781 341.335938 366.746094 342.535156 359.46875 343.691406 C 339.511719 346.871094 317.953125 349.742188 317.953125 349.742188 C 317.953125 349.742188 308.929688 340.574219 299.644531 340.574219 C 290.363281 340.574219 285.550781 340.476562 285.980469 342.546875 C 286.410156 344.617188 299.386719 349.542969 299.386719 349.542969 L 263.550781 349.742188 C 263.550781 349.742188 283.660156 362.546875 297.84375 362.746094 C 312.023438 362.9375 317.953125 362.746094 317.953125 362.746094 C 317.953125 362.746094 340.582031 362.746094 363.089844 362.746094 C 382.484375 362.746094 401.789062 362.746094 406.445312 362.746094 C 415.183594 362.746094 426.175781 346.007812 428.90625 341.625 C 424.652344 339.203125 420.355469 336.847656 416.058594 334.476562 Z M 399.253906 172.273438 C 398.796875 171.890625 398.378906 171.46875 398.015625 171.003906 C 398.515625 171.75 398.949219 172.613281 399.152344 173.488281 C 399.183594 173.082031 399.21875 172.671875 399.253906 172.273438 Z M 359.167969 185.136719 L 359.1875 185.136719 C 359.757812 185.042969 360.277344 184.988281 360.800781 185.007812 C 361.316406 185.035156 361.824219 185.09375 362.308594 185.222656 C 362.808594 185.335938 363.277344 185.523438 363.742188 185.734375 C 364.210938 185.957031 364.640625 186.246094 365.097656 186.578125 L 365.117188 186.589844 C 365.210938 186.65625 365.328125 186.679688 365.445312 186.636719 C 365.625 186.574219 365.71875 186.367188 365.65625 186.1875 C 365.433594 185.5625 364.984375 185.035156 364.464844 184.617188 C 363.941406 184.191406 363.308594 183.921875 362.660156 183.761719 C 361.363281 183.46875 359.878906 183.714844 358.917969 184.628906 C 358.851562 184.691406 358.8125 184.789062 358.828125 184.890625 C 358.859375 185.054688 359.011719 185.164062 359.167969 185.136719 Z M 360.566406 177.261719 L 360.578125 177.265625 C 361.058594 177.519531 361.515625 177.742188 361.941406 178.003906 C 362.355469 178.277344 362.773438 178.535156 363.148438 178.839844 C 363.542969 179.121094 363.902344 179.453125 364.265625 179.785156 C 364.628906 180.125 364.960938 180.492188 365.339844 180.882812 L 365.34375 180.894531 C 365.421875 180.976562 365.53125 181.015625 365.648438 181 C 365.84375 180.976562 365.976562 180.800781 365.953125 180.597656 C 365.871094 180 365.621094 179.441406 365.292969 178.9375 C 364.96875 178.429688 364.535156 178 364.046875 177.636719 C 363.558594 177.285156 363.019531 176.992188 362.433594 176.835938 C 361.859375 176.671875 361.253906 176.597656 360.660156 176.695312 C 360.574219 176.707031 360.488281 176.765625 360.441406 176.847656 C 360.367188 176.996094 360.417969 177.179688 360.566406 177.261719 Z M 365.203125 190.09375 C 364.328125 191.375 363.367188 192.683594 362.671875 194.230469 C 362.011719 195.769531 361.640625 197.605469 362.226562 199.335938 C 362.792969 201.042969 364.40625 202.457031 366.226562 202.335938 C 366.355469 202.324219 366.464844 202.230469 366.488281 202.09375 C 366.511719 201.9375 366.40625 201.789062 366.25 201.765625 L 366.238281 201.761719 C 364.808594 201.53125 363.746094 200.277344 363.441406 198.984375 C 363.144531 197.636719 363.441406 196.167969 364.046875 194.835938 C 364.640625 193.480469 365.542969 192.199219 366.335938 190.792969 C 367.121094 189.394531 367.855469 187.824219 367.902344 186.128906 C 367.910156 185.976562 367.796875 185.820312 367.640625 185.785156 C 367.457031 185.738281 367.277344 185.855469 367.230469 186.039062 C 366.847656 187.507812 366.070312 188.816406 365.203125 190.09375 Z M 367.761719 208.75 C 367.65625 208.867188 367.664062 209.054688 367.78125 209.167969 C 368.5625 209.886719 369.675781 210.214844 370.746094 210.222656 C 371.824219 210.238281 372.882812 209.941406 373.832031 209.449219 C 374.757812 208.941406 375.574219 208.28125 376.25 207.527344 C 376.929688 206.789062 377.523438 205.996094 378.027344 205.15625 C 378.097656 205.035156 378.09375 204.882812 378 204.765625 C 377.882812 204.613281 377.671875 204.589844 377.519531 204.707031 C 376.824219 205.253906 376.191406 205.839844 375.550781 206.378906 C 375.480469 206.441406 375.40625 206.507812 375.335938 206.566406 C 374.792969 207.007812 374.253906 207.40625 373.695312 207.757812 C 373.503906 207.882812 373.316406 208.023438 373.121094 208.128906 C 371.605469 208.941406 369.792969 209.332031 368.089844 208.679688 L 368.078125 208.671875 C 367.972656 208.636719 367.851562 208.660156 367.761719 208.75 Z M 375.65625 175.964844 C 375.667969 176.121094 375.808594 176.238281 375.972656 176.226562 C 377.007812 176.144531 378.011719 176.167969 378.984375 176.332031 C 379.960938 176.515625 380.898438 176.789062 381.761719 177.226562 C 382.636719 177.648438 383.433594 178.21875 384.167969 178.867188 C 384.894531 179.53125 385.523438 180.3125 386.097656 181.167969 C 386.175781 181.285156 386.328125 181.351562 386.476562 181.308594 C 386.65625 181.261719 386.769531 181.074219 386.722656 180.894531 C 386.441406 179.808594 385.863281 178.808594 385.125 177.945312 C 384.390625 177.078125 383.453125 176.378906 382.417969 175.875 C 381.375 175.386719 380.246094 175.101562 379.109375 175.070312 C 377.976562 175.035156 376.84375 175.21875 375.828125 175.671875 C 375.714844 175.722656 375.644531 175.839844 375.65625 175.964844 Z M 383.890625 185.363281 C 383.890625 184.34375 383.066406 183.511719 382.039062 183.511719 C 381.015625 183.511719 380.183594 184.34375 380.183594 185.363281 C 380.183594 186.386719 381.015625 187.21875 382.039062 187.21875 C 383.066406 187.21875 383.890625 186.386719 383.890625 185.363281 Z M 359.003906 211.460938 C 354.492188 198.1875 358.464844 173.164062 358.894531 163.65625 C 358.980469 161.621094 359.355469 159.601562 359.980469 157.671875 C 361.136719 156.664062 362.566406 155.945312 364.019531 155.683594 C 362.257812 160.066406 363.9375 165.175781 366.789062 168.945312 C 367.652344 170.082031 368.667969 171.179688 369.988281 171.730469 C 371.308594 172.285156 373 172.15625 373.96875 171.097656 C 373.992188 171.074219 374.003906 171.046875 374.027344 171.015625 C 374.476562 170.46875 374.640625 169.707031 374.519531 169.015625 C 375.78125 170.476562 377.394531 171.632812 379.195312 172.332031 C 380.089844 172.671875 381.09375 172.90625 382.003906 172.589844 C 383.082031 172.214844 383.78125 171.105469 384 169.976562 C 384.210938 168.851562 384.027344 167.6875 383.84375 166.550781 C 385.917969 170.304688 388.933594 173.539062 392.542969 175.851562 C 393.675781 176.578125 394.925781 177.230469 396.273438 177.230469 C 397.371094 177.226562 398.503906 176.644531 399.007812 175.710938 C 398.90625 177.601562 398.871094 179.496094 398.894531 181.386719 C 399.941406 179.859375 401.078125 178.347656 402.714844 177.5 C 404.507812 176.578125 407.054688 176.796875 408.117188 178.511719 C 408.933594 179.832031 408.628906 181.53125 408.191406 183.023438 C 407.441406 185.605469 406.328125 188.164062 404.429688 190.070312 C 403.15625 191.355469 401.464844 192.289062 399.699219 192.59375 C 400.433594 198.117188 401.671875 203.566406 403.410156 208.859375 C 405.082031 213.976562 407.3125 219.082031 411.15625 222.851562 C 411.4375 223.121094 411.75 223.386719 412.074219 223.621094 C 412.40625 226.25 412.734375 228.667969 412.996094 230.496094 C 413.28125 232.558594 413.480469 233.859375 413.480469 233.859375 L 406.691406 237.015625 L 389.796875 244.851562 C 386.160156 246.542969 382.101562 243.570312 382.59375 239.585938 C 382.601562 239.550781 382.601562 239.511719 382.605469 239.46875 C 382.847656 237.488281 382.976562 235.320312 382.882812 233.101562 C 382.789062 230.902344 382.484375 228.65625 381.84375 226.472656 C 381.625 225.71875 381.285156 225.167969 380.863281 224.746094 C 381.25 224.746094 381.644531 224.753906 382.03125 224.734375 C 384.167969 224.628906 386.269531 224.117188 388.269531 223.375 C 390.242188 222.558594 392.121094 221.484375 393.757812 220.105469 C 395.390625 218.726562 396.800781 217.082031 397.804688 215.222656 C 397.878906 215.074219 397.84375 214.894531 397.714844 214.789062 C 397.5625 214.671875 397.351562 214.699219 397.234375 214.847656 C 395.976562 216.449219 394.539062 217.867188 392.933594 219.066406 C 391.328125 220.257812 389.582031 221.261719 387.714844 221.976562 C 385.875 222.75 383.910156 223.21875 381.925781 223.46875 C 380.742188 223.613281 379.550781 223.648438 378.34375 223.597656 C 373.644531 222.761719 365.585938 225.074219 360.078125 214.054688 C 359.675781 213.257812 359.320312 212.386719 359.003906 211.460938 Z M 291.082031 168.195312 C 289.078125 167.488281 287 167.050781 284.914062 166.925781 C 283.875 166.863281 282.828125 166.863281 281.789062 166.9375 C 281.703125 166.945312 281.613281 166.957031 281.527344 166.960938 C 280.570312 167.039062 279.625 167.171875 278.683594 167.382812 C 276.628906 167.769531 274.652344 168.503906 272.785156 169.457031 C 271.035156 170.347656 269.410156 171.492188 267.925781 172.828125 L 264.304688 258.308594 L 300.097656 258.308594 C 305.386719 258.308594 309.894531 262.152344 310.726562 267.375 L 311.867188 274.527344 L 318.421875 274.445312 L 303.308594 241.746094 L 291.210938 168.195312 C 291.164062 168.195312 291.121094 168.207031 291.082031 168.195312 Z M 334.769531 238.332031 L 309.96875 241.023438 Z M 334.769531 238.332031"/><path fill="#FFF" d="M 223.921875 413.324219 C 227.484375 413.324219 230.382812 416.222656 230.382812 419.785156 C 230.382812 423.347656 227.484375 426.238281 223.921875 426.238281 C 220.359375 426.238281 217.457031 423.347656 217.457031 419.785156 C 217.457031 416.222656 220.359375 413.324219 223.921875 413.324219 Z M 223.921875 427.742188 C 228.3125 427.742188 231.886719 424.175781 231.886719 419.785156 C 231.886719 415.394531 228.3125 411.820312 223.921875 411.820312 C 219.53125 411.820312 215.957031 415.394531 215.957031 419.785156 C 215.957031 424.175781 219.53125 427.742188 223.921875 427.742188 Z M 242.605469 614.492188 L 212.414062 614.492188 C 211.625 614 210.867188 613.496094 210.089844 612.992188 L 242.605469 612.992188 Z M 249.210938 612.992188 L 269.25 612.992188 L 269.25 614.492188 L 249.210938 614.492188 Z M 211.148438 604.019531 L 269.25 604.019531 L 269.25 605.519531 L 211.148438 605.519531 Z M 225.976562 595.046875 L 269.25 595.046875 L 269.25 596.546875 L 225.976562 596.546875 Z M 243.203125 630.941406 L 269.25 630.941406 L 269.25 632.445312 L 246.53125 632.445312 C 245.402344 631.945312 244.304688 631.441406 243.203125 630.941406 Z M 238.394531 621.96875 L 269.25 621.96875 L 269.25 623.472656 L 238.394531 623.472656 Z M 225.183594 621.96875 L 229.984375 621.96875 L 229.984375 623.472656 L 227.953125 623.472656 C 227.019531 622.972656 226.105469 622.46875 225.183594 621.96875 Z M 197.179688 604.019531 L 204.539062 604.019531 L 204.539062 605.519531 L 199.214844 605.519531 C 198.535156 605.015625 197.847656 604.519531 197.179688 604.019531 Z M 219.359375 596.546875 L 187.796875 596.546875 C 187.230469 596.066406 186.664062 595.582031 186.101562 595.097656 L 186.101562 595.046875 L 219.359375 595.046875 Z M 186.101562 552.027344 L 242.605469 552.027344 L 242.605469 553.527344 L 186.101562 553.527344 Z M 249.210938 552.027344 L 269.25 552.027344 L 269.25 553.527344 L 249.210938 553.527344 Z M 211.148438 543.054688 L 269.25 543.054688 L 269.25 544.554688 L 211.148438 544.554688 Z M 225.976562 534.074219 L 269.25 534.074219 L 269.25 535.578125 L 225.976562 535.578125 Z M 186.101562 569.972656 L 269.25 569.972656 L 269.25 571.472656 L 186.101562 571.472656 Z M 249.210938 580.453125 L 186.101562 580.453125 L 186.101562 578.949219 L 249.210938 578.949219 Z M 238.394531 561 L 269.25 561 L 269.25 562.5 L 238.394531 562.5 Z M 186.101562 561 L 229.984375 561 L 229.984375 562.5 L 186.101562 562.5 Z M 186.101562 543.054688 L 204.539062 543.054688 L 204.539062 544.554688 L 186.101562 544.554688 Z M 186.101562 534.074219 L 219.359375 534.074219 L 219.359375 535.578125 L 186.101562 535.578125 Z M 186.101562 516.128906 L 202.730469 516.128906 L 202.730469 517.632812 L 186.101562 517.632812 Z M 219.359375 508.660156 L 186.101562 508.660156 L 186.101562 507.15625 L 219.359375 507.15625 Z M 175.335938 494.28125 L 281.019531 494.28125 L 281.019531 645.191406 C 280.515625 645.039062 280.023438 644.875 279.519531 644.714844 L 279.519531 495.785156 L 176.839844 495.785156 L 176.839844 586.601562 C 176.328125 586.101562 175.835938 585.597656 175.335938 585.09375 Z M 176.839844 453.863281 L 203.398438 441.398438 L 244.148438 480.613281 L 176.839844 480.613281 Z M 176.839844 399.472656 L 279.519531 399.472656 L 279.519531 458.71875 L 250.539062 437.664062 L 250.1875 437.402344 L 217.199219 452.601562 L 203.695312 439.601562 L 176.839844 452.199219 Z M 279.519531 480.613281 L 246.3125 480.613281 L 218.363281 453.71875 L 250.011719 439.136719 L 279.519531 460.574219 Z M 175.335938 482.117188 L 281.019531 482.117188 L 281.019531 397.972656 L 175.335938 397.972656 Z M 547.074219 171.996094 C 547.074219 175.558594 544.175781 178.457031 540.613281 178.457031 C 537.050781 178.457031 534.15625 175.558594 534.15625 171.996094 C 534.15625 168.441406 537.050781 165.542969 540.613281 165.542969 C 544.175781 165.542969 547.074219 168.441406 547.074219 171.996094 Z M 532.652344 171.996094 C 532.652344 176.390625 536.222656 179.960938 540.613281 179.960938 C 545.007812 179.960938 548.578125 176.390625 548.578125 171.996094 C 548.578125 167.605469 545.007812 164.039062 540.613281 164.039062 C 536.222656 164.039062 532.652344 167.605469 532.652344 171.996094 Z M 559.300781 366.710938 L 502.800781 366.710938 L 502.800781 365.210938 L 559.300781 365.210938 Z M 565.910156 365.210938 L 585.945312 365.210938 L 585.945312 366.710938 L 565.910156 366.710938 Z M 527.839844 356.238281 L 585.945312 356.238281 L 585.945312 357.738281 L 527.839844 357.738281 Z M 542.667969 347.257812 L 585.945312 347.257812 L 585.945312 348.761719 L 542.667969 348.761719 Z M 502.800781 383.160156 L 585.945312 383.160156 L 585.945312 384.664062 L 502.800781 384.664062 Z M 502.800781 392.132812 L 565.910156 392.132812 L 565.910156 393.636719 L 502.800781 393.636719 Z M 555.09375 374.1875 L 585.945312 374.1875 L 585.945312 375.691406 L 555.09375 375.691406 Z M 546.675781 375.691406 L 502.800781 375.691406 L 502.800781 374.1875 L 546.675781 374.1875 Z M 521.230469 357.738281 L 502.800781 357.738281 L 502.800781 356.238281 L 521.230469 356.238281 Z M 536.058594 348.761719 L 502.800781 348.761719 L 502.800781 347.257812 L 536.058594 347.257812 Z M 559.300781 305.746094 L 502.800781 305.746094 L 502.800781 304.242188 L 559.300781 304.242188 Z M 565.910156 304.242188 L 585.945312 304.242188 L 585.945312 305.746094 L 565.910156 305.746094 Z M 527.839844 295.269531 L 585.945312 295.269531 L 585.945312 296.773438 L 527.839844 296.773438 Z M 542.667969 286.292969 L 585.945312 286.292969 L 585.945312 287.796875 L 542.667969 287.796875 Z M 502.800781 322.195312 L 585.945312 322.195312 L 585.945312 323.695312 L 502.800781 323.695312 Z M 565.910156 332.667969 L 502.800781 332.667969 L 502.800781 331.167969 L 565.910156 331.167969 Z M 555.09375 313.214844 L 585.945312 313.214844 L 585.945312 314.71875 L 555.09375 314.71875 Z M 546.675781 314.71875 L 502.800781 314.71875 L 502.800781 313.214844 L 546.675781 313.214844 Z M 521.230469 296.773438 L 502.800781 296.773438 L 502.800781 295.269531 L 521.230469 295.269531 Z M 536.058594 287.796875 L 502.800781 287.796875 L 502.800781 286.292969 L 536.058594 286.292969 Z M 519.429688 269.851562 L 502.800781 269.851562 L 502.800781 268.347656 L 519.429688 268.347656 Z M 536.058594 260.871094 L 502.800781 260.871094 L 502.800781 259.371094 L 536.058594 259.371094 Z M 493.53125 248.003906 L 596.210938 248.003906 L 596.210938 411.132812 L 493.53125 411.132812 Z M 492.03125 412.636719 L 597.714844 412.636719 L 597.714844 246.5 L 492.03125 246.5 Z M 596.210938 232.832031 L 563.011719 232.832031 L 535.058594 205.9375 L 566.710938 191.355469 L 596.210938 212.792969 Z M 493.53125 232.832031 L 493.53125 206.078125 L 520.09375 193.613281 L 560.839844 232.832031 Z M 596.210938 156.5625 L 596.210938 210.9375 L 566.878906 189.625 L 533.898438 204.816406 L 520.390625 191.820312 L 493.53125 204.417969 L 493.53125 151.691406 L 590.886719 151.691406 C 590.324219 151.1875 589.742188 150.6875 589.167969 150.191406 L 492.03125 150.191406 L 492.03125 234.335938 L 597.714844 234.335938 L 597.714844 157.996094 C 597.21875 157.519531 596.714844 157.039062 596.210938 156.5625 Z M 130.855469 133.289062 L 220.914062 133.289062 L 220.914062 225.132812 L 130.855469 225.132812 Z M 249.605469 312.558594 C 238.488281 309.355469 233.117188 295.488281 239.878906 295.488281 C 245.53125 295.488281 247.597656 298.867188 247.597656 298.867188 C 247.597656 298.867188 249.707031 295.488281 253.996094 295.488281 C 260.765625 295.488281 259.726562 309.355469 249.605469 312.558594 Z M 477.253906 736.03125 C 476.921875 737.6875 475.929688 737.867188 475.042969 736.429688 C 474.15625 735 473.703125 732.492188 474.039062 730.832031 C 474.375 729.183594 475.367188 729 476.257812 730.4375 C 477.144531 731.871094 477.597656 734.375 477.253906 736.03125 Z M 328.40625 735.144531 C 328.222656 737.363281 326.28125 739.160156 324.0625 739.160156 C 321.84375 739.160156 320.195312 737.363281 320.375 735.144531 C 320.558594 732.925781 322.5 731.132812 324.71875 731.132812 C 326.9375 731.132812 328.59375 732.925781 328.40625 735.144531 Z M 416.144531 236.945312 C 413.375 238.5 410.558594 239.960938 407.742188 241.417969 C 405.820312 242.410156 403.882812 243.371094 401.949219 244.335938 C 401.042969 244.78125 400.140625 245.226562 399.234375 245.683594 C 396.390625 247.023438 393.441406 248.542969 390.136719 248.980469 C 388.488281 249.199219 386.796875 249.125 385.195312 248.664062 C 383.605469 248.191406 382.085938 247.332031 381.035156 246.042969 C 380.933594 245.914062 380.953125 245.738281 381.074219 245.636719 C 381.191406 245.542969 381.355469 245.554688 381.457031 245.65625 C 383.691406 247.78125 387.007812 248.265625 389.945312 247.730469 C 392.945312 247.1875 395.742188 245.765625 398.574219 244.335938 C 400.210938 243.554688 401.84375 242.761719 403.472656 241.976562 C 404.699219 241.390625 405.925781 240.800781 407.160156 240.226562 C 410.035156 238.890625 412.917969 237.570312 415.847656 236.332031 C 416.015625 236.261719 416.21875 236.34375 416.292969 236.511719 C 416.359375 236.675781 416.292969 236.859375 416.144531 236.945312 Z M 412.996094 230.496094 C 413.28125 232.558594 413.480469 233.859375 413.480469 233.859375 L 406.691406 237.015625 L 389.796875 244.851562 C 386.160156 246.542969 382.101562 243.570312 382.59375 239.585938 C 382.601562 239.550781 382.601562 239.511719 382.605469 239.46875 C 382.847656 237.488281 382.976562 235.320312 382.882812 233.101562 L 334.769531 238.332031 L 309.96875 241.023438 C 311.265625 244.035156 312.511719 247.070312 313.730469 250.109375 C 315.070312 253.4375 316.332031 256.792969 317.640625 260.125 L 321.355469 270.226562 C 321.855469 271.609375 322.34375 273 322.832031 274.390625 C 323.523438 276.386719 324.210938 278.386719 324.855469 280.402344 C 324.914062 280.582031 324.8125 280.769531 324.632812 280.828125 C 324.46875 280.882812 324.285156 280.800781 324.222656 280.640625 C 323.316406 278.574219 322.460938 276.492188 321.609375 274.402344 C 321.109375 273.164062 320.613281 271.933594 320.113281 270.695312 L 316.234375 260.660156 C 315.007812 257.292969 313.738281 253.933594 312.539062 250.554688 C 311.429688 247.414062 310.339844 244.269531 309.3125 241.09375 L 303.308594 241.746094 L 318.421875 274.445312 L 321.339844 280.765625 L 353.941406 286.828125 C 354.332031 284.15625 354.902344 281.511719 355.613281 278.898438 C 356.46875 275.730469 357.585938 272.636719 358.835938 269.601562 C 360.136719 266.59375 361.585938 263.640625 363.253906 260.8125 C 364.925781 257.988281 366.769531 255.273438 368.835938 252.730469 C 368.953125 252.585938 369.164062 252.566406 369.3125 252.679688 C 369.449219 252.796875 369.476562 252.992188 369.382812 253.132812 C 367.621094 255.859375 365.941406 258.625 364.410156 261.46875 C 362.878906 264.308594 361.445312 267.203125 360.214844 270.191406 C 359.164062 272.574219 358.269531 275.019531 357.4375 277.492188 C 357.238281 278.078125 357.019531 278.664062 356.832031 279.257812 C 356.0625 281.640625 355.414062 284.058594 354.800781 286.492188 C 354.765625 286.652344 354.71875 286.808594 354.683594 286.960938 L 354.738281 286.972656 C 353.222656 299.703125 355.605469 320.066406 358.4375 337.523438 L 379.84375 337.523438 C 379.84375 338.449219 379.730469 339.347656 379.53125 340.214844 C 386.78125 338.800781 391.894531 337.523438 392.589844 336.632812 C 395.351562 333.082031 401.582031 326.15625 401.582031 326.15625 L 402.070312 326.402344 C 402.054688 326.339844 402.058594 326.261719 402.101562 326.195312 C 402.175781 326.066406 402.347656 326.019531 402.480469 326.089844 C 407.140625 328.632812 411.890625 331.007812 416.597656 333.46875 C 421.089844 335.785156 425.578125 338.132812 429.988281 340.621094 C 433.625 332.992188 436.847656 325.171875 439.535156 317.152344 C 440.917969 313.035156 442.214844 308.878906 443.339844 304.671875 C 444.472656 300.46875 445.535156 296.246094 446.410156 291.980469 C 446.453125 291.792969 446.628906 291.675781 446.816406 291.714844 C 446.996094 291.75 447.113281 291.921875 447.078125 292.101562 C 446.351562 296.414062 445.511719 300.71875 444.460938 304.964844 C 443.40625 309.214844 442.238281 313.441406 440.871094 317.59375 C 438.144531 325.921875 434.859375 334.074219 430.945312 341.917969 L 430.609375 342.585938 L 429.964844 342.21875 C 429.613281 342.019531 429.257812 341.824219 428.90625 341.625 C 426.175781 346.007812 415.183594 362.746094 406.445312 362.746094 C 401.789062 362.746094 382.484375 362.746094 363.089844 362.746094 C 364.113281 367.703125 364.796875 370.71875 364.796875 370.71875 L 387.230469 370.71875 C 387.230469 370.648438 387.226562 370.585938 387.226562 370.519531 C 387.226562 370.351562 387.363281 370.222656 387.527344 370.226562 C 387.636719 370.226562 387.730469 370.292969 387.785156 370.378906 C 387.84375 370.492188 387.882812 370.609375 387.929688 370.71875 L 415.324219 370.71875 C 415.378906 370.609375 415.472656 370.519531 415.601562 370.53125 C 415.710938 370.542969 415.804688 370.613281 415.847656 370.707031 C 415.847656 370.714844 415.851562 370.714844 415.851562 370.71875 L 427.773438 370.71875 C 427.773438 370.71875 459.3125 307.664062 453.792969 272.984375 C 449 242.851562 420.417969 232.65625 412.996094 230.496094"/><path fill="#F08990" d="M 139.683594 144.84375 L 212.085938 144.84375 L 212.085938 200.949219 L 139.683594 200.949219 Z M 506.605469 586.34375 L 610.789062 586.34375 L 610.789062 678.1875 L 506.605469 678.1875 Z M 610.789062 481.214844 L 610.789062 573.058594 L 506.605469 573.058594 L 506.605469 481.214844 Z M 388.554688 372.421875 C 388.394531 371.839844 388.195312 371.269531 387.929688 370.71875 L 415.324219 370.71875 C 415.3125 370.75 415.285156 370.765625 415.285156 370.800781 C 415.21875 371.558594 415.25 372.292969 415.289062 373.03125 C 415.324219 373.769531 415.429688 374.5 415.53125 375.226562 C 415.648438 375.953125 415.777344 376.675781 415.964844 377.390625 C 416.085938 377.875 416.234375 378.355469 416.394531 378.835938 C 415.742188 378.824219 415.089844 378.804688 414.445312 378.792969 L 401.652344 378.710938 L 388.863281 378.828125 C 388.769531 378.828125 388.675781 378.828125 388.578125 378.835938 C 388.792969 378.148438 388.894531 377.445312 388.953125 376.734375 C 389.023438 376.011719 388.992188 375.285156 388.941406 374.5625 C 388.859375 373.839844 388.757812 373.125 388.554688 372.421875 Z M 426.125 576.121094 C 425.984375 576.214844 425.796875 576.1875 425.683594 576.0625 C 424.09375 574.242188 422.683594 572.277344 421.394531 570.222656 C 420.109375 568.175781 419 566.023438 417.976562 563.828125 C 417.019531 561.601562 416.140625 559.34375 415.472656 557.019531 C 414.796875 554.695312 414.261719 552.335938 413.957031 549.941406 C 413.9375 549.785156 414.050781 549.644531 414.210938 549.621094 C 414.351562 549.601562 414.484375 549.691406 414.519531 549.824219 C 415.183594 552.125 415.875 554.398438 416.679688 556.625 C 417.484375 558.855469 418.335938 561.070312 419.34375 563.210938 C 420.296875 565.375 421.394531 567.476562 422.539062 569.546875 C 423.6875 571.625 424.9375 573.644531 426.230469 575.652344 C 426.332031 575.808594 426.285156 576.019531 426.125 576.121094 Z M 413.714844 411.890625 C 413.691406 411.808594 413.703125 411.726562 413.738281 411.664062 C 413.949219 411.257812 414.222656 410.921875 414.496094 410.601562 C 414.765625 410.273438 415.085938 409.996094 415.402344 409.71875 C 415.730469 409.460938 416.058594 409.203125 416.429688 409 C 416.796875 408.789062 417.171875 408.585938 417.609375 408.457031 C 417.808594 408.40625 418.011719 408.515625 418.066406 408.71875 C 418.09375 408.8125 418.078125 408.910156 418.035156 408.988281 C 417.824219 409.390625 417.550781 409.714844 417.265625 410.03125 C 416.992188 410.355469 416.667969 410.625 416.347656 410.886719 C 416.011719 411.140625 415.675781 411.394531 415.296875 411.585938 C 414.925781 411.792969 414.542969 411.984375 414.105469 412.109375 C 413.9375 412.15625 413.761719 412.054688 413.714844 411.890625 Z M 452.660156 536.246094 C 455.15625 511.023438 470.753906 473.386719 460.421875 440.96875 C 450.085938 408.550781 427.773438 370.71875 427.773438 370.71875 L 415.851562 370.71875 C 416.144531 371.414062 416.351562 372.121094 416.546875 372.832031 C 416.746094 373.542969 416.878906 374.265625 417.007812 374.984375 C 417.125 375.714844 417.230469 376.441406 417.277344 377.175781 C 417.320312 377.730469 417.332031 378.289062 417.320312 378.851562 C 420.625 378.910156 423.929688 378.980469 427.226562 379.117188 C 427.417969 379.128906 427.5625 379.289062 427.558594 379.476562 C 427.546875 379.652344 427.40625 379.792969 427.226562 379.804688 C 422.96875 379.980469 418.707031 380.054688 414.445312 380.125 L 401.652344 380.207031 L 398.3125 380.179688 C 399.128906 382.691406 400.046875 385.15625 401.125 387.550781 C 402.234375 390.003906 403.457031 392.410156 404.882812 394.691406 C 406.25 397.003906 407.8125 399.203125 409.484375 401.316406 C 411.0625 403.328125 412.78125 405.230469 414.578125 407.074219 C 414.738281 406.9375 414.890625 406.792969 415.046875 406.652344 C 415.789062 406.035156 416.558594 405.4375 417.375 404.921875 C 418.1875 404.390625 419.023438 403.90625 419.921875 403.523438 C 420.097656 403.445312 420.296875 403.527344 420.371094 403.707031 C 420.429688 403.839844 420.394531 403.992188 420.296875 404.085938 C 419.605469 404.761719 418.882812 405.367188 418.164062 405.980469 L 416.011719 407.800781 L 413.832031 409.589844 C 413.09375 410.183594 412.371094 410.78125 411.585938 411.347656 C 411.449219 411.441406 411.269531 411.410156 411.179688 411.28125 C 411.105469 411.179688 411.105469 411.050781 411.167969 410.953125 C 411.691406 410.132812 412.3125 409.386719 412.960938 408.667969 C 413.304688 408.28125 413.664062 407.925781 414.035156 407.574219 C 412.015625 405.953125 410.160156 404.121094 408.457031 402.160156 C 406.648438 400.078125 405.050781 397.8125 403.597656 395.464844 C 402.207031 393.078125 400.945312 390.613281 399.953125 388.035156 C 398.964844 385.484375 398.183594 382.855469 397.699219 380.171875 L 388.863281 380.097656 C 384.601562 380.019531 380.339844 379.933594 376.074219 379.746094 C 375.921875 379.738281 375.796875 379.605469 375.804688 379.445312 C 375.808594 379.300781 375.925781 379.183594 376.074219 379.175781 C 380.011719 379 383.953125 378.917969 387.890625 378.847656 C 387.890625 378.839844 387.890625 378.839844 387.890625 378.839844 C 387.761719 378.132812 387.703125 377.4375 387.625 376.746094 L 387.445312 374.691406 L 387.304688 372.625 C 387.269531 372 387.226562 371.371094 387.230469 370.71875 L 364.796875 370.71875 L 401.695312 511.882812 L 456.558594 721.808594 C 458.15625 721.65625 459.757812 721.566406 461.355469 721.5 C 463.132812 721.414062 464.910156 721.394531 466.691406 721.382812 C 468.472656 721.382812 470.253906 721.394531 472.03125 721.472656 C 473.808594 721.535156 475.589844 721.613281 477.367188 721.796875 C 477.554688 721.8125 477.695312 721.984375 477.679688 722.171875 C 477.660156 722.328125 477.527344 722.457031 477.367188 722.476562 C 475.589844 722.652344 473.808594 722.734375 472.03125 722.796875 C 470.253906 722.875 468.472656 722.878906 466.691406 722.886719 C 464.910156 722.867188 463.132812 722.851562 461.355469 722.769531 C 459.816406 722.703125 458.273438 722.617188 456.734375 722.480469 L 457.710938 726.203125 L 477.4375 726.203125 C 477.4375 726.203125 485.339844 671.226562 472.882812 626.300781 C 460.425781 581.367188 450.160156 561.46875 452.660156 536.246094"/><g clip-path="url(#b)"><path fill="#4856A2" d="M 545.609375 647.648438 C 544.140625 646.207031 541.445312 645.238281 538.351562 645.238281 C 533.699219 645.238281 529.925781 647.425781 529.925781 650.125 C 529.925781 652.832031 533.699219 655.019531 538.351562 655.019531 C 542.960938 655.019531 546.695312 652.871094 546.769531 650.207031 L 546.828125 650.214844 L 550.367188 619.101562 L 584.53125 614.78125 L 581.296875 643.144531 C 579.835938 641.699219 577.132812 640.726562 574.039062 640.726562 C 569.390625 640.726562 565.617188 642.914062 565.617188 645.617188 C 565.617188 648.320312 569.390625 650.507812 574.039062 650.507812 C 578.648438 650.507812 582.382812 648.359375 582.457031 645.695312 L 582.515625 645.703125 L 586.238281 613.050781 L 549.011719 617.757812 Z M 143.648438 203.410156 L 214.550781 203.410156 L 214.550781 148.8125 L 143.648438 148.8125 Z M 142.144531 147.308594 L 216.054688 147.308594 L 216.054688 204.910156 L 142.144531 204.910156 Z M 610.789062 559.183594 L 610.789062 560.6875 L 534.976562 560.6875 C 534.632812 562.429688 533.09375 563.746094 531.25 563.746094 C 529.402344 563.746094 527.871094 562.429688 527.519531 560.6875 L 506.605469 560.6875 L 506.605469 559.183594 L 527.519531 559.183594 C 527.871094 557.449219 529.402344 556.132812 531.25 556.132812 C 533.09375 556.132812 534.632812 557.449219 534.976562 559.183594 Z M 382.039062 183.511719 C 383.066406 183.511719 383.890625 184.34375 383.890625 185.363281 C 383.890625 186.386719 383.066406 187.21875 382.039062 187.21875 C 381.015625 187.21875 380.183594 186.386719 380.183594 185.363281 C 380.183594 184.34375 381.015625 183.511719 382.039062 183.511719 Z M 267.222656 173.078125 C 267.128906 172.96875 267.121094 172.8125 267.203125 172.707031 C 267.445312 172.390625 267.707031 172.097656 267.972656 171.804688 C 269.175781 170.445312 270.601562 169.285156 272.167969 168.347656 C 273.019531 167.828125 273.917969 167.402344 274.839844 167.03125 C 275.984375 166.566406 277.171875 166.191406 278.378906 165.910156 C 280.5625 165.476562 282.824219 165.335938 285.035156 165.601562 C 285.832031 165.699219 286.625 165.863281 287.40625 166.058594 C 288.6875 166.378906 289.925781 166.832031 291.085938 167.4375 C 291.175781 167.484375 291.273438 167.523438 291.363281 167.570312 C 291.527344 167.660156 291.585938 167.871094 291.496094 168.035156 C 291.433594 168.140625 291.320312 168.1875 291.210938 168.195312 C 291.164062 168.195312 291.121094 168.207031 291.082031 168.195312 C 289.078125 167.488281 287 167.050781 284.914062 166.925781 C 283.875 166.863281 282.828125 166.863281 281.789062 166.9375 C 281.703125 166.945312 281.613281 166.957031 281.527344 166.960938 C 280.570312 167.039062 279.625 167.171875 278.683594 167.382812 C 276.628906 167.769531 274.652344 168.503906 272.785156 169.457031 C 271.035156 170.347656 269.410156 171.492188 267.925781 172.828125 C 267.824219 172.917969 267.726562 173 267.625 173.089844 C 267.515625 173.199219 267.332031 173.195312 267.222656 173.078125 Z M 455.761719 722.105469 C 455.773438 721.964844 455.882812 721.859375 456.019531 721.847656 C 456.199219 721.832031 456.378906 721.820312 456.558594 721.808594 C 458.15625 721.65625 459.757812 721.566406 461.355469 721.5 C 463.132812 721.414062 464.910156 721.394531 466.691406 721.382812 C 468.472656 721.382812 470.253906 721.394531 472.03125 721.472656 C 473.808594 721.535156 475.589844 721.613281 477.367188 721.796875 C 477.554688 721.8125 477.695312 721.984375 477.679688 722.171875 C 477.660156 722.328125 477.527344 722.457031 477.367188 722.476562 C 475.589844 722.652344 473.808594 722.734375 472.03125 722.796875 C 470.253906 722.875 468.472656 722.878906 466.691406 722.886719 C 464.910156 722.867188 463.132812 722.851562 461.355469 722.769531 C 459.816406 722.703125 458.273438 722.617188 456.734375 722.480469 C 456.496094 722.457031 456.257812 722.445312 456.019531 722.421875 C 455.859375 722.40625 455.742188 722.265625 455.761719 722.105469 Z M 426.230469 575.652344 C 426.332031 575.808594 426.285156 576.019531 426.125 576.121094 C 425.984375 576.214844 425.796875 576.1875 425.683594 576.0625 C 424.09375 574.242188 422.683594 572.277344 421.394531 570.222656 C 420.109375 568.175781 419 566.023438 417.976562 563.828125 C 417.019531 561.601562 416.140625 559.34375 415.472656 557.019531 C 414.796875 554.695312 414.261719 552.335938 413.957031 549.941406 C 413.9375 549.785156 414.050781 549.644531 414.210938 549.621094 C 414.351562 549.601562 414.484375 549.691406 414.519531 549.824219 C 415.183594 552.125 415.875 554.398438 416.679688 556.625 C 417.484375 558.855469 418.335938 561.070312 419.34375 563.210938 C 420.296875 565.375 421.394531 567.476562 422.539062 569.546875 C 423.6875 571.625 424.9375 573.644531 426.230469 575.652344 Z M 414.105469 412.109375 C 413.9375 412.15625 413.761719 412.054688 413.714844 411.890625 C 413.691406 411.808594 413.703125 411.726562 413.738281 411.664062 C 413.949219 411.257812 414.222656 410.921875 414.496094 410.601562 C 414.765625 410.273438 415.085938 409.996094 415.402344 409.71875 C 415.730469 409.460938 416.058594 409.203125 416.429688 409 C 416.796875 408.789062 417.171875 408.585938 417.609375 408.457031 C 417.808594 408.40625 418.011719 408.515625 418.066406 408.71875 C 418.09375 408.8125 418.078125 408.910156 418.035156 408.988281 C 417.824219 409.390625 417.550781 409.714844 417.265625 410.03125 C 416.992188 410.355469 416.667969 410.625 416.347656 410.886719 C 416.011719 411.140625 415.675781 411.394531 415.296875 411.585938 C 414.925781 411.792969 414.542969 411.984375 414.105469 412.109375 Z M 427.558594 379.476562 C 427.546875 379.652344 427.40625 379.792969 427.226562 379.804688 C 422.96875 379.980469 418.707031 380.054688 414.445312 380.125 L 401.652344 380.207031 L 398.3125 380.179688 C 399.128906 382.691406 400.046875 385.15625 401.125 387.550781 C 402.234375 390.003906 403.457031 392.410156 404.882812 394.691406 C 406.25 397.003906 407.8125 399.203125 409.484375 401.316406 C 411.0625 403.328125 412.78125 405.230469 414.578125 407.074219 C 414.738281 406.9375 414.890625 406.792969 415.046875 406.652344 C 415.789062 406.035156 416.558594 405.4375 417.375 404.921875 C 418.1875 404.390625 419.023438 403.90625 419.921875 403.523438 C 420.097656 403.445312 420.296875 403.527344 420.371094 403.707031 C 420.429688 403.839844 420.394531 403.992188 420.296875 404.085938 C 419.605469 404.761719 418.882812 405.367188 418.164062 405.980469 L 416.011719 407.800781 L 413.832031 409.589844 C 413.09375 410.183594 412.371094 410.78125 411.585938 411.347656 C 411.449219 411.441406 411.269531 411.410156 411.179688 411.28125 C 411.105469 411.179688 411.105469 411.050781 411.167969 410.953125 C 411.691406 410.132812 412.3125 409.386719 412.960938 408.667969 C 413.304688 408.28125 413.664062 407.925781 414.035156 407.574219 C 412.015625 405.953125 410.160156 404.121094 408.457031 402.160156 C 406.648438 400.078125 405.050781 397.8125 403.597656 395.464844 C 402.207031 393.078125 400.945312 390.613281 399.953125 388.035156 C 398.964844 385.484375 398.183594 382.855469 397.699219 380.171875 L 388.863281 380.097656 C 384.601562 380.019531 380.339844 379.933594 376.074219 379.746094 C 375.921875 379.738281 375.796875 379.605469 375.804688 379.445312 C 375.808594 379.300781 375.925781 379.183594 376.074219 379.175781 C 380.011719 379 383.953125 378.917969 387.890625 378.847656 C 387.890625 378.839844 387.890625 378.839844 387.890625 378.839844 C 387.761719 378.132812 387.703125 377.4375 387.625 376.746094 L 387.445312 374.691406 L 387.304688 372.625 C 387.269531 372 387.226562 371.371094 387.230469 370.71875 C 387.230469 370.648438 387.226562 370.585938 387.226562 370.519531 C 387.226562 370.351562 387.363281 370.222656 387.527344 370.226562 C 387.636719 370.226562 387.730469 370.292969 387.785156 370.378906 C 387.84375 370.492188 387.882812 370.609375 387.929688 370.71875 C 388.195312 371.269531 388.394531 371.839844 388.554688 372.421875 C 388.757812 373.125 388.859375 373.839844 388.941406 374.5625 C 388.992188 375.285156 389.023438 376.011719 388.953125 376.734375 C 388.894531 377.445312 388.792969 378.148438 388.578125 378.835938 C 388.675781 378.828125 388.769531 378.828125 388.863281 378.828125 L 401.652344 378.710938 L 414.445312 378.792969 C 415.089844 378.804688 415.742188 378.824219 416.394531 378.835938 C 416.234375 378.355469 416.085938 377.875 415.964844 377.390625 C 415.777344 376.675781 415.648438 375.953125 415.53125 375.226562 C 415.429688 374.5 415.324219 373.769531 415.289062 373.03125 C 415.25 372.292969 415.21875 371.558594 415.285156 370.800781 C 415.285156 370.765625 415.3125 370.75 415.324219 370.71875 C 415.378906 370.609375 415.472656 370.519531 415.601562 370.53125 C 415.710938 370.542969 415.804688 370.613281 415.847656 370.707031 C 415.847656 370.714844 415.851562 370.714844 415.851562 370.71875 C 416.144531 371.414062 416.351562 372.121094 416.546875 372.832031 C 416.746094 373.542969 416.878906 374.265625 417.007812 374.984375 C 417.125 375.714844 417.230469 376.441406 417.277344 377.175781 C 417.320312 377.730469 417.332031 378.289062 417.320312 378.851562 C 420.625 378.910156 423.929688 378.980469 427.226562 379.117188 C 427.417969 379.128906 427.5625 379.289062 427.558594 379.476562 Z M 447.078125 292.101562 C 446.351562 296.414062 445.511719 300.71875 444.460938 304.964844 C 443.40625 309.214844 442.238281 313.441406 440.871094 317.59375 C 438.144531 325.921875 434.859375 334.074219 430.945312 341.917969 L 430.609375 342.585938 L 429.964844 342.21875 C 429.613281 342.019531 429.257812 341.824219 428.90625 341.625 C 424.652344 339.203125 420.355469 336.847656 416.058594 334.476562 C 411.390625 331.941406 406.765625 329.320312 402.199219 326.589844 C 402.125 326.550781 402.082031 326.480469 402.070312 326.402344 C 402.054688 326.339844 402.058594 326.261719 402.101562 326.195312 C 402.175781 326.066406 402.347656 326.019531 402.480469 326.089844 C 407.140625 328.632812 411.890625 331.007812 416.597656 333.46875 C 421.089844 335.785156 425.578125 338.132812 429.988281 340.621094 C 433.625 332.992188 436.847656 325.171875 439.535156 317.152344 C 440.917969 313.035156 442.214844 308.878906 443.339844 304.671875 C 444.472656 300.46875 445.535156 296.246094 446.410156 291.980469 C 446.453125 291.792969 446.628906 291.675781 446.816406 291.714844 C 446.996094 291.75 447.113281 291.921875 447.078125 292.101562 Z M 309.3125 241.09375 C 309.230469 240.847656 309.148438 240.613281 309.066406 240.367188 C 309.019531 240.214844 309.101562 240.058594 309.253906 240.011719 C 309.394531 239.960938 309.546875 240.035156 309.605469 240.167969 C 309.730469 240.449219 309.847656 240.738281 309.96875 241.023438 C 311.265625 244.035156 312.511719 247.070312 313.730469 250.109375 C 315.070312 253.4375 316.332031 256.792969 317.640625 260.125 L 321.355469 270.226562 C 321.855469 271.609375 322.34375 273 322.832031 274.390625 C 323.523438 276.386719 324.210938 278.386719 324.855469 280.402344 C 324.914062 280.582031 324.8125 280.769531 324.632812 280.828125 C 324.46875 280.882812 324.285156 280.800781 324.222656 280.640625 C 323.316406 278.574219 322.460938 276.492188 321.609375 274.402344 C 321.109375 273.164062 320.613281 271.933594 320.113281 270.695312 L 316.234375 260.660156 C 315.007812 257.292969 313.738281 253.933594 312.539062 250.554688 C 311.429688 247.414062 310.339844 244.269531 309.3125 241.09375 Z M 381.035156 246.042969 C 380.933594 245.914062 380.953125 245.738281 381.074219 245.636719 C 381.191406 245.542969 381.355469 245.554688 381.457031 245.65625 C 383.691406 247.78125 387.007812 248.265625 389.945312 247.730469 C 392.945312 247.1875 395.742188 245.765625 398.574219 244.335938 C 400.210938 243.554688 401.84375 242.761719 403.472656 241.976562 C 404.699219 241.390625 405.925781 240.800781 407.160156 240.226562 C 410.035156 238.890625 412.917969 237.570312 415.847656 236.332031 C 416.015625 236.261719 416.21875 236.34375 416.292969 236.511719 C 416.359375 236.675781 416.292969 236.859375 416.144531 236.945312 C 413.375 238.5 410.558594 239.960938 407.742188 241.417969 C 405.820312 242.410156 403.882812 243.371094 401.949219 244.335938 C 401.042969 244.78125 400.140625 245.226562 399.234375 245.683594 C 396.390625 247.023438 393.441406 248.542969 390.136719 248.980469 C 388.488281 249.199219 386.796875 249.125 385.195312 248.664062 C 383.605469 248.191406 382.085938 247.332031 381.035156 246.042969 Z M 358.835938 269.601562 C 360.136719 266.59375 361.585938 263.640625 363.253906 260.8125 C 364.925781 257.988281 366.769531 255.273438 368.835938 252.730469 C 368.953125 252.585938 369.164062 252.566406 369.3125 252.679688 C 369.449219 252.796875 369.476562 252.992188 369.382812 253.132812 C 367.621094 255.859375 365.941406 258.625 364.410156 261.46875 C 362.878906 264.308594 361.445312 267.203125 360.214844 270.191406 C 359.164062 272.574219 358.269531 275.019531 357.4375 277.492188 C 357.238281 278.078125 357.019531 278.664062 356.832031 279.257812 C 356.0625 281.640625 355.414062 284.058594 354.800781 286.492188 C 354.765625 286.652344 354.71875 286.808594 354.683594 286.960938 C 354.550781 287.519531 354.398438 288.070312 354.269531 288.628906 C 354.226562 288.78125 354.074219 288.875 353.921875 288.839844 C 353.773438 288.804688 353.679688 288.667969 353.699219 288.527344 C 353.769531 287.960938 353.851562 287.390625 353.941406 286.828125 C 354.332031 284.15625 354.902344 281.511719 355.613281 278.898438 C 356.46875 275.730469 357.585938 272.636719 358.835938 269.601562 Z M 375.570312 223.566406 C 375.617188 223.4375 375.75 223.355469 375.886719 223.378906 C 376.703125 223.496094 377.523438 223.5625 378.34375 223.597656 C 379.550781 223.648438 380.742188 223.613281 381.925781 223.46875 C 383.910156 223.21875 385.875 222.75 387.714844 221.976562 C 389.582031 221.261719 391.328125 220.257812 392.933594 219.066406 C 394.539062 217.867188 395.976562 216.449219 397.234375 214.847656 C 397.351562 214.699219 397.5625 214.671875 397.714844 214.789062 C 397.84375 214.894531 397.878906 215.074219 397.804688 215.222656 C 396.800781 217.082031 395.390625 218.726562 393.757812 220.105469 C 392.121094 221.484375 390.242188 222.558594 388.269531 223.375 C 386.269531 224.117188 384.167969 224.628906 382.03125 224.734375 C 381.644531 224.753906 381.25 224.746094 380.863281 224.746094 C 379.121094 224.730469 377.390625 224.480469 375.75 223.9375 C 375.597656 223.882812 375.515625 223.71875 375.570312 223.566406 Z M 358.917969 184.628906 C 359.878906 183.714844 361.363281 183.46875 362.660156 183.761719 C 363.308594 183.921875 363.941406 184.191406 364.464844 184.617188 C 364.984375 185.035156 365.433594 185.5625 365.65625 186.1875 C 365.71875 186.367188 365.625 186.574219 365.445312 186.636719 C 365.328125 186.679688 365.210938 186.65625 365.117188 186.589844 L 365.097656 186.578125 C 364.640625 186.246094 364.210938 185.957031 363.742188 185.734375 C 363.277344 185.523438 362.808594 185.335938 362.308594 185.222656 C 361.824219 185.09375 361.316406 185.035156 360.800781 185.007812 C 360.277344 184.988281 359.757812 185.042969 359.1875 185.136719 L 359.167969 185.136719 C 359.011719 185.164062 358.859375 185.054688 358.828125 184.890625 C 358.8125 184.789062 358.851562 184.691406 358.917969 184.628906 Z M 370.746094 210.222656 C 369.675781 210.214844 368.5625 209.886719 367.78125 209.167969 C 367.664062 209.054688 367.65625 208.867188 367.761719 208.75 C 367.851562 208.660156 367.972656 208.636719 368.078125 208.671875 L 368.089844 208.679688 C 369.792969 209.332031 371.605469 208.941406 373.121094 208.128906 C 373.316406 208.023438 373.503906 207.882812 373.695312 207.757812 C 374.253906 207.40625 374.792969 207.007812 375.335938 206.566406 C 375.40625 206.507812 375.480469 206.441406 375.550781 206.378906 C 376.191406 205.839844 376.824219 205.253906 377.519531 204.707031 C 377.671875 204.589844 377.882812 204.613281 378 204.765625 C 378.09375 204.882812 378.097656 205.035156 378.027344 205.15625 C 377.523438 205.996094 376.929688 206.789062 376.25 207.527344 C 375.574219 208.28125 374.757812 208.941406 373.832031 209.449219 C 372.882812 209.941406 371.824219 210.238281 370.746094 210.222656 Z M 365.292969 178.9375 C 365.621094 179.441406 365.871094 180 365.953125 180.597656 C 365.976562 180.800781 365.84375 180.976562 365.648438 181 C 365.53125 181.015625 365.421875 180.976562 365.34375 180.894531 L 365.339844 180.882812 C 364.960938 180.492188 364.628906 180.125 364.265625 179.785156 C 363.902344 179.453125 363.542969 179.121094 363.148438 178.839844 C 362.773438 178.535156 362.355469 178.277344 361.941406 178.003906 C 361.515625 177.742188 361.058594 177.519531 360.578125 177.265625 L 360.566406 177.261719 C 360.417969 177.179688 360.367188 176.996094 360.441406 176.847656 C 360.488281 176.765625 360.574219 176.707031 360.660156 176.695312 C 361.253906 176.597656 361.859375 176.671875 362.433594 176.835938 C 363.019531 176.992188 363.558594 177.285156 364.046875 177.636719 C 364.535156 178 364.96875 178.429688 365.292969 178.9375 Z M 384.167969 178.867188 C 383.433594 178.21875 382.636719 177.648438 381.761719 177.226562 C 380.898438 176.789062 379.960938 176.515625 378.984375 176.332031 C 378.011719 176.167969 377.007812 176.144531 375.972656 176.226562 C 375.808594 176.238281 375.667969 176.121094 375.65625 175.964844 C 375.644531 175.839844 375.714844 175.722656 375.828125 175.671875 C 376.84375 175.21875 377.976562 175.035156 379.109375 175.070312 C 380.246094 175.101562 381.375 175.386719 382.417969 175.875 C 383.453125 176.378906 384.390625 177.078125 385.125 177.945312 C 385.863281 178.808594 386.441406 179.808594 386.722656 180.894531 C 386.769531 181.074219 386.65625 181.261719 386.476562 181.308594 C 386.328125 181.351562 386.175781 181.285156 386.097656 181.167969 C 385.523438 180.3125 384.894531 179.53125 384.167969 178.867188 Z M 364.046875 194.835938 C 363.441406 196.167969 363.144531 197.636719 363.441406 198.984375 C 363.746094 200.277344 364.808594 201.53125 366.238281 201.761719 L 366.25 201.765625 C 366.40625 201.789062 366.511719 201.9375 366.488281 202.09375 C 366.464844 202.230469 366.355469 202.324219 366.226562 202.335938 C 364.40625 202.457031 362.792969 201.042969 362.226562 199.335938 C 361.640625 197.605469 362.011719 195.769531 362.671875 194.230469 C 363.367188 192.683594 364.328125 191.375 365.203125 190.09375 C 366.070312 188.816406 366.847656 187.507812 367.230469 186.039062 C 367.277344 185.855469 367.457031 185.738281 367.640625 185.785156 C 367.796875 185.820312 367.910156 185.976562 367.902344 186.128906 C 367.855469 187.824219 367.121094 189.394531 366.335938 190.792969 C 365.542969 192.199219 364.640625 193.480469 364.046875 194.835938 Z M 477.253906 736.03125 C 476.921875 737.6875 475.929688 737.867188 475.042969 736.429688 C 474.15625 735 473.703125 732.492188 474.039062 730.832031 C 474.375 729.183594 475.367188 729 476.257812 730.4375 C 477.144531 731.871094 477.597656 734.375 477.253906 736.03125 Z M 477.4375 726.203125 L 457.710938 726.203125 C 457.710938 726.203125 456.496094 733.5625 451.65625 737.304688 C 447.148438 740.800781 447.003906 751.03125 447.003906 751.03125 L 481.734375 751.03125 Z M 249.605469 312.558594 C 238.488281 309.355469 233.117188 295.488281 239.878906 295.488281 C 245.53125 295.488281 247.597656 298.867188 247.597656 298.867188 C 247.597656 298.867188 249.707031 295.488281 253.996094 295.488281 C 260.765625 295.488281 259.726562 309.355469 249.605469 312.558594 Z M 285.980469 342.546875 C 285.550781 340.476562 290.363281 340.574219 299.644531 340.574219 C 308.929688 340.574219 317.953125 349.742188 317.953125 349.742188 C 317.953125 349.742188 339.511719 346.871094 359.46875 343.691406 C 366.746094 342.535156 373.800781 341.335938 379.53125 340.214844 C 379.730469 339.347656 379.84375 338.449219 379.84375 337.523438 L 321.914062 337.523438 L 311.867188 274.527344 L 310.726562 267.375 C 309.894531 262.152344 305.386719 258.308594 300.097656 258.308594 L 204.421875 258.308594 C 197.800781 258.308594 192.753906 264.222656 193.796875 270.757812 L 204.945312 340.675781 C 205.777344 345.898438 210.285156 349.742188 215.574219 349.742188 L 263.550781 349.742188 L 299.386719 349.542969 C 299.386719 349.542969 286.410156 344.617188 285.980469 342.546875 Z M 324.0625 739.160156 C 321.84375 739.160156 320.195312 737.363281 320.375 735.144531 C 320.558594 732.925781 322.5 731.132812 324.71875 731.132812 C 326.9375 731.132812 328.59375 732.925781 328.40625 735.144531 C 328.222656 737.363281 326.28125 739.160156 324.0625 739.160156 Z M 318.121094 726.203125 L 318.167969 726.203125 C 318.167969 726.203125 315.371094 734 300.644531 735.957031 C 286.835938 737.785156 277.441406 751.03125 277.441406 751.03125 L 332.425781 751.03125 L 337.898438 726.203125 L 337.851562 726.203125 C 337.851562 726.203125 367.347656 671.226562 372.527344 626.300781 C 377.710938 581.367188 375.265625 561.46875 387.667969 536.246094 C 391.222656 529.011719 396.265625 520.75 401.695312 511.882812 L 364.796875 370.71875 Z M 399.253906 172.273438 C 399.21875 172.671875 399.183594 173.082031 399.152344 173.488281 C 398.949219 172.613281 398.515625 171.75 398.015625 171.003906 C 398.378906 171.46875 398.796875 171.890625 399.253906 172.273438 Z M 345.980469 206.488281 C 346.613281 206.183594 346.972656 205.523438 347.296875 204.894531 C 348.382812 202.769531 349.46875 200.640625 350.554688 198.515625 C 350.210938 203.011719 352.378906 207.617188 356.0625 210.222656 C 356.925781 210.832031 357.972656 211.332031 359.003906 211.460938 C 354.492188 198.1875 358.464844 173.164062 358.894531 163.65625 C 358.980469 161.621094 359.355469 159.601562 359.980469 157.671875 C 361.136719 156.664062 362.566406 155.945312 364.019531 155.683594 C 362.257812 160.066406 363.9375 165.175781 366.789062 168.945312 C 367.652344 170.082031 368.667969 171.179688 369.988281 171.730469 C 371.308594 172.285156 373 172.15625 373.96875 171.097656 C 373.992188 171.074219 374.003906 171.046875 374.027344 171.015625 C 374.476562 170.46875 374.640625 169.707031 374.519531 169.015625 C 375.78125 170.476562 377.394531 171.632812 379.195312 172.332031 C 380.089844 172.671875 381.09375 172.90625 382.003906 172.589844 C 383.082031 172.214844 383.78125 171.105469 384 169.976562 C 384.210938 168.851562 384.027344 167.6875 383.84375 166.550781 C 385.917969 170.304688 388.933594 173.539062 392.542969 175.851562 C 393.675781 176.578125 394.925781 177.230469 396.273438 177.230469 C 397.371094 177.226562 398.503906 176.644531 399.007812 175.710938 C 398.90625 177.601562 398.871094 179.496094 398.894531 181.386719 C 399.941406 179.859375 401.078125 178.347656 402.714844 177.5 C 404.507812 176.578125 407.054688 176.796875 408.117188 178.511719 C 408.933594 179.832031 408.628906 181.53125 408.191406 183.023438 C 407.441406 185.605469 406.328125 188.164062 404.429688 190.070312 C 403.15625 191.355469 401.464844 192.289062 399.699219 192.59375 C 400.433594 198.117188 401.671875 203.566406 403.410156 208.859375 C 405.082031 213.976562 407.3125 219.082031 411.15625 222.851562 C 411.4375 223.121094 411.75 223.386719 412.074219 223.621094 C 412.804688 224.140625 413.632812 224.488281 414.472656 224.277344 C 416.046875 223.890625 416.570312 221.886719 416.410156 220.273438 C 416.253906 218.667969 415.722656 216.976562 416.335938 215.480469 C 418.429688 216.523438 419.222656 219.605469 421.523438 220.003906 C 423.367188 220.328125 425.03125 218.542969 425.292969 216.6875 C 425.550781 214.839844 424.820312 213.015625 424.101562 211.289062 C 426.765625 212.183594 429.5 213.085938 432.304688 213.023438 C 435.117188 212.957031 438.070312 211.726562 439.4375 209.265625 C 441.246094 206.015625 439.777344 201.984375 438.285156 198.574219 C 441.070312 200.152344 444.820312 199.800781 447.253906 197.730469 C 449.699219 195.65625 450.652344 192.011719 449.550781 189.015625 C 449.304688 188.351562 448.957031 187.660156 449.097656 186.960938 C 449.285156 186.074219 450.167969 185.550781 450.859375 184.972656 C 453.484375 182.777344 453.910156 178.667969 452.472656 175.558594 C 451.042969 172.453125 448.113281 170.257812 444.984375 168.867188 C 441.863281 167.472656 438.488281 166.757812 435.207031 165.78125 C 431.925781 164.796875 428.644531 163.5 426.136719 161.164062 C 425.128906 160.230469 424.265625 159.144531 423.390625 158.066406 C 421.710938 153.175781 417.882812 148.992188 413.019531 147.171875 C 414.53125 147.195312 418.066406 147.964844 419.351562 147.171875 C 420.636719 146.375 421.457031 144.644531 420.765625 143.300781 C 420.214844 142.226562 418.945312 141.757812 417.773438 141.445312 C 414.53125 140.601562 411.1875 140.03125 407.851562 140.183594 C 408.675781 139.867188 409.367188 139.140625 409.621094 138.277344 C 410.019531 136.945312 409.519531 135.460938 408.621094 134.390625 C 406.660156 132.058594 403.226562 131.621094 400.1875 131.898438 C 397.394531 132.152344 394.804688 132.894531 392.234375 134.023438 C 393.335938 132.882812 392.972656 130.859375 391.835938 129.761719 C 390.695312 128.652344 389.039062 128.285156 387.460938 128.144531 C 384.445312 127.882812 381.316406 128.355469 378.6875 129.84375 C 376.050781 131.328125 374.171875 133.429688 373.621094 136.398438 C 372.992188 135.195312 372.347656 133.976562 371.390625 133.011719 C 370.433594 132.050781 369.105469 131.363281 367.757812 131.511719 C 366.511719 131.640625 365.445312 132.4375 364.574219 133.34375 C 363.558594 134.398438 362.714844 135.695312 362.550781 137.15625 C 362.285156 139.585938 364.175781 142.132812 365.730469 144.023438 C 361.011719 144.332031 356.207031 144.660156 351.804688 146.386719 C 351.257812 146.605469 350.707031 146.84375 350.28125 147.253906 C 349.859375 147.660156 349.585938 148.265625 349.714844 148.835938 C 349.847656 149.425781 350.359375 149.84375 350.863281 150.179688 C 352.789062 151.453125 355.097656 151.890625 357.410156 151.832031 C 353.773438 154.917969 350.859375 159.003906 348.710938 163.128906 C 345.3125 169.667969 343.496094 176.902344 341.984375 184.113281 C 340.574219 190.828125 339.464844 198.140625 342.488281 204.308594 C 343.15625 205.679688 344.601562 207.148438 345.980469 206.488281"/></g></svg>