<svg xmlns="http://www.w3.org/2000/svg" width="810" viewBox="0 0 810 810" height="810" version="1.0"><path fill="#8685B1" d="M 156.371094 431.601562 C 203.871094 379.109375 114.367188 281.34375 136.621094 210.695312 C 166.582031 115.597656 410.300781 34.0625 574.347656 137.59375 C 711.722656 224.300781 759.425781 419.464844 699.410156 498.347656 C 681.445312 521.957031 659.097656 528.238281 629.738281 552.929688 C 602.425781 575.898438 599.355469 581.761719 597.382812 585.757812 C 577.960938 625.199219 618.808594 659.816406 610.585938 693.644531 C 597.601562 747.097656 467.703125 775.613281 359.082031 757.523438 C 329.785156 752.644531 181.347656 724.277344 126.746094 606.414062 C 122.523438 597.296875 82.550781 509.210938 120.164062 460.207031 C 133.207031 443.214844 143.703125 445.59375 156.371094 431.601562"/><path fill="#4856A2" d="M 640.597656 216.179688 C 626.839844 202.605469 626.632812 180.386719 640.140625 166.554688 C 653.652344 152.722656 675.757812 152.519531 689.519531 166.097656 C 703.273438 179.675781 703.476562 201.894531 689.96875 215.726562 C 676.460938 229.558594 654.359375 229.761719 640.597656 216.179688"/><path fill="#FFF" d="M 688.714844 189.257812 L 664.996094 213.542969 C 663.742188 214.828125 661.6875 214.847656 660.40625 213.585938 L 643.726562 197.121094 C 642.445312 195.859375 642.429688 193.792969 643.683594 192.507812 L 667.398438 168.226562 C 668.652344 166.941406 670.707031 166.921875 671.988281 168.183594 L 688.671875 184.648438 C 689.953125 185.910156 689.972656 187.972656 688.714844 189.257812"/><path d="M 669.710938 168.472656 C 669.703125 168.472656 669.699219 168.472656 669.691406 168.472656 C 669.152344 168.476562 668.648438 168.691406 668.269531 169.078125 L 644.550781 193.359375 C 643.765625 194.167969 643.773438 195.464844 644.574219 196.261719 L 661.257812 212.722656 C 661.648438 213.105469 662.183594 213.289062 662.691406 213.308594 C 663.234375 213.300781 663.742188 213.082031 664.121094 212.695312 L 687.835938 188.414062 C 688.625 187.609375 688.613281 186.308594 687.808594 185.515625 L 671.132812 169.054688 C 670.75 168.679688 670.242188 168.472656 669.710938 168.472656 Z M 662.671875 215.738281 C 661.496094 215.738281 660.390625 215.285156 659.550781 214.453125 L 642.863281 197.992188 C 641.109375 196.261719 641.085938 193.421875 642.808594 191.660156 L 666.523438 167.382812 C 667.359375 166.527344 668.472656 166.046875 669.671875 166.035156 C 670.902344 166.03125 671.992188 166.484375 672.84375 167.320312 L 689.523438 183.789062 C 691.277344 185.511719 691.300781 188.351562 689.578125 190.117188 L 665.867188 214.398438 C 665.027344 215.253906 663.910156 215.730469 662.714844 215.738281 C 662.707031 215.738281 662.691406 215.738281 662.671875 215.738281"/><path d="M 652.117188 196.234375 C 651.554688 196.234375 651.046875 195.847656 650.925781 195.277344 C 650.78125 194.625 651.199219 193.976562 651.855469 193.828125 L 666.992188 190.519531 C 667.648438 190.375 668.300781 190.792969 668.441406 191.445312 C 668.585938 192.105469 668.167969 192.753906 667.511719 192.898438 L 652.375 196.207031 C 652.289062 196.226562 652.203125 196.234375 652.117188 196.234375"/><path d="M 667.3125 192.867188 C 667.242188 192.867188 667.160156 192.855469 667.082031 192.839844 C 666.417969 192.710938 665.992188 192.066406 666.117188 191.410156 L 669.136719 176.136719 C 669.265625 175.472656 669.914062 175.046875 670.566406 175.175781 C 671.226562 175.304688 671.65625 175.949219 671.527344 176.605469 L 668.511719 191.878906 C 668.398438 192.457031 667.882812 192.867188 667.3125 192.867188"/><path fill="#4856A2" d="M 631.066406 134.589844 C 631.066406 152.253906 616.738281 166.578125 599.0625 166.578125 C 581.390625 166.578125 567.058594 152.253906 567.058594 134.589844 C 567.058594 116.925781 581.390625 102.605469 599.0625 102.605469 C 616.738281 102.605469 631.066406 116.925781 631.066406 134.589844"/><path fill="#FFF" d="M 612.464844 131.976562 L 595.328125 120.363281 C 593.226562 118.945312 590.390625 120.449219 590.390625 122.984375 L 590.390625 146.199219 C 590.390625 148.738281 593.226562 150.246094 595.328125 148.816406 L 612.464844 137.210938 C 614.316406 135.957031 614.316406 133.226562 612.464844 131.976562"/><path fill="#FFF" d="M 589.269531 372.523438 L 69.953125 372.523438 C 58.488281 372.523438 50.871094 381.617188 52.933594 392.839844 L 117.050781 741.359375 C 119.113281 752.582031 130.078125 761.675781 141.542969 761.675781 L 660.863281 761.675781 C 672.320312 761.675781 679.941406 752.582031 677.878906 741.359375 L 613.761719 392.839844 C 611.699219 381.617188 600.730469 372.523438 589.269531 372.523438"/><path d="M 69.949219 373.742188 C 64.757812 373.742188 60.257812 375.710938 57.28125 379.289062 C 54.320312 382.839844 53.203125 387.574219 54.132812 392.621094 L 118.246094 741.140625 C 120.207031 751.792969 130.65625 760.460938 141.542969 760.460938 L 660.855469 760.460938 C 666.046875 760.460938 670.546875 758.492188 673.527344 754.917969 C 676.488281 751.367188 677.605469 746.632812 676.675781 741.582031 L 612.558594 393.0625 C 610.605469 382.410156 600.152344 373.742188 589.269531 373.742188 Z M 660.855469 762.894531 L 141.542969 762.894531 C 129.539062 762.894531 118.011719 753.332031 115.851562 741.582031 L 51.738281 393.0625 C 50.675781 387.289062 51.976562 381.847656 55.410156 377.730469 C 58.859375 373.589844 64.023438 371.3125 69.949219 371.3125 L 589.269531 371.3125 C 601.273438 371.3125 612.796875 380.871094 614.960938 392.621094 L 679.070312 741.140625 C 680.132812 746.914062 678.832031 752.359375 675.398438 756.476562 C 671.949219 760.617188 666.785156 762.894531 660.855469 762.894531"/><path fill="#F08990" d="M 142.125 750.300781 C 135.226562 750.300781 128.609375 744.84375 127.375 738.132812 L 64.320312 395.382812 C 63.089844 388.675781 67.695312 383.214844 74.59375 383.214844 L 588.558594 383.214844 C 595.457031 383.214844 602.078125 388.675781 603.3125 395.382812 L 666.363281 738.132812 C 667.597656 744.84375 662.988281 750.300781 656.09375 750.300781 L 142.125 750.300781"/><path fill="#FFF" d="M 518.148438 505.765625 L 402.796875 505.765625 C 392.800781 505.765625 386.1875 513.867188 388.027344 523.859375 C 389.863281 533.851562 399.457031 541.949219 409.457031 541.949219 L 524.808594 541.949219 C 534.804688 541.949219 541.417969 533.851562 539.578125 523.859375 C 537.738281 513.867188 528.148438 505.765625 518.148438 505.765625"/><path fill="#8685B1" d="M 568.199219 599.945312 L 387.410156 599.945312 L 382.484375 573.199219 L 563.28125 573.199219 L 568.199219 599.945312"/><path fill="#8685B1" d="M 576.1875 643.375 L 395.398438 643.375 L 390.476562 616.632812 L 571.269531 616.632812 L 576.1875 643.375"/><path fill="#FFF" d="M 272.890625 217.558594 C 267.355469 217.558594 262.539062 219.6875 259.328125 223.539062 C 256.035156 227.488281 254.792969 232.796875 255.839844 238.472656 L 296.335938 458.617188 C 298.503906 470.390625 309.839844 479.96875 321.613281 479.96875 L 455.484375 479.96875 C 461.019531 479.96875 465.835938 477.84375 469.050781 473.992188 C 472.339844 470.039062 473.578125 464.734375 472.535156 459.058594 L 432.039062 238.910156 C 429.871094 227.140625 418.535156 217.558594 406.765625 217.558594 Z M 455.484375 482.402344 L 321.613281 482.402344 C 308.722656 482.402344 296.308594 471.929688 293.941406 459.058594 L 253.441406 238.914062 C 252.265625 232.511719 253.691406 226.496094 257.457031 221.980469 C 261.140625 217.558594 266.621094 215.125 272.890625 215.125 L 406.765625 215.125 C 419.652344 215.125 432.066406 225.597656 434.4375 238.472656 L 474.933594 458.617188 C 476.109375 465.019531 474.6875 471.03125 470.917969 475.550781 C 467.238281 479.96875 461.753906 482.402344 455.484375 482.402344"/><path fill="#4856A2" d="M 455.484375 482.402344 L 449.996094 482.402344 C 449.320312 482.402344 448.777344 481.859375 448.777344 481.1875 C 448.777344 480.515625 449.320312 479.972656 449.996094 479.972656 L 455.484375 479.972656 C 461.015625 479.972656 465.835938 477.84375 469.046875 473.992188 C 472.34375 470.042969 473.578125 464.738281 472.535156 459.058594 L 462.761719 405.929688 C 462.640625 405.269531 463.078125 404.632812 463.738281 404.511719 C 464.40625 404.386719 465.035156 404.828125 465.160156 405.492188 L 474.929688 458.617188 C 476.109375 465.019531 474.683594 471.035156 470.917969 475.550781 C 467.238281 479.972656 461.753906 482.402344 455.484375 482.402344"/><path fill="#4856A2" d="M 454.207031 353.90625 C 453.628906 353.90625 453.113281 353.496094 453.007812 352.910156 L 432.039062 238.914062 C 429.871094 227.140625 418.535156 217.558594 406.765625 217.558594 L 272.890625 217.558594 C 267.355469 217.558594 262.539062 219.6875 259.328125 223.539062 C 256.035156 227.488281 254.792969 232.796875 255.839844 238.472656 L 265.953125 293.449219 C 266.074219 294.109375 265.636719 294.742188 264.976562 294.863281 C 264.308594 294.988281 263.679688 294.546875 263.554688 293.890625 L 253.441406 238.914062 C 252.265625 232.511719 253.691406 226.496094 257.457031 221.980469 C 261.140625 217.558594 266.621094 215.125 272.890625 215.125 L 406.765625 215.125 C 419.652344 215.125 432.066406 225.597656 434.4375 238.472656 L 455.40625 352.46875 C 455.527344 353.132812 455.09375 353.761719 454.429688 353.882812 C 454.355469 353.898438 454.277344 353.90625 454.207031 353.90625"/><path fill="#FFF" d="M 310.03125 285.589844 C 305.699219 262.054688 321.265625 242.976562 344.792969 242.976562 C 368.320312 242.976562 390.90625 262.054688 395.230469 285.589844 C 399.5625 309.128906 384 328.203125 360.472656 328.203125 C 336.945312 328.203125 314.359375 309.128906 310.03125 285.589844"/><path fill="#8685B1" d="M 360.472656 329.429688 C 336.421875 329.429688 313.257812 309.863281 308.832031 285.8125 C 307.878906 280.644531 307.84375 275.574219 308.714844 270.753906 C 308.835938 270.09375 309.46875 269.65625 310.132812 269.773438 C 310.792969 269.894531 311.234375 270.523438 311.113281 271.1875 C 310.292969 275.71875 310.328125 280.492188 311.226562 285.371094 C 315.449219 308.316406 337.539062 326.988281 360.472656 326.988281 C 371.34375 326.988281 380.816406 322.804688 387.144531 315.210938 C 393.644531 307.414062 396.089844 296.976562 394.035156 285.8125 C 389.816406 262.867188 367.722656 244.195312 344.792969 244.195312 C 332.429688 244.195312 321.847656 249.660156 315.765625 259.1875 C 315.40625 259.757812 314.652344 259.921875 314.085938 259.5625 C 313.519531 259.199219 313.351562 258.449219 313.714844 257.882812 C 320.253906 247.636719 331.582031 241.761719 344.792969 241.761719 C 368.839844 241.761719 392.007812 261.324219 396.429688 285.371094 C 398.613281 297.257812 395.984375 308.410156 389.015625 316.769531 C 382.21875 324.929688 372.078125 329.429688 360.472656 329.429688"/><path fill="#8685B1" d="M 346.824219 257.5625 C 346.824219 257.5625 337.835938 251.085938 330.09375 264.625 C 323.257812 276.574219 336.796875 287.285156 334.277344 294.726562 C 331.753906 302.167969 319.320312 306.222656 319.320312 306.222656 C 319.320312 306.222656 325.097656 314.683594 331.027344 318.398438 L 386.640625 318.398438 C 386.640625 318.398438 395.835938 305.886719 395.183594 302.335938 C 395.183594 302.335938 382.71875 301.660156 379.917969 291.003906 C 377.109375 280.355469 380.582031 273.703125 367.839844 261.667969 C 354.644531 249.203125 346.824219 257.5625 346.824219 257.5625"/><path fill="#F08990" d="M 329.109375 316.585938 C 338.0625 323.785156 349.15625 328.207031 360.472656 328.207031 C 371.789062 328.207031 381.253906 323.785156 387.558594 316.585938 C 378.230469 313.847656 368.03125 312.308594 357.546875 312.308594 C 347.066406 312.308594 337.433594 313.847656 329.109375 316.585938"/><path fill="#8685B1" d="M 331.707031 317.046875 C 340.414062 323.472656 350.550781 326.988281 360.472656 326.988281 C 370.304688 326.988281 379.042969 323.53125 385.308594 317.214844 C 376.332031 314.765625 367 313.53125 357.546875 313.53125 C 348.304688 313.53125 339.625 314.710938 331.707031 317.046875 Z M 360.472656 329.425781 C 349.289062 329.425781 337.882812 325.203125 328.34375 317.53125 C 328 317.25 327.832031 316.804688 327.910156 316.363281 C 327.992188 315.925781 328.304688 315.566406 328.726562 315.425781 C 337.480469 312.550781 347.175781 311.09375 357.546875 311.09375 C 367.90625 311.09375 378.117188 312.546875 387.902344 315.414062 C 388.300781 315.527344 388.613281 315.84375 388.726562 316.242188 C 388.84375 316.640625 388.75 317.070312 388.476562 317.386719 C 381.679688 325.148438 371.734375 329.425781 360.472656 329.425781"/><path fill="#FFF" d="M 359.125 319.515625 C 355.410156 319.515625 351.847656 316.5 351.164062 312.785156 L 344.855469 278.488281 L 358.300781 278.488281 L 364.613281 312.785156 C 365.292969 316.5 362.839844 319.515625 359.125 319.515625"/><path fill="#8685B1" d="M 346.320312 279.707031 L 352.363281 312.566406 C 352.941406 315.722656 355.976562 318.292969 359.125 318.292969 C 360.53125 318.292969 361.75 317.769531 362.546875 316.804688 C 363.375 315.8125 363.683594 314.464844 363.414062 313.007812 L 357.289062 279.707031 Z M 359.125 320.730469 C 354.859375 320.730469 350.75 317.265625 349.96875 313.007812 L 343.65625 278.710938 C 343.59375 278.355469 343.6875 277.992188 343.921875 277.710938 C 344.152344 277.433594 344.496094 277.273438 344.855469 277.273438 L 358.300781 277.273438 C 358.890625 277.273438 359.394531 277.691406 359.5 278.269531 L 365.808594 312.566406 C 366.210938 314.746094 365.714844 316.804688 364.417969 318.363281 C 363.144531 319.890625 361.265625 320.730469 359.125 320.730469"/><path fill="#FFF" d="M 356.164062 302.335938 C 363.722656 302.335938 368.722656 296.199219 367.335938 288.636719 L 365.851562 280.570312 C 364.503906 273.257812 357.492188 267.328125 350.183594 267.328125 L 336.03125 267.328125 L 339.949219 288.636719 C 340.964844 294.179688 345.136719 298.953125 350.273438 301.109375 L 356.164062 302.335938"/><path fill="#8685B1" d="M 356.164062 303.554688 C 355.488281 303.554688 354.941406 303.003906 354.941406 302.335938 C 354.941406 301.660156 355.488281 301.117188 356.164062 301.117188 C 359.402344 301.117188 362.222656 299.875 364.101562 297.628906 C 366.03125 295.3125 366.753906 292.199219 366.132812 288.859375 L 364.652344 280.789062 C 363.410156 274.039062 356.917969 268.546875 350.179688 268.546875 L 337.492188 268.546875 L 341.148438 288.417969 C 342.058594 293.382812 345.828125 297.921875 350.742188 299.988281 C 351.359375 300.25 351.652344 300.960938 351.390625 301.582031 C 351.128906 302.199219 350.417969 302.492188 349.796875 302.234375 C 344.144531 299.855469 339.808594 294.605469 338.75 288.859375 L 334.828125 267.546875 C 334.765625 267.191406 334.863281 266.828125 335.09375 266.550781 C 335.324219 266.273438 335.667969 266.113281 336.027344 266.113281 L 350.179688 266.113281 C 358.039062 266.113281 365.605469 272.5 367.046875 280.347656 L 368.53125 288.417969 C 369.28125 292.480469 368.375 296.308594 365.972656 299.1875 C 363.628906 302.003906 360.140625 303.554688 356.164062 303.554688"/><path fill="#8685B1" d="M 350.660156 267.835938 L 339.089844 281.195312 L 336.535156 267.328125 C 336.535156 267.328125 350.722656 268.171875 350.660156 267.835938"/><path fill="#8685B1" d="M 422.632812 405.074219 L 316.363281 405.074219 C 313.914062 405.074219 311.5625 403.089844 311.109375 400.640625 L 311.109375 400.636719 C 310.660156 398.1875 312.28125 396.203125 314.730469 396.203125 L 421.003906 396.203125 C 423.453125 396.203125 425.804688 398.1875 426.253906 400.636719 L 426.253906 400.640625 C 426.707031 403.089844 425.082031 405.074219 422.632812 405.074219"/><path fill="#8685B1" d="M 445.027344 428.289062 L 319.816406 428.289062 C 317.367188 428.289062 315.015625 426.304688 314.566406 423.855469 L 314.566406 423.851562 C 314.113281 421.402344 315.734375 419.417969 318.1875 419.417969 L 443.394531 419.417969 C 445.84375 419.417969 448.191406 421.402344 448.640625 423.851562 L 448.644531 423.855469 C 449.09375 426.304688 447.472656 428.289062 445.027344 428.289062"/><path fill="#F08990" d="M 399.179688 363.625 L 344.753906 363.625 C 341.132812 363.625 337.65625 360.691406 336.992188 357.074219 L 336.992188 357.070312 C 336.324219 353.453125 338.71875 350.519531 342.339844 350.519531 L 396.765625 350.519531 C 400.390625 350.519531 403.863281 353.453125 404.527344 357.070312 L 404.53125 357.074219 C 405.195312 360.691406 402.796875 363.625 399.179688 363.625"/><path fill="#4856A2" d="M 240.523438 128.679688 C 238.9375 128.679688 82.074219 128.738281 79.664062 128.851562 C 73.964844 129.535156 69.019531 132.320312 65.804688 136.683594 C 62.414062 141.277344 61.1875 147.277344 62.34375 153.566406 L 110.007812 412.664062 C 112.578125 426.628906 126.03125 437.996094 139.996094 437.996094 L 297.875 437.996094 C 304.460938 437.996094 310.195312 435.46875 314.019531 430.875 C 317.941406 426.171875 319.417969 419.859375 318.175781 413.101562 L 270.511719 154.007812 C 267.941406 140.039062 254.488281 128.679688 240.523438 128.679688 Z M 297.875 440.429688 L 139.996094 440.429688 C 124.910156 440.429688 110.382812 428.171875 107.613281 413.101562 L 59.945312 154.007812 C 58.667969 147.046875 60.050781 140.382812 63.84375 135.234375 C 67.460938 130.328125 73 127.199219 79.4375 126.429688 C 80.453125 126.308594 213.800781 126.25 240.519531 126.242188 C 255.609375 126.242188 270.132812 138.5 272.90625 153.566406 L 320.570312 412.664062 C 321.945312 420.140625 320.285156 427.164062 315.890625 432.433594 C 311.59375 437.59375 305.195312 440.429688 297.875 440.429688"/><path fill="#4856A2" d="M 89.289062 308 C 88.714844 308 88.203125 307.59375 88.09375 307.007812 L 59.945312 154.007812 C 58.667969 147.046875 60.050781 140.382812 63.84375 135.234375 C 67.460938 130.328125 73 127.199219 79.4375 126.429688 C 80.453125 126.308594 213.800781 126.25 240.519531 126.242188 C 255.609375 126.242188 270.132812 138.5 272.90625 153.566406 L 282.238281 204.296875 C 282.359375 204.957031 281.921875 205.59375 281.261719 205.714844 C 280.597656 205.835938 279.964844 205.398438 279.84375 204.738281 L 270.511719 154.007812 C 267.941406 140.039062 254.488281 128.679688 240.523438 128.679688 C 238.9375 128.679688 82.074219 128.738281 79.664062 128.851562 C 73.964844 129.535156 69.019531 132.320312 65.804688 136.683594 C 62.414062 141.28125 61.1875 147.277344 62.34375 153.566406 L 90.492188 306.566406 C 90.609375 307.226562 90.175781 307.867188 89.511719 307.984375 C 89.4375 307.996094 89.363281 308 89.289062 308"/><path fill="#FFF" d="M 227.585938 440.429688 L 163.980469 440.429688 C 163.308594 440.429688 162.761719 439.886719 162.761719 439.214844 C 162.761719 438.542969 163.308594 437.996094 163.980469 437.996094 L 227.585938 437.996094 C 228.261719 437.996094 228.804688 438.542969 228.804688 439.214844 C 228.804688 439.886719 228.261719 440.429688 227.585938 440.429688"/><path fill="#F08990" d="M 217.226562 298.195312 L 173.929688 298.195312 C 171.050781 298.195312 168.289062 295.867188 167.757812 292.988281 C 167.226562 290.113281 169.132812 287.78125 172.011719 287.78125 L 215.308594 287.78125 C 218.1875 287.78125 220.949219 290.113281 221.480469 292.988281 C 222.007812 295.867188 220.105469 298.195312 217.226562 298.195312"/><path fill="#F08990" d="M 274.433594 326.773438 L 127.234375 326.773438 C 124.355469 326.773438 121.59375 324.441406 121.0625 321.566406 C 120.535156 318.6875 122.4375 316.355469 125.316406 316.355469 L 272.515625 316.355469 C 275.394531 316.355469 278.15625 318.6875 278.6875 321.566406 C 279.214844 324.441406 277.3125 326.773438 274.433594 326.773438"/><path fill="#F08990" d="M 278.121094 346.828125 L 130.921875 346.828125 C 128.042969 346.828125 125.28125 344.496094 124.753906 341.617188 C 124.222656 338.746094 126.128906 336.410156 129.007812 336.410156 L 276.207031 336.410156 C 279.082031 336.410156 281.847656 338.746094 282.375 341.617188 C 282.90625 344.496094 281 346.828125 278.121094 346.828125"/><path fill="#F08990" d="M 146.453125 242.0625 C 157 250.539062 170.066406 255.746094 183.398438 255.746094 C 196.730469 255.746094 207.882812 250.539062 215.3125 242.0625 C 204.320312 238.839844 192.304688 237.03125 179.957031 237.03125 C 167.605469 237.03125 156.257812 238.839844 146.453125 242.0625"/><path fill="#F08990" d="M 191.855469 208.164062 L 193.664062 192.378906 C 194.347656 186.410156 190.785156 179.980469 184.921875 176.605469 C 182.394531 175.148438 179.617188 174.375 176.925781 174.375 L 161.089844 174.375 C 157.554688 174.375 154.398438 175.710938 152.246094 178.117188 L 151.527344 178.917969 C 148.117188 182.738281 147.765625 188.644531 150.644531 193.929688 L 158.507812 208.371094 L 191.855469 208.164062"/><path fill="#FFF" d="M 170.90625 181.785156 L 153.375 181.785156 L 158.152344 207.746094 C 159.136719 213.113281 162.289062 217.894531 167.410156 220.984375 L 170.039062 235.28125 C 171.078125 240.929688 176.5 245.507812 182.15625 245.507812 C 187.808594 245.507812 191.546875 240.929688 190.507812 235.28125 L 187.949219 221.375 C 191.171875 218.300781 193.292969 213.339844 192.265625 207.746094 L 190.433594 197.800781 C 188.773438 188.78125 179.925781 181.785156 170.90625 181.785156"/><path fill="#8685B1" d="M 181.816406 246.730469 C 175.609375 246.730469 169.636719 241.6875 168.496094 235.5 L 165.890625 221.335938 C 165.769531 220.671875 166.207031 220.039062 166.871094 219.917969 C 167.535156 219.792969 168.167969 220.234375 168.289062 220.898438 L 170.894531 235.058594 C 171.832031 240.152344 176.730469 244.292969 181.816406 244.292969 C 184.148438 244.292969 186.175781 243.40625 187.519531 241.792969 C 188.898438 240.136719 189.414062 237.902344 188.972656 235.5 L 186.476562 221.921875 C 186.355469 221.257812 186.789062 220.625 187.453125 220.503906 C 188.117188 220.378906 188.75 220.816406 188.871094 221.480469 L 191.371094 235.058594 C 191.945312 238.1875 191.242188 241.128906 189.390625 243.351562 C 187.574219 245.527344 184.886719 246.730469 181.816406 246.730469"/><path fill="#F08990" d="M 178.222656 225.859375 C 177.550781 225.859375 177.007812 225.316406 177.007812 224.644531 C 177.007812 223.972656 177.550781 223.425781 178.222656 223.425781 C 182.316406 223.425781 185.875 221.859375 188.246094 219.011719 C 190.679688 216.09375 191.59375 212.175781 190.820312 207.96875 L 188.988281 198.019531 C 187.433594 189.5625 179.296875 182.6875 170.847656 182.6875 L 154.839844 182.6875 L 159.410156 207.527344 C 160.554688 213.742188 165.269531 219.425781 171.421875 222.007812 C 172.042969 222.269531 172.335938 222.984375 172.074219 223.605469 C 171.8125 224.222656 171.097656 224.515625 170.480469 224.253906 C 163.585938 221.363281 158.304688 214.96875 157.015625 207.96875 L 152.179688 181.691406 C 152.117188 181.335938 152.210938 180.96875 152.445312 180.691406 C 152.675781 180.414062 153.019531 180.253906 153.378906 180.253906 L 170.847656 180.253906 C 180.414062 180.253906 189.628906 188.023438 191.386719 197.578125 L 193.214844 207.527344 C 194.121094 212.453125 193.023438 217.089844 190.117188 220.574219 C 187.277344 223.984375 183.054688 225.859375 178.222656 225.859375"/><path fill="#F08990" d="M 181.195312 180.839844 L 157.152344 198.566406 L 154.007812 181.464844 C 154.007812 181.464844 181.269531 181.257812 181.195312 180.839844"/><path fill="#8685B1" d="M 183.34375 256.921875 C 170.621094 256.921875 157.464844 252.21875 146.359375 243.535156 C 121.984375 224.480469 114.589844 191.9375 129.882812 170.992188 C 144.476562 150.996094 174.816406 148.515625 198.953125 165.339844 C 199.503906 165.726562 199.640625 166.484375 199.253906 167.035156 C 198.871094 167.589844 198.109375 167.722656 197.558594 167.339844 C 174.519531 151.273438 145.65625 153.507812 131.847656 172.425781 C 117.324219 192.324219 124.507812 223.363281 147.859375 241.617188 C 160.46875 251.476562 175.792969 256.003906 189.902344 254.039062 C 200.890625 252.507812 210.316406 247.042969 216.441406 238.652344 C 224.035156 228.253906 225.980469 214.234375 221.792969 200.179688 C 221.601562 199.535156 221.96875 198.859375 222.613281 198.667969 C 223.257812 198.476562 223.9375 198.839844 224.128906 199.488281 C 228.535156 214.269531 226.453125 229.074219 218.410156 240.085938 C 211.894531 249.015625 201.886719 254.828125 190.238281 256.449219 C 187.964844 256.765625 185.660156 256.921875 183.34375 256.921875"/><path fill="#FFF" d="M 323.363281 701.640625 C 326.105469 716.539062 317.707031 728.617188 304.601562 728.617188 L 162.425781 728.617188 C 149.324219 728.617188 136.480469 716.539062 133.738281 701.640625 L 82.953125 425.574219 C 80.210938 410.675781 88.609375 398.597656 101.714844 398.597656 L 243.894531 398.597656 C 256.996094 398.597656 269.839844 410.675781 272.578125 425.574219 L 323.363281 701.640625"/><path d="M 304.601562 729.835938 L 162.425781 729.835938 C 148.785156 729.835938 135.378906 717.285156 132.539062 701.859375 L 81.753906 425.796875 C 80.246094 417.59375 81.96875 409.792969 86.476562 404.378906 C 90.238281 399.867188 95.648438 397.378906 101.710938 397.378906 L 243.894531 397.378906 C 257.535156 397.378906 270.941406 409.929688 273.777344 425.355469 L 301.441406 575.71875 C 301.5625 576.382812 301.125 577.019531 300.460938 577.140625 C 299.796875 577.261719 299.164062 576.824219 299.042969 576.160156 L 271.378906 425.796875 C 268.746094 411.472656 256.414062 399.8125 243.894531 399.8125 L 101.710938 399.8125 C 96.386719 399.8125 91.640625 401.988281 88.351562 405.9375 C 84.304688 410.789062 82.773438 417.871094 84.148438 425.355469 L 134.9375 701.421875 C 137.574219 715.746094 149.902344 727.402344 162.425781 727.402344 L 304.601562 727.402344 C 309.933594 727.402344 314.675781 725.226562 317.96875 721.277344 C 322.015625 716.425781 323.542969 709.34375 322.164062 701.859375 L 305.378906 610.609375 C 305.257812 609.949219 305.695312 609.316406 306.355469 609.195312 C 307.023438 609.070312 307.65625 609.511719 307.777344 610.167969 L 324.5625 701.421875 C 326.070312 709.617188 324.351562 717.425781 319.839844 722.835938 C 316.078125 727.351562 310.667969 729.835938 304.601562 729.835938"/><path fill="#F08990" d="M 219.246094 551.683594 L 180.171875 551.683594 C 177.574219 551.683594 175.078125 549.582031 174.601562 546.980469 C 174.125 544.386719 175.84375 542.28125 178.441406 542.28125 L 217.515625 542.28125 C 220.113281 542.28125 222.605469 544.386719 223.085938 546.980469 C 223.5625 549.582031 221.84375 551.683594 219.246094 551.683594"/><path fill="#8685B1" d="M 271.207031 579.273438 L 138.363281 579.273438 C 135.765625 579.273438 133.273438 577.167969 132.792969 574.570312 C 132.316406 571.972656 134.035156 569.871094 136.632812 569.871094 L 269.476562 569.871094 C 272.074219 569.871094 274.566406 571.972656 275.046875 574.570312 C 275.523438 577.167969 273.804688 579.273438 271.207031 579.273438"/><path fill="#8685B1" d="M 274.976562 599.769531 L 142.132812 599.769531 C 139.535156 599.769531 137.042969 597.664062 136.566406 595.066406 C 136.085938 592.472656 137.804688 590.367188 140.402344 590.367188 L 273.246094 590.367188 C 275.84375 590.367188 278.339844 592.472656 278.816406 595.066406 C 279.292969 597.664062 277.574219 599.769531 274.976562 599.769531"/><path fill="#8685B1" d="M 263.488281 661.597656 L 153.164062 661.597656 C 150.566406 661.597656 148.074219 659.488281 147.597656 656.894531 C 147.117188 654.300781 148.835938 652.195312 151.433594 652.195312 L 261.757812 652.195312 C 264.355469 652.195312 266.847656 654.300781 267.324219 656.894531 C 267.804688 659.488281 266.085938 661.597656 263.488281 661.597656"/><path fill="#8685B1" d="M 289.78125 682.089844 L 156.9375 682.089844 C 154.339844 682.089844 151.84375 679.988281 151.367188 677.394531 C 150.890625 674.792969 152.609375 672.691406 155.207031 672.691406 L 288.050781 672.691406 C 290.648438 672.691406 293.140625 674.792969 293.621094 677.394531 C 294.097656 679.988281 292.378906 682.089844 289.78125 682.089844"/><path fill="#8685B1" d="M 242.023438 700.996094 L 160.414062 700.996094 C 157.816406 700.996094 155.324219 698.890625 154.84375 696.296875 C 154.367188 693.699219 156.085938 691.59375 158.683594 691.59375 L 240.292969 691.59375 C 242.890625 691.59375 245.386719 693.699219 245.863281 696.296875 C 246.339844 698.890625 244.621094 700.996094 242.023438 700.996094"/><path fill="#8685B1" d="M 234.824219 620.265625 L 145.902344 620.265625 C 143.304688 620.265625 140.8125 618.160156 140.335938 615.566406 C 139.859375 612.96875 141.574219 610.863281 144.171875 610.863281 L 233.097656 610.863281 C 235.695312 610.863281 238.1875 612.96875 238.664062 615.566406 C 239.144531 618.160156 237.421875 620.265625 234.824219 620.265625"/><path fill="#8685B1" d="M 282.519531 640.761719 L 149.671875 640.761719 C 147.074219 640.761719 144.582031 638.660156 144.105469 636.0625 C 143.628906 633.464844 145.347656 631.359375 147.941406 631.359375 L 280.789062 631.359375 C 283.386719 631.359375 285.878906 633.464844 286.355469 636.0625 C 286.835938 638.660156 285.117188 640.761719 282.519531 640.761719"/><path d="M 173.132812 492.503906 C 164.125 492.503906 155.871094 484.070312 156.4375 475.335938 C 157.371094 460.980469 161.800781 442.433594 178.175781 439.8125 C 195.25 437.085938 208.679688 458.507812 216.324219 474.855469 C 220.460938 483.714844 215.371094 492.503906 206.160156 492.503906 L 173.132812 492.503906"/><path fill="#4856A2" d="M 192.421875 520.816406 C 205.359375 520.503906 213.550781 517.703125 221.289062 508.871094 C 209.835938 505.515625 204.457031 505.367188 191.585938 505.367188 C 178.714844 505.367188 171.019531 506.011719 160.804688 509.367188 C 160.804688 509.367188 175.28125 521.238281 192.421875 520.816406"/><path d="M 160.578125 510.636719 C 160.042969 510.636719 159.554688 510.285156 159.40625 509.746094 C 159.222656 509.101562 159.601562 508.429688 160.246094 508.246094 C 169.929688 505.527344 180.472656 504.148438 191.585938 504.148438 C 201.585938 504.148438 211.574219 505.273438 221.269531 507.484375 C 221.921875 507.636719 222.332031 508.285156 222.183594 508.945312 C 222.035156 509.597656 221.382812 510.007812 220.722656 509.859375 C 211.210938 507.683594 201.40625 506.585938 191.585938 506.585938 C 180.695312 506.585938 170.371094 507.929688 160.90625 510.59375 C 160.796875 510.621094 160.6875 510.636719 160.578125 510.636719"/><path fill="#FFF" d="M 193.570312 514.464844 C 189.011719 514.464844 184.636719 510.773438 183.796875 506.21875 L 174.710938 456.824219 L 191.222656 456.824219 L 200.308594 506.21875 C 201.144531 510.773438 198.128906 514.464844 193.570312 514.464844"/><path d="M 176.175781 458.042969 L 184.996094 505.996094 C 185.730469 509.996094 189.578125 513.25 193.570312 513.25 C 195.382812 513.25 196.949219 512.566406 197.988281 511.320312 C 199.054688 510.042969 199.453125 508.304688 199.109375 506.433594 L 190.207031 458.042969 Z M 193.570312 515.683594 C 188.460938 515.683594 183.539062 511.535156 182.601562 506.433594 L 173.515625 457.042969 C 173.449219 456.691406 173.546875 456.320312 173.777344 456.046875 C 174.007812 455.769531 174.351562 455.605469 174.710938 455.605469 L 191.222656 455.605469 C 191.808594 455.605469 192.3125 456.027344 192.417969 456.605469 L 201.503906 505.996094 C 201.984375 508.589844 201.398438 511.035156 199.859375 512.878906 C 198.351562 514.6875 196.117188 515.683594 193.570312 515.683594"/><path fill="#FFF" d="M 181.90625 484.574219 C 176.066406 481.925781 171.265625 476.070312 170.015625 469.269531 L 168.402344 460.496094 C 166.636719 450.90625 172.371094 443.132812 181.207031 443.132812 C 189.472656 443.132812 197.507812 450.40625 199.160156 459.375 L 200.980469 469.269531 C 202.6875 478.550781 197.140625 486.070312 188.589844 486.070312 L 181.90625 484.574219"/><path d="M 188.589844 487.292969 C 187.917969 487.292969 187.371094 486.746094 187.371094 486.070312 C 187.371094 485.402344 187.917969 484.855469 188.589844 484.855469 C 192.070312 484.855469 195.144531 483.46875 197.242188 480.949219 C 199.664062 478.046875 200.585938 473.871094 199.78125 469.488281 L 197.960938 459.59375 C 196.414062 451.191406 188.898438 444.351562 181.207031 444.351562 C 177.597656 444.351562 174.410156 445.789062 172.234375 448.402344 C 169.726562 451.410156 168.765625 455.742188 169.601562 460.277344 L 171.214844 469.054688 C 172.351562 475.242188 176.746094 480.898438 182.40625 483.464844 C 183.019531 483.742188 183.292969 484.460938 183.011719 485.074219 C 182.734375 485.6875 182.015625 485.957031 181.402344 485.679688 C 175.035156 482.796875 170.097656 476.441406 168.820312 469.488281 L 167.207031 460.71875 C 166.238281 455.46875 167.390625 450.410156 170.363281 446.847656 C 173.007812 443.664062 176.863281 441.917969 181.207031 441.917969 C 190.015625 441.917969 198.609375 449.652344 200.359375 459.152344 L 202.179688 469.054688 C 203.113281 474.144531 201.996094 479.046875 199.113281 482.507812 C 196.542969 485.589844 192.804688 487.292969 188.589844 487.292969"/><path d="M 167.417969 455.785156 L 199.585938 455.785156 C 199.585938 455.785156 197.777344 449.441406 191.238281 445.191406 C 185.675781 441.582031 179.078125 441.234375 173.988281 443.730469 C 170.53125 445.414062 167.199219 448.457031 167.480469 453.875 L 167.417969 455.785156"/><path d="M 186.289062 476.519531 C 184.285156 476.519531 182.425781 475.714844 181.054688 474.253906 C 180.59375 473.761719 180.617188 472.992188 181.109375 472.53125 C 181.597656 472.074219 182.371094 472.097656 182.828125 472.585938 C 183.734375 473.550781 184.964844 474.082031 186.289062 474.082031 C 187.613281 474.082031 188.84375 473.550781 189.75 472.585938 C 190.210938 472.097656 190.980469 472.070312 191.46875 472.535156 C 191.960938 472.992188 191.984375 473.761719 191.527344 474.253906 C 190.152344 475.714844 188.292969 476.519531 186.289062 476.519531"/><path d="M 192.679688 521.894531 C 178.71875 521.894531 163.785156 515.753906 152.371094 503.984375 C 141.714844 493.003906 135.835938 478.835938 136.234375 465.121094 C 136.550781 454.3125 140.835938 444.582031 148.308594 437.726562 C 165.847656 421.632812 196.207031 425.132812 215.984375 445.527344 C 222.554688 452.296875 227.390625 460.378906 229.980469 468.894531 C 230.175781 469.535156 229.8125 470.21875 229.167969 470.414062 C 228.53125 470.605469 227.84375 470.242188 227.648438 469.601562 C 225.175781 461.453125 220.535156 453.710938 214.234375 447.214844 C 195.367188 427.761719 166.53125 424.308594 149.957031 439.519531 C 142.972656 445.921875 138.964844 455.042969 138.671875 465.191406 C 138.289062 478.253906 143.921875 491.773438 154.121094 502.292969 C 172.992188 521.75 201.828125 525.199219 218.402344 509.992188 C 225.527344 503.457031 229.539062 494.132812 229.699219 483.746094 C 229.710938 483.078125 230.253906 482.546875 230.917969 482.546875 C 230.925781 482.546875 230.929688 482.546875 230.9375 482.546875 C 231.609375 482.558594 232.144531 483.109375 232.136719 483.78125 C 231.964844 494.847656 227.671875 504.792969 220.050781 511.789062 C 212.632812 518.59375 202.917969 521.894531 192.679688 521.894531"/><path fill="#4856A2" d="M 419.675781 586.570312 C 419.675781 589.410156 417.375 591.710938 414.535156 591.710938 C 411.691406 591.710938 409.394531 589.410156 409.394531 586.570312 C 409.394531 583.734375 411.691406 581.433594 414.535156 581.433594 C 417.375 581.433594 419.675781 583.734375 419.675781 586.570312"/><path fill="#4856A2" d="M 439.164062 586.570312 C 439.164062 589.410156 436.859375 591.710938 434.019531 591.710938 C 431.183594 591.710938 428.878906 589.410156 428.878906 586.570312 C 428.878906 583.734375 431.183594 581.433594 434.019531 581.433594 C 436.859375 581.433594 439.164062 583.734375 439.164062 586.570312"/><path fill="#4856A2" d="M 458.648438 586.570312 C 458.648438 589.410156 456.347656 591.710938 453.507812 591.710938 C 450.667969 591.710938 448.363281 589.410156 448.363281 586.570312 C 448.363281 583.734375 450.667969 581.433594 453.507812 581.433594 C 456.347656 581.433594 458.648438 583.734375 458.648438 586.570312"/><path fill="#4856A2" d="M 478.136719 586.570312 C 478.136719 589.410156 475.835938 591.710938 472.992188 591.710938 C 470.152344 591.710938 467.851562 589.410156 467.851562 586.570312 C 467.851562 583.734375 470.152344 581.433594 472.992188 581.433594 C 475.835938 581.433594 478.136719 583.734375 478.136719 586.570312"/><path fill="#4856A2" d="M 429.417969 629.667969 C 429.417969 632.507812 427.117188 634.808594 424.277344 634.808594 C 421.4375 634.808594 419.136719 632.507812 419.136719 629.667969 C 419.136719 626.828125 421.4375 624.527344 424.277344 624.527344 C 427.117188 624.527344 429.417969 626.828125 429.417969 629.667969"/><path fill="#4856A2" d="M 448.90625 629.667969 C 448.90625 632.507812 446.605469 634.808594 443.761719 634.808594 C 440.925781 634.808594 438.621094 632.507812 438.621094 629.667969 C 438.621094 626.828125 440.925781 624.527344 443.761719 624.527344 C 446.605469 624.527344 448.90625 626.828125 448.90625 629.667969"/><path fill="#4856A2" d="M 468.390625 629.667969 C 468.390625 632.507812 466.089844 634.808594 463.25 634.808594 C 460.410156 634.808594 458.109375 632.507812 458.109375 629.667969 C 458.109375 626.828125 460.410156 624.527344 463.25 624.527344 C 466.089844 624.527344 468.390625 626.828125 468.390625 629.667969"/><path fill="#4856A2" d="M 487.882812 629.667969 C 487.882812 632.507812 485.578125 634.808594 482.738281 634.808594 C 479.898438 634.808594 477.59375 632.507812 477.59375 629.667969 C 477.59375 626.828125 479.898438 624.527344 482.738281 624.527344 C 485.578125 624.527344 487.882812 626.828125 487.882812 629.667969"/><path d="M 502.933594 180.105469 L 463.777344 180.105469 C 455.761719 180.105469 450.148438 172.183594 452.816406 164.621094 L 462.3125 137.675781 L 511.519531 145.214844 L 511.519531 171.519531 C 511.519531 176.261719 507.675781 180.105469 502.933594 180.105469"/><path d="M 511.519531 145.210938 C 511.519531 159.105469 500.246094 170.375 486.347656 170.375 C 472.4375 170.375 461.164062 159.105469 461.164062 145.210938 C 461.164062 131.3125 472.4375 120.046875 486.347656 120.046875 C 500.246094 120.046875 511.519531 131.3125 511.519531 145.210938"/><path fill="#FFF" d="M 590.265625 347.492188 L 585.757812 382.039062 L 603.09375 395.210938 L 612.371094 358.15625 L 590.265625 347.492188"/><path d="M 587.050781 381.503906 L 602.355469 393.128906 L 610.945312 358.824219 L 591.257812 349.324219 Z M 603.085938 396.433594 C 602.820312 396.433594 602.566406 396.34375 602.351562 396.183594 L 585.015625 383.011719 C 584.671875 382.746094 584.488281 382.320312 584.542969 381.882812 L 589.058594 347.339844 C 589.109375 346.949219 589.34375 346.609375 589.683594 346.425781 C 590.027344 346.238281 590.445312 346.226562 590.792969 346.402344 L 612.898438 357.066406 C 613.414062 357.3125 613.6875 357.894531 613.550781 358.453125 L 604.269531 395.511719 C 604.171875 395.90625 603.875 396.226562 603.492188 396.363281 C 603.359375 396.40625 603.226562 396.433594 603.085938 396.433594"/><path d="M 504.8125 324.625 C 504.8125 324.625 584.464844 221.855469 614.273438 234.539062 C 644.082031 247.214844 632.019531 330.941406 613.640625 363.898438 L 586.667969 356.890625 L 586.667969 340.652344 L 569.589844 370.855469 L 504.8125 324.625"/><path fill="#4856A2" d="M 612.308594 370.074219 C 622.558594 377.222656 647.3125 395.128906 658.128906 410.304688 C 660.769531 414.003906 658.449219 419.183594 653.921875 419.644531 C 637.726562 421.277344 604.902344 418.871094 581.8125 399.507812 C 581.8125 399.507812 582.125 392.09375 586.835938 378.894531 L 599.121094 383.945312 L 598.191406 382.082031 C 596.792969 379.285156 597.488281 375.890625 599.875 373.867188 L 603.855469 370.480469 C 606.261719 368.441406 609.726562 368.273438 612.308594 370.074219"/><path fill="#FFF" d="M 639.753906 414.253906 C 611.160156 414.253906 585.394531 397.859375 585.09375 397.664062 C 584.53125 397.300781 584.375 396.546875 584.734375 395.984375 C 585.101562 395.421875 585.851562 395.257812 586.417969 395.621094 C 586.757812 395.839844 620.414062 417.242188 652.90625 410.523438 C 653.558594 410.382812 654.207031 410.804688 654.339844 411.46875 C 654.480469 412.125 654.054688 412.769531 653.394531 412.90625 C 648.84375 413.847656 644.261719 414.253906 639.753906 414.253906"/><path fill="#FFF" d="M 618.28125 390.828125 C 617.988281 390.828125 617.695312 390.726562 617.460938 390.515625 C 616.960938 390.0625 616.917969 389.292969 617.375 388.796875 L 625.621094 379.640625 C 626.070312 379.144531 626.839844 379.105469 627.34375 379.554688 C 627.839844 380 627.878906 380.773438 627.425781 381.273438 L 619.183594 390.421875 C 618.945312 390.691406 618.613281 390.828125 618.28125 390.828125"/><path fill="#FFF" d="M 626.109375 396.429688 C 625.785156 396.429688 625.464844 396.308594 625.226562 396.050781 C 624.761719 395.566406 624.785156 394.796875 625.273438 394.332031 L 633.949219 386.121094 C 634.433594 385.652344 635.203125 385.675781 635.664062 386.164062 C 636.128906 386.652344 636.109375 387.425781 635.621094 387.882812 L 626.945312 396.097656 C 626.710938 396.320312 626.410156 396.429688 626.109375 396.429688"/><path fill="#FFF" d="M 651.277344 539.035156 C 651.277344 539.902344 670.230469 581.230469 670.230469 581.230469 L 648.691406 582.953125 L 634.042969 547.648438 L 651.277344 539.035156"/><path d="M 652.492188 539.03125 Z M 652.492188 539.035156 Z M 635.601562 548.230469 L 649.472656 581.671875 L 668.394531 580.15625 C 655.859375 552.808594 651.890625 543.792969 650.636719 540.714844 Z M 648.691406 584.171875 C 648.195312 584.171875 647.753906 583.875 647.5625 583.421875 L 632.914062 548.117188 C 632.675781 547.527344 632.929688 546.84375 633.5 546.5625 L 650.726562 537.949219 C 651.105469 537.761719 651.554688 537.78125 651.914062 538.003906 C 652.210938 538.183594 652.410156 538.480469 652.472656 538.816406 C 653.054688 540.65625 664.042969 564.820312 671.335938 580.722656 C 671.5 581.085938 671.480469 581.507812 671.28125 581.847656 C 671.074219 582.1875 670.71875 582.414062 670.328125 582.445312 L 648.785156 584.167969 C 648.753906 584.171875 648.722656 584.171875 648.691406 584.171875"/><path fill="#4856A2" d="M 650.414062 572.621094 C 650.414062 572.621094 654.722656 562.285156 665.921875 567.453125 C 665.921875 567.453125 686.484375 597.136719 694.121094 621.644531 C 696.285156 628.574219 689.164062 634.820312 682.542969 631.835938 C 667.050781 624.84375 642.761719 610.164062 628.875 582.953125 C 628.875 582.953125 633.183594 571.761719 640.078125 566.59375 L 650.414062 572.621094"/><path fill="#FFF" d="M 687.8125 625.578125 C 682.015625 625.578125 660.753906 622.6875 633.058594 584.53125 C 632.664062 583.988281 632.785156 583.222656 633.328125 582.828125 C 633.871094 582.4375 634.632812 582.558594 635.023438 583.101562 C 665.976562 625.734375 688.777344 623.113281 689.007812 623.082031 C 689.675781 622.988281 690.289062 623.449219 690.386719 624.117188 C 690.480469 624.777344 690.019531 625.390625 689.355469 625.492188 C 689.230469 625.507812 688.703125 625.578125 687.8125 625.578125"/><path fill="#FFF" d="M 670.226562 602.253906 C 669.8125 602.253906 669.398438 602.039062 669.171875 601.652344 C 668.835938 601.070312 669.03125 600.324219 669.613281 599.988281 L 679.953125 593.957031 C 680.53125 593.621094 681.28125 593.8125 681.617188 594.394531 C 681.957031 594.976562 681.761719 595.722656 681.179688 596.058594 L 670.839844 602.089844 C 670.648438 602.199219 670.4375 602.253906 670.226562 602.253906"/><path fill="#FFF" d="M 665.0625 594.503906 C 664.625 594.503906 664.207031 594.273438 663.984375 593.863281 C 663.667969 593.273438 663.886719 592.535156 664.480469 592.214844 L 675.683594 586.1875 C 676.277344 585.871094 677.015625 586.089844 677.332031 586.679688 C 677.652344 587.273438 677.429688 588.011719 676.835938 588.332031 L 665.636719 594.359375 C 665.453125 594.457031 665.253906 594.503906 665.0625 594.503906"/><path d="M 658.167969 546.789062 L 628.871094 555.398438 C 628.871094 555.398438 575.457031 442.59375 559.949219 426.234375 C 544.445312 409.875 514.289062 383.179688 482.410156 373.710938 C 450.53125 364.238281 450.53125 340.125 450.53125 340.125 L 520.082031 315.285156 C 520.082031 315.285156 580.625 357.351562 605.609375 394.375 C 630.597656 431.402344 658.167969 546.789062 658.167969 546.789062"/><path fill="#FFF" d="M 580.953125 366.875 C 580.640625 366.875 580.320312 366.75 580.082031 366.507812 C 572.011719 358.199219 548.125 338.140625 547.882812 337.933594 C 547.367188 337.5 547.300781 336.738281 547.734375 336.222656 C 548.164062 335.707031 548.933594 335.640625 549.449219 336.074219 C 549.695312 336.273438 573.679688 356.417969 581.832031 364.808594 C 582.296875 365.292969 582.285156 366.0625 581.804688 366.53125 C 581.570312 366.761719 581.261719 366.875 580.953125 366.875"/><path fill="#4856A2" d="M 501.246094 188.523438 C 501.246094 188.523438 527.0625 192.257812 543.078125 210.957031 C 559.085938 229.65625 583.429688 266.285156 584.046875 293.375 C 584.671875 320.464844 550.304688 310.359375 536.132812 290.710938 C 521.960938 271.0625 501.246094 188.523438 501.246094 188.523438"/><path fill="#4856A2" d="M 446.125 193.523438 C 446.125 193.523438 483.695312 178.832031 524.894531 196.324219 L 547.449219 309.003906 C 489.511719 337 474.4375 410.972656 449.457031 351.332031 C 441.429688 332.164062 441.40625 309.734375 441.429688 305.851562 L 446.125 193.523438"/><path fill="#FFF" d="M 580.398438 242.78125 C 580.398438 242.78125 586.597656 288.246094 583.953125 296.386719 C 581.308594 304.53125 577.613281 314.359375 567.617188 305.539062 C 557.617188 296.71875 569.0625 252.828125 569.0625 252.828125 L 580.398438 242.78125"/><path d="M 570.148438 253.488281 C 566.988281 265.773438 560.757812 297.863281 568.421875 304.625 C 571.300781 307.160156 573.734375 308.179688 575.675781 307.652344 C 579.066406 306.726562 581.132812 301.15625 582.800781 296.007812 C 584.726562 290.066406 581.632812 261.40625 579.492188 245.207031 Z M 574.601562 310.226562 C 572.25 310.226562 569.679688 308.984375 566.8125 306.449219 C 556.371094 297.238281 567.410156 254.335938 567.886719 252.515625 C 567.949219 252.28125 568.078125 252.070312 568.253906 251.914062 L 579.589844 241.871094 C 579.925781 241.570312 580.398438 241.484375 580.820312 241.640625 C 581.242188 241.792969 581.539062 242.171875 581.605469 242.617188 C 581.855469 244.484375 587.8125 288.449219 585.117188 296.757812 C 583.164062 302.773438 580.875 308.75 576.316406 309.996094 C 575.757812 310.152344 575.1875 310.226562 574.601562 310.226562"/><path fill="#FFF" d="M 555.683594 269.171875 L 553.328125 267.785156 L 580.644531 217.882812 L 600.253906 217.578125 L 602.609375 218.964844 L 555.683594 269.171875"/><path d="M 575.292969 268.867188 L 555.683594 269.171875 L 582.996094 219.265625 L 602.609375 218.964844 L 575.292969 268.867188"/><path d="M 537.882812 277.371094 C 537.316406 277.371094 536.816406 276.980469 536.691406 276.402344 L 525.570312 223.382812 C 525.429688 222.726562 525.851562 222.078125 526.511719 221.945312 C 527.164062 221.808594 527.816406 222.226562 527.953125 222.882812 L 539.078125 275.902344 C 539.21875 276.5625 538.792969 277.207031 538.132812 277.347656 C 538.046875 277.363281 537.964844 277.371094 537.882812 277.371094"/><path fill="#4856A2" d="M 497.386719 285.1875 C 491.265625 284.917969 485.0625 283.734375 479.078125 281.222656 C 446.789062 267.6875 465.976562 215.476562 465.976562 215.476562 L 446.125 193.527344 C 392.945312 235.578125 412.550781 300.945312 458.777344 316.152344 C 474.894531 321.453125 489.964844 320.457031 503.199219 316.433594 C 491.46875 304.207031 494.015625 292.246094 497.386719 285.1875"/><path fill="#FFF" d="M 575.164062 252.554688 L 573.648438 243.148438 L 557.226562 261.363281 L 561.90625 252.46875 C 561.90625 252.46875 557.933594 253.808594 554.773438 257.191406 C 551.707031 260.476562 547.996094 270.472656 547.769531 271.078125 C 541.230469 274.882812 519.808594 286.175781 497.394531 285.1875 C 494.015625 292.246094 490.417969 303.054688 502.144531 315.28125 C 533.550781 305.726562 555.644531 280.238281 555.644531 280.238281 C 569.992188 273.050781 575.164062 252.554688 575.164062 252.554688"/><path d="M 498.148438 286.4375 C 494.8125 293.691406 492.628906 303.214844 502.503906 313.898438 C 532.816406 304.390625 554.5 279.695312 554.714844 279.445312 C 554.820312 279.324219 554.949219 279.226562 555.089844 279.15625 C 567.976562 272.699219 573.289062 254.757812 573.914062 252.496094 L 572.84375 245.855469 L 558.125 262.183594 C 557.710938 262.640625 557.027344 262.71875 556.523438 262.367188 C 556.023438 262.015625 555.855469 261.34375 556.140625 260.800781 L 559.0625 255.25 C 557.980469 255.933594 556.761719 256.851562 555.65625 258.03125 C 553.320312 260.53125 550.222656 267.9375 548.90625 271.503906 C 548.808594 271.769531 548.625 271.992188 548.378906 272.136719 C 542.257812 275.695312 520.722656 287.15625 498.148438 286.4375 Z M 502.136719 316.503906 C 501.808594 316.503906 501.492188 316.371094 501.257812 316.128906 C 489.417969 303.78125 492.382812 292.828125 496.285156 284.667969 C 496.496094 284.226562 496.933594 283.953125 497.445312 283.976562 C 519.226562 284.941406 540.257812 273.996094 546.777344 270.246094 C 547.601562 268.0625 550.933594 259.519531 553.878906 256.367188 C 557.210938 252.800781 561.335938 251.378906 561.515625 251.320312 C 561.984375 251.164062 562.503906 251.304688 562.828125 251.6875 C 563.148438 252.066406 563.210938 252.601562 562.980469 253.042969 L 562.828125 253.332031 L 572.734375 242.339844 C 573.050781 241.988281 573.535156 241.855469 573.988281 241.988281 C 574.4375 242.121094 574.773438 242.496094 574.84375 242.957031 L 576.363281 252.367188 C 576.386719 252.53125 576.378906 252.699219 576.339844 252.859375 C 576.125 253.714844 570.914062 273.78125 556.394531 281.222656 C 554.300781 283.5625 532.464844 307.328125 502.492188 316.449219 C 502.375 316.488281 502.253906 316.503906 502.136719 316.503906"/><path d="M 485.941406 285.308594 C 485.808594 285.308594 485.679688 285.285156 485.542969 285.242188 C 460.4375 276.683594 458.574219 255.964844 459.753906 238.875 C 459.800781 238.203125 460.398438 237.699219 461.054688 237.742188 C 461.726562 237.789062 462.230469 238.371094 462.1875 239.042969 C 460.496094 263.460938 467.722656 276.59375 486.332031 282.9375 C 486.96875 283.152344 487.308594 283.84375 487.09375 284.480469 C 486.921875 284.988281 486.445312 285.308594 485.941406 285.308594"/><path d="M 484.347656 320.882812 C 484.324219 320.882812 484.300781 320.882812 484.273438 320.882812 C 464.21875 319.6875 451.515625 316.574219 444.292969 311.074219 C 443.761719 310.667969 443.65625 309.90625 444.066406 309.367188 C 444.472656 308.835938 445.238281 308.734375 445.773438 309.140625 C 452.496094 314.257812 465.136719 317.304688 484.421875 318.449219 C 485.089844 318.488281 485.601562 319.066406 485.558594 319.738281 C 485.523438 320.382812 484.988281 320.882812 484.347656 320.882812"/><path fill="#FFF" d="M 497.15625 172.582031 C 505.601562 170.90625 509.121094 144.636719 509.238281 144.269531 C 509.242188 144.257812 509.242188 144.242188 509.242188 144.234375 L 481.785156 142.460938 C 482.3125 143.90625 482.839844 145.222656 482.984375 146.132812 C 483.488281 149.226562 478.320312 145.355469 476.085938 146.359375 C 474.605469 147.015625 474.039062 149.03125 475.484375 151.78125 C 476.390625 153.503906 477.898438 155.183594 479.25 155.988281 C 479.464844 157.617188 479.894531 159.230469 480.5 160.777344 L 480.4375 160.75 L 473.039062 183.546875 L 458 190.234375 C 494.394531 206.386719 505.921875 190.296875 505.921875 190.296875 L 492.097656 185.066406 L 493.660156 172.675781 C 494.808594 172.832031 495.980469 172.816406 497.15625 172.582031"/><path d="M 497.160156 172.574219 L 497.167969 172.574219 Z M 461.046875 190.214844 C 488.03125 201.417969 500.199219 193.921875 503.765625 190.777344 L 491.671875 186.199219 C 491.140625 185.996094 490.824219 185.464844 490.890625 184.910156 L 492.457031 172.519531 C 492.496094 172.195312 492.667969 171.90625 492.917969 171.707031 C 493.175781 171.507812 493.503906 171.421875 493.820312 171.464844 C 494.882812 171.605469 495.921875 171.582031 496.925781 171.382812 C 501.152344 170.542969 505.308594 160.597656 507.828125 145.355469 L 483.578125 143.792969 C 483.863281 144.597656 484.089844 145.3125 484.1875 145.933594 C 484.382812 147.113281 483.96875 147.757812 483.582031 148.089844 C 482.597656 148.945312 481.191406 148.5 479.574219 147.992188 C 478.597656 147.679688 477.128906 147.21875 476.582031 147.464844 C 476.289062 147.59375 476.082031 147.828125 475.972656 148.15625 C 475.714844 148.894531 475.929688 150.003906 476.566406 151.210938 C 477.351562 152.710938 478.714844 154.238281 479.875 154.9375 C 480.195312 155.125 480.414062 155.453125 480.460938 155.828125 C 480.660156 157.3125 481.050781 158.828125 481.636719 160.332031 C 481.796875 160.734375 481.730469 161.1875 481.46875 161.519531 L 474.203125 183.917969 C 474.097656 184.25 473.855469 184.511719 473.539062 184.65625 Z M 486.753906 198.679688 C 479.464844 198.679688 469.894531 196.839844 457.511719 191.347656 C 457.074219 191.148438 456.789062 190.714844 456.789062 190.230469 C 456.789062 189.753906 457.074219 189.3125 457.511719 189.121094 L 472.054688 182.652344 L 479.175781 160.699219 C 478.6875 159.367188 478.339844 158.027344 478.125 156.699219 C 476.722656 155.699219 475.304688 154.054688 474.40625 152.34375 C 473.183594 150.003906 473.328125 148.347656 473.667969 147.359375 C 474.003906 146.398438 474.679688 145.644531 475.589844 145.242188 C 476.984375 144.621094 478.746094 145.175781 480.308594 145.667969 C 480.738281 145.804688 481.316406 145.984375 481.738281 146.074219 C 481.589844 145.433594 481.257812 144.523438 480.902344 143.574219 L 480.644531 142.875 C 480.507812 142.488281 480.566406 142.058594 480.816406 141.730469 C 481.058594 141.394531 481.457031 141.222656 481.867188 141.242188 L 509.328125 143.011719 C 509.695312 143.039062 510.035156 143.226562 510.25 143.527344 C 510.457031 143.832031 510.519531 144.214844 510.417969 144.570312 C 510.417969 144.589844 510.394531 144.734375 510.355469 144.964844 C 508.742188 155.082031 504.914062 172.28125 497.394531 173.769531 C 496.527344 173.941406 495.628906 174.011719 494.726562 173.980469 L 493.429688 184.261719 L 506.355469 189.15625 C 506.707031 189.292969 506.980469 189.578125 507.089844 189.941406 C 507.203125 190.300781 507.132812 190.695312 506.914062 191.003906 C 506.585938 191.460938 501.164062 198.679688 486.753906 198.679688"/><path fill="#FFF" d="M 485.351562 166.074219 C 485.351562 166.074219 487.058594 172.148438 493.65625 172.675781 L 485.351562 166.074219"/><path d="M 493.664062 173.894531 C 493.628906 173.894531 493.597656 173.894531 493.5625 173.890625 C 486.195312 173.296875 484.261719 166.683594 484.183594 166.40625 C 484 165.757812 484.378906 165.082031 485.027344 164.90625 C 485.671875 164.722656 486.339844 165.097656 486.527344 165.738281 C 486.589844 165.957031 488.117188 171.007812 493.757812 171.460938 C 494.429688 171.515625 494.925781 172.101562 494.875 172.773438 C 494.820312 173.410156 494.289062 173.894531 493.664062 173.894531"/><path fill="#8685B1" d="M 345.738281 708.507812 C 345.738281 708.507812 311.195312 632.828125 331.011719 534.722656 C 331.011719 534.722656 384.546875 579.5625 365.246094 708.507812 L 345.738281 708.507812"/><path d="M 346.535156 707.289062 L 364.199219 707.289062 C 373.871094 641.535156 364.140625 598.375 354.238281 573.714844 C 345.671875 552.382812 335.574219 540.933594 331.777344 537.121094 C 322.144531 586.671875 326.617188 630.167969 332.121094 658.085938 C 337.523438 685.476562 344.9375 703.566406 346.535156 707.289062 Z M 365.246094 709.722656 L 345.738281 709.722656 C 345.261719 709.722656 344.828125 709.445312 344.632812 709.011719 C 344.542969 708.820312 335.867188 689.605469 329.75 658.640625 C 324.109375 630.082031 319.539062 585.355469 329.816406 534.484375 C 329.902344 534.058594 330.203125 533.714844 330.605469 533.574219 C 331.011719 533.429688 331.464844 533.511719 331.792969 533.789062 C 332.351562 534.253906 345.535156 545.511719 356.496094 572.804688 C 366.5625 597.878906 376.464844 641.808594 366.453125 708.6875 C 366.363281 709.285156 365.851562 709.722656 365.246094 709.722656"/><path fill="#FFF" d="M 354.1875 701.835938 C 354.164062 701.835938 354.140625 701.832031 354.121094 701.832031 C 353.445312 701.792969 352.933594 701.21875 352.96875 700.546875 C 355.613281 652.195312 333.792969 548.945312 333.570312 547.90625 C 333.433594 547.25 333.851562 546.605469 334.507812 546.460938 C 335.167969 546.324219 335.8125 546.746094 335.953125 547.402344 C 336.175781 548.441406 358.0625 652.003906 355.402344 700.679688 C 355.367188 701.332031 354.832031 701.835938 354.1875 701.835938"/><path fill="#FFF" d="M 380.492188 585.46875 C 380.492188 585.46875 335.984375 665.839844 362.753906 700.613281 L 377.078125 700.613281 C 377.078125 700.613281 405.695312 637.792969 380.492188 585.46875"/><path d="M 363.363281 699.398438 L 376.28125 699.398438 C 379.246094 692.421875 401.925781 635.980469 380.421875 588.199219 C 373.714844 601.078125 340.488281 668.554688 363.363281 699.398438 Z M 377.078125 701.835938 L 362.753906 701.835938 C 362.378906 701.835938 362.019531 701.660156 361.792969 701.355469 C 350.429688 686.601562 349.972656 662.46875 360.421875 629.628906 C 368.152344 605.355469 379.316406 585.078125 379.425781 584.878906 C 379.644531 584.480469 380.050781 584.230469 380.527344 584.253906 C 380.980469 584.261719 381.394531 584.527344 381.589844 584.941406 C 394.75 612.261719 393.121094 642.402344 389.4375 662.878906 C 385.449219 685.015625 378.257812 700.960938 378.1875 701.121094 C 377.984375 701.554688 377.554688 701.835938 377.078125 701.835938"/><path d="M 369.445312 703.964844 C 368.792969 703.964844 368.25 703.449219 368.226562 702.792969 C 366.9375 669.597656 379.164062 586.132812 379.285156 585.289062 C 379.382812 584.628906 380.007812 584.160156 380.667969 584.261719 C 381.332031 584.363281 381.792969 584.980469 381.695312 585.644531 C 381.570312 586.484375 369.378906 669.726562 370.660156 702.699219 C 370.6875 703.367188 370.164062 703.933594 369.492188 703.960938 C 369.476562 703.964844 369.457031 703.964844 369.445312 703.964844"/><path fill="#FFF" d="M 295.519531 615.429688 C 295.519531 615.429688 333.433594 628.359375 347.160156 704.902344 L 332.246094 704.902344 C 332.246094 704.902344 301.128906 662.863281 295.519531 615.429688"/><path d="M 332.871094 703.683594 L 345.703125 703.683594 C 333.832031 639.625 304.667969 621.214844 296.996094 617.410156 C 302.796875 660.40625 329.464844 698.914062 332.871094 703.683594 Z M 347.160156 706.117188 L 332.246094 706.117188 C 331.859375 706.117188 331.496094 705.933594 331.269531 705.625 C 330.957031 705.203125 299.890625 662.78125 294.308594 615.574219 C 294.261719 615.15625 294.425781 614.746094 294.753906 614.484375 C 295.078125 614.21875 295.515625 614.140625 295.910156 614.277344 C 296.308594 614.414062 305.828125 617.765625 317.109375 630.660156 C 327.425781 642.457031 341.21875 664.871094 348.359375 704.6875 C 348.421875 705.039062 348.328125 705.40625 348.09375 705.679688 C 347.863281 705.957031 347.523438 706.117188 347.160156 706.117188"/><path d="M 339.011719 703.964844 C 338.421875 703.964844 337.90625 703.539062 337.808594 702.941406 C 332.179688 668.917969 307.78125 634.617188 307.535156 634.277344 C 307.144531 633.730469 307.269531 632.96875 307.816406 632.578125 C 308.363281 632.183594 309.125 632.308594 309.515625 632.855469 C 309.761719 633.203125 334.484375 667.953125 340.214844 702.542969 C 340.324219 703.210938 339.871094 703.835938 339.210938 703.945312 C 339.144531 703.957031 339.074219 703.964844 339.011719 703.964844"/><path fill="#4856A2" d="M 310.144531 698.824219 L 403.683594 698.824219 L 405.78125 743.046875 C 406.296875 753.886719 397.636719 762.960938 386.78125 762.960938 L 333.355469 762.960938 C 320.507812 762.960938 310.09375 752.542969 310.105469 739.699219 L 310.144531 698.824219"/><path d="M 534.511719 468.066406 C 533.851562 468.066406 533.3125 467.535156 533.296875 466.875 L 533.203125 462.558594 C 533.1875 461.886719 533.722656 461.332031 534.394531 461.316406 C 534.402344 461.316406 534.410156 461.316406 534.421875 461.316406 C 535.078125 461.316406 535.621094 461.84375 535.636719 462.507812 L 535.730469 466.824219 C 535.746094 467.492188 535.210938 468.050781 534.539062 468.066406 C 534.53125 468.066406 534.519531 468.066406 534.511719 468.066406"/><path d="M 534.839844 483.171875 C 534.179688 483.171875 533.632812 482.640625 533.617188 481.976562 L 533.53125 477.667969 C 533.515625 476.992188 534.046875 476.433594 534.71875 476.421875 C 534.726562 476.421875 534.738281 476.421875 534.746094 476.421875 C 535.40625 476.421875 535.945312 476.945312 535.960938 477.613281 L 536.058594 481.929688 C 536.070312 482.601562 535.535156 483.15625 534.863281 483.171875 C 534.855469 483.171875 534.851562 483.171875 534.839844 483.171875"/><path d="M 525.050781 473.539062 C 524.378906 473.539062 523.839844 473 523.832031 472.328125 C 523.832031 471.660156 524.371094 471.109375 525.042969 471.105469 L 529.300781 471.070312 C 529.300781 471.070312 529.300781 471.070312 529.308594 471.070312 C 529.976562 471.070312 530.519531 471.609375 530.523438 472.277344 C 530.53125 472.953125 529.992188 473.5 529.316406 473.507812 L 525.058594 473.539062 C 525.058594 473.539062 525.054688 473.539062 525.050781 473.539062"/><path d="M 539.945312 473.417969 C 539.277344 473.417969 538.730469 472.878906 538.726562 472.210938 C 538.71875 471.542969 539.261719 470.992188 539.933594 470.984375 L 544.191406 470.953125 C 544.847656 470.945312 545.410156 471.484375 545.417969 472.160156 C 545.421875 472.835938 544.878906 473.382812 544.207031 473.390625 L 539.953125 473.417969 C 539.949219 473.417969 539.949219 473.417969 539.945312 473.417969"/><path d="M 529.304688 716.433594 C 529 716.433594 528.683594 716.316406 528.445312 716.078125 C 527.972656 715.601562 527.972656 714.832031 528.445312 714.355469 L 615.082031 627.765625 C 615.554688 627.292969 616.328125 627.292969 616.800781 627.765625 C 617.277344 628.242188 617.277344 629.011719 616.800781 629.488281 L 530.164062 716.078125 C 529.933594 716.316406 529.617188 716.433594 529.304688 716.433594"/><path d="M 493.660156 723.8125 C 493.351562 723.8125 493.042969 723.691406 492.800781 723.457031 C 492.328125 722.980469 492.328125 722.210938 492.800781 721.734375 L 541.296875 673.269531 C 541.769531 672.792969 542.539062 672.792969 543.015625 673.269531 C 543.492188 673.742188 543.492188 674.515625 543.015625 674.988281 L 494.527344 723.457031 C 494.285156 723.691406 493.972656 723.8125 493.660156 723.8125"/><path d="M 418.542969 114.703125 C 416.828125 114.703125 415.4375 116.09375 415.4375 117.804688 C 415.4375 119.515625 416.828125 120.90625 418.542969 120.90625 C 420.25 120.90625 421.648438 119.515625 421.648438 117.804688 C 421.648438 116.09375 420.25 114.703125 418.542969 114.703125 Z M 418.542969 123.34375 C 415.484375 123.34375 413 120.855469 413 117.804688 C 413 114.753906 415.484375 112.269531 418.542969 112.269531 C 421.597656 112.269531 424.078125 114.753906 424.078125 117.804688 C 424.078125 120.855469 421.597656 123.34375 418.542969 123.34375"/><path d="M 670.222656 335.160156 C 663.402344 335.160156 657.855469 329.613281 657.855469 322.789062 C 657.855469 315.976562 663.402344 310.429688 670.222656 310.429688 C 670.898438 310.429688 671.441406 310.96875 671.441406 311.644531 C 671.441406 312.316406 670.898438 312.863281 670.222656 312.863281 C 664.746094 312.863281 660.289062 317.316406 660.289062 322.789062 C 660.289062 328.269531 664.746094 332.71875 670.222656 332.71875 C 675.707031 332.71875 680.15625 328.269531 680.15625 322.789062 C 680.15625 322.117188 680.707031 321.574219 681.378906 321.574219 C 682.050781 321.574219 682.597656 322.117188 682.597656 322.789062 C 682.597656 329.613281 677.046875 335.160156 670.222656 335.160156"/><path fill="#FFF" d="M 307.609375 171.933594 C 307.609375 175.269531 304.898438 177.972656 301.5625 177.972656 C 298.226562 177.972656 295.519531 175.269531 295.519531 171.933594 C 295.519531 168.597656 298.226562 165.890625 301.5625 165.890625 C 304.898438 165.890625 307.609375 168.597656 307.609375 171.933594"/><path d="M 350.257812 179.074219 C 349.945312 179.074219 349.632812 178.953125 349.394531 178.714844 C 348.921875 178.242188 348.921875 177.472656 349.394531 176.996094 L 394.359375 132.054688 C 394.835938 131.578125 395.601562 131.578125 396.082031 132.054688 C 396.554688 132.53125 396.554688 133.300781 396.082031 133.777344 L 351.121094 178.714844 C 350.878906 178.953125 350.566406 179.074219 350.257812 179.074219"/><path d="M 649.960938 441.453125 C 649.644531 441.453125 649.332031 441.332031 649.097656 441.097656 C 648.617188 440.621094 648.617188 439.851562 649.097656 439.375 L 699.105469 389.390625 C 699.582031 388.917969 700.355469 388.917969 700.828125 389.390625 C 701.304688 389.863281 701.304688 390.636719 700.828125 391.109375 L 650.820312 441.097656 C 650.582031 441.332031 650.269531 441.453125 649.960938 441.453125"/></svg>