<svg width="72" height="72" fill="none" xmlns="http://www.w3.org/2000/svg"><path d="M32.04 7.43a.562.562 0 0 1 .563-.563h2.834V4.035a.562.562 0 0 1 1.126 0v2.832h2.812a.562.562 0 1 1 0 1.124h-2.813v2.844a.562.562 0 0 1-1.124 0V7.99h-2.813a.563.563 0 0 1-.585-.562zm26.269 63.446h6.75V33.235a3.988 3.988 0 0 0-4.017-3.945H58.31v41.586zm-30.971 0h8.1v-19.23h-8.1v19.23zm-20.442 0h6.75V29.29H10.88a3.996 3.996 0 0 0-3.983 3.979v37.607zM49.5 28.593a.562.562 0 0 1-.563.562H41.84a.563.563 0 0 1-.563-.562v-8.767a.573.573 0 0 1 .563-.562h7.11a.575.575 0 0 1 .562.562l-.011 8.767zm-1.125-8.205h-5.974v7.643h5.974v-7.643zM30.712 31.156v8.767a.573.573 0 0 1-.562.561h-7.099a.574.574 0 0 1-.562-.562v-8.766a.562.562 0 0 1 .562-.562h7.11a.564.564 0 0 1 .563.562h-.012zm-1.125.562h-5.962v7.687h5.985l-.023-7.687zm19.362 8.811a.574.574 0 0 0 .562-.562v-8.766a.562.562 0 0 0-.562-.562h-7.11a.563.563 0 0 0-.563.562v8.766a.573.573 0 0 0 .563.562h4.837a.563.563 0 0 0 0-1.124h-4.275v-7.642h5.974v8.204a.561.561 0 0 0 .574.562zM30.724 19.826a.573.573 0 0 0-.563-.562h-7.11a.575.575 0 0 0-.562.562v8.767a.562.562 0 0 0 .562.562h4.838a.563.563 0 0 0 0-1.124h-4.264v-7.643h5.985v8.205a.562.562 0 0 0 1.125 0l-.011-8.767zM72 71.438a.562.562 0 0 1-.563.562H.564a.563.563 0 1 1 0-1.124H5.77V33.235a5.112 5.112 0 0 1 1.511-3.583 5.121 5.121 0 0 1 3.597-1.486h2.812V15.094a6.02 6.02 0 0 1 3.712-5.572 6.035 6.035 0 0 1 2.307-.463h9.113a7.38 7.38 0 0 1 1.713-6.622 7.394 7.394 0 0 1 12.736 3.51c.358 1.8.032 3.67-.915 5.243a7.39 7.39 0 0 1-9.516 2.86 7.387 7.387 0 0 1-3.659-3.867H19.71a4.896 4.896 0 0 0-3.46 1.432 4.887 4.887 0 0 0-1.434 3.457v55.804h11.396V51.083a.562.562 0 0 1 .563-.562h18.45a.562.562 0 0 1 .563.562V65.83a.562.562 0 0 1-1.125 0V51.645h-8.1v19.231h20.62V15.094a4.886 4.886 0 0 0-3.015-4.537 4.898 4.898 0 0 0-1.878-.374h-7.762a.562.562 0 1 1 0-1.124h7.762a6.033 6.033 0 0 1 4.253 1.764 6.021 6.021 0 0 1 1.766 4.249v13.094h2.733a5.121 5.121 0 0 1 3.609 1.498 5.112 5.112 0 0 1 1.499 3.605v37.607h5.287a.563.563 0 0 1 .563.562zM29.756 7.429a6.234 6.234 0 0 0 3.855 5.763 6.249 6.249 0 0 0 6.804-1.352A6.236 6.236 0 0 0 36 1.19a6.258 6.258 0 0 0-4.412 1.83 6.246 6.246 0 0 0-1.832 4.408z" fill="#00B0CA"/></svg>