<svg xmlns="http://www.w3.org/2000/svg" width="810" viewBox="0 0 810 810" height="810" version="1.0"><defs><clipPath id="a"><path d="M 23 76 L 786 76 L 786 728.949219 L 23 728.949219 Z M 23 76"/></clipPath></defs><g clip-path="url(#a)"><path fill="#0CC3A7" d="M 750.800781 158.34375 C 695.484375 71.167969 580.132812 64.15625 508.058594 88.847656 C 452.132812 108.050781 411.90625 161.390625 404.894531 170.535156 C 397.886719 161.390625 359.179688 109.117188 303.257812 90.066406 C 231.179688 65.375 114.304688 71.167969 58.992188 158.34375 C 37.046875 192.9375 -31.980469 304.804688 117.65625 477.632812 C 117.65625 477.632812 259.21875 641.160156 389.960938 720.257812 C 395.90625 723.765625 403.523438 728.488281 404.132812 728.183594 C 404.742188 728.488281 413.125 723.917969 419.066406 720.257812 C 549.808594 641.160156 692.132812 477.632812 692.132812 477.632812 C 841.769531 304.804688 772.742188 192.9375 750.800781 158.34375 Z M 750.800781 158.34375"/></g><path fill="#F4F6FC" d="M 380.972656 565.417969 C 375.789062 565.417969 371.066406 562.214844 369.238281 557.1875 L 279.789062 318.367188 L 245.960938 427.03125 C 244.285156 432.214844 239.410156 436.175781 233.925781 436.175781 L 137.925781 436.175781 C 130.914062 436.175781 125.277344 430.234375 125.277344 423.222656 C 125.277344 416.210938 130.914062 410.269531 137.925781 410.269531 L 224.628906 410.269531 L 266.6875 275.695312 C 268.363281 270.511719 272.933594 267.007812 278.417969 266.855469 C 283.90625 266.703125 288.628906 270.054688 290.609375 275.085938 L 378.992188 511.007812 L 425.464844 332.695312 C 426.839844 327.511719 431.257812 323.855469 436.4375 323.398438 C 441.617188 322.941406 446.648438 325.683594 448.933594 330.5625 L 485.960938 408.4375 L 526.648438 245.214844 C 528.019531 239.878906 532.742188 235.917969 538.226562 235.765625 C 543.714844 235.460938 548.894531 238.964844 550.722656 244.148438 L 580.589844 329.035156 L 696.246094 329.339844 C 703.257812 329.339844 708.742188 334.066406 708.742188 340.925781 C 708.742188 347.933594 703.105469 352.507812 696.09375 352.507812 L 571.445312 353.117188 C 566.113281 353.117188 561.390625 350.222656 559.5625 345.191406 L 540.667969 291.699219 L 501.503906 448.371094 C 500.285156 453.550781 495.867188 457.359375 490.53125 457.972656 C 485.199219 458.429688 480.171875 455.683594 477.886719 450.808594 L 440.550781 372.472656 L 392.703125 555.96875 C 391.332031 561.300781 386.609375 565.109375 381.125 565.417969 C 381.429688 565.417969 381.277344 565.417969 380.972656 565.417969 Z M 380.972656 565.417969"/><path fill="#F4F6FC" d="M 163.828125 420.480469 C 163.828125 421.371094 163.785156 422.265625 163.699219 423.152344 C 163.609375 424.042969 163.480469 424.925781 163.304688 425.800781 C 163.128906 426.679688 162.914062 427.542969 162.65625 428.398438 C 162.394531 429.253906 162.09375 430.09375 161.753906 430.917969 C 161.410156 431.746094 161.03125 432.550781 160.609375 433.339844 C 160.1875 434.128906 159.730469 434.894531 159.230469 435.636719 C 158.734375 436.378906 158.203125 437.09375 157.636719 437.785156 C 157.070312 438.476562 156.472656 439.136719 155.839844 439.769531 C 155.207031 440.402344 154.546875 441 153.855469 441.566406 C 153.167969 442.132812 152.449219 442.664062 151.707031 443.164062 C 150.964844 443.660156 150.199219 444.117188 149.410156 444.539062 C 148.625 444.960938 147.816406 445.339844 146.992188 445.683594 C 146.164062 446.023438 145.324219 446.324219 144.472656 446.585938 C 143.617188 446.84375 142.75 447.0625 141.875 447.234375 C 141 447.410156 140.117188 447.539062 139.226562 447.628906 C 138.335938 447.714844 137.445312 447.761719 136.554688 447.761719 C 135.660156 447.761719 134.769531 447.714844 133.878906 447.628906 C 132.992188 447.539062 132.109375 447.410156 131.230469 447.234375 C 130.355469 447.0625 129.488281 446.84375 128.636719 446.585938 C 127.78125 446.324219 126.941406 446.023438 126.113281 445.683594 C 125.289062 445.339844 124.484375 444.960938 123.695312 444.539062 C 122.90625 444.117188 122.140625 443.660156 121.398438 443.164062 C 120.65625 442.664062 119.941406 442.132812 119.25 441.566406 C 118.558594 441 117.898438 440.402344 117.265625 439.769531 C 116.632812 439.136719 116.035156 438.476562 115.46875 437.785156 C 114.902344 437.09375 114.371094 436.378906 113.875 435.636719 C 113.378906 434.894531 112.917969 434.128906 112.496094 433.339844 C 112.078125 432.550781 111.695312 431.746094 111.351562 430.917969 C 111.011719 430.09375 110.710938 429.253906 110.453125 428.398438 C 110.191406 427.542969 109.976562 426.679688 109.800781 425.800781 C 109.625 424.925781 109.496094 424.042969 109.410156 423.152344 C 109.320312 422.265625 109.277344 421.371094 109.277344 420.480469 C 109.277344 419.585938 109.320312 418.695312 109.410156 417.804688 C 109.496094 416.917969 109.625 416.035156 109.800781 415.15625 C 109.976562 414.28125 110.191406 413.414062 110.453125 412.558594 C 110.710938 411.707031 111.011719 410.863281 111.351562 410.039062 C 111.695312 409.214844 112.078125 408.40625 112.496094 407.621094 C 112.917969 406.832031 113.378906 406.066406 113.875 405.324219 C 114.371094 404.582031 114.902344 403.863281 115.46875 403.171875 C 116.035156 402.480469 116.632812 401.820312 117.265625 401.1875 C 117.898438 400.558594 118.558594 399.957031 119.25 399.390625 C 119.941406 398.824219 120.65625 398.292969 121.398438 397.796875 C 122.140625 397.300781 122.90625 396.839844 123.695312 396.421875 C 124.484375 396 125.289062 395.617188 126.113281 395.277344 C 126.941406 394.933594 127.78125 394.632812 128.636719 394.375 C 129.488281 394.113281 130.355469 393.898438 131.230469 393.722656 C 132.109375 393.546875 132.992188 393.417969 133.878906 393.332031 C 134.769531 393.242188 135.660156 393.199219 136.554688 393.199219 C 137.445312 393.199219 138.335938 393.242188 139.226562 393.332031 C 140.117188 393.417969 141 393.546875 141.875 393.722656 C 142.75 393.898438 143.617188 394.113281 144.472656 394.375 C 145.324219 394.632812 146.164062 394.933594 146.992188 395.277344 C 147.816406 395.617188 148.625 396 149.410156 396.421875 C 150.199219 396.839844 150.964844 397.300781 151.707031 397.796875 C 152.449219 398.292969 153.167969 398.824219 153.855469 399.390625 C 154.546875 399.957031 155.207031 400.558594 155.839844 401.1875 C 156.472656 401.820312 157.070312 402.480469 157.636719 403.171875 C 158.203125 403.863281 158.734375 404.582031 159.230469 405.324219 C 159.730469 406.066406 160.1875 406.832031 160.609375 407.621094 C 161.03125 408.40625 161.410156 409.214844 161.753906 410.039062 C 162.09375 410.863281 162.394531 411.707031 162.65625 412.558594 C 162.914062 413.414062 163.128906 414.28125 163.304688 415.15625 C 163.480469 416.035156 163.609375 416.917969 163.699219 417.804688 C 163.785156 418.695312 163.828125 419.585938 163.828125 420.480469 Z M 163.828125 420.480469"/><path fill="#F4F6FC" d="M 735.410156 341.382812 C 735.410156 342.273438 735.363281 343.167969 735.277344 344.054688 C 735.191406 344.945312 735.058594 345.828125 734.882812 346.703125 C 734.710938 347.578125 734.492188 348.445312 734.234375 349.300781 C 733.976562 350.15625 733.675781 350.996094 733.332031 351.820312 C 732.992188 352.648438 732.609375 353.453125 732.1875 354.242188 C 731.765625 355.027344 731.308594 355.792969 730.8125 356.539062 C 730.316406 357.28125 729.785156 357.996094 729.21875 358.6875 C 728.648438 359.378906 728.050781 360.039062 727.417969 360.671875 C 726.789062 361.304688 726.125 361.902344 725.4375 362.46875 C 724.746094 363.035156 724.027344 363.566406 723.285156 364.0625 C 722.542969 364.5625 721.777344 365.019531 720.988281 365.441406 C 720.203125 365.863281 719.394531 366.242188 718.570312 366.585938 C 717.746094 366.925781 716.90625 367.226562 716.050781 367.488281 C 715.195312 367.746094 714.328125 367.964844 713.453125 368.136719 C 712.578125 368.3125 711.695312 368.441406 710.804688 368.53125 C 709.917969 368.617188 709.027344 368.660156 708.132812 368.660156 C 707.238281 368.660156 706.347656 368.617188 705.457031 368.53125 C 704.570312 368.441406 703.6875 368.3125 702.8125 368.136719 C 701.933594 367.964844 701.070312 367.746094 700.214844 367.488281 C 699.359375 367.226562 698.519531 366.925781 697.695312 366.585938 C 696.867188 366.242188 696.0625 365.863281 695.273438 365.441406 C 694.488281 365.019531 693.722656 364.5625 692.980469 364.0625 C 692.234375 363.566406 691.519531 363.035156 690.828125 362.46875 C 690.136719 361.902344 689.476562 361.304688 688.84375 360.671875 C 688.214844 360.039062 687.613281 359.378906 687.046875 358.6875 C 686.480469 357.996094 685.949219 357.28125 685.453125 356.539062 C 684.957031 355.792969 684.5 355.027344 684.078125 354.242188 C 683.65625 353.453125 683.273438 352.648438 682.933594 351.820312 C 682.589844 350.996094 682.289062 350.15625 682.03125 349.300781 C 681.769531 348.445312 681.554688 347.578125 681.378906 346.703125 C 681.207031 345.828125 681.074219 344.945312 680.988281 344.054688 C 680.898438 343.167969 680.855469 342.273438 680.855469 341.382812 C 680.855469 340.488281 680.898438 339.597656 680.988281 338.707031 C 681.074219 337.816406 681.207031 336.9375 681.378906 336.058594 C 681.554688 335.183594 681.769531 334.316406 682.03125 333.460938 C 682.289062 332.605469 682.589844 331.765625 682.933594 330.941406 C 683.273438 330.117188 683.65625 329.308594 684.078125 328.523438 C 684.5 327.734375 684.957031 326.96875 685.453125 326.226562 C 685.949219 325.480469 686.480469 324.765625 687.046875 324.074219 C 687.613281 323.382812 688.214844 322.722656 688.84375 322.089844 C 689.476562 321.460938 690.136719 320.859375 690.828125 320.292969 C 691.519531 319.726562 692.234375 319.195312 692.980469 318.699219 C 693.722656 318.203125 694.488281 317.742188 695.273438 317.320312 C 696.0625 316.902344 696.867188 316.519531 697.695312 316.175781 C 698.519531 315.835938 699.359375 315.535156 700.214844 315.277344 C 701.070312 315.015625 701.933594 314.800781 702.8125 314.625 C 703.6875 314.449219 704.570312 314.320312 705.457031 314.230469 C 706.347656 314.144531 707.238281 314.101562 708.132812 314.101562 C 709.027344 314.101562 709.917969 314.144531 710.804688 314.230469 C 711.695312 314.320312 712.578125 314.449219 713.453125 314.625 C 714.328125 314.800781 715.195312 315.015625 716.050781 315.277344 C 716.90625 315.535156 717.746094 315.835938 718.570312 316.175781 C 719.394531 316.519531 720.203125 316.902344 720.992188 317.320312 C 721.777344 317.742188 722.542969 318.203125 723.285156 318.699219 C 724.027344 319.195312 724.746094 319.726562 725.4375 320.292969 C 726.125 320.859375 726.789062 321.460938 727.417969 322.089844 C 728.050781 322.722656 728.648438 323.382812 729.21875 324.074219 C 729.785156 324.765625 730.316406 325.480469 730.8125 326.226562 C 731.308594 326.96875 731.765625 327.734375 732.1875 328.523438 C 732.609375 329.308594 732.992188 330.117188 733.332031 330.941406 C 733.675781 331.765625 733.976562 332.605469 734.234375 333.460938 C 734.492188 334.316406 734.710938 335.183594 734.882812 336.058594 C 735.058594 336.9375 735.191406 337.816406 735.277344 338.707031 C 735.363281 339.597656 735.410156 340.488281 735.410156 341.382812 Z M 735.410156 341.382812"/></svg>